<?xml version="1.0" encoding="us-ascii" standalone="no"?><svg xmlns="http://www.w3.org/2000/svg" xmlns:xlink="http://www.w3.org/1999/xlink" contentStyleType="text/css" height="2470px" preserveAspectRatio="none" style="width:2323px;height:2470px;background:#FFFFFF;" version="1.1" viewBox="0 0 2323 2470" width="2323px" zoomAndPan="magnify"><defs/><g><text fill="#000000" font-family="sans-serif" font-size="14" font-weight="bold" lengthAdjust="spacing" textLength="102" x="1103.5" y="22.9951">abci&#25509;&#21475;&#30340;&#31867;&#22270;</text><!--cluster tendermint--><g id="cluster_tendermint"><path d="M8.5,43.2969 L96.5,43.2969 A3.75,3.75 0 0 1 99,45.7969 L106,65.5938 L2313.5,65.5938 A2.5,2.5 0 0 1 2316,68.0938 L2316,1938.7969 A2.5,2.5 0 0 1 2313.5,1941.2969 L8.5,1941.2969 A2.5,2.5 0 0 1 6,1938.7969 L6,45.7969 A2.5,2.5 0 0 1 8.5,43.2969 " fill="none" style="stroke:#000000;stroke-width:1.5;"/><line style="stroke:#000000;stroke-width:1.5;" x1="6" x2="106" y1="65.5938" y2="65.5938"/><text fill="#000000" font-family="sans-serif" font-size="14" font-weight="bold" lengthAdjust="spacing" textLength="87" x="10" y="58.292">tendermint</text></g><!--cluster libs--><g id="cluster_libs"><path d="M1217.5,86.2969 L1245.5,86.2969 A3.75,3.75 0 0 1 1248,88.7969 L1255,108.5938 L1746.5,108.5938 A2.5,2.5 0 0 1 1749,111.0938 L1749,282.7969 A2.5,2.5 0 0 1 1746.5,285.2969 L1217.5,285.2969 A2.5,2.5 0 0 1 1215,282.7969 L1215,88.7969 A2.5,2.5 0 0 1 1217.5,86.2969 " fill="none" style="stroke:#000000;stroke-width:1.5;"/><line style="stroke:#000000;stroke-width:1.5;" x1="1215" x2="1255" y1="108.5938" y2="108.5938"/><text fill="#000000" font-family="sans-serif" font-size="14" font-weight="bold" lengthAdjust="spacing" textLength="27" x="1219" y="101.292">libs</text></g><!--cluster service--><g id="cluster_service"><path d="M1241.5,129.2969 L1300.5,129.2969 A3.75,3.75 0 0 1 1303,131.7969 L1310,151.5938 L1722.5,151.5938 A2.5,2.5 0 0 1 1725,154.0938 L1725,258.7969 A2.5,2.5 0 0 1 1722.5,261.2969 L1241.5,261.2969 A2.5,2.5 0 0 1 1239,258.7969 L1239,131.7969 A2.5,2.5 0 0 1 1241.5,129.2969 " fill="none" style="stroke:#000000;stroke-width:1.5;"/><line style="stroke:#000000;stroke-width:1.5;" x1="1239" x2="1310" y1="151.5938" y2="151.5938"/><text fill="#000000" font-family="sans-serif" font-size="14" font-weight="bold" lengthAdjust="spacing" textLength="58" x="1243" y="144.292">service</text></g><!--cluster abci--><g id="cluster_abci"><path d="M760.5,1613.2969 L793.5,1613.2969 A3.75,3.75 0 0 1 796,1615.7969 L803,1635.5938 L1712.5,1635.5938 A2.5,2.5 0 0 1 1715,1638.0938 L1715,1914.7969 A2.5,2.5 0 0 1 1712.5,1917.2969 L760.5,1917.2969 A2.5,2.5 0 0 1 758,1914.7969 L758,1615.7969 A2.5,2.5 0 0 1 760.5,1613.2969 " fill="none" style="stroke:#000000;stroke-width:1.5;"/><line style="stroke:#000000;stroke-width:1.5;" x1="758" x2="803" y1="1635.5938" y2="1635.5938"/><text fill="#000000" font-family="sans-serif" font-size="14" font-weight="bold" lengthAdjust="spacing" textLength="32" x="762" y="1628.292">abci</text></g><!--cluster abcicli--><g id="cluster_abcicli"><path d="M1163.5,1656.2969 L1213.5,1656.2969 A3.75,3.75 0 0 1 1216,1658.7969 L1223,1678.5938 L1688.5,1678.5938 A2.5,2.5 0 0 1 1691,1681.0938 L1691,1890.7969 A2.5,2.5 0 0 1 1688.5,1893.2969 L1163.5,1893.2969 A2.5,2.5 0 0 1 1161,1890.7969 L1161,1658.7969 A2.5,2.5 0 0 1 1163.5,1656.2969 " fill="none" style="stroke:#000000;stroke-width:1.5;"/><line style="stroke:#000000;stroke-width:1.5;" x1="1161" x2="1223" y1="1678.5938" y2="1678.5938"/><text fill="#000000" font-family="sans-serif" font-size="14" font-weight="bold" lengthAdjust="spacing" textLength="49" x="1165" y="1671.292">abcicli</text></g><!--cluster types--><g id="cluster_types"><path d="M784.5,1786.2969 L829.5,1786.2969 A3.75,3.75 0 0 1 832,1788.7969 L839,1808.5938 L1134.5,1808.5938 A2.5,2.5 0 0 1 1137,1811.0938 L1137,1882.7969 A2.5,2.5 0 0 1 1134.5,1885.2969 L784.5,1885.2969 A2.5,2.5 0 0 1 782,1882.7969 L782,1788.7969 A2.5,2.5 0 0 1 784.5,1786.2969 " fill="none" style="stroke:#000000;stroke-width:1.5;"/><line style="stroke:#000000;stroke-width:1.5;" x1="782" x2="839" y1="1808.5938" y2="1808.5938"/><text fill="#000000" font-family="sans-serif" font-size="14" font-weight="bold" lengthAdjust="spacing" textLength="44" x="786" y="1801.292">types</text></g><!--cluster proxy--><g id="cluster_proxy"><path d="M1077.5,550.2969 L1123.5,550.2969 A3.75,3.75 0 0 1 1126,552.7969 L1133,572.5938 L2289.5,572.5938 A2.5,2.5 0 0 1 2292,575.0938 L2292,1453.7969 A2.5,2.5 0 0 1 2289.5,1456.2969 L1077.5,1456.2969 A2.5,2.5 0 0 1 1075,1453.7969 L1075,552.7969 A2.5,2.5 0 0 1 1077.5,550.2969 " fill="none" style="stroke:#000000;stroke-width:1.5;"/><line style="stroke:#000000;stroke-width:1.5;" x1="1075" x2="1133" y1="572.5938" y2="572.5938"/><text fill="#000000" font-family="sans-serif" font-size="14" font-weight="bold" lengthAdjust="spacing" textLength="45" x="1079" y="565.292">proxy</text></g><!--cluster state--><g id="cluster_state"><path d="M757.5,873.7969 L798.5,873.7969 A3.75,3.75 0 0 1 801,876.2969 L808,896.0938 L1048.5,896.0938 A2.5,2.5 0 0 1 1051,898.5938 L1051,986.2969 A2.5,2.5 0 0 1 1048.5,988.7969 L757.5,988.7969 A2.5,2.5 0 0 1 755,986.2969 L755,876.2969 A2.5,2.5 0 0 1 757.5,873.7969 " fill="none" style="stroke:#000000;stroke-width:1.5;"/><line style="stroke:#000000;stroke-width:1.5;" x1="755" x2="808" y1="896.0938" y2="896.0938"/><text fill="#000000" font-family="sans-serif" font-size="14" font-weight="bold" lengthAdjust="spacing" textLength="40" x="759" y="888.792">state</text></g><!--cluster consensus--><g id="cluster_consensus"><path d="M780.5,594.7969 L867.5,594.7969 A3.75,3.75 0 0 1 870,597.2969 L877,617.0938 L1025.5,617.0938 A2.5,2.5 0 0 1 1028,619.5938 L1028,724.2969 A2.5,2.5 0 0 1 1025.5,726.7969 L780.5,726.7969 A2.5,2.5 0 0 1 778,724.2969 L778,597.2969 A2.5,2.5 0 0 1 780.5,594.7969 " fill="none" style="stroke:#000000;stroke-width:1.5;"/><line style="stroke:#000000;stroke-width:1.5;" x1="778" x2="877" y1="617.0938" y2="617.0938"/><text fill="#000000" font-family="sans-serif" font-size="14" font-weight="bold" lengthAdjust="spacing" textLength="86" x="782" y="609.792">consensus</text></g><!--cluster mempool--><g id="cluster_mempool"><path d="M139.5,318.2969 L212.5,318.2969 A3.75,3.75 0 0 1 215,320.7969 L222,340.5938 L500.5,340.5938 A2.5,2.5 0 0 1 503,343.0938 L503,514.7969 A2.5,2.5 0 0 1 500.5,517.2969 L139.5,517.2969 A2.5,2.5 0 0 1 137,514.7969 L137,320.7969 A2.5,2.5 0 0 1 139.5,318.2969 " fill="none" style="stroke:#000000;stroke-width:1.5;"/><line style="stroke:#000000;stroke-width:1.5;" x1="137" x2="222" y1="340.5938" y2="340.5938"/><text fill="#000000" font-family="sans-serif" font-size="14" font-weight="bold" lengthAdjust="spacing" textLength="72" x="141" y="333.292">mempool</text></g><!--cluster v0--><g id="cluster_v0"><path d="M163.5,361.2969 L183.5,361.2969 A3.75,3.75 0 0 1 186,363.7969 L193,383.5938 L476.5,383.5938 A2.5,2.5 0 0 1 479,386.0938 L479,490.7969 A2.5,2.5 0 0 1 476.5,493.2969 L163.5,493.2969 A2.5,2.5 0 0 1 161,490.7969 L161,363.7969 A2.5,2.5 0 0 1 163.5,361.2969 " fill="none" style="stroke:#000000;stroke-width:1.5;"/><line style="stroke:#000000;stroke-width:1.5;" x1="161" x2="193" y1="383.5938" y2="383.5938"/><text fill="#000000" font-family="sans-serif" font-size="14" font-weight="bold" lengthAdjust="spacing" textLength="19" x="165" y="376.292">v0</text></g><!--cluster rpc--><g id="cluster_rpc"><path d="M339.5,802.2969 L366.5,802.2969 A3.75,3.75 0 0 1 369,804.7969 L376,824.5938 L728.5,824.5938 A2.5,2.5 0 0 1 731,827.0938 L731,1038.7969 A2.5,2.5 0 0 1 728.5,1041.2969 L339.5,1041.2969 A2.5,2.5 0 0 1 337,1038.7969 L337,804.7969 A2.5,2.5 0 0 1 339.5,802.2969 " fill="none" style="stroke:#000000;stroke-width:1.5;"/><line style="stroke:#000000;stroke-width:1.5;" x1="337" x2="376" y1="824.5938" y2="824.5938"/><text fill="#000000" font-family="sans-serif" font-size="14" font-weight="bold" lengthAdjust="spacing" textLength="26" x="341" y="817.292">rpc</text></g><!--cluster core--><g id="cluster_core"><path d="M363.5,845.2969 L400.5,845.2969 A3.75,3.75 0 0 1 403,847.7969 L410,867.5938 L704.5,867.5938 A2.5,2.5 0 0 1 707,870.0938 L707,1014.7969 A2.5,2.5 0 0 1 704.5,1017.2969 L363.5,1017.2969 A2.5,2.5 0 0 1 361,1014.7969 L361,847.7969 A2.5,2.5 0 0 1 363.5,845.2969 " fill="none" style="stroke:#000000;stroke-width:1.5;"/><line style="stroke:#000000;stroke-width:1.5;" x1="361" x2="410" y1="867.5938" y2="867.5938"/><text fill="#000000" font-family="sans-serif" font-size="14" font-weight="bold" lengthAdjust="spacing" textLength="36" x="365" y="860.292">core</text></g><!--cluster statesync--><g id="cluster_statesync"><path d="M32.5,853.2969 L110.5,853.2969 A3.75,3.75 0 0 1 113,855.7969 L120,875.5938 L297.5,875.5938 A2.5,2.5 0 0 1 300,878.0938 L300,1006.7969 A2.5,2.5 0 0 1 297.5,1009.2969 L32.5,1009.2969 A2.5,2.5 0 0 1 30,1006.7969 L30,855.7969 A2.5,2.5 0 0 1 32.5,853.2969 " fill="none" style="stroke:#000000;stroke-width:1.5;"/><line style="stroke:#000000;stroke-width:1.5;" x1="30" x2="120" y1="875.5938" y2="875.5938"/><text fill="#000000" font-family="sans-serif" font-size="14" font-weight="bold" lengthAdjust="spacing" textLength="77" x="34" y="868.292">statesync</text></g><!--cluster cosmossdk--><g id="cluster_cosmossdk"><path d="M982.5,2098.2969 L1072.5,2098.2969 A3.75,3.75 0 0 1 1075,2100.7969 L1082,2120.5938 L1151.5,2120.5938 A2.5,2.5 0 0 1 1154,2123.0938 L1154,2261.7969 A2.5,2.5 0 0 1 1151.5,2264.2969 L982.5,2264.2969 A2.5,2.5 0 0 1 980,2261.7969 L980,2100.7969 A2.5,2.5 0 0 1 982.5,2098.2969 " fill="none" style="stroke:#000000;stroke-width:1.5;"/><line style="stroke:#000000;stroke-width:1.5;" x1="980" x2="1082" y1="2120.5938" y2="2120.5938"/><text fill="#000000" font-family="sans-serif" font-size="14" font-weight="bold" lengthAdjust="spacing" textLength="89" x="984" y="2113.292">cosmossdk</text></g><!--cluster baseapp--><g id="cluster_baseapp"><path d="M1006.5,2141.2969 L1074.5,2141.2969 A3.75,3.75 0 0 1 1077,2143.7969 L1084,2163.5938 L1127.5,2163.5938 A2.5,2.5 0 0 1 1130,2166.0938 L1130,2237.7969 A2.5,2.5 0 0 1 1127.5,2240.2969 L1006.5,2240.2969 A2.5,2.5 0 0 1 1004,2237.7969 L1004,2143.7969 A2.5,2.5 0 0 1 1006.5,2141.2969 " fill="none" style="stroke:#000000;stroke-width:1.5;"/><line style="stroke:#000000;stroke-width:1.5;" x1="1004" x2="1084" y1="2163.5938" y2="2163.5938"/><text fill="#000000" font-family="sans-serif" font-size="14" font-weight="bold" lengthAdjust="spacing" textLength="67" x="1008" y="2156.292">baseapp</text></g><!--cluster ethermint--><g id="cluster_ethermint"><path d="M966.5,2297.2969 L1044.5,2297.2969 A3.75,3.75 0 0 1 1047,2299.7969 L1054,2319.5938 L1167.5,2319.5938 A2.5,2.5 0 0 1 1170,2322.0938 L1170,2460.7969 A2.5,2.5 0 0 1 1167.5,2463.2969 L966.5,2463.2969 A2.5,2.5 0 0 1 964,2460.7969 L964,2299.7969 A2.5,2.5 0 0 1 966.5,2297.2969 " fill="none" style="stroke:#000000;stroke-width:1.5;"/><line style="stroke:#000000;stroke-width:1.5;" x1="964" x2="1054" y1="2319.5938" y2="2319.5938"/><text fill="#000000" font-family="sans-serif" font-size="14" font-weight="bold" lengthAdjust="spacing" textLength="77" x="968" y="2312.292">ethermint</text></g><!--cluster app--><g id="cluster_app"><path d="M990.5,2340.2969 L1020.5,2340.2969 A3.75,3.75 0 0 1 1023,2342.7969 L1030,2362.5938 L1143.5,2362.5938 A2.5,2.5 0 0 1 1146,2365.0938 L1146,2436.7969 A2.5,2.5 0 0 1 1143.5,2439.2969 L990.5,2439.2969 A2.5,2.5 0 0 1 988,2436.7969 L988,2342.7969 A2.5,2.5 0 0 1 990.5,2340.2969 " fill="none" style="stroke:#000000;stroke-width:1.5;"/><line style="stroke:#000000;stroke-width:1.5;" x1="988" x2="1030" y1="2362.5938" y2="2362.5938"/><text fill="#000000" font-family="sans-serif" font-size="14" font-weight="bold" lengthAdjust="spacing" textLength="29" x="992" y="2355.292">app</text></g><!--class Service--><g id="elem_Service"><rect codeLine="8" fill="#F1F1F1" height="80.5938" id="Service" rx="2.5" ry="2.5" style="stroke:#181818;stroke-width:0.5;" width="105" x="1255.5" y="164.2969"/><ellipse cx="1280.4" cy="180.2969" fill="#B4A7E5" rx="11" ry="11" style="stroke:#181818;stroke-width:1.0;"/><path d="M1276.3219,176.0625 L1276.3219,173.9063 L1283.7125,173.9063 L1283.7125,176.0625 L1281.2438,176.0625 L1281.2438,184.1406 L1283.7125,184.1406 L1283.7125,186.2969 L1276.3219,186.2969 L1276.3219,184.1406 L1278.7906,184.1406 L1278.7906,176.0625 L1276.3219,176.0625 Z " fill="#000000"/><text fill="#000000" font-family="sans-serif" font-size="14" font-style="italic" lengthAdjust="spacing" textLength="51" x="1296.6" y="185.1436">Service</text><line style="stroke:#181818;stroke-width:0.5;" x1="1256.5" x2="1359.5" y1="196.2969" y2="196.2969"/><line style="stroke:#181818;stroke-width:0.5;" x1="1256.5" x2="1359.5" y1="204.2969" y2="204.2969"/><ellipse cx="1266.5" cy="217.9453" fill="#84BE84" rx="3" ry="3" style="stroke:#038048;stroke-width:1.0;"/><text fill="#000000" font-family="sans-serif" font-size="14" lengthAdjust="spacing" textLength="79" x="1275.5" y="221.292">Start() error</text><ellipse cx="1266.5" cy="234.2422" fill="#84BE84" rx="3" ry="3" style="stroke:#038048;stroke-width:1.0;"/><text fill="#000000" font-family="sans-serif" font-size="14" lengthAdjust="spacing" textLength="79" x="1275.5" y="237.5889">Stop() error</text></g><g id="elem_GMN6"><path d="M1396,192.2969 L1396,200.7969 L1360.83,204.7969 L1396,208.7969 L1396,217.4297 A0,0 0 0 0 1396,217.4297 L1556,217.4297 A0,0 0 0 0 1556,217.4297 L1556,202.2969 L1546,192.2969 L1396,192.2969 A0,0 0 0 0 1396,192.2969 " fill="#FEFFDD" style="stroke:#181818;stroke-width:0.5;"/><path d="M1546,192.2969 L1546,202.2969 L1556,202.2969 L1546,192.2969 " fill="#FEFFDD" style="stroke:#181818;stroke-width:0.5;"/><text fill="#000000" font-family="sans-serif" font-size="13" lengthAdjust="spacing" textLength="139" x="1402" y="209.3638">libs/service/service.go</text></g><!--class BaseService--><g id="elem_BaseService"><rect codeLine="16" fill="#F1F1F1" height="64.2969" id="BaseService" rx="2.5" ry="2.5" style="stroke:#181818;stroke-width:0.5;" width="117" x="1591.5" y="172.7969"/><ellipse cx="1606.5" cy="188.7969" fill="#F1F1F1" rx="11" ry="11" style="stroke:#181818;stroke-width:1.0;"/><path d="M1605.9844,189.3594 Q1604.125,188.6563 1603.4688,187.8906 Q1602.8281,187.1094 1602.8281,185.7969 Q1602.8281,184.1094 1603.9063,183.1406 Q1604.9844,182.1719 1606.8594,182.1719 Q1607.7188,182.1719 1608.5625,182.375 Q1609.4219,182.5625 1610.2656,182.9531 L1610.2656,185.3438 Q1609.4844,184.7813 1608.6563,184.5 Q1607.8438,184.2031 1607.0469,184.2031 Q1606.1719,184.2031 1605.6875,184.5625 Q1605.2188,184.9219 1605.2188,185.5781 Q1605.2188,186.0938 1605.5625,186.4375 Q1605.9063,186.7656 1607,187.1719 L1608.0625,187.5781 Q1609.5469,188.125 1610.25,189.0313 Q1610.9688,189.9375 1610.9688,191.3125 Q1610.9688,193.1875 1609.8594,194.1094 Q1608.75,195.0313 1606.5,195.0313 Q1605.5781,195.0313 1604.6563,194.8125 Q1603.7344,194.5938 1602.875,194.1719 L1602.875,191.6406 Q1603.8438,192.3281 1604.7656,192.6719 Q1605.6875,193.0156 1606.5781,193.0156 Q1607.4844,193.0156 1607.9844,192.6094 Q1608.4844,192.1875 1608.4844,191.4531 Q1608.4844,190.8906 1608.1406,190.4844 Q1607.8125,190.0625 1607.1875,189.8125 L1605.9844,189.3594 Z " fill="#000000"/><text fill="#000000" font-family="sans-serif" font-size="14" lengthAdjust="spacing" textLength="85" x="1620.5" y="193.6436">BaseService</text><line style="stroke:#181818;stroke-width:0.5;" x1="1592.5" x2="1707.5" y1="204.7969" y2="204.7969"/><text fill="#000000" font-family="sans-serif" font-size="14" lengthAdjust="spacing" textLength="82" x="1597.5" y="221.792">impl Service</text><line style="stroke:#181818;stroke-width:0.5;" x1="1592.5" x2="1707.5" y1="229.0938" y2="229.0938"/></g><!--class Client--><g id="elem_Client"><rect codeLine="23" fill="#F1F1F1" height="48" id="Client" rx="2.5" ry="2.5" style="stroke:#181818;stroke-width:0.5;" width="71" x="1435.5" y="1691.2969"/><ellipse cx="1450.5" cy="1707.2969" fill="#B4A7E5" rx="11" ry="11" style="stroke:#181818;stroke-width:1.0;"/><path d="M1446.4219,1703.0625 L1446.4219,1700.9063 L1453.8125,1700.9063 L1453.8125,1703.0625 L1451.3438,1703.0625 L1451.3438,1711.1406 L1453.8125,1711.1406 L1453.8125,1713.2969 L1446.4219,1713.2969 L1446.4219,1711.1406 L1448.8906,1711.1406 L1448.8906,1703.0625 L1446.4219,1703.0625 Z " fill="#000000"/><text fill="#000000" font-family="sans-serif" font-size="14" font-style="italic" lengthAdjust="spacing" textLength="39" x="1464.5" y="1712.1436">Client</text><line style="stroke:#181818;stroke-width:0.5;" x1="1436.5" x2="1505.5" y1="1723.2969" y2="1723.2969"/><line style="stroke:#181818;stroke-width:0.5;" x1="1436.5" x2="1505.5" y1="1731.2969" y2="1731.2969"/></g><g id="elem_GMN13"><path d="M1257.5,1702.7969 L1257.5,1727.9297 A0,0 0 0 0 1257.5,1727.9297 L1400.5,1727.9297 A0,0 0 0 0 1400.5,1727.9297 L1400.5,1720.7969 L1435.09,1715.2969 L1400.5,1712.7969 L1400.5,1712.7969 L1390.5,1702.7969 L1257.5,1702.7969 A0,0 0 0 0 1257.5,1702.7969 " fill="#FEFFDD" style="stroke:#181818;stroke-width:0.5;"/><path d="M1390.5,1702.7969 L1390.5,1712.7969 L1400.5,1712.7969 L1390.5,1702.7969 " fill="#FEFFDD" style="stroke:#181818;stroke-width:0.5;"/><text fill="#000000" font-family="sans-serif" font-size="13" lengthAdjust="spacing" textLength="122" x="1263.5" y="1719.8638">abci/client/client.go</text></g><!--class localClient--><g id="elem_localClient"><rect codeLine="30" fill="#FF69B4" height="64.2969" id="localClient" rx="2.5" ry="2.5" style="stroke:#181818;stroke-width:0.5;" width="208" x="1177" y="1813.2969"/><ellipse cx="1241.75" cy="1829.2969" fill="#F1F1F1" rx="11" ry="11" style="stroke:#181818;stroke-width:1.0;"/><path d="M1241.2344,1829.8594 Q1239.375,1829.1563 1238.7188,1828.3906 Q1238.0781,1827.6094 1238.0781,1826.2969 Q1238.0781,1824.6094 1239.1563,1823.6406 Q1240.2344,1822.6719 1242.1094,1822.6719 Q1242.9688,1822.6719 1243.8125,1822.875 Q1244.6719,1823.0625 1245.5156,1823.4531 L1245.5156,1825.8438 Q1244.7344,1825.2813 1243.9063,1825 Q1243.0938,1824.7031 1242.2969,1824.7031 Q1241.4219,1824.7031 1240.9375,1825.0625 Q1240.4688,1825.4219 1240.4688,1826.0781 Q1240.4688,1826.5938 1240.8125,1826.9375 Q1241.1563,1827.2656 1242.25,1827.6719 L1243.3125,1828.0781 Q1244.7969,1828.625 1245.5,1829.5313 Q1246.2188,1830.4375 1246.2188,1831.8125 Q1246.2188,1833.6875 1245.1094,1834.6094 Q1244,1835.5313 1241.75,1835.5313 Q1240.8281,1835.5313 1239.9063,1835.3125 Q1238.9844,1835.0938 1238.125,1834.6719 L1238.125,1832.1406 Q1239.0938,1832.8281 1240.0156,1833.1719 Q1240.9375,1833.5156 1241.8281,1833.5156 Q1242.7344,1833.5156 1243.2344,1833.1094 Q1243.7344,1832.6875 1243.7344,1831.9531 Q1243.7344,1831.3906 1243.3906,1830.9844 Q1243.0625,1830.5625 1242.4375,1830.3125 L1241.2344,1829.8594 Z " fill="#000000"/><text fill="#000000" font-family="sans-serif" font-size="14" lengthAdjust="spacing" textLength="70" x="1262.25" y="1834.1436">localClient</text><line style="stroke:#181818;stroke-width:0.5;" x1="1178" x2="1384" y1="1845.2969" y2="1845.2969"/><text fill="#000000" font-family="sans-serif" font-size="14" lengthAdjust="spacing" textLength="196" x="1183" y="1862.292">Application types.Application</text><line style="stroke:#181818;stroke-width:0.5;" x1="1178" x2="1384" y1="1869.5938" y2="1869.5938"/></g><!--class grpcClient--><g id="elem_grpcClient"><rect codeLine="35" fill="#F1F1F1" height="48" id="grpcClient" rx="2.5" ry="2.5" style="stroke:#181818;stroke-width:0.5;" width="102" x="1420" y="1821.2969"/><ellipse cx="1435" cy="1837.2969" fill="#F1F1F1" rx="11" ry="11" style="stroke:#181818;stroke-width:1.0;"/><path d="M1434.4844,1837.8594 Q1432.625,1837.1563 1431.9688,1836.3906 Q1431.3281,1835.6094 1431.3281,1834.2969 Q1431.3281,1832.6094 1432.4063,1831.6406 Q1433.4844,1830.6719 1435.3594,1830.6719 Q1436.2188,1830.6719 1437.0625,1830.875 Q1437.9219,1831.0625 1438.7656,1831.4531 L1438.7656,1833.8438 Q1437.9844,1833.2813 1437.1563,1833 Q1436.3438,1832.7031 1435.5469,1832.7031 Q1434.6719,1832.7031 1434.1875,1833.0625 Q1433.7188,1833.4219 1433.7188,1834.0781 Q1433.7188,1834.5938 1434.0625,1834.9375 Q1434.4063,1835.2656 1435.5,1835.6719 L1436.5625,1836.0781 Q1438.0469,1836.625 1438.75,1837.5313 Q1439.4688,1838.4375 1439.4688,1839.8125 Q1439.4688,1841.6875 1438.3594,1842.6094 Q1437.25,1843.5313 1435,1843.5313 Q1434.0781,1843.5313 1433.1563,1843.3125 Q1432.2344,1843.0938 1431.375,1842.6719 L1431.375,1840.1406 Q1432.3438,1840.8281 1433.2656,1841.1719 Q1434.1875,1841.5156 1435.0781,1841.5156 Q1435.9844,1841.5156 1436.4844,1841.1094 Q1436.9844,1840.6875 1436.9844,1839.9531 Q1436.9844,1839.3906 1436.6406,1838.9844 Q1436.3125,1838.5625 1435.6875,1838.3125 L1434.4844,1837.8594 Z " fill="#000000"/><text fill="#000000" font-family="sans-serif" font-size="14" lengthAdjust="spacing" textLength="70" x="1449" y="1842.1436">grpcClient</text><line style="stroke:#181818;stroke-width:0.5;" x1="1421" x2="1521" y1="1853.2969" y2="1853.2969"/><line style="stroke:#181818;stroke-width:0.5;" x1="1421" x2="1521" y1="1861.2969" y2="1861.2969"/></g><!--class socketClient--><g id="elem_socketClient"><rect codeLine="40" fill="#F1F1F1" height="48" id="socketClient" rx="2.5" ry="2.5" style="stroke:#181818;stroke-width:0.5;" width="118" x="1557" y="1821.2969"/><ellipse cx="1572" cy="1837.2969" fill="#F1F1F1" rx="11" ry="11" style="stroke:#181818;stroke-width:1.0;"/><path d="M1571.4844,1837.8594 Q1569.625,1837.1563 1568.9688,1836.3906 Q1568.3281,1835.6094 1568.3281,1834.2969 Q1568.3281,1832.6094 1569.4063,1831.6406 Q1570.4844,1830.6719 1572.3594,1830.6719 Q1573.2188,1830.6719 1574.0625,1830.875 Q1574.9219,1831.0625 1575.7656,1831.4531 L1575.7656,1833.8438 Q1574.9844,1833.2813 1574.1563,1833 Q1573.3438,1832.7031 1572.5469,1832.7031 Q1571.6719,1832.7031 1571.1875,1833.0625 Q1570.7188,1833.4219 1570.7188,1834.0781 Q1570.7188,1834.5938 1571.0625,1834.9375 Q1571.4063,1835.2656 1572.5,1835.6719 L1573.5625,1836.0781 Q1575.0469,1836.625 1575.75,1837.5313 Q1576.4688,1838.4375 1576.4688,1839.8125 Q1576.4688,1841.6875 1575.3594,1842.6094 Q1574.25,1843.5313 1572,1843.5313 Q1571.0781,1843.5313 1570.1563,1843.3125 Q1569.2344,1843.0938 1568.375,1842.6719 L1568.375,1840.1406 Q1569.3438,1840.8281 1570.2656,1841.1719 Q1571.1875,1841.5156 1572.0781,1841.5156 Q1572.9844,1841.5156 1573.4844,1841.1094 Q1573.9844,1840.6875 1573.9844,1839.9531 Q1573.9844,1839.3906 1573.6406,1838.9844 Q1573.3125,1838.5625 1572.6875,1838.3125 L1571.4844,1837.8594 Z " fill="#000000"/><text fill="#000000" font-family="sans-serif" font-size="14" lengthAdjust="spacing" textLength="86" x="1586" y="1842.1436">socketClient</text><line style="stroke:#181818;stroke-width:0.5;" x1="1558" x2="1674" y1="1853.2969" y2="1853.2969"/><line style="stroke:#181818;stroke-width:0.5;" x1="1558" x2="1674" y1="1861.2969" y2="1861.2969"/></g><!--class Application--><g id="elem_Application"><rect codeLine="48" fill="#FF69B4" height="48" id="Application" rx="2.5" ry="2.5" style="stroke:#181818;stroke-width:0.5;" width="108" x="1013" y="1821.2969"/><ellipse cx="1028" cy="1837.2969" fill="#B4A7E5" rx="11" ry="11" style="stroke:#181818;stroke-width:1.0;"/><path d="M1023.9219,1833.0625 L1023.9219,1830.9063 L1031.3125,1830.9063 L1031.3125,1833.0625 L1028.8438,1833.0625 L1028.8438,1841.1406 L1031.3125,1841.1406 L1031.3125,1843.2969 L1023.9219,1843.2969 L1023.9219,1841.1406 L1026.3906,1841.1406 L1026.3906,1833.0625 L1023.9219,1833.0625 Z " fill="#000000"/><text fill="#000000" font-family="sans-serif" font-size="14" font-style="italic" lengthAdjust="spacing" textLength="76" x="1042" y="1842.1436">Application</text><line style="stroke:#181818;stroke-width:0.5;" x1="1014" x2="1120" y1="1853.2969" y2="1853.2969"/><line style="stroke:#181818;stroke-width:0.5;" x1="1014" x2="1120" y1="1861.2969" y2="1861.2969"/></g><g id="elem_GMN24"><path d="M798.5,1832.7969 L798.5,1857.9297 A0,0 0 0 0 798.5,1857.9297 L977.5,1857.9297 A0,0 0 0 0 977.5,1857.9297 L977.5,1850.7969 L1012.67,1845.2969 L977.5,1842.7969 L977.5,1842.7969 L967.5,1832.7969 L798.5,1832.7969 A0,0 0 0 0 798.5,1832.7969 " fill="#FEFFDD" style="stroke:#181818;stroke-width:0.5;"/><path d="M967.5,1832.7969 L967.5,1842.7969 L977.5,1842.7969 L967.5,1832.7969 " fill="#FEFFDD" style="stroke:#181818;stroke-width:0.5;"/><text fill="#000000" font-family="sans-serif" font-size="13" lengthAdjust="spacing" textLength="158" x="804.5" y="1849.8638">abci/types/application.go</text></g><!--class AppConnConsensus--><g id="elem_AppConnConsensus"><rect codeLine="61" fill="#F1F1F1" height="177.7813" id="AppConnConsensus" rx="2.5" ry="2.5" style="stroke:#181818;stroke-width:0.5;" width="173" x="1689.5" y="1104.2969"/><ellipse cx="1704.5" cy="1120.2969" fill="#B4A7E5" rx="11" ry="11" style="stroke:#181818;stroke-width:1.0;"/><path d="M1700.4219,1116.0625 L1700.4219,1113.9063 L1707.8125,1113.9063 L1707.8125,1116.0625 L1705.3438,1116.0625 L1705.3438,1124.1406 L1707.8125,1124.1406 L1707.8125,1126.2969 L1700.4219,1126.2969 L1700.4219,1124.1406 L1702.8906,1124.1406 L1702.8906,1116.0625 L1700.4219,1116.0625 Z " fill="#000000"/><text fill="#000000" font-family="sans-serif" font-size="14" font-style="italic" lengthAdjust="spacing" textLength="141" x="1718.5" y="1125.1436">AppConnConsensus</text><line style="stroke:#181818;stroke-width:0.5;" x1="1690.5" x2="1861.5" y1="1136.2969" y2="1136.2969"/><text fill="#006400" font-family="sans-serif" font-size="14" lengthAdjust="spacing" textLength="70" x="1695.5" y="1153.292">&#20849;&#35782;&#23376;&#25509;&#21475;</text><line style="stroke:#181818;stroke-width:1.0;" x1="1690.5" x2="1861.5" y1="1160.5938" y2="1160.5938"/><line style="stroke:#181818;stroke-width:1.0;" x1="1690.5" x2="1861.5" y1="1162.5938" y2="1162.5938"/><text fill="#000000" font-family="sans-serif" font-size="14" lengthAdjust="spacing" textLength="92" x="1695.5" y="1177.5889">InitChainSync</text><line style="stroke:#181818;stroke-width:1.0;" x1="1690.5" x2="1861.5" y1="1184.8906" y2="1184.8906"/><text fill="#000000" font-family="sans-serif" font-size="14" lengthAdjust="spacing" textLength="111" x="1695.5" y="1201.8857">BeginBlockSync</text><line style="stroke:#181818;stroke-width:1.0;stroke-dasharray:1.0,2.0;" x1="1690.5" x2="1861.5" y1="1209.1875" y2="1209.1875"/><text fill="#000000" font-family="sans-serif" font-size="14" lengthAdjust="spacing" textLength="104" x="1695.5" y="1226.1826">DeliverTxAsync</text><line style="stroke:#181818;stroke-width:1.0;stroke-dasharray:1.0,2.0;" x1="1690.5" x2="1861.5" y1="1233.4844" y2="1233.4844"/><text fill="#000000" font-family="sans-serif" font-size="14" lengthAdjust="spacing" textLength="98" x="1695.5" y="1250.4795">EndBlockSync</text><line style="stroke:#181818;stroke-width:1.0;stroke-dasharray:1.0,2.0;" x1="1690.5" x2="1861.5" y1="1257.7813" y2="1257.7813"/><text fill="#000000" font-family="sans-serif" font-size="14" lengthAdjust="spacing" textLength="86" x="1695.5" y="1274.7764">CommitSync</text></g><!--class appConnConsensus--><g id="elem_appConnConsensus"><rect codeLine="74" fill="#F1F1F1" height="64.2969" id="appConnConsensus" rx="2.5" ry="2.5" style="stroke:#181818;stroke-width:0.5;" width="174" x="1688" y="1359.7969"/><ellipse cx="1703" cy="1375.7969" fill="#F1F1F1" rx="11" ry="11" style="stroke:#181818;stroke-width:1.0;"/><path d="M1702.4844,1376.3594 Q1700.625,1375.6563 1699.9688,1374.8906 Q1699.3281,1374.1094 1699.3281,1372.7969 Q1699.3281,1371.1094 1700.4063,1370.1406 Q1701.4844,1369.1719 1703.3594,1369.1719 Q1704.2188,1369.1719 1705.0625,1369.375 Q1705.9219,1369.5625 1706.7656,1369.9531 L1706.7656,1372.3438 Q1705.9844,1371.7813 1705.1563,1371.5 Q1704.3438,1371.2031 1703.5469,1371.2031 Q1702.6719,1371.2031 1702.1875,1371.5625 Q1701.7188,1371.9219 1701.7188,1372.5781 Q1701.7188,1373.0938 1702.0625,1373.4375 Q1702.4063,1373.7656 1703.5,1374.1719 L1704.5625,1374.5781 Q1706.0469,1375.125 1706.75,1376.0313 Q1707.4688,1376.9375 1707.4688,1378.3125 Q1707.4688,1380.1875 1706.3594,1381.1094 Q1705.25,1382.0313 1703,1382.0313 Q1702.0781,1382.0313 1701.1563,1381.8125 Q1700.2344,1381.5938 1699.375,1381.1719 L1699.375,1378.6406 Q1700.3438,1379.3281 1701.2656,1379.6719 Q1702.1875,1380.0156 1703.0781,1380.0156 Q1703.9844,1380.0156 1704.4844,1379.6094 Q1704.9844,1379.1875 1704.9844,1378.4531 Q1704.9844,1377.8906 1704.6406,1377.4844 Q1704.3125,1377.0625 1703.6875,1376.8125 L1702.4844,1376.3594 Z " fill="#000000"/><text fill="#000000" font-family="sans-serif" font-size="14" lengthAdjust="spacing" textLength="142" x="1717" y="1380.6436">appConnConsensus</text><line style="stroke:#181818;stroke-width:0.5;" x1="1689" x2="1861" y1="1391.7969" y2="1391.7969"/><text fill="#000000" font-family="sans-serif" font-size="14" lengthAdjust="spacing" textLength="152" x="1694" y="1408.792">appConn abcicli.Client</text><line style="stroke:#181818;stroke-width:0.5;" x1="1689" x2="1861" y1="1416.0938" y2="1416.0938"/></g><!--class AppConnMempool--><g id="elem_AppConnMempool"><rect codeLine="80" fill="#F1F1F1" height="153.4844" id="AppConnMempool" rx="2.5" ry="2.5" style="stroke:#181818;stroke-width:0.5;" width="161" x="1493.5" y="1116.7969"/><ellipse cx="1508.5" cy="1132.7969" fill="#B4A7E5" rx="11" ry="11" style="stroke:#181818;stroke-width:1.0;"/><path d="M1504.4219,1128.5625 L1504.4219,1126.4063 L1511.8125,1126.4063 L1511.8125,1128.5625 L1509.3438,1128.5625 L1509.3438,1136.6406 L1511.8125,1136.6406 L1511.8125,1138.7969 L1504.4219,1138.7969 L1504.4219,1136.6406 L1506.8906,1136.6406 L1506.8906,1128.5625 L1504.4219,1128.5625 Z " fill="#000000"/><text fill="#000000" font-family="sans-serif" font-size="14" font-style="italic" lengthAdjust="spacing" textLength="129" x="1522.5" y="1137.6436">AppConnMempool</text><line style="stroke:#181818;stroke-width:0.5;" x1="1494.5" x2="1653.5" y1="1148.7969" y2="1148.7969"/><text fill="#006400" font-family="sans-serif" font-size="14" lengthAdjust="spacing" textLength="84" x="1499.5" y="1165.792">&#20869;&#23384;&#27744;&#23376;&#25509;&#21475;</text><line style="stroke:#181818;stroke-width:1.0;" x1="1494.5" x2="1653.5" y1="1173.0938" y2="1173.0938"/><line style="stroke:#181818;stroke-width:1.0;" x1="1494.5" x2="1653.5" y1="1175.0938" y2="1175.0938"/><text fill="#000000" font-family="sans-serif" font-size="14" lengthAdjust="spacing" textLength="101" x="1499.5" y="1190.0889">CheckTxAsync</text><line style="stroke:#181818;stroke-width:1.0;stroke-dasharray:1.0,2.0;" x1="1494.5" x2="1653.5" y1="1197.3906" y2="1197.3906"/><text fill="#000000" font-family="sans-serif" font-size="14" lengthAdjust="spacing" textLength="93" x="1499.5" y="1214.3857">CheckTxSync</text><line style="stroke:#181818;stroke-width:1.0;" x1="1494.5" x2="1653.5" y1="1221.6875" y2="1221.6875"/><text fill="#000000" font-family="sans-serif" font-size="14" lengthAdjust="spacing" textLength="78" x="1499.5" y="1238.6826">FlushAsync</text><line style="stroke:#181818;stroke-width:1.0;stroke-dasharray:1.0,2.0;" x1="1494.5" x2="1653.5" y1="1245.9844" y2="1245.9844"/><text fill="#000000" font-family="sans-serif" font-size="14" lengthAdjust="spacing" textLength="70" x="1499.5" y="1262.9795">FlushSync</text></g><!--class appConnMempool--><g id="elem_appConnMempool"><rect codeLine="91" fill="#F1F1F1" height="64.2969" id="appConnMempool" rx="2.5" ry="2.5" style="stroke:#181818;stroke-width:0.5;" width="164" x="1489" y="1359.7969"/><ellipse cx="1506.25" cy="1375.7969" fill="#F1F1F1" rx="11" ry="11" style="stroke:#181818;stroke-width:1.0;"/><path d="M1505.7344,1376.3594 Q1503.875,1375.6563 1503.2188,1374.8906 Q1502.5781,1374.1094 1502.5781,1372.7969 Q1502.5781,1371.1094 1503.6563,1370.1406 Q1504.7344,1369.1719 1506.6094,1369.1719 Q1507.4688,1369.1719 1508.3125,1369.375 Q1509.1719,1369.5625 1510.0156,1369.9531 L1510.0156,1372.3438 Q1509.2344,1371.7813 1508.4063,1371.5 Q1507.5938,1371.2031 1506.7969,1371.2031 Q1505.9219,1371.2031 1505.4375,1371.5625 Q1504.9688,1371.9219 1504.9688,1372.5781 Q1504.9688,1373.0938 1505.3125,1373.4375 Q1505.6563,1373.7656 1506.75,1374.1719 L1507.8125,1374.5781 Q1509.2969,1375.125 1510,1376.0313 Q1510.7188,1376.9375 1510.7188,1378.3125 Q1510.7188,1380.1875 1509.6094,1381.1094 Q1508.5,1382.0313 1506.25,1382.0313 Q1505.3281,1382.0313 1504.4063,1381.8125 Q1503.4844,1381.5938 1502.625,1381.1719 L1502.625,1378.6406 Q1503.5938,1379.3281 1504.5156,1379.6719 Q1505.4375,1380.0156 1506.3281,1380.0156 Q1507.2344,1380.0156 1507.7344,1379.6094 Q1508.2344,1379.1875 1508.2344,1378.4531 Q1508.2344,1377.8906 1507.8906,1377.4844 Q1507.5625,1377.0625 1506.9375,1376.8125 L1505.7344,1376.3594 Z " fill="#000000"/><text fill="#000000" font-family="sans-serif" font-size="14" lengthAdjust="spacing" textLength="127" x="1520.75" y="1380.6436">appConnMempool</text><line style="stroke:#181818;stroke-width:0.5;" x1="1490" x2="1652" y1="1391.7969" y2="1391.7969"/><text fill="#000000" font-family="sans-serif" font-size="14" lengthAdjust="spacing" textLength="152" x="1495" y="1408.792">appConn abcicli.Client</text><line style="stroke:#181818;stroke-width:0.5;" x1="1490" x2="1652" y1="1416.0938" y2="1416.0938"/></g><!--class AppConnQuery--><g id="elem_AppConnQuery"><rect codeLine="96" fill="#F1F1F1" height="129.1875" id="AppConnQuery" rx="2.5" ry="2.5" style="stroke:#181818;stroke-width:0.5;" width="139" x="1091.5" y="1128.7969"/><ellipse cx="1106.5" cy="1144.7969" fill="#B4A7E5" rx="11" ry="11" style="stroke:#181818;stroke-width:1.0;"/><path d="M1102.4219,1140.5625 L1102.4219,1138.4063 L1109.8125,1138.4063 L1109.8125,1140.5625 L1107.3438,1140.5625 L1107.3438,1148.6406 L1109.8125,1148.6406 L1109.8125,1150.7969 L1102.4219,1150.7969 L1102.4219,1148.6406 L1104.8906,1148.6406 L1104.8906,1140.5625 L1102.4219,1140.5625 Z " fill="#000000"/><text fill="#000000" font-family="sans-serif" font-size="14" font-style="italic" lengthAdjust="spacing" textLength="107" x="1120.5" y="1149.6436">AppConnQuery</text><line style="stroke:#181818;stroke-width:0.5;" x1="1092.5" x2="1229.5" y1="1160.7969" y2="1160.7969"/><text fill="#006400" font-family="sans-serif" font-size="14" lengthAdjust="spacing" textLength="70" x="1097.5" y="1177.792">&#26597;&#35810;&#23376;&#25509;&#21475;</text><line style="stroke:#181818;stroke-width:1.0;" x1="1092.5" x2="1229.5" y1="1185.0938" y2="1185.0938"/><line style="stroke:#181818;stroke-width:1.0;" x1="1092.5" x2="1229.5" y1="1187.0938" y2="1187.0938"/><text fill="#000000" font-family="sans-serif" font-size="14" lengthAdjust="spacing" textLength="74" x="1097.5" y="1202.0889">QuerySync</text><line style="stroke:#181818;stroke-width:1.0;" x1="1092.5" x2="1229.5" y1="1209.3906" y2="1209.3906"/><text fill="#000000" font-family="sans-serif" font-size="14" lengthAdjust="spacing" textLength="58" x="1097.5" y="1226.3857">InfoSync</text><line style="stroke:#181818;stroke-width:1.0;" x1="1092.5" x2="1229.5" y1="1233.6875" y2="1233.6875"/><text fill="#000000" font-family="sans-serif" font-size="14" lengthAdjust="spacing" textLength="68" x="1097.5" y="1250.6826">EchoSync</text></g><!--class appConnQuery--><g id="elem_appConnQuery"><rect codeLine="105" fill="#F1F1F1" height="64.2969" id="appConnQuery" rx="2.5" ry="2.5" style="stroke:#181818;stroke-width:0.5;" width="164" x="1091" y="1359.7969"/><ellipse cx="1118.6" cy="1375.7969" fill="#F1F1F1" rx="11" ry="11" style="stroke:#181818;stroke-width:1.0;"/><path d="M1118.0844,1376.3594 Q1116.225,1375.6563 1115.5688,1374.8906 Q1114.9281,1374.1094 1114.9281,1372.7969 Q1114.9281,1371.1094 1116.0063,1370.1406 Q1117.0844,1369.1719 1118.9594,1369.1719 Q1119.8188,1369.1719 1120.6625,1369.375 Q1121.5219,1369.5625 1122.3656,1369.9531 L1122.3656,1372.3438 Q1121.5844,1371.7813 1120.7563,1371.5 Q1119.9438,1371.2031 1119.1469,1371.2031 Q1118.2719,1371.2031 1117.7875,1371.5625 Q1117.3188,1371.9219 1117.3188,1372.5781 Q1117.3188,1373.0938 1117.6625,1373.4375 Q1118.0063,1373.7656 1119.1,1374.1719 L1120.1625,1374.5781 Q1121.6469,1375.125 1122.35,1376.0313 Q1123.0688,1376.9375 1123.0688,1378.3125 Q1123.0688,1380.1875 1121.9594,1381.1094 Q1120.85,1382.0313 1118.6,1382.0313 Q1117.6781,1382.0313 1116.7563,1381.8125 Q1115.8344,1381.5938 1114.975,1381.1719 L1114.975,1378.6406 Q1115.9438,1379.3281 1116.8656,1379.6719 Q1117.7875,1380.0156 1118.6781,1380.0156 Q1119.5844,1380.0156 1120.0844,1379.6094 Q1120.5844,1379.1875 1120.5844,1378.4531 Q1120.5844,1377.8906 1120.2406,1377.4844 Q1119.9125,1377.0625 1119.2875,1376.8125 L1118.0844,1376.3594 Z " fill="#000000"/><text fill="#000000" font-family="sans-serif" font-size="14" lengthAdjust="spacing" textLength="104" x="1135.4" y="1380.6436">appConnQuery</text><line style="stroke:#181818;stroke-width:0.5;" x1="1092" x2="1254" y1="1391.7969" y2="1391.7969"/><text fill="#000000" font-family="sans-serif" font-size="14" lengthAdjust="spacing" textLength="152" x="1097" y="1408.792">appConn abcicli.Client</text><line style="stroke:#181818;stroke-width:0.5;" x1="1092" x2="1254" y1="1416.0938" y2="1416.0938"/></g><!--class AppConnSnapshot--><g id="elem_AppConnSnapshot"><rect codeLine="110" fill="#F1F1F1" height="153.4844" id="AppConnSnapshot" rx="2.5" ry="2.5" style="stroke:#181818;stroke-width:0.5;" width="193" x="1265.5" y="1116.7969"/><ellipse cx="1294.45" cy="1132.7969" fill="#B4A7E5" rx="11" ry="11" style="stroke:#181818;stroke-width:1.0;"/><path d="M1290.3719,1128.5625 L1290.3719,1126.4063 L1297.7625,1126.4063 L1297.7625,1128.5625 L1295.2938,1128.5625 L1295.2938,1136.6406 L1297.7625,1136.6406 L1297.7625,1138.7969 L1290.3719,1138.7969 L1290.3719,1136.6406 L1292.8406,1136.6406 L1292.8406,1128.5625 L1290.3719,1128.5625 Z " fill="#000000"/><text fill="#000000" font-family="sans-serif" font-size="14" font-style="italic" lengthAdjust="spacing" textLength="130" x="1311.55" y="1137.6436">AppConnSnapshot</text><line style="stroke:#181818;stroke-width:0.5;" x1="1266.5" x2="1457.5" y1="1148.7969" y2="1148.7969"/><text fill="#006400" font-family="sans-serif" font-size="14" lengthAdjust="spacing" textLength="70" x="1271.5" y="1165.792">&#24555;&#29031;&#23376;&#25509;&#21475;</text><line style="stroke:#181818;stroke-width:1.0;" x1="1266.5" x2="1457.5" y1="1173.0938" y2="1173.0938"/><line style="stroke:#181818;stroke-width:1.0;" x1="1266.5" x2="1457.5" y1="1175.0938" y2="1175.0938"/><text fill="#000000" font-family="sans-serif" font-size="14" lengthAdjust="spacing" textLength="130" x="1271.5" y="1190.0889">ListSnapshotsSync</text><line style="stroke:#181818;stroke-width:1.0;stroke-dasharray:1.0,2.0;" x1="1266.5" x2="1457.5" y1="1197.3906" y2="1197.3906"/><text fill="#000000" font-family="sans-serif" font-size="14" lengthAdjust="spacing" textLength="132" x="1271.5" y="1214.3857">OfferSnapshotSync</text><line style="stroke:#181818;stroke-width:1.0;" x1="1266.5" x2="1457.5" y1="1221.6875" y2="1221.6875"/><text fill="#000000" font-family="sans-serif" font-size="14" lengthAdjust="spacing" textLength="177" x="1271.5" y="1238.6826">LoadSnapshotChunkSync</text><line style="stroke:#181818;stroke-width:1.0;stroke-dasharray:1.0,2.0;" x1="1266.5" x2="1457.5" y1="1245.9844" y2="1245.9844"/><text fill="#000000" font-family="sans-serif" font-size="14" lengthAdjust="spacing" textLength="181" x="1271.5" y="1262.9795">ApplySnapshotChunkSync</text></g><!--class appConnSnapshot--><g id="elem_appConnSnapshot"><rect codeLine="121" fill="#F1F1F1" height="64.2969" id="appConnSnapshot" rx="2.5" ry="2.5" style="stroke:#181818;stroke-width:0.5;" width="164" x="1290" y="1359.7969"/><ellipse cx="1306.35" cy="1375.7969" fill="#F1F1F1" rx="11" ry="11" style="stroke:#181818;stroke-width:1.0;"/><path d="M1305.8344,1376.3594 Q1303.975,1375.6563 1303.3188,1374.8906 Q1302.6781,1374.1094 1302.6781,1372.7969 Q1302.6781,1371.1094 1303.7563,1370.1406 Q1304.8344,1369.1719 1306.7094,1369.1719 Q1307.5688,1369.1719 1308.4125,1369.375 Q1309.2719,1369.5625 1310.1156,1369.9531 L1310.1156,1372.3438 Q1309.3344,1371.7813 1308.5063,1371.5 Q1307.6938,1371.2031 1306.8969,1371.2031 Q1306.0219,1371.2031 1305.5375,1371.5625 Q1305.0688,1371.9219 1305.0688,1372.5781 Q1305.0688,1373.0938 1305.4125,1373.4375 Q1305.7563,1373.7656 1306.85,1374.1719 L1307.9125,1374.5781 Q1309.3969,1375.125 1310.1,1376.0313 Q1310.8188,1376.9375 1310.8188,1378.3125 Q1310.8188,1380.1875 1309.7094,1381.1094 Q1308.6,1382.0313 1306.35,1382.0313 Q1305.4281,1382.0313 1304.5063,1381.8125 Q1303.5844,1381.5938 1302.725,1381.1719 L1302.725,1378.6406 Q1303.6938,1379.3281 1304.6156,1379.6719 Q1305.5375,1380.0156 1306.4281,1380.0156 Q1307.3344,1380.0156 1307.8344,1379.6094 Q1308.3344,1379.1875 1308.3344,1378.4531 Q1308.3344,1377.8906 1307.9906,1377.4844 Q1307.6625,1377.0625 1307.0375,1376.8125 L1305.8344,1376.3594 Z " fill="#000000"/><text fill="#000000" font-family="sans-serif" font-size="14" lengthAdjust="spacing" textLength="129" x="1320.65" y="1380.6436">appConnSnapshot</text><line style="stroke:#181818;stroke-width:0.5;" x1="1291" x2="1453" y1="1391.7969" y2="1391.7969"/><text fill="#000000" font-family="sans-serif" font-size="14" lengthAdjust="spacing" textLength="152" x="1296" y="1408.792">appConn abcicli.Client</text><line style="stroke:#181818;stroke-width:0.5;" x1="1291" x2="1453" y1="1416.0938" y2="1416.0938"/></g><!--class ClientCreator--><g id="elem_ClientCreator"><rect codeLine="126" fill="#F1F1F1" height="64.2969" id="ClientCreator" rx="2.5" ry="2.5" style="stroke:#181818;stroke-width:0.5;" width="212" x="1898" y="1161.2969"/><ellipse cx="1954.75" cy="1177.2969" fill="#B4A7E5" rx="11" ry="11" style="stroke:#181818;stroke-width:1.0;"/><path d="M1950.6719,1173.0625 L1950.6719,1170.9063 L1958.0625,1170.9063 L1958.0625,1173.0625 L1955.5938,1173.0625 L1955.5938,1181.1406 L1958.0625,1181.1406 L1958.0625,1183.2969 L1950.6719,1183.2969 L1950.6719,1181.1406 L1953.1406,1181.1406 L1953.1406,1173.0625 L1950.6719,1173.0625 Z " fill="#000000"/><text fill="#000000" font-family="sans-serif" font-size="14" font-style="italic" lengthAdjust="spacing" textLength="90" x="1975.25" y="1182.1436">ClientCreator</text><line style="stroke:#181818;stroke-width:0.5;" x1="1899" x2="2109" y1="1193.2969" y2="1193.2969"/><line style="stroke:#181818;stroke-width:0.5;" x1="1899" x2="2109" y1="1201.2969" y2="1201.2969"/><text fill="#000000" font-family="sans-serif" font-size="14" lengthAdjust="spacing" textLength="200" x="1904" y="1218.292">NewABCIClient() abcicli.Client</text></g><!--class localClientCreator--><g id="elem_localClientCreator"><rect codeLine="129" fill="#F1F1F1" height="96.8906" id="localClientCreator" rx="2.5" ry="2.5" style="stroke:#181818;stroke-width:0.5;" width="172" x="1897" y="1343.2969"/><ellipse cx="1920.55" cy="1359.2969" fill="#F1F1F1" rx="11" ry="11" style="stroke:#181818;stroke-width:1.0;"/><path d="M1920.0344,1359.8594 Q1918.175,1359.1563 1917.5188,1358.3906 Q1916.8781,1357.6094 1916.8781,1356.2969 Q1916.8781,1354.6094 1917.9563,1353.6406 Q1919.0344,1352.6719 1920.9094,1352.6719 Q1921.7688,1352.6719 1922.6125,1352.875 Q1923.4719,1353.0625 1924.3156,1353.4531 L1924.3156,1355.8438 Q1923.5344,1355.2813 1922.7063,1355 Q1921.8938,1354.7031 1921.0969,1354.7031 Q1920.2219,1354.7031 1919.7375,1355.0625 Q1919.2688,1355.4219 1919.2688,1356.0781 Q1919.2688,1356.5938 1919.6125,1356.9375 Q1919.9563,1357.2656 1921.05,1357.6719 L1922.1125,1358.0781 Q1923.5969,1358.625 1924.3,1359.5313 Q1925.0188,1360.4375 1925.0188,1361.8125 Q1925.0188,1363.6875 1923.9094,1364.6094 Q1922.8,1365.5313 1920.55,1365.5313 Q1919.6281,1365.5313 1918.7063,1365.3125 Q1917.7844,1365.0938 1916.925,1364.6719 L1916.925,1362.1406 Q1917.8938,1362.8281 1918.8156,1363.1719 Q1919.7375,1363.5156 1920.6281,1363.5156 Q1921.5344,1363.5156 1922.0344,1363.1094 Q1922.5344,1362.6875 1922.5344,1361.9531 Q1922.5344,1361.3906 1922.1906,1360.9844 Q1921.8625,1360.5625 1921.2375,1360.3125 L1920.0344,1359.8594 Z " fill="#000000"/><text fill="#000000" font-family="sans-serif" font-size="14" lengthAdjust="spacing" textLength="121" x="1936.45" y="1364.1436">localClientCreator</text><line style="stroke:#181818;stroke-width:0.5;" x1="1898" x2="2068" y1="1375.2969" y2="1375.2969"/><text fill="#000000" font-family="sans-serif" font-size="14" lengthAdjust="spacing" textLength="160" x="1903" y="1392.292">//&#19978;&#23618;&#24212;&#29992;&#21644;Tendermint</text><text fill="#000000" font-family="sans-serif" font-size="14" lengthAdjust="spacing" textLength="10" x="1903" y="1408.5889">//</text><text fill="#FF0000" font-family="sans-serif" font-size="14" lengthAdjust="spacing" textLength="98" x="1913" y="1408.5889">&#22312;&#21516;&#19968;&#20010;&#36827;&#31243;&#20013;</text><text fill="#000000" font-family="sans-serif" font-size="14" lengthAdjust="spacing" textLength="80" x="1903" y="1424.8857">//&#20351;&#29992;&#35813;&#23454;&#29616;</text><line style="stroke:#181818;stroke-width:0.5;" x1="1898" x2="2068" y1="1432.1875" y2="1432.1875"/></g><!--class remoteClientCreator--><g id="elem_remoteClientCreator"><rect codeLine="134" fill="#F1F1F1" height="96.8906" id="remoteClientCreator" rx="2.5" ry="2.5" style="stroke:#181818;stroke-width:0.5;" width="172" x="2104" y="1343.2969"/><ellipse cx="2119" cy="1359.2969" fill="#F1F1F1" rx="11" ry="11" style="stroke:#181818;stroke-width:1.0;"/><path d="M2118.4844,1359.8594 Q2116.625,1359.1563 2115.9688,1358.3906 Q2115.3281,1357.6094 2115.3281,1356.2969 Q2115.3281,1354.6094 2116.4063,1353.6406 Q2117.4844,1352.6719 2119.3594,1352.6719 Q2120.2188,1352.6719 2121.0625,1352.875 Q2121.9219,1353.0625 2122.7656,1353.4531 L2122.7656,1355.8438 Q2121.9844,1355.2813 2121.1563,1355 Q2120.3438,1354.7031 2119.5469,1354.7031 Q2118.6719,1354.7031 2118.1875,1355.0625 Q2117.7188,1355.4219 2117.7188,1356.0781 Q2117.7188,1356.5938 2118.0625,1356.9375 Q2118.4063,1357.2656 2119.5,1357.6719 L2120.5625,1358.0781 Q2122.0469,1358.625 2122.75,1359.5313 Q2123.4688,1360.4375 2123.4688,1361.8125 Q2123.4688,1363.6875 2122.3594,1364.6094 Q2121.25,1365.5313 2119,1365.5313 Q2118.0781,1365.5313 2117.1563,1365.3125 Q2116.2344,1365.0938 2115.375,1364.6719 L2115.375,1362.1406 Q2116.3438,1362.8281 2117.2656,1363.1719 Q2118.1875,1363.5156 2119.0781,1363.5156 Q2119.9844,1363.5156 2120.4844,1363.1094 Q2120.9844,1362.6875 2120.9844,1361.9531 Q2120.9844,1361.3906 2120.6406,1360.9844 Q2120.3125,1360.5625 2119.6875,1360.3125 L2118.4844,1359.8594 Z " fill="#000000"/><text fill="#000000" font-family="sans-serif" font-size="14" lengthAdjust="spacing" textLength="140" x="2133" y="1364.1436">remoteClientCreator</text><line style="stroke:#181818;stroke-width:0.5;" x1="2105" x2="2275" y1="1375.2969" y2="1375.2969"/><text fill="#000000" font-family="sans-serif" font-size="14" lengthAdjust="spacing" textLength="160" x="2110" y="1392.292">//&#19978;&#23618;&#24212;&#29992;&#21644;Tendermint</text><text fill="#000000" font-family="sans-serif" font-size="14" lengthAdjust="spacing" textLength="10" x="2110" y="1408.5889">//</text><text fill="#FF0000" font-family="sans-serif" font-size="14" lengthAdjust="spacing" textLength="112" x="2120" y="1408.5889">&#19981;&#22312;&#21516;&#19968;&#20010;&#36827;&#31243;&#20013;</text><text fill="#000000" font-family="sans-serif" font-size="14" lengthAdjust="spacing" textLength="80" x="2110" y="1424.8857">//&#20351;&#29992;&#35813;&#23454;&#29616;</text><line style="stroke:#181818;stroke-width:0.5;" x1="2105" x2="2275" y1="1432.1875" y2="1432.1875"/></g><!--class AppConns--><g id="elem_AppConns"><rect codeLine="143" fill="#F1F1F1" height="169.7813" id="AppConns" rx="2.5" ry="2.5" style="stroke:#181818;stroke-width:0.5;" width="251" x="1294.5" y="585.2969"/><ellipse cx="1379.75" cy="601.2969" fill="#B4A7E5" rx="11" ry="11" style="stroke:#181818;stroke-width:1.0;"/><path d="M1375.6719,597.0625 L1375.6719,594.9063 L1383.0625,594.9063 L1383.0625,597.0625 L1380.5938,597.0625 L1380.5938,605.1406 L1383.0625,605.1406 L1383.0625,607.2969 L1375.6719,607.2969 L1375.6719,605.1406 L1378.1406,605.1406 L1378.1406,597.0625 L1375.6719,597.0625 Z " fill="#000000"/><text fill="#000000" font-family="sans-serif" font-size="14" font-style="italic" lengthAdjust="spacing" textLength="72" x="1400.25" y="606.1436">AppConns</text><line style="stroke:#181818;stroke-width:0.5;" x1="1295.5" x2="1544.5" y1="617.2969" y2="617.2969"/><text fill="#006400" font-family="sans-serif" font-size="14" lengthAdjust="spacing" textLength="112" x="1300.5" y="634.292">&#36890;&#36807;&#35843;&#29992;&#25509;&#21475;&#20989;&#25968;</text><text fill="#006400" font-family="sans-serif" font-size="14" lengthAdjust="spacing" textLength="239" x="1300.5" y="650.5889">&#36820;&#22238;&#23454;&#29616;&#20102; AppConnXXX &#25509;&#21475;&#30340;&#23545;&#35937;</text><line style="stroke:#181818;stroke-width:1.0;" x1="1295.5" x2="1544.5" y1="657.8906" y2="657.8906"/><line style="stroke:#181818;stroke-width:1.0;" x1="1295.5" x2="1544.5" y1="659.8906" y2="659.8906"/><text fill="#000000" font-family="sans-serif" font-size="14" lengthAdjust="spacing" textLength="206" x="1300.5" y="674.8857">Mempool() AppConnMempool</text><line style="stroke:#181818;stroke-width:1.0;stroke-dasharray:1.0,2.0;" x1="1295.5" x2="1544.5" y1="682.1875" y2="682.1875"/><text fill="#000000" font-family="sans-serif" font-size="14" lengthAdjust="spacing" textLength="236" x="1300.5" y="699.1826">Consensus() AppConnConsensus</text><line style="stroke:#181818;stroke-width:1.0;stroke-dasharray:1.0,2.0;" x1="1295.5" x2="1544.5" y1="706.4844" y2="706.4844"/><text fill="#000000" font-family="sans-serif" font-size="14" lengthAdjust="spacing" textLength="160" x="1300.5" y="723.4795">Query() AppConnQuery</text><line style="stroke:#181818;stroke-width:1.0;stroke-dasharray:1.0,2.0;" x1="1295.5" x2="1544.5" y1="730.7813" y2="730.7813"/><text fill="#000000" font-family="sans-serif" font-size="14" lengthAdjust="spacing" textLength="210" x="1300.5" y="747.7764">Snapshot() AppConnSnapshot</text></g><!--class multiAppConn--><g id="elem_multiAppConn"><rect codeLine="155" fill="#F1F1F1" height="72.5625" id="multiAppConn" rx="2.5" ry="2.5" style="stroke:#181818;stroke-width:0.5;" width="235" x="1456.5" y="904.2969"/><ellipse cx="1475.55" cy="924.4297" fill="#F1F1F1" rx="11" ry="11" style="stroke:#181818;stroke-width:1.0;"/><path d="M1475.0344,924.9922 Q1473.175,924.2891 1472.5188,923.5234 Q1471.8781,922.7422 1471.8781,921.4297 Q1471.8781,919.7422 1472.9563,918.7734 Q1474.0344,917.8047 1475.9094,917.8047 Q1476.7688,917.8047 1477.6125,918.0078 Q1478.4719,918.1953 1479.3156,918.5859 L1479.3156,920.9766 Q1478.5344,920.4141 1477.7063,920.1328 Q1476.8938,919.8359 1476.0969,919.8359 Q1475.2219,919.8359 1474.7375,920.1953 Q1474.2688,920.5547 1474.2688,921.2109 Q1474.2688,921.7266 1474.6125,922.0703 Q1474.9563,922.3984 1476.05,922.8047 L1477.1125,923.2109 Q1478.5969,923.7578 1479.3,924.6641 Q1480.0188,925.5703 1480.0188,926.9453 Q1480.0188,928.8203 1478.9094,929.7422 Q1477.8,930.6641 1475.55,930.6641 Q1474.6281,930.6641 1473.7063,930.4453 Q1472.7844,930.2266 1471.925,929.8047 L1471.925,927.2734 Q1472.8938,927.9609 1473.8156,928.3047 Q1474.7375,928.6484 1475.6281,928.6484 Q1476.5344,928.6484 1477.0344,928.2422 Q1477.5344,927.8203 1477.5344,927.0859 Q1477.5344,926.5234 1477.1906,926.1172 Q1476.8625,925.6953 1476.2375,925.4453 L1475.0344,924.9922 Z " fill="#000000"/><text fill="#000000" font-family="sans-serif" font-size="12" font-style="italic" lengthAdjust="spacing" textLength="198" x="1488.45" y="920.4355">&#171;&#36890;&#36807;&#35813;&#23545;&#35937;&#20998;&#21457;ABCI&#30340;&#23376;&#25509;&#21475;&#23545;&#35937;&#187;</text><text fill="#000000" font-family="sans-serif" font-size="14" lengthAdjust="spacing" textLength="97" x="1538.95" y="936.2607">multiAppConn</text><line style="stroke:#181818;stroke-width:0.5;" x1="1457.5" x2="1690.5" y1="944.5625" y2="944.5625"/><text fill="#006400" font-family="sans-serif" font-size="14" lengthAdjust="spacing" textLength="223" x="1462.5" y="961.5576">//&#22312; node.NewNode &#20989;&#25968;&#20013;&#34987;&#21019;&#24314;</text><line style="stroke:#181818;stroke-width:1.0;" x1="1457.5" x2="1690.5" y1="968.8594" y2="968.8594"/><line style="stroke:#181818;stroke-width:1.0;" x1="1457.5" x2="1690.5" y1="970.8594" y2="970.8594"/></g><!--class BlockExecutor--><g id="elem_BlockExecutor"><rect codeLine="171" fill="#F1F1F1" height="64.2969" id="BlockExecutor" rx="2.5" ry="2.5" style="stroke:#181818;stroke-width:0.5;" width="264" x="771" y="908.7969"/><ellipse cx="849.25" cy="924.7969" fill="#F1F1F1" rx="11" ry="11" style="stroke:#181818;stroke-width:1.0;"/><path d="M848.7344,925.3594 Q846.875,924.6563 846.2188,923.8906 Q845.5781,923.1094 845.5781,921.7969 Q845.5781,920.1094 846.6563,919.1406 Q847.7344,918.1719 849.6094,918.1719 Q850.4688,918.1719 851.3125,918.375 Q852.1719,918.5625 853.0156,918.9531 L853.0156,921.3438 Q852.2344,920.7813 851.4063,920.5 Q850.5938,920.2031 849.7969,920.2031 Q848.9219,920.2031 848.4375,920.5625 Q847.9688,920.9219 847.9688,921.5781 Q847.9688,922.0938 848.3125,922.4375 Q848.6563,922.7656 849.75,923.1719 L850.8125,923.5781 Q852.2969,924.125 853,925.0313 Q853.7188,925.9375 853.7188,927.3125 Q853.7188,929.1875 852.6094,930.1094 Q851.5,931.0313 849.25,931.0313 Q848.3281,931.0313 847.4063,930.8125 Q846.4844,930.5938 845.625,930.1719 L845.625,927.6406 Q846.5938,928.3281 847.5156,928.6719 Q848.4375,929.0156 849.3281,929.0156 Q850.2344,929.0156 850.7344,928.6094 Q851.2344,928.1875 851.2344,927.4531 Q851.2344,926.8906 850.8906,926.4844 Q850.5625,926.0625 849.9375,925.8125 L848.7344,925.3594 Z " fill="#000000"/><text fill="#000000" font-family="sans-serif" font-size="14" lengthAdjust="spacing" textLength="99" x="869.75" y="929.6436">BlockExecutor</text><line style="stroke:#181818;stroke-width:0.5;" x1="772" x2="1034" y1="940.7969" y2="940.7969"/><text fill="#000000" font-family="sans-serif" font-size="14" lengthAdjust="spacing" textLength="252" x="777" y="957.792">proxyApp proxy.AppConnConsensus</text><line style="stroke:#181818;stroke-width:0.5;" x1="772" x2="1034" y1="965.0938" y2="965.0938"/></g><!--class State--><g id="elem_State"><rect codeLine="176" fill="#00BFFF" height="80.5938" id="State" rx="2.5" ry="2.5" style="stroke:#181818;stroke-width:0.5;" width="217" x="794.5" y="629.7969"/><ellipse cx="880.75" cy="645.7969" fill="#F1F1F1" rx="11" ry="11" style="stroke:#181818;stroke-width:1.0;"/><path d="M880.2344,646.3594 Q878.375,645.6563 877.7188,644.8906 Q877.0781,644.1094 877.0781,642.7969 Q877.0781,641.1094 878.1563,640.1406 Q879.2344,639.1719 881.1094,639.1719 Q881.9688,639.1719 882.8125,639.375 Q883.6719,639.5625 884.5156,639.9531 L884.5156,642.3438 Q883.7344,641.7813 882.9063,641.5 Q882.0938,641.2031 881.2969,641.2031 Q880.4219,641.2031 879.9375,641.5625 Q879.4688,641.9219 879.4688,642.5781 Q879.4688,643.0938 879.8125,643.4375 Q880.1563,643.7656 881.25,644.1719 L882.3125,644.5781 Q883.7969,645.125 884.5,646.0313 Q885.2188,646.9375 885.2188,648.3125 Q885.2188,650.1875 884.1094,651.1094 Q883,652.0313 880.75,652.0313 Q879.8281,652.0313 878.9063,651.8125 Q877.9844,651.5938 877.125,651.1719 L877.125,648.6406 Q878.0938,649.3281 879.0156,649.6719 Q879.9375,650.0156 880.8281,650.0156 Q881.7344,650.0156 882.2344,649.6094 Q882.7344,649.1875 882.7344,648.4531 Q882.7344,647.8906 882.3906,647.4844 Q882.0625,647.0625 881.4375,646.8125 L880.2344,646.3594 Z " fill="#000000"/><text fill="#000000" font-family="sans-serif" font-size="14" lengthAdjust="spacing" textLength="36" x="901.25" y="650.6436">State</text><line style="stroke:#181818;stroke-width:0.5;" x1="795.5" x2="1010.5" y1="661.7969" y2="661.7969"/><text fill="#000000" font-family="sans-serif" font-size="14" lengthAdjust="spacing" textLength="116" x="800.5" y="678.792">&#20849;&#35782;&#24341;&#25806; &#25968;&#25454;&#32467;&#26500;</text><line style="stroke:#181818;stroke-width:1.0;" x1="795.5" x2="1010.5" y1="686.0938" y2="686.0938"/><line style="stroke:#181818;stroke-width:1.0;" x1="795.5" x2="1010.5" y1="688.0938" y2="688.0938"/><text fill="#000000" font-family="sans-serif" font-size="14" lengthAdjust="spacing" textLength="205" x="800.5" y="703.0889">blockExec *sm.BlockExecutor</text></g><!--class CListMempool--><g id="elem_CListMempool"><rect codeLine="185" fill="#00BFFF" height="80.5938" id="CListMempool" rx="2.5" ry="2.5" style="stroke:#181818;stroke-width:0.5;" width="286" x="177" y="396.2969"/><ellipse cx="267.25" cy="412.2969" fill="#F1F1F1" rx="11" ry="11" style="stroke:#181818;stroke-width:1.0;"/><path d="M266.7344,412.8594 Q264.875,412.1563 264.2188,411.3906 Q263.5781,410.6094 263.5781,409.2969 Q263.5781,407.6094 264.6563,406.6406 Q265.7344,405.6719 267.6094,405.6719 Q268.4688,405.6719 269.3125,405.875 Q270.1719,406.0625 271.0156,406.4531 L271.0156,408.8438 Q270.2344,408.2813 269.4063,408 Q268.5938,407.7031 267.7969,407.7031 Q266.9219,407.7031 266.4375,408.0625 Q265.9688,408.4219 265.9688,409.0781 Q265.9688,409.5938 266.3125,409.9375 Q266.6563,410.2656 267.75,410.6719 L268.8125,411.0781 Q270.2969,411.625 271,412.5313 Q271.7188,413.4375 271.7188,414.8125 Q271.7188,416.6875 270.6094,417.6094 Q269.5,418.5313 267.25,418.5313 Q266.3281,418.5313 265.4063,418.3125 Q264.4844,418.0938 263.625,417.6719 L263.625,415.1406 Q264.5938,415.8281 265.5156,416.1719 Q266.4375,416.5156 267.3281,416.5156 Q268.2344,416.5156 268.7344,416.1094 Q269.2344,415.6875 269.2344,414.9531 Q269.2344,414.3906 268.8906,413.9844 Q268.5625,413.5625 267.9375,413.3125 L266.7344,412.8594 Z " fill="#000000"/><text fill="#000000" font-family="sans-serif" font-size="14" lengthAdjust="spacing" textLength="97" x="287.75" y="417.1436">CListMempool</text><line style="stroke:#181818;stroke-width:0.5;" x1="178" x2="462" y1="428.2969" y2="428.2969"/><text fill="#000000" font-family="sans-serif" font-size="14" lengthAdjust="spacing" textLength="102" x="183" y="445.292">&#20869;&#23384;&#27744; &#25968;&#25454;&#32467;&#26500;</text><line style="stroke:#181818;stroke-width:1.0;" x1="178" x2="462" y1="452.5938" y2="452.5938"/><line style="stroke:#181818;stroke-width:1.0;" x1="178" x2="462" y1="454.5938" y2="454.5938"/><text fill="#000000" font-family="sans-serif" font-size="14" lengthAdjust="spacing" textLength="274" x="183" y="469.5889">proxyAppConn proxy.AppConnMempool</text></g><!--class Environment--><g id="elem_Environment"><rect codeLine="193" fill="#87CEEB" height="121.1875" id="Environment" rx="2.5" ry="2.5" style="stroke:#181818;stroke-width:0.5;" width="313" x="377.5" y="880.2969"/><ellipse cx="486.25" cy="896.2969" fill="#F1F1F1" rx="11" ry="11" style="stroke:#181818;stroke-width:1.0;"/><path d="M485.7344,896.8594 Q483.875,896.1563 483.2188,895.3906 Q482.5781,894.6094 482.5781,893.2969 Q482.5781,891.6094 483.6563,890.6406 Q484.7344,889.6719 486.6094,889.6719 Q487.4688,889.6719 488.3125,889.875 Q489.1719,890.0625 490.0156,890.4531 L490.0156,892.8438 Q489.2344,892.2813 488.4063,892 Q487.5938,891.7031 486.7969,891.7031 Q485.9219,891.7031 485.4375,892.0625 Q484.9688,892.4219 484.9688,893.0781 Q484.9688,893.5938 485.3125,893.9375 Q485.6563,894.2656 486.75,894.6719 L487.8125,895.0781 Q489.2969,895.625 490,896.5313 Q490.7188,897.4375 490.7188,898.8125 Q490.7188,900.6875 489.6094,901.6094 Q488.5,902.5313 486.25,902.5313 Q485.3281,902.5313 484.4063,902.3125 Q483.4844,902.0938 482.625,901.6719 L482.625,899.1406 Q483.5938,899.8281 484.5156,900.1719 Q485.4375,900.5156 486.3281,900.5156 Q487.2344,900.5156 487.7344,900.1094 Q488.2344,899.6875 488.2344,898.9531 Q488.2344,898.3906 487.8906,897.9844 Q487.5625,897.5625 486.9375,897.3125 L485.7344,896.8594 Z " fill="#000000"/><text fill="#000000" font-family="sans-serif" font-size="14" lengthAdjust="spacing" textLength="87" x="506.75" y="901.1436">Environment</text><line style="stroke:#181818;stroke-width:0.5;" x1="378.5" x2="689.5" y1="912.2969" y2="912.2969"/><text fill="#000000" font-family="sans-serif" font-size="14" lengthAdjust="spacing" textLength="124" x="383.5" y="929.292">rpc &#29615;&#22659;&#30340;&#25968;&#25454;&#32467;&#26500;</text><text fill="#000000" font-family="sans-serif" font-size="14" lengthAdjust="spacing" textLength="264" x="383.5" y="945.5889">&#23427;&#21516;&#26102;&#21253;&#21547;&#20102; &#26597;&#35810;&#23376;&#25509;&#21475; &#21644; &#20869;&#23384;&#27744;&#23376;&#25509;&#21475;</text><line style="stroke:#181818;stroke-width:1.0;" x1="378.5" x2="689.5" y1="952.8906" y2="952.8906"/><line style="stroke:#181818;stroke-width:1.0;" x1="378.5" x2="689.5" y1="954.8906" y2="954.8906"/><text fill="#000000" font-family="sans-serif" font-size="14" lengthAdjust="spacing" textLength="263" x="383.5" y="969.8857">ProxyAppQuery   proxy.AppConnQuery</text><line style="stroke:#181818;stroke-width:1.0;stroke-dasharray:1.0,2.0;" x1="378.5" x2="689.5" y1="977.1875" y2="977.1875"/><text fill="#000000" font-family="sans-serif" font-size="14" lengthAdjust="spacing" textLength="301" x="383.5" y="994.1826">ProxyAppMempool proxy.AppConnMempool</text></g><!--class Reactor--><g id="elem_Reactor"><rect codeLine="204" fill="#00BFFF" height="104.8906" id="Reactor" rx="2.5" ry="2.5" style="stroke:#181818;stroke-width:0.5;" width="238" x="46" y="888.2969"/><ellipse cx="133.75" cy="904.2969" fill="#F1F1F1" rx="11" ry="11" style="stroke:#181818;stroke-width:1.0;"/><path d="M133.2344,904.8594 Q131.375,904.1563 130.7188,903.3906 Q130.0781,902.6094 130.0781,901.2969 Q130.0781,899.6094 131.1563,898.6406 Q132.2344,897.6719 134.1094,897.6719 Q134.9688,897.6719 135.8125,897.875 Q136.6719,898.0625 137.5156,898.4531 L137.5156,900.8438 Q136.7344,900.2813 135.9063,900 Q135.0938,899.7031 134.2969,899.7031 Q133.4219,899.7031 132.9375,900.0625 Q132.4688,900.4219 132.4688,901.0781 Q132.4688,901.5938 132.8125,901.9375 Q133.1563,902.2656 134.25,902.6719 L135.3125,903.0781 Q136.7969,903.625 137.5,904.5313 Q138.2188,905.4375 138.2188,906.8125 Q138.2188,908.6875 137.1094,909.6094 Q136,910.5313 133.75,910.5313 Q132.8281,910.5313 131.9063,910.3125 Q130.9844,910.0938 130.125,909.6719 L130.125,907.1406 Q131.0938,907.8281 132.0156,908.1719 Q132.9375,908.5156 133.8281,908.5156 Q134.7344,908.5156 135.2344,908.1094 Q135.7344,907.6875 135.7344,906.9531 Q135.7344,906.3906 135.3906,905.9844 Q135.0625,905.5625 134.4375,905.3125 L133.2344,904.8594 Z " fill="#000000"/><text fill="#000000" font-family="sans-serif" font-size="14" lengthAdjust="spacing" textLength="54" x="154.25" y="909.1436">Reactor</text><line style="stroke:#181818;stroke-width:0.5;" x1="47" x2="283" y1="920.2969" y2="920.2969"/><text fill="#000000" font-family="sans-serif" font-size="14" lengthAdjust="spacing" textLength="144" x="52" y="937.292">&#29366;&#24577;&#21516;&#27493;&#24341;&#25806; &#25968;&#25454;&#32467;&#26500;</text><line style="stroke:#181818;stroke-width:1.0;" x1="47" x2="283" y1="944.5938" y2="944.5938"/><line style="stroke:#181818;stroke-width:1.0;" x1="47" x2="283" y1="946.5938" y2="946.5938"/><text fill="#000000" font-family="sans-serif" font-size="14" lengthAdjust="spacing" textLength="210" x="52" y="961.5889">conn proxy.AppConnSnapshot</text><line style="stroke:#181818;stroke-width:1.0;stroke-dasharray:1.0,2.0;" x1="47" x2="283" y1="968.8906" y2="968.8906"/><text fill="#000000" font-family="sans-serif" font-size="14" lengthAdjust="spacing" textLength="226" x="52" y="985.8857">connQuery proxy.AppConnQuery</text></g><!--class BaseApp--><g id="elem_BaseApp"><rect codeLine="233" fill="#F1F1F1" height="48" id="BaseApp" rx="2.5" ry="2.5" style="stroke:#181818;stroke-width:0.5;" width="94" x="1020" y="2176.2969"/><ellipse cx="1035" cy="2192.2969" fill="#F1F1F1" rx="11" ry="11" style="stroke:#181818;stroke-width:1.0;"/><path d="M1034.4844,2192.8594 Q1032.625,2192.1563 1031.9688,2191.3906 Q1031.3281,2190.6094 1031.3281,2189.2969 Q1031.3281,2187.6094 1032.4063,2186.6406 Q1033.4844,2185.6719 1035.3594,2185.6719 Q1036.2188,2185.6719 1037.0625,2185.875 Q1037.9219,2186.0625 1038.7656,2186.4531 L1038.7656,2188.8438 Q1037.9844,2188.2813 1037.1563,2188 Q1036.3438,2187.7031 1035.5469,2187.7031 Q1034.6719,2187.7031 1034.1875,2188.0625 Q1033.7188,2188.4219 1033.7188,2189.0781 Q1033.7188,2189.5938 1034.0625,2189.9375 Q1034.4063,2190.2656 1035.5,2190.6719 L1036.5625,2191.0781 Q1038.0469,2191.625 1038.75,2192.5313 Q1039.4688,2193.4375 1039.4688,2194.8125 Q1039.4688,2196.6875 1038.3594,2197.6094 Q1037.25,2198.5313 1035,2198.5313 Q1034.0781,2198.5313 1033.1563,2198.3125 Q1032.2344,2198.0938 1031.375,2197.6719 L1031.375,2195.1406 Q1032.3438,2195.8281 1033.2656,2196.1719 Q1034.1875,2196.5156 1035.0781,2196.5156 Q1035.9844,2196.5156 1036.4844,2196.1094 Q1036.9844,2195.6875 1036.9844,2194.9531 Q1036.9844,2194.3906 1036.6406,2193.9844 Q1036.3125,2193.5625 1035.6875,2193.3125 L1034.4844,2192.8594 Z " fill="#000000"/><text fill="#000000" font-family="sans-serif" font-size="14" lengthAdjust="spacing" textLength="62" x="1049" y="2197.1436">BaseApp</text><line style="stroke:#181818;stroke-width:0.5;" x1="1021" x2="1113" y1="2208.2969" y2="2208.2969"/><line style="stroke:#181818;stroke-width:0.5;" x1="1021" x2="1113" y1="2216.2969" y2="2216.2969"/></g><!--class EthermintApp--><g id="elem_EthermintApp"><rect codeLine="241" fill="#F1F1F1" height="48" id="EthermintApp" rx="2.5" ry="2.5" style="stroke:#181818;stroke-width:0.5;" width="126" x="1004" y="2375.2969"/><ellipse cx="1019" cy="2391.2969" fill="#F1F1F1" rx="11" ry="11" style="stroke:#181818;stroke-width:1.0;"/><path d="M1018.4844,2391.8594 Q1016.625,2391.1563 1015.9688,2390.3906 Q1015.3281,2389.6094 1015.3281,2388.2969 Q1015.3281,2386.6094 1016.4063,2385.6406 Q1017.4844,2384.6719 1019.3594,2384.6719 Q1020.2188,2384.6719 1021.0625,2384.875 Q1021.9219,2385.0625 1022.7656,2385.4531 L1022.7656,2387.8438 Q1021.9844,2387.2813 1021.1563,2387 Q1020.3438,2386.7031 1019.5469,2386.7031 Q1018.6719,2386.7031 1018.1875,2387.0625 Q1017.7188,2387.4219 1017.7188,2388.0781 Q1017.7188,2388.5938 1018.0625,2388.9375 Q1018.4063,2389.2656 1019.5,2389.6719 L1020.5625,2390.0781 Q1022.0469,2390.625 1022.75,2391.5313 Q1023.4688,2392.4375 1023.4688,2393.8125 Q1023.4688,2395.6875 1022.3594,2396.6094 Q1021.25,2397.5313 1019,2397.5313 Q1018.0781,2397.5313 1017.1563,2397.3125 Q1016.2344,2397.0938 1015.375,2396.6719 L1015.375,2394.1406 Q1016.3438,2394.8281 1017.2656,2395.1719 Q1018.1875,2395.5156 1019.0781,2395.5156 Q1019.9844,2395.5156 1020.4844,2395.1094 Q1020.9844,2394.6875 1020.9844,2393.9531 Q1020.9844,2393.3906 1020.6406,2392.9844 Q1020.3125,2392.5625 1019.6875,2392.3125 L1018.4844,2391.8594 Z " fill="#000000"/><text fill="#000000" font-family="sans-serif" font-size="14" lengthAdjust="spacing" textLength="94" x="1033" y="2396.1436">EthermintApp</text><line style="stroke:#181818;stroke-width:0.5;" x1="1005" x2="1129" y1="2407.2969" y2="2407.2969"/><line style="stroke:#181818;stroke-width:0.5;" x1="1005" x2="1129" y1="2415.2969" y2="2415.2969"/></g><!--reverse link Client to localClient--><g id="link_Client_localClient"><path codeLine="33" d="M1421.2222,1749.8347 C1390.6922,1770.4047 1361,1790.3969 1327.45,1813.0069 " fill="none" id="Client-backto-localClient" style="stroke:#181818;stroke-width:1.0;"/><polygon fill="none" points="1436.15,1739.7769,1417.8696,1744.8588,1424.5748,1754.8106,1436.15,1739.7769" style="stroke:#181818;stroke-width:1.0;"/></g><!--reverse link Client to grpcClient--><g id="link_Client_grpcClient"><path codeLine="38" d="M1471,1757.7769 C1471,1780.8669 1471,1797.9269 1471,1820.9669 " fill="none" id="Client-backto-grpcClient" style="stroke:#181818;stroke-width:1.0;"/><polygon fill="none" points="1471,1739.7769,1465,1757.7769,1477,1757.7769,1471,1739.7769" style="stroke:#181818;stroke-width:1.0;"/></g><!--reverse link Client to socketClient--><g id="link_Client_socketClient"><path codeLine="43" d="M1511.0951,1751.6883 C1537.2551,1774.7783 1563.47,1797.9269 1589.57,1820.9669 " fill="none" id="Client-backto-socketClient" style="stroke:#181818;stroke-width:1.0;"/><polygon fill="none" points="1497.6,1739.7769,1507.1247,1756.1867,1515.0656,1747.1899,1497.6,1739.7769" style="stroke:#181818;stroke-width:1.0;"/></g><!--reverse link localClient to Application--><g id="link_localClient_Application"><path codeLine="56" d="M1164.5304,1827.2091 C1146.1304,1827.0591 1139.73,1828.6069 1121.34,1831.6569 " fill="none" id="localClient-backto-Application" style="stroke:#181818;stroke-width:1.0;"/><polygon fill="none" points="1176.53,1827.3069,1170.5628,1823.2581,1164.5304,1827.2091,1170.4976,1831.2578,1176.53,1827.3069" style="stroke:#181818;stroke-width:1.0;"/></g><!--reverse link AppConnConsensus to appConnConsensus--><g id="link_AppConnConsensus_appConnConsensus"><path codeLine="77" d="M1775.4584,1300.7766 C1775.3184,1328.2766 1775.26,1338.8169 1775.16,1359.6469 " fill="none" id="AppConnConsensus-backto-appConnConsensus" style="stroke:#181818;stroke-width:1.0;"/><polygon fill="none" points="1775.55,1282.7769,1769.4584,1300.7461,1781.4583,1300.8072,1775.55,1282.7769" style="stroke:#181818;stroke-width:1.0;"/></g><!--reverse link AppConnMempool to appConnMempool--><g id="link_AppConnMempool_appConnMempool"><path codeLine="94" d="M1572.5671,1288.2648 C1572.0971,1319.2648 1571.85,1335.3869 1571.48,1359.3869 " fill="none" id="AppConnMempool-backto-appConnMempool" style="stroke:#181818;stroke-width:1.0;"/><polygon fill="none" points="1572.84,1270.2669,1566.5678,1288.1738,1578.5664,1288.3558,1572.84,1270.2669" style="stroke:#181818;stroke-width:1.0;"/></g><!--reverse link AppConnQuery to appConnQuery--><g id="link_AppConnQuery_appConnQuery"><path codeLine="108" d="M1165.9955,1276.0635 C1168.0655,1310.0135 1169.43,1332.2869 1171.09,1359.4869 " fill="none" id="AppConnQuery-backto-appConnQuery" style="stroke:#181818;stroke-width:1.0;"/><polygon fill="none" points="1164.9,1258.0969,1160.0066,1276.4287,1171.9843,1275.6984,1164.9,1258.0969" style="stroke:#181818;stroke-width:1.0;"/></g><!--reverse link AppConnSnapshot to appConnSnapshot--><g id="link_AppConnSnapshot_appConnSnapshot"><path codeLine="124" d="M1366.7804,1288.2438 C1368.3504,1319.2438 1369.18,1335.3869 1370.4,1359.3869 " fill="none" id="AppConnSnapshot-backto-appConnSnapshot" style="stroke:#181818;stroke-width:1.0;"/><polygon fill="none" points="1365.87,1270.2669,1360.7881,1288.5473,1372.7728,1287.9404,1365.87,1270.2669" style="stroke:#181818;stroke-width:1.0;"/></g><!--reverse link ClientCreator to localClientCreator--><g id="link_ClientCreator_localClientCreator"><path codeLine="139" d="M1998.7612,1243.3354 C1995.3912,1274.9354 1992.02,1306.3769 1988.11,1342.9469 " fill="none" id="ClientCreator-backto-localClientCreator" style="stroke:#181818;stroke-width:1.0;"/><polygon fill="none" points="2000.67,1225.4369,1992.795,1242.6991,2004.7274,1243.9716,2000.67,1225.4369" style="stroke:#181818;stroke-width:1.0;"/></g><!--reverse link ClientCreator to remoteClientCreator--><g id="link_ClientCreator_remoteClientCreator"><path codeLine="140" d="M2045.8436,1238.5096 C2075.7536,1270.1096 2110.09,1306.3769 2144.7,1342.9469 " fill="none" id="ClientCreator-backto-remoteClientCreator" style="stroke:#181818;stroke-width:1.0;"/><polygon fill="none" points="2033.47,1225.4369,2041.486,1242.6341,2050.2011,1234.385,2033.47,1225.4369" style="stroke:#181818;stroke-width:1.0;"/></g><!--reverse link AppConns to multiAppConn--><g id="link_AppConns_multiAppConn"><path codeLine="160" d="M1477.2564,771.1304 C1505.9264,821.1104 1531.83,866.2769 1553.47,904.0069 " fill="none" id="AppConns-backto-multiAppConn" style="stroke:#181818;stroke-width:1.0;"/><polygon fill="none" points="1468.3,755.5169,1472.0519,774.1159,1482.4609,768.145,1468.3,755.5169" style="stroke:#181818;stroke-width:1.0;"/></g><!--reverse link multiAppConn to AppConnConsensus--><g id="link_multiAppConn_AppConnConsensus"><path codeLine="162" d="M1610.4734,987.0276 C1636.9834,1019.8976 1669.78,1060.5769 1704.84,1104.0469 " fill="none" id="multiAppConn-backto-AppConnConsensus" style="stroke:#181818;stroke-width:1.0;"/><polygon fill="none" points="1602.94,977.6869,1603.5931,984.8683,1610.4734,987.0276,1609.8202,979.8461,1602.94,977.6869" style="stroke:#181818;stroke-width:1.0;"/></g><!--reverse link multiAppConn to AppConnMempool--><g id="link_multiAppConn_AppConnMempool"><path codeLine="163" d="M1574,989.6869 C1574,1025.7369 1574,1070.4069 1574,1116.4569 " fill="none" id="multiAppConn-backto-AppConnMempool" style="stroke:#181818;stroke-width:1.0;"/><polygon fill="none" points="1574,977.6869,1570,983.6869,1574,989.6869,1578,983.6869,1574,977.6869" style="stroke:#181818;stroke-width:1.0;"/></g><!--reverse link multiAppConn to AppConnQuery--><g id="link_multiAppConn_AppConnQuery"><path codeLine="164" d="M1471.6489,982.3772 C1403.6689,1011.3172 1321.37,1051.1669 1248,1104.2969 C1238.08,1111.4769 1228.27,1119.8269 1219,1128.4669 " fill="none" id="multiAppConn-backto-AppConnQuery" style="stroke:#181818;stroke-width:1.0;"/><polygon fill="none" points="1482.69,977.6769,1475.6026,976.3467,1471.6489,982.3772,1478.7362,983.7074,1482.69,977.6769" style="stroke:#181818;stroke-width:1.0;"/></g><!--reverse link multiAppConn to AppConnSnapshot--><g id="link_multiAppConn_AppConnSnapshot"><path codeLine="165" d="M1535.8763,986.8455 C1505.3563,1022.8955 1465.16,1070.4069 1426.18,1116.4569 " fill="none" id="multiAppConn-backto-AppConnSnapshot" style="stroke:#181818;stroke-width:1.0;"/><polygon fill="none" points="1543.63,977.6869,1536.7003,979.6816,1535.8763,986.8455,1542.806,984.8507,1543.63,977.6869" style="stroke:#181818;stroke-width:1.0;"/></g><!--reverse link multiAppConn to ClientCreator--><g id="link_multiAppConn_ClientCreator"><path codeLine="167" d="M1658.871,983.1377 C1721.781,1014.4777 1803.08,1056.8469 1880,1104.2969 C1908.42,1121.8269 1939.03,1143.5169 1962.73,1160.9769 " fill="none" id="multiAppConn-backto-ClientCreator" style="stroke:#181818;stroke-width:1.0;"/><polygon fill="none" points="1648.13,977.7869,1651.7169,984.0426,1658.871,983.1377,1655.2841,976.882,1648.13,977.7869" style="stroke:#181818;stroke-width:1.0;"/><text fill="#000000" font-family="sans-serif" font-size="13" lengthAdjust="spacing" textLength="122" x="1823" y="1070.3638">&#29992;&#20110;&#21019;&#24314; Client &#23545;&#35937;</text></g><!--reverse link State to BlockExecutor--><g id="link_State_BlockExecutor"><path codeLine="182" d="M903,723.2069 C903,776.9669 903,859.5369 903,908.4769 " fill="none" id="State-backto-BlockExecutor" style="stroke:#181818;stroke-width:1.0;"/><polygon fill="none" points="903,711.2069,899,717.2069,903,723.2069,907,717.2069,903,711.2069" style="stroke:#181818;stroke-width:1.0;"/></g><!--reverse link Service to AppConns--><g id="link_Service_AppConns"><path codeLine="214" d="M1321.8763,263.2137 C1340.0163,338.3137 1375.37,484.5769 1399.64,585.0569 " fill="none" id="Service-backto-AppConns" style="stroke:#181818;stroke-width:1.0;"/><polygon fill="none" points="1317.65,245.7169,1316.044,264.6224,1327.7085,261.8049,1317.65,245.7169" style="stroke:#181818;stroke-width:1.0;"/></g><!--reverse link BaseService to multiAppConn--><g id="link_BaseService_multiAppConn"><path codeLine="215" d="M1644.9264,254.7712 C1632.6664,373.1912 1590.75,778.0169 1577.7,904.0669 " fill="none" id="BaseService-backto-multiAppConn" style="stroke:#181818;stroke-width:1.0;"/><polygon fill="none" points="1646.78,236.8669,1638.9583,254.1533,1650.8945,255.3891,1646.78,236.8669" style="stroke:#181818;stroke-width:1.0;"/></g><!--reverse link appConnConsensus to Client--><g id="link_appConnConsensus_Client"><path codeLine="217" d="M1737.0553,1432.9261 C1676.2453,1497.2361 1547.03,1633.8869 1493.2,1690.8169 " fill="none" id="appConnConsensus-backto-Client" style="stroke:#181818;stroke-width:1.0;"/><polygon fill="none" points="1745.3,1424.2069,1738.2712,1425.8183,1737.0553,1432.9261,1744.0841,1431.3147,1745.3,1424.2069" style="stroke:#181818;stroke-width:1.0;"/></g><!--reverse link appConnMempool to Client--><g id="link_appConnMempool_Client"><path codeLine="218" d="M1557.6664,1435.6655 C1537.6664,1499.9755 1496.01,1633.8869 1478.3,1690.8169 " fill="none" id="appConnMempool-backto-Client" style="stroke:#181818;stroke-width:1.0;"/><polygon fill="none" points="1561.23,1424.2069,1555.6287,1428.7483,1557.6664,1435.6655,1563.2678,1431.1241,1561.23,1424.2069" style="stroke:#181818;stroke-width:1.0;"/></g><!--reverse link appConnQuery to Client--><g id="link_appConnQuery_Client"><path codeLine="219" d="M1229.3208,1431.2093 C1282.6808,1469.1393 1360.42,1530.2469 1418,1605.2969 C1438.49,1632.0069 1454.07,1667.9069 1462.88,1691.0769 " fill="none" id="appConnQuery-backto-Client" style="stroke:#181818;stroke-width:1.0;"/><polygon fill="none" points="1219.54,1424.2569,1222.1129,1430.9934,1229.3208,1431.2093,1226.7479,1424.4729,1219.54,1424.2569" style="stroke:#181818;stroke-width:1.0;"/></g><!--reverse link appConnSnapshot to Client--><g id="link_appConnSnapshot_Client"><path codeLine="220" d="M1385.2027,1435.6751 C1405.0127,1499.9851 1446.24,1633.8869 1463.77,1690.8169 " fill="none" id="appConnSnapshot-backto-Client" style="stroke:#181818;stroke-width:1.0;"/><polygon fill="none" points="1381.67,1424.2069,1379.6136,1431.1185,1385.2027,1435.6751,1387.2591,1428.7634,1381.67,1424.2069" style="stroke:#181818;stroke-width:1.0;"/></g><!--reverse link BlockExecutor to AppConnConsensus--><g id="link_BlockExecutor_AppConnConsensus"><path codeLine="222" d="M950.8487,980.4148 C984.0487,1005.6848 1024.95,1032.4169 1075,1049.2969 C1327.49,1134.4369 1426.27,1001.2569 1672,1104.2969 C1677.78,1106.7169 1683.48,1109.5869 1689.05,1112.7769 " fill="none" id="BlockExecutor-backto-AppConnConsensus" style="stroke:#32CD32;stroke-width:1.0;"/><polygon fill="none" points="941.3,973.1469,943.6517,979.9637,950.8487,980.4148,948.497,973.5979,941.3,973.1469" style="stroke:#32CD32;stroke-width:1.0;"/></g><!--reverse link CListMempool to AppConnMempool--><g id="link_CListMempool_AppConnMempool"><path codeLine="223" d="M315.1605,489.4109 C304.3905,612.0809 280.37,969.8669 361,1049.2969 C449.37,1136.3469 1361.25,1057.1969 1476,1104.2969 C1483.83,1107.5069 1491.44,1111.6269 1498.73,1116.3369 " fill="none" id="CListMempool-backto-AppConnMempool" style="stroke:#0000FF;stroke-width:1.0;"/><polygon fill="none" points="316.21,477.4569,311.7006,483.084,315.1605,489.4109,319.6699,483.7837,316.21,477.4569" style="stroke:#0000FF;stroke-width:1.0;"/></g><!--reverse link Environment to AppConnQuery--><g id="link_Environment_AppConnQuery"><path codeLine="224" d="M661.7783,1007.0416 C695.0383,1023.2416 720.75,1034.9869 755,1049.2969 C870.85,1097.6869 1009.49,1144.1469 1091.13,1170.3769 " fill="none" id="Environment-backto-AppConnQuery" style="stroke:#FF00FF;stroke-width:1.0;"/><polygon fill="none" points="650.99,1001.7869,654.6326,1008.0103,661.7783,1007.0416,658.1357,1000.8181,650.99,1001.7869" style="stroke:#FF00FF;stroke-width:1.0;"/></g><!--reverse link Environment to AppConnMempool--><g id="link_Environment_AppConnMempool"><path codeLine="225" d="M647.4886,1007.1819 C683.7086,1025.5819 714.74,1038.3969 755,1049.2969 C774.39,1054.5469 1457.53,1096.4069 1476,1104.2969 C1483.67,1107.5769 1491.15,1111.7069 1498.34,1116.3869 " fill="none" id="Environment-backto-AppConnMempool" style="stroke:#0000FF;stroke-width:1.0;"/><polygon fill="none" points="636.79,1001.7469,640.3277,1008.0306,647.4886,1007.1819,643.951,1000.8982,636.79,1001.7469" style="stroke:#0000FF;stroke-width:1.0;"/></g><!--reverse link Reactor to AppConnSnapshot--><g id="link_Reactor_AppConnSnapshot"><path codeLine="226" d="M213.7174,1002.6156 C240.1974,1032.1056 269.43,1057.4769 311,1074.2969 C504.12,1152.4369 1051.93,1033.8969 1248,1104.2969 C1256.82,1107.4669 1265.51,1111.5969 1273.91,1116.3369 " fill="none" id="Reactor-backto-AppConnSnapshot" style="stroke:#FFD700;stroke-width:1.0;"/><polygon fill="none" points="205.7,993.6869,206.7324,1000.8237,213.7174,1002.6156,212.6849,995.4788,205.7,993.6869" style="stroke:#FFD700;stroke-width:1.0;"/></g><!--reverse link Reactor to AppConnQuery--><g id="link_Reactor_AppConnQuery"><path codeLine="227" d="M183.0805,1004.7436 C193.5105,1033.1936 206.66,1055.2369 234,1074.2969 C372.68,1170.9369 899.77,1188.4369 1091.09,1191.5969 " fill="none" id="Reactor-backto-AppConnQuery" style="stroke:#FF00FF;stroke-width:1.0;"/><polygon fill="none" points="178.95,993.4769,177.2597,1000.4871,183.0805,1004.7436,184.7708,997.7334,178.95,993.4769" style="stroke:#FF00FF;stroke-width:1.0;"/></g><!--reverse link Application to BaseApp--><g id="link_Application_BaseApp"><path codeLine="247" d="M1067,1887.7269 C1067,1951.9469 1067,2112.1769 1067,2176.0969 " fill="none" id="Application-backto-BaseApp" style="stroke:#181818;stroke-width:1.0;"/><polygon fill="none" points="1067,1869.7269,1061,1887.7269,1073,1887.7269,1067,1869.7269" style="stroke:#181818;stroke-width:1.0;"/></g><!--reverse link BaseApp to EthermintApp--><g id="link_BaseApp_EthermintApp"><path codeLine="248" d="M1067,2242.6669 C1067,2280.5869 1067,2337.0569 1067,2374.9569 " fill="none" id="BaseApp-backto-EthermintApp" style="stroke:#181818;stroke-width:1.0;"/><polygon fill="none" points="1067,2224.6669,1061,2242.6669,1073,2242.6669,1067,2224.6669" style="stroke:#181818;stroke-width:1.0;"/></g><!--SRC=[jLbRJnj757xk_egLUEXDNlSveaXWI8f4qoJE0rAKXsKzu9LtTrQxOugLMg8ba2WbX3P4hK95MofKLCJj9QBGb3_ZiPr_qPdTdRtEtgnq96GySwxVENFcp5WKHH6fI0E2w0rvGL7xMmVunH-3ruy7vrTuzrzd3HWDZzBvQiWwi4rP0I8YAy3ILGE9ZmHVJB2kgGksP0DhMILV7la4T10UO2rIeZftdOvFwqYsq4SVYy2oeCLRXYPtjHlvPa14J06BA261sbVrx6EVqXACq57d7Gb2PDf6Lbj1ufHiWtG7LDtKc7yf1dPvkD50nCH55nLDvQdpCQrfAeW6XGzDDZmi9wgA8yxxY0EK0L88A0qgikQPDVO5H7TKeyLnWOv9qzHKHKOgD4JKCO4jXMOAEEHf6V-cKWchJJLjoJALCe25vGUygU9jgBG06bL1c3j16Ckfb8HnCCnCbp3YeU2yd-Hnr5VbG4LM0cLvv2M-54ubMCb84UxUCYsuqecX8QJ2KeE6GVviODXj7eRZ2jIWTMDQjbgtB02C2Rn-FZpTmCVRRY5DC7nEHc9orb1HhIchHhrZA8dL2Xc9oIcmf1fJ18eMbqSY8p4v3JHr6LZtLoRjmZmpHgEabXhKTHKbwBkyyYdd8-oH-D7dR8Mew4JKd7qKroG8sK7_4kWcX5gXa6-iu-EV- -U_bOnwhGcKLgbWU1p5i-IcrhQR9HGuzAL2buxJg85Z4iDXy-PoOdQt3QnEaOZrVpqOdkwN39SZlJZqiyOYB4uzepHXATpJV1qLTLTU67Dd9WVnkY6RTXEYGjla-cYm_cT9qETK6p4bTl4QzDNY8h0ON_4ep46vmRXgpRPHekhHywUJpPiLpWmWHuseBp8SL3QP5bTNUCq2Ce8MnvZRuEl9gTgiIqPwxy969Tl0T2NLQk_Y6Jx_3b_k37OEyO-Rz_rx1eVMIxHxe361Vpd4svkzYzNUnL_3wzt1uVUzYsEU-BVNHF3mz02Vx0ssplBDje1EcfF_pUxUnVFtRthKsdWtxCtdSN0Sppiv2xL9xrPV3w-V3C_MY3DkFS1FtlPVdULp3gztyEwUwttlSeDfdP-V5_sxApxzUtZ-Ux4Aunqj99UZvq_HPiVh9mB-eCKe9C4fim6tMtKBSRAz732pcG_oCrflQqZrsCJnSIyU9AqSwF3J3VpY1xhJAPgiPBjh4nD50bojaemcBNq3IAHct2QVeXjXajR3_IFyT1TVNUP7A7O5y5FCISwm3r6wY7UGa6R69esQbmbfjCcufL7oIt22EhePRuXae_GkjrpSs0qnbkVS-uwDP1H_cs2F5xIndra1IfjVpvoh4h79_KVAn33yef4qGabfy3r3wewDOzC0cFLMPqfhynvJl9lLFw_wBxT4aaZzvoU3gvVzlSV5zla2SrRynDQbYEkvZlZcIwwbD3uEhZ4v7CzrDuUavS_uhjTeXyDQtZm4s4LZ1FTPB9tyYiIJb-KvxrEMgKWAj5BIQiPOLYrewCvJJxetH8Wus3h5-skancGwX4_MoDdO_-aDtbp7sqUqwiSwU94SjkAezx0x7ZHk2on6qIbHZvaS5aqUojaFEFaRcLxb-AZV0x92jt5E3WsUlUclValXF3uOUIyfYIJoYreXf1J_mf63DHUI3qFFpYJcxzOEXV23BdjmbjYxB3qhAb5DDfyZ_9eRvk8VDEvQuWa3qgk5qnXBATrnX94bHaas5xwIJFwL89rF2D8gKTy8suEnELK7pX7_i99tBWIrJugKEQBzmHZDpuVnkCHh4IiqKhYcK2jkjfMchSfn6w8PbChjwivMxMytYUqiodaBQequPoBt-Qov9dU5-Eyh2hHrQDkDy4jviBf0ifK4DkLi9ukJpcBcwTQDgmIewV-Ym_dj8KtT36ERJ51arhcG3S6kTd9IIhphkbko4g0YUGX8dhE2MrjILjsUqVUFxWafRBRm7m00]--></g></svg>