<?xml version="1.0" encoding="us-ascii" standalone="no"?><svg xmlns="http://www.w3.org/2000/svg" xmlns:xlink="http://www.w3.org/1999/xlink" contentStyleType="text/css" height="1740px" preserveAspectRatio="none" style="width:2304px;height:1740px;background:#FFFFFF;" version="1.1" viewBox="0 0 2304 1740" width="2304px" zoomAndPan="magnify"><defs/><g><text fill="#000000" font-family="sans-serif" font-size="14" font-weight="bold" lengthAdjust="spacing" textLength="89" x="1100.5" y="22.9951">Tx&#32534;&#35299;&#30721;&#31867;&#22270;</text><!--cluster CosmosSDK--><g id="cluster_CosmosSDK"><path d="M8.5,43.2969 L104.5,43.2969 A3.75,3.75 0 0 1 107,45.7969 L114,65.5938 L2064.5,65.5938 A2.5,2.5 0 0 1 2067,68.0938 L2067,1731.2969 A2.5,2.5 0 0 1 2064.5,1733.7969 L8.5,1733.7969 A2.5,2.5 0 0 1 6,1731.2969 L6,45.7969 A2.5,2.5 0 0 1 8.5,43.2969 " fill="none" style="stroke:#000000;stroke-width:1.5;"/><line style="stroke:#000000;stroke-width:1.5;" x1="6" x2="114" y1="65.5938" y2="65.5938"/><text fill="#000000" font-family="sans-serif" font-size="14" font-weight="bold" lengthAdjust="spacing" textLength="95" x="10" y="58.292">CosmosSDK</text></g><!--cluster baseapp--><g id="cluster_baseapp"><path d="M1399.5,86.2969 L1467.5,86.2969 A3.75,3.75 0 0 1 1470,88.7969 L1477,108.5938 L2015.5,108.5938 A2.5,2.5 0 0 1 2018,111.0938 L2018,215.7969 A2.5,2.5 0 0 1 2015.5,218.2969 L1399.5,218.2969 A2.5,2.5 0 0 1 1397,215.7969 L1397,88.7969 A2.5,2.5 0 0 1 1399.5,86.2969 " fill="none" style="stroke:#000000;stroke-width:1.5;"/><line style="stroke:#000000;stroke-width:1.5;" x1="1397" x2="1477" y1="108.5938" y2="108.5938"/><text fill="#000000" font-family="sans-serif" font-size="14" font-weight="bold" lengthAdjust="spacing" textLength="67" x="1401" y="101.292">baseapp</text></g><!--cluster codec--><g id="cluster_codec"><path d="M32.5,912.7969 L81.5,912.7969 A3.75,3.75 0 0 1 84,915.2969 L91,935.0938 L1301.5,935.0938 A2.5,2.5 0 0 1 1304,937.5938 L1304,1707.2969 A2.5,2.5 0 0 1 1301.5,1709.7969 L32.5,1709.7969 A2.5,2.5 0 0 1 30,1707.2969 L30,915.2969 A2.5,2.5 0 0 1 32.5,912.7969 " fill="none" style="stroke:#000000;stroke-width:1.5;"/><line style="stroke:#000000;stroke-width:1.5;" x1="30" x2="91" y1="935.0938" y2="935.0938"/><text fill="#000000" font-family="sans-serif" font-size="14" font-weight="bold" lengthAdjust="spacing" textLength="48" x="34" y="927.792">codec</text></g><!--cluster types--><g id="cluster_types"><path d="M851.5,1111.2969 L896.5,1111.2969 A3.75,3.75 0 0 1 899,1113.7969 L906,1133.5938 L1277.5,1133.5938 A2.5,2.5 0 0 1 1280,1136.0938 L1280,1580.2969 A2.5,2.5 0 0 1 1277.5,1582.7969 L851.5,1582.7969 A2.5,2.5 0 0 1 849,1580.2969 L849,1113.7969 A2.5,2.5 0 0 1 851.5,1111.2969 " fill="none" style="stroke:#000000;stroke-width:1.5;"/><line style="stroke:#000000;stroke-width:1.5;" x1="849" x2="906" y1="1133.5938" y2="1133.5938"/><text fill="#000000" font-family="sans-serif" font-size="14" font-weight="bold" lengthAdjust="spacing" textLength="44" x="853" y="1126.292">types</text></g><!--cluster client--><g id="cluster_client"><path d="M1791.5,251.2969 L1835.5,251.2969 A3.75,3.75 0 0 1 1838,253.7969 L1845,273.5938 L1994.5,273.5938 A2.5,2.5 0 0 1 1997,276.0938 L1997,654.2969 A2.5,2.5 0 0 1 1994.5,656.7969 L1791.5,656.7969 A2.5,2.5 0 0 1 1789,654.2969 L1789,253.7969 A2.5,2.5 0 0 1 1791.5,251.2969 " fill="none" style="stroke:#000000;stroke-width:1.5;"/><line style="stroke:#000000;stroke-width:1.5;" x1="1789" x2="1845" y1="273.5938" y2="273.5938"/><text fill="#000000" font-family="sans-serif" font-size="14" font-weight="bold" lengthAdjust="spacing" textLength="43" x="1793" y="266.292">client</text></g><!--cluster x--><g id="cluster_x"><path d="M1330.5,758.2969 L1340.5,758.2969 A3.75,3.75 0 0 1 1343,760.7969 L1350,780.5938 L2040.5,780.5938 A2.5,2.5 0 0 1 2043,783.0938 L2043,1271.2969 A2.5,2.5 0 0 1 2040.5,1273.7969 L1330.5,1273.7969 A2.5,2.5 0 0 1 1328,1271.2969 L1328,760.7969 A2.5,2.5 0 0 1 1330.5,758.2969 " fill="none" style="stroke:#000000;stroke-width:1.5;"/><line style="stroke:#000000;stroke-width:1.5;" x1="1328" x2="1350" y1="780.5938" y2="780.5938"/><text fill="#000000" font-family="sans-serif" font-size="14" font-weight="bold" lengthAdjust="spacing" textLength="9" x="1332" y="773.292">x</text></g><!--cluster auth--><g id="cluster_auth"><path d="M1354.5,801.2969 L1390.5,801.2969 A3.75,3.75 0 0 1 1393,803.7969 L1400,823.5938 L2016.5,823.5938 A2.5,2.5 0 0 1 2019,826.0938 L2019,1247.2969 A2.5,2.5 0 0 1 2016.5,1249.7969 L1354.5,1249.7969 A2.5,2.5 0 0 1 1352,1247.2969 L1352,803.7969 A2.5,2.5 0 0 1 1354.5,801.2969 " fill="none" style="stroke:#000000;stroke-width:1.5;"/><line style="stroke:#000000;stroke-width:1.5;" x1="1352" x2="1400" y1="823.5938" y2="823.5938"/><text fill="#000000" font-family="sans-serif" font-size="14" font-weight="bold" lengthAdjust="spacing" textLength="35" x="1356" y="816.292">auth</text></g><!--cluster tx--><g id="cluster_tx"><path d="M1378.5,844.2969 L1394.5,844.2969 A3.75,3.75 0 0 1 1397,846.7969 L1404,866.5938 L1992.5,866.5938 A2.5,2.5 0 0 1 1995,869.0938 L1995,1223.2969 A2.5,2.5 0 0 1 1992.5,1225.7969 L1378.5,1225.7969 A2.5,2.5 0 0 1 1376,1223.2969 L1376,846.7969 A2.5,2.5 0 0 1 1378.5,844.2969 " fill="none" style="stroke:#000000;stroke-width:1.5;"/><line style="stroke:#000000;stroke-width:1.5;" x1="1376" x2="1404" y1="866.5938" y2="866.5938"/><text fill="#000000" font-family="sans-serif" font-size="14" font-weight="bold" lengthAdjust="spacing" textLength="15" x="1380" y="859.292">tx</text></g><!--cluster simapp--><g id="cluster_simapp"><path d="M449.5,470.2969 L506.5,470.2969 A3.75,3.75 0 0 1 509,472.7969 L516,492.5938 L830.5,492.5938 A2.5,2.5 0 0 1 833,495.0938 L833,722.7969 A2.5,2.5 0 0 1 830.5,725.2969 L449.5,725.2969 A2.5,2.5 0 0 1 447,722.7969 L447,472.7969 A2.5,2.5 0 0 1 449.5,470.2969 " fill="none" style="stroke:#000000;stroke-width:1.5;"/><line style="stroke:#000000;stroke-width:1.5;" x1="447" x2="516" y1="492.5938" y2="492.5938"/><text fill="#000000" font-family="sans-serif" font-size="14" font-weight="bold" lengthAdjust="spacing" textLength="56" x="451" y="485.292">simapp</text></g><!--cluster params--><g id="cluster_params"><path d="M473.5,513.2969 L532.5,513.2969 A3.75,3.75 0 0 1 535,515.7969 L542,535.5938 L806.5,535.5938 A2.5,2.5 0 0 1 809,538.0938 L809,698.7969 A2.5,2.5 0 0 1 806.5,701.2969 L473.5,701.2969 A2.5,2.5 0 0 1 471,698.7969 L471,515.7969 A2.5,2.5 0 0 1 473.5,513.2969 " fill="none" style="stroke:#000000;stroke-width:1.5;"/><line style="stroke:#000000;stroke-width:1.5;" x1="471" x2="542" y1="535.5938" y2="535.5938"/><text fill="#000000" font-family="sans-serif" font-size="14" font-weight="bold" lengthAdjust="spacing" textLength="58" x="475" y="528.292">params</text></g><!--cluster Ethermint--><g id="cluster_Ethermint"><path d="M2093.5,514.7969 L2170.5,514.7969 A3.75,3.75 0 0 1 2173,517.2969 L2180,537.0938 L2294.5,537.0938 A2.5,2.5 0 0 1 2297,539.5938 L2297,678.2969 A2.5,2.5 0 0 1 2294.5,680.7969 L2093.5,680.7969 A2.5,2.5 0 0 1 2091,678.2969 L2091,517.2969 A2.5,2.5 0 0 1 2093.5,514.7969 " fill="none" style="stroke:#000000;stroke-width:1.5;"/><line style="stroke:#000000;stroke-width:1.5;" x1="2091" x2="2180" y1="537.0938" y2="537.0938"/><text fill="#000000" font-family="sans-serif" font-size="14" font-weight="bold" lengthAdjust="spacing" textLength="76" x="2095" y="529.792">Ethermint</text></g><!--cluster app--><g id="cluster_app"><path d="M2117.5,557.7969 L2147.5,557.7969 A3.75,3.75 0 0 1 2150,560.2969 L2157,580.0938 L2270.5,580.0938 A2.5,2.5 0 0 1 2273,582.5938 L2273,654.2969 A2.5,2.5 0 0 1 2270.5,656.7969 L2117.5,656.7969 A2.5,2.5 0 0 1 2115,654.2969 L2115,560.2969 A2.5,2.5 0 0 1 2117.5,557.7969 " fill="none" style="stroke:#000000;stroke-width:1.5;"/><line style="stroke:#000000;stroke-width:1.5;" x1="2115" x2="2157" y1="580.0938" y2="580.0938"/><text fill="#000000" font-family="sans-serif" font-size="14" font-weight="bold" lengthAdjust="spacing" textLength="29" x="2119" y="572.792">app</text></g><!--class BaseApp--><g id="elem_BaseApp"><rect codeLine="9" fill="#F1F1F1" height="64.2969" id="BaseApp" rx="2.5" ry="2.5" style="stroke:#181818;stroke-width:0.5;" width="193" x="1800.5" y="129.7969"/><ellipse cx="1861.75" cy="145.7969" fill="#F1F1F1" rx="11" ry="11" style="stroke:#181818;stroke-width:1.0;"/><path d="M1861.2344,146.3594 Q1859.375,145.6563 1858.7188,144.8906 Q1858.0781,144.1094 1858.0781,142.7969 Q1858.0781,141.1094 1859.1563,140.1406 Q1860.2344,139.1719 1862.1094,139.1719 Q1862.9688,139.1719 1863.8125,139.375 Q1864.6719,139.5625 1865.5156,139.9531 L1865.5156,142.3438 Q1864.7344,141.7813 1863.9063,141.5 Q1863.0938,141.2031 1862.2969,141.2031 Q1861.4219,141.2031 1860.9375,141.5625 Q1860.4688,141.9219 1860.4688,142.5781 Q1860.4688,143.0938 1860.8125,143.4375 Q1861.1563,143.7656 1862.25,144.1719 L1863.3125,144.5781 Q1864.7969,145.125 1865.5,146.0313 Q1866.2188,146.9375 1866.2188,148.3125 Q1866.2188,150.1875 1865.1094,151.1094 Q1864,152.0313 1861.75,152.0313 Q1860.8281,152.0313 1859.9063,151.8125 Q1858.9844,151.5938 1858.125,151.1719 L1858.125,148.6406 Q1859.0938,149.3281 1860.0156,149.6719 Q1860.9375,150.0156 1861.8281,150.0156 Q1862.7344,150.0156 1863.2344,149.6094 Q1863.7344,149.1875 1863.7344,148.4531 Q1863.7344,147.8906 1863.3906,147.4844 Q1863.0625,147.0625 1862.4375,146.8125 L1861.2344,146.3594 Z " fill="#000000"/><text fill="#000000" font-family="sans-serif" font-size="14" lengthAdjust="spacing" textLength="62" x="1882.25" y="150.6436">BaseApp</text><line style="stroke:#181818;stroke-width:0.5;" x1="1801.5" x2="1992.5" y1="161.7969" y2="161.7969"/><text fill="#000000" font-family="sans-serif" font-size="14" lengthAdjust="spacing" textLength="181" x="1806.5" y="178.792">sdk.TxDecoder txDecoder</text><line style="stroke:#181818;stroke-width:0.5;" x1="1801.5" x2="1992.5" y1="186.0938" y2="186.0938"/></g><path d="M1413,121.2969 L1413,191.8281 A0,0 0 0 0 1413,191.8281 L1757,191.8281 A0,0 0 0 0 1757,191.8281 L1757,160.5625 L1804.5,173.9453 L1757,152.5625 L1757,131.2969 L1747,121.2969 L1413,121.2969 A0,0 0 0 0 1413,121.2969 " fill="#FEFFDD" style="stroke:#181818;stroke-width:0.5;"/><path d="M1747,121.2969 L1747,131.2969 L1757,131.2969 L1747,121.2969 " fill="#FEFFDD" style="stroke:#181818;stroke-width:0.5;"/><text fill="#000000" font-family="sans-serif" font-size="13" lengthAdjust="spacing" textLength="195" x="1419" y="138.3638">&#20107;&#21153;&#35299;&#30721;&#20989;&#25968;&#25351;&#38024;&#65292;&#20989;&#25968;&#21407;&#22411;&#20026;&#65306;</text><text fill="#000000" font-family="sans-serif" font-size="13" lengthAdjust="spacing" textLength="298" x="1419" y="153.4966">type TxDecoder func(txBytes []byte) (Tx, error)</text><text fill="#000000" font-family="sans-serif" font-size="13" lengthAdjust="spacing" textLength="78" x="1419" y="168.6294">&#23383;&#27573;&#21021;&#22987;&#21270;&#65306;</text><text fill="#000000" font-family="sans-serif" font-size="13" lengthAdjust="spacing" textLength="323" x="1419" y="183.7622">txDecoder = encodingConfig.TxConfig.TxDecoder()</text><!--class BinaryCodec--><g id="elem_BinaryCodec"><rect codeLine="87" fill="#F1F1F1" height="48" id="BinaryCodec" rx="2.5" ry="2.5" style="stroke:#181818;stroke-width:0.5;" width="120" x="956" y="947.7969"/><ellipse cx="971" cy="963.7969" fill="#B4A7E5" rx="11" ry="11" style="stroke:#181818;stroke-width:1.0;"/><path d="M966.9219,959.5625 L966.9219,957.4063 L974.3125,957.4063 L974.3125,959.5625 L971.8438,959.5625 L971.8438,967.6406 L974.3125,967.6406 L974.3125,969.7969 L966.9219,969.7969 L966.9219,967.6406 L969.3906,967.6406 L969.3906,959.5625 L966.9219,959.5625 Z " fill="#000000"/><text fill="#000000" font-family="sans-serif" font-size="14" font-style="italic" lengthAdjust="spacing" textLength="88" x="985" y="968.6436">BinaryCodec</text><line style="stroke:#181818;stroke-width:0.5;" x1="957" x2="1075" y1="979.7969" y2="979.7969"/><line style="stroke:#181818;stroke-width:0.5;" x1="957" x2="1075" y1="987.7969" y2="987.7969"/></g><!--class JSONCodec--><g id="elem_JSONCodec"><rect codeLine="90" fill="#F1F1F1" height="48" id="JSONCodec" rx="2.5" ry="2.5" style="stroke:#181818;stroke-width:0.5;" width="112" x="809" y="947.7969"/><ellipse cx="824" cy="963.7969" fill="#B4A7E5" rx="11" ry="11" style="stroke:#181818;stroke-width:1.0;"/><path d="M819.9219,959.5625 L819.9219,957.4063 L827.3125,957.4063 L827.3125,959.5625 L824.8438,959.5625 L824.8438,967.6406 L827.3125,967.6406 L827.3125,969.7969 L819.9219,969.7969 L819.9219,967.6406 L822.3906,967.6406 L822.3906,959.5625 L819.9219,959.5625 Z " fill="#000000"/><text fill="#000000" font-family="sans-serif" font-size="14" font-style="italic" lengthAdjust="spacing" textLength="80" x="838" y="968.6436">JSONCodec</text><line style="stroke:#181818;stroke-width:0.5;" x1="810" x2="920" y1="979.7969" y2="979.7969"/><line style="stroke:#181818;stroke-width:0.5;" x1="810" x2="920" y1="987.7969" y2="987.7969"/></g><!--class Codec--><g id="elem_Codec"><rect codeLine="94" fill="#87CEEB" height="48" id="Codec" rx="2.5" ry="2.5" style="stroke:#181818;stroke-width:0.5;" width="77" x="754.5" y="1161.7969"/><ellipse cx="769.5" cy="1177.7969" fill="#B4A7E5" rx="11" ry="11" style="stroke:#181818;stroke-width:1.0;"/><path d="M765.4219,1173.5625 L765.4219,1171.4063 L772.8125,1171.4063 L772.8125,1173.5625 L770.3438,1173.5625 L770.3438,1181.6406 L772.8125,1181.6406 L772.8125,1183.7969 L765.4219,1183.7969 L765.4219,1181.6406 L767.8906,1181.6406 L767.8906,1173.5625 L765.4219,1173.5625 Z " fill="#000000"/><text fill="#000000" font-family="sans-serif" font-size="14" font-style="italic" lengthAdjust="spacing" textLength="45" x="783.5" y="1182.6436">Codec</text><line style="stroke:#181818;stroke-width:0.5;" x1="755.5" x2="830.5" y1="1193.7969" y2="1193.7969"/><line style="stroke:#181818;stroke-width:0.5;" x1="755.5" x2="830.5" y1="1201.7969" y2="1201.7969"/></g><!--class ProtoCodecMarshaler--><g id="elem_ProtoCodecMarshaler"><rect codeLine="100" fill="#F1F1F1" height="48" id="ProtoCodecMarshaler" rx="2.5" ry="2.5" style="stroke:#181818;stroke-width:0.5;" width="179" x="650.5" y="1344.7969"/><ellipse cx="665.5" cy="1360.7969" fill="#B4A7E5" rx="11" ry="11" style="stroke:#181818;stroke-width:1.0;"/><path d="M661.4219,1356.5625 L661.4219,1354.4063 L668.8125,1354.4063 L668.8125,1356.5625 L666.3438,1356.5625 L666.3438,1364.6406 L668.8125,1364.6406 L668.8125,1366.7969 L661.4219,1366.7969 L661.4219,1364.6406 L663.8906,1364.6406 L663.8906,1356.5625 L661.4219,1356.5625 Z " fill="#000000"/><text fill="#000000" font-family="sans-serif" font-size="14" font-style="italic" lengthAdjust="spacing" textLength="147" x="679.5" y="1365.6436">ProtoCodecMarshaler</text><line style="stroke:#181818;stroke-width:0.5;" x1="651.5" x2="828.5" y1="1376.7969" y2="1376.7969"/><line style="stroke:#181818;stroke-width:0.5;" x1="651.5" x2="828.5" y1="1384.7969" y2="1384.7969"/></g><!--class ProtoMarshaler--><g id="elem_ProtoMarshaler"><rect codeLine="105" fill="#F1F1F1" height="64.2969" id="ProtoMarshaler" rx="2.5" ry="2.5" style="stroke:#181818;stroke-width:0.5;" width="213" x="573.5" y="1629.7969"/><ellipse cx="624.75" cy="1645.7969" fill="#B4A7E5" rx="11" ry="11" style="stroke:#181818;stroke-width:1.0;"/><path d="M620.6719,1641.5625 L620.6719,1639.4063 L628.0625,1639.4063 L628.0625,1641.5625 L625.5938,1641.5625 L625.5938,1649.6406 L628.0625,1649.6406 L628.0625,1651.7969 L620.6719,1651.7969 L620.6719,1649.6406 L623.1406,1649.6406 L623.1406,1641.5625 L620.6719,1641.5625 Z " fill="#000000"/><text fill="#000000" font-family="sans-serif" font-size="14" font-style="italic" lengthAdjust="spacing" textLength="102" x="645.25" y="1650.6436">ProtoMarshaler</text><line style="stroke:#181818;stroke-width:0.5;" x1="574.5" x2="785.5" y1="1661.7969" y2="1661.7969"/><text fill="#000000" font-family="sans-serif" font-size="14" lengthAdjust="spacing" textLength="201" x="579.5" y="1678.792">//&#27599;&#20010;proto&#28040;&#24687;&#37117;&#35201;&#23454;&#29616;&#35813;&#25509;&#21475;</text><line style="stroke:#181818;stroke-width:0.5;" x1="574.5" x2="785.5" y1="1686.0938" y2="1686.0938"/></g><!--class ProtoCodec--><g id="elem_ProtoCodec"><rect codeLine="108" fill="#F1F1F1" height="64.2969" id="ProtoCodec" rx="2.5" ry="2.5" style="stroke:#181818;stroke-width:0.5;" width="290" x="535" y="1482.2969"/><ellipse cx="634.75" cy="1498.2969" fill="#F1F1F1" rx="11" ry="11" style="stroke:#181818;stroke-width:1.0;"/><path d="M634.2344,1498.8594 Q632.375,1498.1563 631.7188,1497.3906 Q631.0781,1496.6094 631.0781,1495.2969 Q631.0781,1493.6094 632.1563,1492.6406 Q633.2344,1491.6719 635.1094,1491.6719 Q635.9688,1491.6719 636.8125,1491.875 Q637.6719,1492.0625 638.5156,1492.4531 L638.5156,1494.8438 Q637.7344,1494.2813 636.9063,1494 Q636.0938,1493.7031 635.2969,1493.7031 Q634.4219,1493.7031 633.9375,1494.0625 Q633.4688,1494.4219 633.4688,1495.0781 Q633.4688,1495.5938 633.8125,1495.9375 Q634.1563,1496.2656 635.25,1496.6719 L636.3125,1497.0781 Q637.7969,1497.625 638.5,1498.5313 Q639.2188,1499.4375 639.2188,1500.8125 Q639.2188,1502.6875 638.1094,1503.6094 Q637,1504.5313 634.75,1504.5313 Q633.8281,1504.5313 632.9063,1504.3125 Q631.9844,1504.0938 631.125,1503.6719 L631.125,1501.1406 Q632.0938,1501.8281 633.0156,1502.1719 Q633.9375,1502.5156 634.8281,1502.5156 Q635.7344,1502.5156 636.2344,1502.1094 Q636.7344,1501.6875 636.7344,1500.9531 Q636.7344,1500.3906 636.3906,1499.9844 Q636.0625,1499.5625 635.4375,1499.3125 L634.2344,1498.8594 Z " fill="#000000"/><text fill="#000000" font-family="sans-serif" font-size="14" lengthAdjust="spacing" textLength="82" x="655.25" y="1503.1436">ProtoCodec</text><line style="stroke:#181818;stroke-width:0.5;" x1="536" x2="824" y1="1514.2969" y2="1514.2969"/><text fill="#000000" font-family="sans-serif" font-size="14" lengthAdjust="spacing" textLength="278" x="541" y="1531.292">types.InterfaceRegistry interfaceRegistry</text><line style="stroke:#181818;stroke-width:0.5;" x1="536" x2="824" y1="1538.5938" y2="1538.5938"/></g><g id="elem_GMN39"><path d="M46.5,1471.2969 L46.5,1556.9609 A0,0 0 0 0 46.5,1556.9609 L491.5,1556.9609 A0,0 0 0 0 491.5,1556.9609 L491.5,1518.2969 L527.05,1514.2969 L491.5,1510.2969 L491.5,1481.2969 L481.5,1471.2969 L46.5,1471.2969 A0,0 0 0 0 46.5,1471.2969 " fill="#FEFFDD" style="stroke:#181818;stroke-width:0.5;"/><path d="M481.5,1471.2969 L481.5,1481.2969 L491.5,1481.2969 L481.5,1471.2969 " fill="#FEFFDD" style="stroke:#181818;stroke-width:0.5;"/><text fill="#000000" font-family="sans-serif" font-size="13" lengthAdjust="spacing" textLength="230" x="52.5" y="1488.3638">//ProtoCodec&#30340;Unmarshal&#20989;&#25968;&#23454;&#29616;&#65306;</text><text fill="#000000" font-family="monospace" font-size="13" lengthAdjust="spacing" textLength="328" x="52.5" y="1503.4966">Unmarshal(bz&#160;[]byte,&#160;ptr&#160;ProtoMarshaler){</text><text fill="#000000" font-family="monospace" font-size="13" lengthAdjust="spacing" textLength="160" x="84.5" y="1518.6294">ptr.Unmarshal(bz)&#160;//</text><text fill="#000000" font-family="monospace" font-size="13" lengthAdjust="spacing" textLength="392" x="84.5" y="1533.7622">types.UnpackInterfaces(ptr,&#160;pc.interfaceRegistry)</text><text fill="#000000" font-family="monospace" font-size="13" lengthAdjust="spacing" textLength="8" x="52.5" y="1548.895">}</text></g><!--class LegacyAmino--><g id="elem_LegacyAmino"><rect codeLine="123" fill="#87CEEB" height="48" id="LegacyAmino" rx="2.5" ry="2.5" style="stroke:#181818;stroke-width:0.5;" width="123" x="650.5" y="947.7969"/><ellipse cx="665.5" cy="963.7969" fill="#F1F1F1" rx="11" ry="11" style="stroke:#181818;stroke-width:1.0;"/><path d="M664.9844,964.3594 Q663.125,963.6563 662.4688,962.8906 Q661.8281,962.1094 661.8281,960.7969 Q661.8281,959.1094 662.9063,958.1406 Q663.9844,957.1719 665.8594,957.1719 Q666.7188,957.1719 667.5625,957.375 Q668.4219,957.5625 669.2656,957.9531 L669.2656,960.3438 Q668.4844,959.7813 667.6563,959.5 Q666.8438,959.2031 666.0469,959.2031 Q665.1719,959.2031 664.6875,959.5625 Q664.2188,959.9219 664.2188,960.5781 Q664.2188,961.0938 664.5625,961.4375 Q664.9063,961.7656 666,962.1719 L667.0625,962.5781 Q668.5469,963.125 669.25,964.0313 Q669.9688,964.9375 669.9688,966.3125 Q669.9688,968.1875 668.8594,969.1094 Q667.75,970.0313 665.5,970.0313 Q664.5781,970.0313 663.6563,969.8125 Q662.7344,969.5938 661.875,969.1719 L661.875,966.6406 Q662.8438,967.3281 663.7656,967.6719 Q664.6875,968.0156 665.5781,968.0156 Q666.4844,968.0156 666.9844,967.6094 Q667.4844,967.1875 667.4844,966.4531 Q667.4844,965.8906 667.1406,965.4844 Q666.8125,965.0625 666.1875,964.8125 L664.9844,964.3594 Z " fill="#000000"/><text fill="#000000" font-family="sans-serif" font-size="14" lengthAdjust="spacing" textLength="91" x="679.5" y="968.6436">LegacyAmino</text><line style="stroke:#181818;stroke-width:0.5;" x1="651.5" x2="772.5" y1="979.7969" y2="979.7969"/><line style="stroke:#181818;stroke-width:0.5;" x1="651.5" x2="772.5" y1="987.7969" y2="987.7969"/></g><!--class AnyUnpacker--><g id="elem_AnyUnpacker"><rect codeLine="20" fill="#32CD32" height="64.2969" id="AnyUnpacker" rx="2.5" ry="2.5" style="stroke:#181818;stroke-width:0.5;" width="214" x="865" y="1336.7969"/><ellipse cx="921.25" cy="1352.7969" fill="#B4A7E5" rx="11" ry="11" style="stroke:#181818;stroke-width:1.0;"/><path d="M917.1719,1348.5625 L917.1719,1346.4063 L924.5625,1346.4063 L924.5625,1348.5625 L922.0938,1348.5625 L922.0938,1356.6406 L924.5625,1356.6406 L924.5625,1358.7969 L917.1719,1358.7969 L917.1719,1356.6406 L919.6406,1356.6406 L919.6406,1348.5625 L917.1719,1348.5625 Z " fill="#000000"/><text fill="#000000" font-family="sans-serif" font-size="14" font-style="italic" lengthAdjust="spacing" textLength="93" x="941.75" y="1357.6436">AnyUnpacker</text><line style="stroke:#181818;stroke-width:0.5;" x1="866" x2="1078" y1="1368.7969" y2="1368.7969"/><line style="stroke:#181818;stroke-width:0.5;" x1="866" x2="1078" y1="1376.7969" y2="1376.7969"/><text fill="#000000" font-family="sans-serif" font-size="14" lengthAdjust="spacing" textLength="202" x="871" y="1393.792">UnpackAny(interface{}) error</text></g><g id="elem_GMN10"><path d="M866.5,1146.2969 L866.5,1224.8281 L1173.5,1224.8281 L1173.5,1156.2969 L1163.5,1146.2969 L866.5,1146.2969 " fill="#FEFFDD" style="stroke:#181818;stroke-width:0.5;"/><path d="M1163.5,1146.2969 L1163.5,1156.2969 L1173.5,1156.2969 L1163.5,1146.2969 " fill="#FEFFDD" style="stroke:#181818;stroke-width:1.0;"/><text fill="#000000" font-family="sans-serif" font-size="13" lengthAdjust="spacing" textLength="206" x="872.5" y="1163.3638">&#36825;&#20010;&#25509;&#21475;&#26159; interfaceRegistry &#32467;&#26500;</text><text fill="#000000" font-family="sans-serif" font-size="13" lengthAdjust="spacing" textLength="286" x="872.5" y="1178.4966">&#20351;&#29992;&#22312;&#23427;&#37324;&#38754;&#27880;&#20876;&#30340;&#27169;&#22359;&#35299;&#30721;&#20219;&#24847;&#28040;&#24687;&#30340;&#20851;&#38190;&#28857;&#12290;</text><line style="stroke:#181818;stroke-width:1.0;" x1="867.5" x2="1172.5" y1="1181.5625" y2="1181.5625"/><text fill="#000000" font-family="sans-serif" font-size="13" lengthAdjust="spacing" textLength="246" x="872.5" y="1197.6294">&#32534;&#30721;&#21518;&#30340;&#28040;&#24687;&#20013;&#26377;&#20854;&#25152;&#23646;&#27169;&#22359;&#30340;&#31867;&#22411;URL&#65292;</text><text fill="#000000" font-family="sans-serif" font-size="13" lengthAdjust="spacing" textLength="207" x="872.5" y="1212.7622">&#36890;&#36807;&#31867;&#22411;URL&#21487;&#20197;&#25214;&#21040;&#23545;&#24212;&#30340;&#27169;&#22359;&#65292;</text></g><!--class InterfaceRegistry--><g id="elem_InterfaceRegistry"><rect codeLine="31" fill="#87CEEB" height="48" id="InterfaceRegistry" rx="2.5" ry="2.5" style="stroke:#181818;stroke-width:0.5;" width="149" x="1114.5" y="1344.7969"/><ellipse cx="1129.5" cy="1360.7969" fill="#B4A7E5" rx="11" ry="11" style="stroke:#181818;stroke-width:1.0;"/><path d="M1125.4219,1356.5625 L1125.4219,1354.4063 L1132.8125,1354.4063 L1132.8125,1356.5625 L1130.3438,1356.5625 L1130.3438,1364.6406 L1132.8125,1364.6406 L1132.8125,1366.7969 L1125.4219,1366.7969 L1125.4219,1364.6406 L1127.8906,1364.6406 L1127.8906,1356.5625 L1125.4219,1356.5625 Z " fill="#000000"/><text fill="#000000" font-family="sans-serif" font-size="14" font-style="italic" lengthAdjust="spacing" textLength="117" x="1143.5" y="1365.6436">InterfaceRegistry</text><line style="stroke:#181818;stroke-width:0.5;" x1="1115.5" x2="1262.5" y1="1376.7969" y2="1376.7969"/><line style="stroke:#181818;stroke-width:0.5;" x1="1115.5" x2="1262.5" y1="1384.7969" y2="1384.7969"/></g><!--class interfaceRegistry--><g id="elem_interfaceRegistry"><rect codeLine="36" fill="#F1F1F1" height="104.8906" id="interfaceRegistry" rx="2.5" ry="2.5" style="stroke:#181818;stroke-width:0.5;" width="322" x="868" y="1461.7969"/><ellipse cx="966.75" cy="1477.7969" fill="#F1F1F1" rx="11" ry="11" style="stroke:#181818;stroke-width:1.0;"/><path d="M966.2344,1478.3594 Q964.375,1477.6563 963.7188,1476.8906 Q963.0781,1476.1094 963.0781,1474.7969 Q963.0781,1473.1094 964.1563,1472.1406 Q965.2344,1471.1719 967.1094,1471.1719 Q967.9688,1471.1719 968.8125,1471.375 Q969.6719,1471.5625 970.5156,1471.9531 L970.5156,1474.3438 Q969.7344,1473.7813 968.9063,1473.5 Q968.0938,1473.2031 967.2969,1473.2031 Q966.4219,1473.2031 965.9375,1473.5625 Q965.4688,1473.9219 965.4688,1474.5781 Q965.4688,1475.0938 965.8125,1475.4375 Q966.1563,1475.7656 967.25,1476.1719 L968.3125,1476.5781 Q969.7969,1477.125 970.5,1478.0313 Q971.2188,1478.9375 971.2188,1480.3125 Q971.2188,1482.1875 970.1094,1483.1094 Q969,1484.0313 966.75,1484.0313 Q965.8281,1484.0313 964.9063,1483.8125 Q963.9844,1483.5938 963.125,1483.1719 L963.125,1480.6406 Q964.0938,1481.3281 965.0156,1481.6719 Q965.9375,1482.0156 966.8281,1482.0156 Q967.7344,1482.0156 968.2344,1481.6094 Q968.7344,1481.1875 968.7344,1480.4531 Q968.7344,1479.8906 968.3906,1479.4844 Q968.0625,1479.0625 967.4375,1478.8125 L966.2344,1478.3594 Z " fill="#000000"/><text fill="#000000" font-family="sans-serif" font-size="14" lengthAdjust="spacing" textLength="116" x="987.25" y="1482.6436">interfaceRegistry</text><line style="stroke:#181818;stroke-width:0.5;" x1="869" x2="1189" y1="1493.7969" y2="1493.7969"/><text fill="#000000" font-family="sans-serif" font-size="14" lengthAdjust="spacing" textLength="272" x="874" y="1510.792">map[string]reflect.Type interfaceNames</text><line style="stroke:#181818;stroke-width:1.0;stroke-dasharray:1.0,2.0;" x1="869" x2="1189" y1="1518.0938" y2="1518.0938"/><text fill="#000000" font-family="sans-serif" font-size="14" lengthAdjust="spacing" textLength="310" x="874" y="1535.0889">map[reflect.Type]interfaceMap interfaceImpls</text><line style="stroke:#181818;stroke-width:1.0;stroke-dasharray:1.0,2.0;" x1="869" x2="1189" y1="1542.3906" y2="1542.3906"/><text fill="#000000" font-family="sans-serif" font-size="14" lengthAdjust="spacing" textLength="250" x="874" y="1559.3857">map[string]reflect.Type typeURLMap</text></g><!--class TxEncodingConfig--><g id="elem_TxEncodingConfig"><rect codeLine="47" fill="#F1F1F1" height="129.1875" id="TxEncodingConfig" rx="2.5" ry="2.5" style="stroke:#181818;stroke-width:0.5;" width="160" x="1813" y="290.2969"/><ellipse cx="1828.9" cy="306.2969" fill="#B4A7E5" rx="11" ry="11" style="stroke:#181818;stroke-width:1.0;"/><path d="M1824.8219,302.0625 L1824.8219,299.9063 L1832.2125,299.9063 L1832.2125,302.0625 L1829.7438,302.0625 L1829.7438,310.1406 L1832.2125,310.1406 L1832.2125,312.2969 L1824.8219,312.2969 L1824.8219,310.1406 L1827.2906,310.1406 L1827.2906,302.0625 L1824.8219,302.0625 Z " fill="#000000"/><text fill="#000000" font-family="sans-serif" font-size="14" font-style="italic" lengthAdjust="spacing" textLength="126" x="1843.1" y="311.1436">TxEncodingConfig</text><line style="stroke:#181818;stroke-width:0.5;" x1="1814" x2="1972" y1="322.2969" y2="322.2969"/><text fill="#0000FF" font-family="sans-serif" font-size="14" font-weight="bold" lengthAdjust="spacing" textLength="35" x="1819" y="339.292">func</text><text fill="#000000" font-family="sans-serif" font-size="14" lengthAdjust="spacing" textLength="74" x="1858" y="339.292">TxEncoder</text><line style="stroke:#181818;stroke-width:1.0;stroke-dasharray:1.0,2.0;" x1="1814" x2="1972" y1="346.5938" y2="346.5938"/><text fill="#0000FF" font-family="sans-serif" font-size="14" font-weight="bold" lengthAdjust="spacing" textLength="35" x="1819" y="363.5889">func</text><text fill="#000000" font-family="sans-serif" font-size="14" lengthAdjust="spacing" textLength="76" x="1858" y="363.5889">TxDecoder</text><line style="stroke:#181818;stroke-width:1.0;stroke-dasharray:1.0,2.0;" x1="1814" x2="1972" y1="370.8906" y2="370.8906"/><text fill="#0000FF" font-family="sans-serif" font-size="14" font-weight="bold" lengthAdjust="spacing" textLength="35" x="1819" y="387.8857">func</text><text fill="#000000" font-family="sans-serif" font-size="14" lengthAdjust="spacing" textLength="107" x="1858" y="387.8857">TxJSONEncoder</text><line style="stroke:#181818;stroke-width:1.0;stroke-dasharray:1.0,2.0;" x1="1814" x2="1972" y1="395.1875" y2="395.1875"/><text fill="#0000FF" font-family="sans-serif" font-size="14" font-weight="bold" lengthAdjust="spacing" textLength="35" x="1819" y="412.1826">func</text><text fill="#000000" font-family="sans-serif" font-size="14" lengthAdjust="spacing" textLength="109" x="1858" y="412.1826">TxJSONDecoder</text></g><!--class TxConfig--><g id="elem_TxConfig"><rect codeLine="57" fill="#87CEEB" height="48" id="TxConfig" rx="2.5" ry="2.5" style="stroke:#181818;stroke-width:0.5;" width="93" x="1828.5" y="592.7969"/><ellipse cx="1843.5" cy="608.7969" fill="#B4A7E5" rx="11" ry="11" style="stroke:#181818;stroke-width:1.0;"/><path d="M1839.4219,604.5625 L1839.4219,602.4063 L1846.8125,602.4063 L1846.8125,604.5625 L1844.3438,604.5625 L1844.3438,612.6406 L1846.8125,612.6406 L1846.8125,614.7969 L1839.4219,614.7969 L1839.4219,612.6406 L1841.8906,612.6406 L1841.8906,604.5625 L1839.4219,604.5625 Z " fill="#000000"/><text fill="#000000" font-family="sans-serif" font-size="14" font-style="italic" lengthAdjust="spacing" textLength="61" x="1857.5" y="613.6436">TxConfig</text><line style="stroke:#181818;stroke-width:0.5;" x1="1829.5" x2="1920.5" y1="624.7969" y2="624.7969"/><line style="stroke:#181818;stroke-width:0.5;" x1="1829.5" x2="1920.5" y1="632.7969" y2="632.7969"/></g><!--class config--><g id="elem_config"><rect codeLine="63" fill="#F1F1F1" height="177.7813" id="config" rx="2.5" ry="2.5" style="stroke:#181818;stroke-width:0.5;" width="294" x="1677" y="883.2969"/><ellipse cx="1798.75" cy="899.2969" fill="#F1F1F1" rx="11" ry="11" style="stroke:#181818;stroke-width:1.0;"/><path d="M1798.2344,899.8594 Q1796.375,899.1563 1795.7188,898.3906 Q1795.0781,897.6094 1795.0781,896.2969 Q1795.0781,894.6094 1796.1563,893.6406 Q1797.2344,892.6719 1799.1094,892.6719 Q1799.9688,892.6719 1800.8125,892.875 Q1801.6719,893.0625 1802.5156,893.4531 L1802.5156,895.8438 Q1801.7344,895.2813 1800.9063,895 Q1800.0938,894.7031 1799.2969,894.7031 Q1798.4219,894.7031 1797.9375,895.0625 Q1797.4688,895.4219 1797.4688,896.0781 Q1797.4688,896.5938 1797.8125,896.9375 Q1798.1563,897.2656 1799.25,897.6719 L1800.3125,898.0781 Q1801.7969,898.625 1802.5,899.5313 Q1803.2188,900.4375 1803.2188,901.8125 Q1803.2188,903.6875 1802.1094,904.6094 Q1801,905.5313 1798.75,905.5313 Q1797.8281,905.5313 1796.9063,905.3125 Q1795.9844,905.0938 1795.125,904.6719 L1795.125,902.1406 Q1796.0938,902.8281 1797.0156,903.1719 Q1797.9375,903.5156 1798.8281,903.5156 Q1799.7344,903.5156 1800.2344,903.1094 Q1800.7344,902.6875 1800.7344,901.9531 Q1800.7344,901.3906 1800.3906,900.9844 Q1800.0625,900.5625 1799.4375,900.3125 L1798.2344,899.8594 Z " fill="#000000"/><text fill="#000000" font-family="sans-serif" font-size="14" lengthAdjust="spacing" textLength="42" x="1819.25" y="904.1436">config</text><line style="stroke:#181818;stroke-width:0.5;" x1="1678" x2="1970" y1="915.2969" y2="915.2969"/><text fill="#000000" font-family="sans-serif" font-size="14" lengthAdjust="spacing" textLength="232" x="1683" y="932.292">signing.SignModeHandler handler</text><line style="stroke:#181818;stroke-width:1.0;stroke-dasharray:1.0,2.0;" x1="1678" x2="1970" y1="939.5938" y2="939.5938"/><text fill="#000000" font-family="sans-serif" font-size="14" lengthAdjust="spacing" textLength="167" x="1683" y="956.5889">sdk.TxDecoder decoder</text><line style="stroke:#181818;stroke-width:1.0;stroke-dasharray:1.0,2.0;" x1="1678" x2="1970" y1="963.8906" y2="963.8906"/><text fill="#000000" font-family="sans-serif" font-size="14" lengthAdjust="spacing" textLength="165" x="1683" y="980.8857">sdk.TxEncoder encoder</text><line style="stroke:#181818;stroke-width:1.0;stroke-dasharray:1.0,2.0;" x1="1678" x2="1970" y1="988.1875" y2="988.1875"/><text fill="#000000" font-family="sans-serif" font-size="14" lengthAdjust="spacing" textLength="198" x="1683" y="1005.1826">sdk.TxDecoder jsonDecoder</text><line style="stroke:#181818;stroke-width:1.0;stroke-dasharray:1.0,2.0;" x1="1678" x2="1970" y1="1012.4844" y2="1012.4844"/><text fill="#000000" font-family="sans-serif" font-size="14" lengthAdjust="spacing" textLength="194" x="1683" y="1029.4795">sdk.TxEncoder jsonEncoder</text><line style="stroke:#181818;stroke-width:1.0;stroke-dasharray:1.0,2.0;" x1="1678" x2="1970" y1="1036.7813" y2="1036.7813"/><text fill="#000000" font-family="sans-serif" font-size="14" lengthAdjust="spacing" textLength="282" x="1683" y="1053.7764">codec.ProtoCodecMarshaler protoCodec</text></g><!--class DefaultTxDecoder--><g id="elem_DefaultTxDecoder"><rect codeLine="76" fill="#F1F1F1" height="64.2969" id="DefaultTxDecoder" rx="2.5" ry="2.5" style="stroke:#181818;stroke-width:0.5;" width="242" x="1392" y="939.7969"/><ellipse cx="1427.7" cy="955.7969" fill="#ADD1B2" rx="11" ry="11" style="stroke:#181818;stroke-width:1.0;"/><path d="M1431.8094,961.7969 L1424.0906,961.7969 L1424.0906,949.4063 L1431.8094,949.4063 L1431.8094,951.5625 L1426.5438,951.5625 L1426.5438,954.2344 L1431.3094,954.2344 L1431.3094,956.3906 L1426.5438,956.3906 L1426.5438,959.6406 L1431.8094,959.6406 L1431.8094,961.7969 Z " fill="#000000"/><text fill="#0000FF" font-family="sans-serif" font-size="14" font-weight="bold" lengthAdjust="spacing" textLength="35" x="1446.3" y="960.6436">func</text><text fill="#000000" font-family="sans-serif" font-size="14" lengthAdjust="spacing" textLength="125" x="1485.3" y="960.6436">DefaultTxDecoder</text><line style="stroke:#181818;stroke-width:0.5;" x1="1393" x2="1633" y1="971.7969" y2="971.7969"/><text fill="#000000" font-family="sans-serif" font-size="14" lengthAdjust="spacing" textLength="230" x="1398" y="988.792">// &#36820;&#22238;&#19968;&#20010;&#38381;&#21253;&#20989;&#25968;&#20316;&#20026; txDecoder</text><line style="stroke:#181818;stroke-width:0.5;" x1="1393" x2="1633" y1="996.0938" y2="996.0938"/></g><!--class DefaultTxEncoder--><g id="elem_DefaultTxEncoder"><rect codeLine="79" fill="#F1F1F1" height="48" id="DefaultTxEncoder" rx="2.5" ry="2.5" style="stroke:#181818;stroke-width:0.5;" width="194" x="1727" y="1161.7969"/><ellipse cx="1742" cy="1177.7969" fill="#ADD1B2" rx="11" ry="11" style="stroke:#181818;stroke-width:1.0;"/><path d="M1746.1094,1183.7969 L1738.3906,1183.7969 L1738.3906,1171.4063 L1746.1094,1171.4063 L1746.1094,1173.5625 L1740.8438,1173.5625 L1740.8438,1176.2344 L1745.6094,1176.2344 L1745.6094,1178.3906 L1740.8438,1178.3906 L1740.8438,1181.6406 L1746.1094,1181.6406 L1746.1094,1183.7969 Z " fill="#000000"/><text fill="#0000FF" font-family="sans-serif" font-size="14" font-weight="bold" lengthAdjust="spacing" textLength="35" x="1756" y="1182.6436">func</text><text fill="#000000" font-family="sans-serif" font-size="14" lengthAdjust="spacing" textLength="123" x="1795" y="1182.6436">DefaultTxEncoder</text><line style="stroke:#181818;stroke-width:0.5;" x1="1728" x2="1920" y1="1193.7969" y2="1193.7969"/><line style="stroke:#181818;stroke-width:0.5;" x1="1728" x2="1920" y1="1201.7969" y2="1201.7969"/></g><!--class EncodingConfig--><g id="elem_EncodingConfig"><rect codeLine="129" fill="#87CEEB" height="129.1875" id="EncodingConfig" rx="2.5" ry="2.5" style="stroke:#181818;stroke-width:0.5;" width="290" x="495" y="552.2969"/><ellipse cx="581.25" cy="568.2969" fill="#F1F1F1" rx="11" ry="11" style="stroke:#181818;stroke-width:1.0;"/><path d="M580.7344,568.8594 Q578.875,568.1563 578.2188,567.3906 Q577.5781,566.6094 577.5781,565.2969 Q577.5781,563.6094 578.6563,562.6406 Q579.7344,561.6719 581.6094,561.6719 Q582.4688,561.6719 583.3125,561.875 Q584.1719,562.0625 585.0156,562.4531 L585.0156,564.8438 Q584.2344,564.2813 583.4063,564 Q582.5938,563.7031 581.7969,563.7031 Q580.9219,563.7031 580.4375,564.0625 Q579.9688,564.4219 579.9688,565.0781 Q579.9688,565.5938 580.3125,565.9375 Q580.6563,566.2656 581.75,566.6719 L582.8125,567.0781 Q584.2969,567.625 585,568.5313 Q585.7188,569.4375 585.7188,570.8125 Q585.7188,572.6875 584.6094,573.6094 Q583.5,574.5313 581.25,574.5313 Q580.3281,574.5313 579.4063,574.3125 Q578.4844,574.0938 577.625,573.6719 L577.625,571.1406 Q578.5938,571.8281 579.5156,572.1719 Q580.4375,572.5156 581.3281,572.5156 Q582.2344,572.5156 582.7344,572.1094 Q583.2344,571.6875 583.2344,570.9531 Q583.2344,570.3906 582.8906,569.9844 Q582.5625,569.5625 581.9375,569.3125 L580.7344,568.8594 Z " fill="#000000"/><text fill="#000000" font-family="sans-serif" font-size="14" lengthAdjust="spacing" textLength="109" x="601.75" y="573.1436">EncodingConfig</text><line style="stroke:#181818;stroke-width:0.5;" x1="496" x2="784" y1="584.2969" y2="584.2969"/><text fill="#000000" font-family="sans-serif" font-size="14" lengthAdjust="spacing" textLength="278" x="501" y="601.292">types.InterfaceRegistry InterfaceRegistry</text><line style="stroke:#181818;stroke-width:1.0;stroke-dasharray:1.0,2.0;" x1="496" x2="784" y1="608.5938" y2="608.5938"/><text fill="#000000" font-family="sans-serif" font-size="14" lengthAdjust="spacing" textLength="141" x="501" y="625.5889">codec.Codec Codec</text><line style="stroke:#181818;stroke-width:1.0;stroke-dasharray:1.0,2.0;" x1="496" x2="784" y1="632.8906" y2="632.8906"/><text fill="#000000" font-family="sans-serif" font-size="14" lengthAdjust="spacing" textLength="165" x="501" y="649.8857">client.TxConfig TxConfig</text><line style="stroke:#181818;stroke-width:1.0;stroke-dasharray:1.0,2.0;" x1="496" x2="784" y1="657.1875" y2="657.1875"/><text fill="#000000" font-family="sans-serif" font-size="14" lengthAdjust="spacing" textLength="185" x="501" y="674.1826">codec.LegacyAmino Amino</text></g><!--class EthermintApp--><g id="elem_EthermintApp"><rect codeLine="156" fill="#F1F1F1" height="48" id="EthermintApp" rx="2.5" ry="2.5" style="stroke:#181818;stroke-width:0.5;" width="126" x="2131" y="592.7969"/><ellipse cx="2146" cy="608.7969" fill="#F1F1F1" rx="11" ry="11" style="stroke:#181818;stroke-width:1.0;"/><path d="M2145.4844,609.3594 Q2143.625,608.6563 2142.9688,607.8906 Q2142.3281,607.1094 2142.3281,605.7969 Q2142.3281,604.1094 2143.4063,603.1406 Q2144.4844,602.1719 2146.3594,602.1719 Q2147.2188,602.1719 2148.0625,602.375 Q2148.9219,602.5625 2149.7656,602.9531 L2149.7656,605.3438 Q2148.9844,604.7813 2148.1563,604.5 Q2147.3438,604.2031 2146.5469,604.2031 Q2145.6719,604.2031 2145.1875,604.5625 Q2144.7188,604.9219 2144.7188,605.5781 Q2144.7188,606.0938 2145.0625,606.4375 Q2145.4063,606.7656 2146.5,607.1719 L2147.5625,607.5781 Q2149.0469,608.125 2149.75,609.0313 Q2150.4688,609.9375 2150.4688,611.3125 Q2150.4688,613.1875 2149.3594,614.1094 Q2148.25,615.0313 2146,615.0313 Q2145.0781,615.0313 2144.1563,614.8125 Q2143.2344,614.5938 2142.375,614.1719 L2142.375,611.6406 Q2143.3438,612.3281 2144.2656,612.6719 Q2145.1875,613.0156 2146.0781,613.0156 Q2146.9844,613.0156 2147.4844,612.6094 Q2147.9844,612.1875 2147.9844,611.4531 Q2147.9844,610.8906 2147.6406,610.4844 Q2147.3125,610.0625 2146.6875,609.8125 L2145.4844,609.3594 Z " fill="#000000"/><text fill="#000000" font-family="sans-serif" font-size="14" lengthAdjust="spacing" textLength="94" x="2160" y="613.6436">EthermintApp</text><line style="stroke:#181818;stroke-width:0.5;" x1="2132" x2="2256" y1="624.7969" y2="624.7969"/><line style="stroke:#181818;stroke-width:0.5;" x1="2132" x2="2256" y1="632.7969" y2="632.7969"/></g><!--link GMN10 to AnyUnpacker--><g id="link_GMN10_AnyUnpacker"><path d="M1011.29,1225.5969 C1005.84,1249.1769 998.45,1279.8369 991,1306.7969 C988.31,1316.5269 985.13,1327.0469 982.15,1336.5669 " fill="none" id="GMN10-AnyUnpacker" style="stroke:#181818;stroke-width:1.0;stroke-dasharray:7.0,7.0;"/></g><!--reverse link AnyUnpacker to InterfaceRegistry--><g id="link_AnyUnpacker_InterfaceRegistry"><path codeLine="34" d="M1097.23,1368.7969 C1108.95,1368.7969 1102.67,1368.7969 1114.39,1368.7969 " fill="none" id="AnyUnpacker-backto-InterfaceRegistry" style="stroke:#181818;stroke-width:1.0;"/><polygon fill="none" points="1079.23,1368.7969,1097.23,1374.7969,1097.23,1362.7969,1079.23,1368.7969" style="stroke:#181818;stroke-width:1.0;"/></g><!--reverse link InterfaceRegistry to interfaceRegistry--><g id="link_InterfaceRegistry_interfaceRegistry"><path codeLine="43" d="M1149.5364,1405.1912 C1128.9864,1423.6112 1112.97,1437.9869 1086.93,1461.3469 " fill="none" id="InterfaceRegistry-backto-interfaceRegistry" style="stroke:#181818;stroke-width:1.0;"/><polygon fill="none" points="1162.94,1393.1769,1145.5316,1400.7233,1153.5412,1409.6591,1162.94,1393.1769" style="stroke:#181818;stroke-width:1.0;"/></g><!--reverse link TxEncodingConfig to TxConfig--><g id="link_TxEncodingConfig_TxConfig"><path codeLine="60" d="M1887.0984,441.044 C1883.2484,496.724 1879.24,554.6069 1876.62,592.3969 " fill="none" id="TxEncodingConfig-backto-TxConfig" style="stroke:#181818;stroke-width:1.0;"/><polygon fill="none" points="1888.34,423.0869,1881.1126,440.6301,1893.0841,441.4579,1888.34,423.0869" style="stroke:#181818;stroke-width:1.0;"/></g><!--link config to DefaultTxDecoder--><g id="link_config_DefaultTxDecoder"><path codeLine="81" d="M1676,951.7969 C1662.4,951.7969 1654.1801,952.0088 1640.0901,953.1588 " fill="none" id="config-to-DefaultTxDecoder" style="stroke:#181818;stroke-width:1.0;"/><polygon fill="#181818" points="1634.11,953.6469,1643.4056,956.9015,1639.0934,953.2401,1642.7548,948.928,1634.11,953.6469" style="stroke:#181818;stroke-width:1.0;"/></g><!--link config to DefaultTxEncoder--><g id="link_config_DefaultTxEncoder"><path codeLine="82" d="M1972,975.7969 C2011.34,975.7969 1988.03,1028.8369 1971,1064.2969 C1950.07,1107.8769 1910.135,1138.0006 1875.365,1158.4006 " fill="none" id="config-to-DefaultTxEncoder" style="stroke:#181818;stroke-width:1.0;"/><polygon fill="#181818" points="1870.19,1161.4369,1879.9767,1160.3325,1874.5025,1158.9067,1875.9284,1153.4324,1870.19,1161.4369" style="stroke:#181818;stroke-width:1.0;"/></g><!--reverse link TxConfig to config--><g id="link_TxConfig_config"><path codeLine="84" d="M1869.0388,659.0423 C1862.1488,706.7823 1848.72,799.7169 1837.17,879.6669 " fill="none" id="TxConfig-backto-config" style="stroke:#181818;stroke-width:1.0;"/><polygon fill="none" points="1871.61,641.2269,1863.1003,658.1852,1874.9773,659.8994,1871.61,641.2269" style="stroke:#181818;stroke-width:1.0;"/></g><!--reverse link BinaryCodec to Codec--><g id="link_BinaryCodec_Codec"><path codeLine="97" d="M990.7737,1010.9029 C976.7737,1031.1529 964.48,1045.3269 939,1064.2969 C904.04,1090.3369 882.65,1075.5869 849,1103.2969 C829.65,1119.2269 814.16,1143.4969 804.42,1161.4069 " fill="none" id="BinaryCodec-backto-Codec" style="stroke:#181818;stroke-width:1.0;"/><polygon fill="none" points="1001.01,996.0969,985.8384,1007.4908,995.7091,1014.315,1001.01,996.0969" style="stroke:#181818;stroke-width:1.0;"/></g><!--reverse link JSONCodec to Codec--><g id="link_JSONCodec_Codec"><path codeLine="98" d="M851.2304,1013.3404 C837.3504,1054.2004 814.73,1120.8069 800.91,1161.5169 " fill="none" id="JSONCodec-backto-Codec" style="stroke:#181818;stroke-width:1.0;"/><polygon fill="none" points="857.02,996.2969,845.5492,1011.4105,856.9115,1015.2702,857.02,996.2969" style="stroke:#181818;stroke-width:1.0;"/></g><!--reverse link Codec to ProtoCodecMarshaler--><g id="link_Codec_ProtoCodecMarshaler"><path codeLine="103" d="M781.1212,1227.3614 C770.9712,1262.0214 757.06,1309.5369 746.88,1344.3069 " fill="none" id="Codec-backto-ProtoCodecMarshaler" style="stroke:#181818;stroke-width:1.0;"/><polygon fill="none" points="786.18,1210.0869,775.3631,1225.6751,786.8794,1229.0476,786.18,1210.0869" style="stroke:#181818;stroke-width:1.0;"/></g><!--reverse link ProtoCodecMarshaler to ProtoCodec--><g id="link_ProtoCodecMarshaler_ProtoCodec"><path codeLine="120" d="M723.2819,1409.7818 C713.6119,1432.8918 705.66,1451.9269 694.59,1478.3969 " fill="none" id="ProtoCodecMarshaler-backto-ProtoCodec" style="stroke:#181818;stroke-width:1.0;"/><polygon fill="none" points="730.23,1393.1769,717.7469,1407.4658,728.8169,1412.0978,730.23,1393.1769" style="stroke:#181818;stroke-width:1.0;"/></g><!--link ProtoCodec to ProtoMarshaler--><g id="link_ProtoCodec_ProtoMarshaler"><path codeLine="121" d="M680,1550.1469 C680,1574.3569 680,1600.3469 680,1623.6969 " fill="none" id="ProtoCodec-to-ProtoMarshaler" style="stroke:#181818;stroke-width:1.0;stroke-dasharray:7.0,7.0;"/><polygon fill="#181818" points="680,1629.6969,684,1620.6969,680,1624.6969,676,1620.6969,680,1629.6969" style="stroke:#181818;stroke-width:1.0;"/></g><!--reverse link EncodingConfig to interfaceRegistry--><g id="link_EncodingConfig_interfaceRegistry"><path codeLine="140" d="M482,596.7969 C442.66,596.7969 475.05,651.3969 495,685.2969 C524.58,735.5569 579.13,700.1969 609,750.2969 C621.55,771.3469 614,946.2869 614,970.7969 C614,970.7969 614,970.7969 614,1369.7969 C614,1488.1969 750,1429.8469 864,1461.7969 C865.3,1462.1569 866.61,1462.5269 867.92,1462.8969 " fill="none" id="EncodingConfig-backto-interfaceRegistry" style="stroke:#181818;stroke-width:1.0;"/><polygon fill="none" points="494,596.7969,488,592.7969,482,596.7969,488,600.7969,494,596.7969" style="stroke:#181818;stroke-width:1.0;"/></g><!--reverse link EncodingConfig to config--><g id="link_EncodingConfig_config"><path codeLine="141" d="M798,644.7969 C991.87,644.7969 1483.26,654.8469 1652,750.2969 C1704.51,779.9969 1746.56,832.8069 1775.94,879.3069 " fill="none" id="EncodingConfig-backto-config" style="stroke:#181818;stroke-width:1.0;"/><polygon fill="none" points="786,644.7969,792,648.7969,798,644.7969,792,640.7969,786,644.7969" style="stroke:#181818;stroke-width:1.0;"/></g><!--reverse link EncodingConfig to ProtoCodec--><g id="link_EncodingConfig_ProtoCodec"><path codeLine="142" d="M482,620.7969 C453.33,620.7969 490.78,656.9369 495,685.2969 C514.41,815.8769 577,838.7769 577,970.7969 C577,970.7969 577,970.7969 577,1369.7969 C577,1412.8869 608.02,1451.8969 636.02,1478.3369 " fill="none" id="EncodingConfig-backto-ProtoCodec" style="stroke:#181818;stroke-width:1.0;"/><polygon fill="none" points="494,620.7969,488,616.7969,482,620.7969,488,624.7969,494,620.7969" style="stroke:#181818;stroke-width:1.0;"/></g><!--reverse link EncodingConfig to LegacyAmino--><g id="link_EncodingConfig_LegacyAmino"><path codeLine="143" d="M798,668.7969 C826.68,668.7969 744.76,876.8869 720.17,947.5969 " fill="none" id="EncodingConfig-backto-LegacyAmino" style="stroke:#181818;stroke-width:1.0;"/><polygon fill="none" points="786,668.7969,792,672.7969,798,668.7969,792,664.7969,786,668.7969" style="stroke:#181818;stroke-width:1.0;"/></g><!--reverse link ProtoCodec to interfaceRegistry--><g id="link_ProtoCodec_interfaceRegistry"><path codeLine="145" d="M837.7908,1528.5278 C851.3208,1531.0878 853.55,1530.7569 867.62,1532.0769 " fill="none" id="ProtoCodec-backto-interfaceRegistry" style="stroke:#181818;stroke-width:1.0;"/><polygon fill="none" points="826,1526.2969,831.1518,1531.3426,837.7908,1528.5278,832.639,1523.4821,826,1526.2969" style="stroke:#181818;stroke-width:1.0;"/></g><!--link BaseApp to TxEncodingConfig--><g id="link_BaseApp_TxEncodingConfig"><path codeLine="147" d="M1800,173.7969 C1789.32,173.7969 1795.25,188.7969 1801,197.7969 C1847.29,270.2369 1927.72,213.2169 1973,286.2969 C1989.97,313.6869 2012.23,358.7969 1980,358.7969 " fill="none" id="BaseApp-to-TxEncodingConfig" style="stroke:#006400;stroke-width:1.0;stroke-dasharray:7.0,7.0;"/><polygon fill="#006400" points="1974,358.7969,1983,362.7969,1979,358.7969,1983,354.7969,1974,358.7969" style="stroke:#006400;stroke-width:1.0;"/></g><!--link DefaultTxDecoder to ProtoCodec--><g id="link_DefaultTxDecoder_ProtoCodec"><path codeLine="150" d="M1506.2,1004.0369 C1486.81,1084.8569 1423.2,1301.4669 1280,1400.7969 C1121.03,1511.0569 1037.88,1419.9169 849,1461.7969 C828.34,1466.3769 812.2974,1470.5381 791.4674,1476.6481 " fill="none" id="DefaultTxDecoder-to-ProtoCodec" style="stroke:#0000FF;stroke-width:1.0;stroke-dasharray:7.0,7.0;"/><polygon fill="#0000FF" points="785.71,1478.3369,795.472,1479.6419,790.5079,1476.9295,793.2203,1471.9654,785.71,1478.3369" style="stroke:#0000FF;stroke-width:1.0;"/><text fill="#000000" font-family="sans-serif" font-size="13" lengthAdjust="spacing" textLength="243" x="1386" y="1302.8638">ProtoCodec &#23601;&#26159; txDecoder &#30340;&#21442;&#25968; cdc</text></g><!--reverse link BaseApp to EthermintApp--><g id="link_BaseApp_EthermintApp"><path codeLine="160" d="M1962.6038,208.705 C1979.4238,221.725 1983.1,226.4469 1997,243.2969 C2093.13,359.8369 2162.36,530.7369 2185.53,592.4769 " fill="none" id="BaseApp-backto-EthermintApp" style="stroke:#181818;stroke-width:1.0;"/><polygon fill="none" points="1948.37,197.6869,1958.9311,213.4496,1966.2765,203.9604,1948.37,197.6869" style="stroke:#181818;stroke-width:1.0;"/><text fill="#000000" font-family="sans-serif" font-size="13" lengthAdjust="spacing" textLength="135" x="2112" y="359.3638">&#23884;&#20837;BaseApp&#23454;&#29616;&#32487;&#25215;</text></g><!--SRC=[hLZTJXj75BxdAKPm4IF5oxtbMk8dQcaXZG9S8IxMzjXiiNTNkuDaDqK20W6A1L5AGql0RHfHK2KmA4f4C8I7gMUDh_8AdTbPxwvtPcs3kXTWUyxvpintVcS1000fA0TxWFDC5kfNhs-FtjN_NAgVL_6Rp_OALDEEdFtrGGvc440QC9JiB09fnO0ff6WgMrNbF3HrEGN1i6RcDNDYv3lmp3NWhIPb4ygwxbkZZucC-HG2GsHna5kq1T9pqcHX1AQqD3G0QdvgaLje-QPg209xorgc2HoBYJNfKxlSn3-_PIJWjMlhrpEhjDPujVxbgiI-ugq_S7cpTd7vvMgFqqP57G9lWvbvDHL1XQ4YWYQOdacI__qWCbbu2A1XQ4O_fuzFTgtJ3tZz01zjuj9heGaN_IlY6l99KRF3cffHieGPzuCZ4sarGLr92UdXkV9SGnLJ4Zs96V20eY9ePAZCe5gSKedq7Db6tvYIXryR4Ae2Xp4f8XvnbPyjzBFZT_8QqdJgD9yj3lxsvlVQnJ_MrY7UVcVzLl5s-1Hc5H9DHL2l_cALLtWtNz_KTuxn_Z4-VTvOApKE_hBU7-CNfVhUYdNy5X_iiWYeLQlMohRrSTrQgf0blFg-iNDQN_xqx-8o1nab3_SZIIWQI2-tAB0DKxiuiVOtyEf7QsCHdvUPDR9ACwwyEVLqZ4GQ1zDOtBkzMND5y7QbLZsqDZxZzJDS-OGlTznz1xMRBWSz8QuSvIZhcvWh3kNc8N5d6nVvGo3-KvJ7wH6bDkyWFcRoiZvDbaXSpnWmaoFbHPgaUUNgFgQnogb9v15Y-K5cN91nMVSGH_DwxWw8ejtHX26k8R1jIEF99jH5ULPy2IhAq9m2LHIQd9E5HorrGK1nF9c8fxISPiIInD49MgVY0_OFYVX0Cj6446ISa9FES67bzfvmtqvy__X_tY655BUJK9eTUhlB5yuhjkUR86qhSa6Ivz6iX0hYTfaAyxAfP5LYJveW_yV9mRwHrNIEfEii-zyTSwqjDtqNFp9Lnq-iMTtFwW-cfexStp9LlrEqi1RunD2GDam_Zik6EIjJwdJtjpQk9icfe28OWHbvFeUyOyWcwEqKY46bNe5V1mP8uzl1RygrYqNI_Xgx9xYqogQJslK-6Kswceo2ksooTQTTEagzhP7F8Z8MSw85HFbp2UMT426jb3SXo11M1zsnXsMKcomIG-q96t52w-UGeif6STYHQSEWfqABHuX2Y0QJxgvq-3Tadv4FG6y3Fe4GqwAuRclV1opGRMl6Ru4FOwkoJUBNpYas73MUNz_-lOHFo_MjizlA8HliskpCgO3UhWHcx4bMuZjlUDFjS8ju8gu1x4ZU8Xd9fjGyExzpTR3F9HhgupGY4uBfsT6F97zqxWyFWOwC0BVz_A7fGmGbFq8_BHn2IKOH6-TSeim80I3cKXB757znMU2FDC2VYRj_q4SKZe5O2v4dnJiHe48uT8x1h9mg3kOLLUiYuuGZbwcGkK-NTDcGywQu3GVQkyzGjn4vsZOYEtGhneWuBCLgWUh9ZI9T6FKpQ_yDAtuUlIrCIgsanM8yAHg91D-LL0fFs_R8xZarKPFe3eDnJ02Yt8W0keHWN7c7yZ7eiHK4ZyKK0IyTQ77Hd7Sj4l_s0qZJVIEoCMVVtcT8ChanmRFNLB5XNUm7BXQz7cylaohdhdaaSvEGH0pJv9YX6SnH6VFdE3uxfpTxRy-k8P1AEprk8VZowH6QXGRX50bVFeM-U7BLsDkdTftSVRqb1UYrQrUq5Ie6y8SINZrqH5WVg5UFh8qRVzbn3_CV]--></g></svg>