<?xml version="1.0" encoding="us-ascii" standalone="no"?><svg xmlns="http://www.w3.org/2000/svg" xmlns:xlink="http://www.w3.org/1999/xlink" contentStyleType="text/css" height="1311px" preserveAspectRatio="none" style="width:1740px;height:1311px;background:#FFFFFF;" version="1.1" viewBox="0 0 1740 1311" width="1740px" zoomAndPan="magnify"><defs/><g><text fill="#000000" font-family="sans-serif" font-size="14" font-weight="bold" lengthAdjust="spacing" textLength="57" x="834.78" y="22.9951">tx&#30340;&#32467;&#26500;</text><!--cluster CosmosSDK--><g id="cluster_CosmosSDK"><path d="M8.5,43.2969 L104.5,43.2969 A3.75,3.75 0 0 1 107,45.7969 L114,65.5938 L1687.5,65.5938 A2.5,2.5 0 0 1 1690,68.0938 L1690,1301.7969 A2.5,2.5 0 0 1 1687.5,1304.2969 L8.5,1304.2969 A2.5,2.5 0 0 1 6,1301.7969 L6,45.7969 A2.5,2.5 0 0 1 8.5,43.2969 " fill="none" style="stroke:#000000;stroke-width:1.5;"/><line style="stroke:#000000;stroke-width:1.5;" x1="6" x2="114" y1="65.5938" y2="65.5938"/><text fill="#000000" font-family="sans-serif" font-size="14" font-weight="bold" lengthAdjust="spacing" textLength="95" x="10" y="58.292">CosmosSDK</text></g><!--cluster codec--><g id="cluster_codec"><path d="M418.5,86.2969 L467.5,86.2969 A3.75,3.75 0 0 1 470,88.7969 L477,108.5938 L1663.5,108.5938 A2.5,2.5 0 0 1 1666,111.0938 L1666,306.7969 A2.5,2.5 0 0 1 1663.5,309.2969 L418.5,309.2969 A2.5,2.5 0 0 1 416,306.7969 L416,88.7969 A2.5,2.5 0 0 1 418.5,86.2969 " fill="none" style="stroke:#000000;stroke-width:1.5;"/><line style="stroke:#000000;stroke-width:1.5;" x1="416" x2="477" y1="108.5938" y2="108.5938"/><text fill="#000000" font-family="sans-serif" font-size="14" font-weight="bold" lengthAdjust="spacing" textLength="48" x="420" y="101.292">codec</text></g><!--cluster types--><g id="cluster_types"><path d="M442.5,129.2969 L487.5,129.2969 A3.75,3.75 0 0 1 490,131.7969 L497,151.5938 L1639.5,151.5938 A2.5,2.5 0 0 1 1642,154.0938 L1642,282.7969 A2.5,2.5 0 0 1 1639.5,285.2969 L442.5,285.2969 A2.5,2.5 0 0 1 440,282.7969 L440,131.7969 A2.5,2.5 0 0 1 442.5,129.2969 " fill="none" style="stroke:#000000;stroke-width:1.5;"/><line style="stroke:#000000;stroke-width:1.5;" x1="440" x2="497" y1="151.5938" y2="151.5938"/><text fill="#000000" font-family="sans-serif" font-size="14" font-weight="bold" lengthAdjust="spacing" textLength="44" x="444" y="144.292">types</text></g><!--cluster types--><g id="cluster_types"><path d="M908.5,542.2969 L953.5,542.2969 A3.75,3.75 0 0 1 956,544.7969 L963,564.5938 L1663.5,564.5938 A2.5,2.5 0 0 1 1666,567.0938 L1666,1277.7969 A2.5,2.5 0 0 1 1663.5,1280.2969 L908.5,1280.2969 A2.5,2.5 0 0 1 906,1277.7969 L906,544.7969 A2.5,2.5 0 0 1 908.5,542.2969 " fill="none" style="stroke:#000000;stroke-width:1.5;"/><line style="stroke:#000000;stroke-width:1.5;" x1="906" x2="963" y1="564.5938" y2="564.5938"/><text fill="#000000" font-family="sans-serif" font-size="14" font-weight="bold" lengthAdjust="spacing" textLength="44" x="910" y="557.292">types</text></g><!--cluster tx--><g id="cluster_tx"><path d="M932.5,887.2969 L948.5,887.2969 A3.75,3.75 0 0 1 951,889.7969 L958,909.5938 L1639.5,909.5938 A2.5,2.5 0 0 1 1642,912.0938 L1642,1253.7969 A2.5,2.5 0 0 1 1639.5,1256.2969 L932.5,1256.2969 A2.5,2.5 0 0 1 930,1253.7969 L930,889.7969 A2.5,2.5 0 0 1 932.5,887.2969 " fill="none" style="stroke:#000000;stroke-width:1.5;"/><line style="stroke:#000000;stroke-width:1.5;" x1="930" x2="958" y1="909.5938" y2="909.5938"/><text fill="#000000" font-family="sans-serif" font-size="14" font-weight="bold" lengthAdjust="spacing" textLength="15" x="934" y="902.292">tx</text></g><!--cluster client--><g id="cluster_client"><path d="M908.5,419.2969 L952.5,419.2969 A3.75,3.75 0 0 1 955,421.7969 L962,441.5938 L1033.5,441.5938 A2.5,2.5 0 0 1 1036,444.0938 L1036,515.7969 A2.5,2.5 0 0 1 1033.5,518.2969 L908.5,518.2969 A2.5,2.5 0 0 1 906,515.7969 L906,421.7969 A2.5,2.5 0 0 1 908.5,419.2969 " fill="none" style="stroke:#000000;stroke-width:1.5;"/><line style="stroke:#000000;stroke-width:1.5;" x1="906" x2="962" y1="441.5938" y2="441.5938"/><text fill="#000000" font-family="sans-serif" font-size="14" font-weight="bold" lengthAdjust="spacing" textLength="43" x="910" y="434.292">client</text></g><!--cluster x--><g id="cluster_x"><path d="M32.5,333.2969 L42.5,333.2969 A3.75,3.75 0 0 1 45,335.7969 L52,355.5938 L879.5,355.5938 A2.5,2.5 0 0 1 882,358.0938 L882,1091.7969 A2.5,2.5 0 0 1 879.5,1094.2969 L32.5,1094.2969 A2.5,2.5 0 0 1 30,1091.7969 L30,335.7969 A2.5,2.5 0 0 1 32.5,333.2969 " fill="none" style="stroke:#000000;stroke-width:1.5;"/><line style="stroke:#000000;stroke-width:1.5;" x1="30" x2="52" y1="355.5938" y2="355.5938"/><text fill="#000000" font-family="sans-serif" font-size="14" font-weight="bold" lengthAdjust="spacing" textLength="9" x="34" y="348.292">x</text></g><!--cluster auth--><g id="cluster_auth"><path d="M56.5,376.2969 L92.5,376.2969 A3.75,3.75 0 0 1 95,378.7969 L102,398.5938 L855.5,398.5938 A2.5,2.5 0 0 1 858,401.0938 L858,1067.7969 A2.5,2.5 0 0 1 855.5,1070.2969 L56.5,1070.2969 A2.5,2.5 0 0 1 54,1067.7969 L54,378.7969 A2.5,2.5 0 0 1 56.5,376.2969 " fill="none" style="stroke:#000000;stroke-width:1.5;"/><line style="stroke:#000000;stroke-width:1.5;" x1="54" x2="102" y1="398.5938" y2="398.5938"/><text fill="#000000" font-family="sans-serif" font-size="14" font-weight="bold" lengthAdjust="spacing" textLength="35" x="58" y="391.292">auth</text></g><!--cluster tx--><g id="cluster_tx"><path d="M522.5,550.2969 L538.5,550.2969 A3.75,3.75 0 0 1 541,552.7969 L548,572.5938 L831.5,572.5938 A2.5,2.5 0 0 1 834,575.0938 L834,1043.7969 A2.5,2.5 0 0 1 831.5,1046.2969 L522.5,1046.2969 A2.5,2.5 0 0 1 520,1043.7969 L520,552.7969 A2.5,2.5 0 0 1 522.5,550.2969 " fill="none" style="stroke:#000000;stroke-width:1.5;"/><line style="stroke:#000000;stroke-width:1.5;" x1="520" x2="548" y1="572.5938" y2="572.5938"/><text fill="#000000" font-family="sans-serif" font-size="14" font-weight="bold" lengthAdjust="spacing" textLength="15" x="524" y="565.292">tx</text></g><!--cluster signing--><g id="cluster_signing"><path d="M332.5,419.2969 L390.5,419.2969 A3.75,3.75 0 0 1 393,421.7969 L400,441.5938 L493.5,441.5938 A2.5,2.5 0 0 1 496,444.0938 L496,646.7969 A2.5,2.5 0 0 1 493.5,649.2969 L332.5,649.2969 A2.5,2.5 0 0 1 330,646.7969 L330,421.7969 A2.5,2.5 0 0 1 332.5,419.2969 " fill="none" style="stroke:#000000;stroke-width:1.5;"/><line style="stroke:#000000;stroke-width:1.5;" x1="330" x2="400" y1="441.5938" y2="441.5938"/><text fill="#000000" font-family="sans-serif" font-size="14" font-weight="bold" lengthAdjust="spacing" textLength="57" x="334" y="434.292">signing</text></g><!--cluster ante--><g id="cluster_ante"><path d="M80.5,550.2969 L116.5,550.2969 A3.75,3.75 0 0 1 119,552.7969 L126,572.5938 L303.5,572.5938 A2.5,2.5 0 0 1 306,575.0938 L306,646.7969 A2.5,2.5 0 0 1 303.5,649.2969 L80.5,649.2969 A2.5,2.5 0 0 1 78,646.7969 L78,552.7969 A2.5,2.5 0 0 1 80.5,550.2969 " fill="none" style="stroke:#000000;stroke-width:1.5;"/><line style="stroke:#000000;stroke-width:1.5;" x1="78" x2="126" y1="572.5938" y2="572.5938"/><text fill="#000000" font-family="sans-serif" font-size="14" font-weight="bold" lengthAdjust="spacing" textLength="35" x="82" y="565.292">ante</text></g><!--class Any--><g id="elem_Any"><rect codeLine="7" fill="#00FF7F" height="104.8906" id="Any" rx="2.5" ry="2.5" style="stroke:#181818;stroke-width:0.5;" width="567" x="456.5" y="164.2969"/><ellipse cx="723.25" cy="180.2969" fill="#F1F1F1" rx="11" ry="11" style="stroke:#181818;stroke-width:1.0;"/><path d="M722.7344,180.8594 Q720.875,180.1563 720.2188,179.3906 Q719.5781,178.6094 719.5781,177.2969 Q719.5781,175.6094 720.6563,174.6406 Q721.7344,173.6719 723.6094,173.6719 Q724.4688,173.6719 725.3125,173.875 Q726.1719,174.0625 727.0156,174.4531 L727.0156,176.8438 Q726.2344,176.2813 725.4063,176 Q724.5938,175.7031 723.7969,175.7031 Q722.9219,175.7031 722.4375,176.0625 Q721.9688,176.4219 721.9688,177.0781 Q721.9688,177.5938 722.3125,177.9375 Q722.6563,178.2656 723.75,178.6719 L724.8125,179.0781 Q726.2969,179.625 727,180.5313 Q727.7188,181.4375 727.7188,182.8125 Q727.7188,184.6875 726.6094,185.6094 Q725.5,186.5313 723.25,186.5313 Q722.3281,186.5313 721.4063,186.3125 Q720.4844,186.0938 719.625,185.6719 L719.625,183.1406 Q720.5938,183.8281 721.5156,184.1719 Q722.4375,184.5156 723.3281,184.5156 Q724.2344,184.5156 724.7344,184.1094 Q725.2344,183.6875 725.2344,182.9531 Q725.2344,182.3906 724.8906,181.9844 Q724.5625,181.5625 723.9375,181.3125 L722.7344,180.8594 Z " fill="#000000"/><text fill="#000000" font-family="sans-serif" font-size="14" lengthAdjust="spacing" textLength="25" x="743.75" y="185.1436">Any</text><line style="stroke:#181818;stroke-width:0.5;" x1="457.5" x2="1022.5" y1="196.2969" y2="196.2969"/><text fill="#000000" font-family="sans-serif" font-size="14" lengthAdjust="spacing" textLength="555" x="462.5" y="213.292">string TypeUrl; // &#35760;&#24405;&#23454;&#38469;&#31867;&#22411;&#30340;URL;&#20363;&#22914;&#21462;&#20540;&#20026; '/cosmos.bank.v1beta1.MsgSend'</text><line style="stroke:#181818;stroke-width:1.0;stroke-dasharray:1.0,2.0;" x1="457.5" x2="1022.5" y1="220.5938" y2="220.5938"/><text fill="#000000" font-family="sans-serif" font-size="14" lengthAdjust="spacing" textLength="185" x="462.5" y="237.5889">[]byte Value; //&#32534;&#30721;&#21518;&#30340;&#25968;&#25454;</text><line style="stroke:#181818;stroke-width:1.0;stroke-dasharray:1.0,2.0;" x1="457.5" x2="1022.5" y1="244.8906" y2="244.8906"/><text fill="#000000" font-family="sans-serif" font-size="14" lengthAdjust="spacing" textLength="330" x="462.5" y="261.8857">cachedValue interface{}; //&#23384;&#25918;&#35299;&#30721;&#21518;&#30340;&#23454;&#38469;&#31867;&#22411;</text></g><!--class UnpackInterfacesMessage--><g id="elem_UnpackInterfacesMessage"><rect codeLine="15" fill="#F1F1F1" height="64.2969" id="UnpackInterfacesMessage" rx="2.5" ry="2.5" style="stroke:#181818;stroke-width:0.5;" width="302" x="1067" y="184.7969"/><ellipse cx="1123.25" cy="200.7969" fill="#B4A7E5" rx="11" ry="11" style="stroke:#181818;stroke-width:1.0;"/><path d="M1119.1719,196.5625 L1119.1719,194.4063 L1126.5625,194.4063 L1126.5625,196.5625 L1124.0938,196.5625 L1124.0938,204.6406 L1126.5625,204.6406 L1126.5625,206.7969 L1119.1719,206.7969 L1119.1719,204.6406 L1121.6406,204.6406 L1121.6406,196.5625 L1119.1719,196.5625 Z " fill="#000000"/><text fill="#000000" font-family="sans-serif" font-size="14" font-style="italic" lengthAdjust="spacing" textLength="181" x="1143.75" y="205.6436">UnpackInterfacesMessage</text><line style="stroke:#181818;stroke-width:0.5;" x1="1068" x2="1368" y1="216.7969" y2="216.7969"/><line style="stroke:#181818;stroke-width:0.5;" x1="1068" x2="1368" y1="224.7969" y2="224.7969"/><text fill="#000000" font-family="sans-serif" font-size="14" lengthAdjust="spacing" textLength="290" x="1073" y="241.792">UnpackInterfaces(unpacker AnyUnpacker)</text></g><!--class AnyUnpacker--><g id="elem_AnyUnpacker"><rect codeLine="18" fill="#F1F1F1" height="64.2969" id="AnyUnpacker" rx="2.5" ry="2.5" style="stroke:#181818;stroke-width:0.5;" width="214" x="1412" y="184.7969"/><ellipse cx="1468.25" cy="200.7969" fill="#B4A7E5" rx="11" ry="11" style="stroke:#181818;stroke-width:1.0;"/><path d="M1464.1719,196.5625 L1464.1719,194.4063 L1471.5625,194.4063 L1471.5625,196.5625 L1469.0938,196.5625 L1469.0938,204.6406 L1471.5625,204.6406 L1471.5625,206.7969 L1464.1719,206.7969 L1464.1719,204.6406 L1466.6406,204.6406 L1466.6406,196.5625 L1464.1719,196.5625 Z " fill="#000000"/><text fill="#000000" font-family="sans-serif" font-size="14" font-style="italic" lengthAdjust="spacing" textLength="93" x="1488.75" y="205.6436">AnyUnpacker</text><line style="stroke:#181818;stroke-width:0.5;" x1="1413" x2="1625" y1="216.7969" y2="216.7969"/><line style="stroke:#181818;stroke-width:0.5;" x1="1413" x2="1625" y1="224.7969" y2="224.7969"/><text fill="#000000" font-family="sans-serif" font-size="14" lengthAdjust="spacing" textLength="202" x="1418" y="241.792">UnpackAny(interface{}) error</text></g><!--class Msg--><g id="elem_Msg"><rect codeLine="25" fill="#F1F1F1" height="48" id="Msg" rx="2.5" ry="2.5" style="stroke:#181818;stroke-width:0.5;" width="60" x="1179" y="585.2969"/><ellipse cx="1194" cy="601.2969" fill="#B4A7E5" rx="11" ry="11" style="stroke:#181818;stroke-width:1.0;"/><path d="M1189.9219,597.0625 L1189.9219,594.9063 L1197.3125,594.9063 L1197.3125,597.0625 L1194.8438,597.0625 L1194.8438,605.1406 L1197.3125,605.1406 L1197.3125,607.2969 L1189.9219,607.2969 L1189.9219,605.1406 L1192.3906,605.1406 L1192.3906,597.0625 L1189.9219,597.0625 Z " fill="#000000"/><text fill="#000000" font-family="sans-serif" font-size="14" font-style="italic" lengthAdjust="spacing" textLength="28" x="1208" y="606.1436">Msg</text><line style="stroke:#181818;stroke-width:0.5;" x1="1180" x2="1238" y1="617.2969" y2="617.2969"/><line style="stroke:#181818;stroke-width:0.5;" x1="1180" x2="1238" y1="625.2969" y2="625.2969"/></g><!--class Tx--><g id="elem_Tx"><rect codeLine="28" fill="#32CD32" height="64.2969" id="Tx" rx="2.5" ry="2.5" style="stroke:#181818;stroke-width:0.5;" width="141" x="1002.5" y="577.2969"/><ellipse cx="1060.25" cy="593.2969" fill="#B4A7E5" rx="11" ry="11" style="stroke:#181818;stroke-width:1.0;"/><path d="M1056.1719,589.0625 L1056.1719,586.9063 L1063.5625,586.9063 L1063.5625,589.0625 L1061.0938,589.0625 L1061.0938,597.1406 L1063.5625,597.1406 L1063.5625,599.2969 L1056.1719,599.2969 L1056.1719,597.1406 L1058.6406,597.1406 L1058.6406,589.0625 L1056.1719,589.0625 Z " fill="#000000"/><text fill="#000000" font-family="sans-serif" font-size="14" font-style="italic" lengthAdjust="spacing" textLength="17" x="1080.75" y="598.1436">Tx</text><line style="stroke:#181818;stroke-width:0.5;" x1="1003.5" x2="1142.5" y1="609.2969" y2="609.2969"/><line style="stroke:#181818;stroke-width:0.5;" x1="1003.5" x2="1142.5" y1="617.2969" y2="617.2969"/><ellipse cx="1013.5" cy="630.9453" fill="#84BE84" rx="3" ry="3" style="stroke:#038048;stroke-width:1.0;"/><text fill="#000000" font-family="sans-serif" font-size="14" lengthAdjust="spacing" textLength="115" x="1022.5" y="634.292">[]Msg GetMsgs()</text></g><!--class FeeTx--><g id="elem_FeeTx"><rect codeLine="32" fill="#F1F1F1" height="48" id="FeeTx" rx="2.5" ry="2.5" style="stroke:#181818;stroke-width:0.5;" width="75" x="972.5" y="757.7969"/><ellipse cx="987.5" cy="773.7969" fill="#B4A7E5" rx="11" ry="11" style="stroke:#181818;stroke-width:1.0;"/><path d="M983.4219,769.5625 L983.4219,767.4063 L990.8125,767.4063 L990.8125,769.5625 L988.3438,769.5625 L988.3438,777.6406 L990.8125,777.6406 L990.8125,779.7969 L983.4219,779.7969 L983.4219,777.6406 L985.8906,777.6406 L985.8906,769.5625 L983.4219,769.5625 Z " fill="#000000"/><text fill="#000000" font-family="sans-serif" font-size="14" font-style="italic" lengthAdjust="spacing" textLength="43" x="1001.5" y="778.6436">FeeTx</text><line style="stroke:#181818;stroke-width:0.5;" x1="973.5" x2="1046.5" y1="789.7969" y2="789.7969"/><line style="stroke:#181818;stroke-width:0.5;" x1="973.5" x2="1046.5" y1="797.7969" y2="797.7969"/></g><!--class TipTx--><g id="elem_TipTx"><rect codeLine="37" fill="#F1F1F1" height="48" id="TipTx" rx="2.5" ry="2.5" style="stroke:#181818;stroke-width:0.5;" width="70" x="946" y="974.7969"/><ellipse cx="961" cy="990.7969" fill="#B4A7E5" rx="11" ry="11" style="stroke:#181818;stroke-width:1.0;"/><path d="M956.9219,986.5625 L956.9219,984.4063 L964.3125,984.4063 L964.3125,986.5625 L961.8438,986.5625 L961.8438,994.6406 L964.3125,994.6406 L964.3125,996.7969 L956.9219,996.7969 L956.9219,994.6406 L959.3906,994.6406 L959.3906,986.5625 L956.9219,986.5625 Z " fill="#000000"/><text fill="#000000" font-family="sans-serif" font-size="14" font-style="italic" lengthAdjust="spacing" textLength="38" x="975" y="995.6436">TipTx</text><line style="stroke:#181818;stroke-width:0.5;" x1="947" x2="1015" y1="1006.7969" y2="1006.7969"/><line style="stroke:#181818;stroke-width:0.5;" x1="947" x2="1015" y1="1014.7969" y2="1014.7969"/></g><!--class TxBody--><g id="elem_TxBody"><rect codeLine="40" fill="#F1F1F1" height="153.4844" id="TxBody" rx="2.5" ry="2.5" style="stroke:#181818;stroke-width:0.5;" width="335" x="1290.5" y="922.2969"/><ellipse cx="1428.25" cy="938.2969" fill="#F1F1F1" rx="11" ry="11" style="stroke:#181818;stroke-width:1.0;"/><path d="M1427.7344,938.8594 Q1425.875,938.1563 1425.2188,937.3906 Q1424.5781,936.6094 1424.5781,935.2969 Q1424.5781,933.6094 1425.6563,932.6406 Q1426.7344,931.6719 1428.6094,931.6719 Q1429.4688,931.6719 1430.3125,931.875 Q1431.1719,932.0625 1432.0156,932.4531 L1432.0156,934.8438 Q1431.2344,934.2813 1430.4063,934 Q1429.5938,933.7031 1428.7969,933.7031 Q1427.9219,933.7031 1427.4375,934.0625 Q1426.9688,934.4219 1426.9688,935.0781 Q1426.9688,935.5938 1427.3125,935.9375 Q1427.6563,936.2656 1428.75,936.6719 L1429.8125,937.0781 Q1431.2969,937.625 1432,938.5313 Q1432.7188,939.4375 1432.7188,940.8125 Q1432.7188,942.6875 1431.6094,943.6094 Q1430.5,944.5313 1428.25,944.5313 Q1427.3281,944.5313 1426.4063,944.3125 Q1425.4844,944.0938 1424.625,943.6719 L1424.625,941.1406 Q1425.5938,941.8281 1426.5156,942.1719 Q1427.4375,942.5156 1428.3281,942.5156 Q1429.2344,942.5156 1429.7344,942.1094 Q1430.2344,941.6875 1430.2344,940.9531 Q1430.2344,940.3906 1429.8906,939.9844 Q1429.5625,939.5625 1428.9375,939.3125 L1427.7344,938.8594 Z " fill="#000000"/><text fill="#000000" font-family="sans-serif" font-size="14" lengthAdjust="spacing" textLength="51" x="1448.75" y="943.1436">TxBody</text><line style="stroke:#181818;stroke-width:0.5;" x1="1291.5" x2="1624.5" y1="954.2969" y2="954.2969"/><text fill="#000000" font-family="sans-serif" font-size="14" lengthAdjust="spacing" textLength="199" x="1296.5" y="971.292">[]codec.types.Any Messages</text><line style="stroke:#181818;stroke-width:1.0;stroke-dasharray:1.0,2.0;" x1="1291.5" x2="1624.5" y1="978.5938" y2="978.5938"/><text fill="#000000" font-family="sans-serif" font-size="14" lengthAdjust="spacing" textLength="86" x="1296.5" y="995.5889">string Memo</text><line style="stroke:#181818;stroke-width:1.0;stroke-dasharray:1.0,2.0;" x1="1291.5" x2="1624.5" y1="1002.8906" y2="1002.8906"/><text fill="#000000" font-family="sans-serif" font-size="14" lengthAdjust="spacing" textLength="150" x="1296.5" y="1019.8857">uint64 TimeoutHeight</text><line style="stroke:#181818;stroke-width:1.0;stroke-dasharray:1.0,2.0;" x1="1291.5" x2="1624.5" y1="1027.1875" y2="1027.1875"/><text fill="#000000" font-family="sans-serif" font-size="14" lengthAdjust="spacing" textLength="250" x="1296.5" y="1044.1826">[]codec.types.Any ExtensionOptions</text><line style="stroke:#181818;stroke-width:1.0;stroke-dasharray:1.0,2.0;" x1="1291.5" x2="1624.5" y1="1051.4844" y2="1051.4844"/><text fill="#000000" font-family="sans-serif" font-size="14" lengthAdjust="spacing" textLength="323" x="1296.5" y="1068.4795">[]codec.types.Any NonCriticalExtensionOptions</text></g><!--class AuthInfo--><g id="elem_AuthInfo"><rect codeLine="52" fill="#F1F1F1" height="104.8906" id="AuthInfo" rx="2.5" ry="2.5" style="stroke:#181818;stroke-width:0.5;" width="308" x="1158" y="1135.2969"/><ellipse cx="1279.25" cy="1151.2969" fill="#F1F1F1" rx="11" ry="11" style="stroke:#181818;stroke-width:1.0;"/><path d="M1278.7344,1151.8594 Q1276.875,1151.1563 1276.2188,1150.3906 Q1275.5781,1149.6094 1275.5781,1148.2969 Q1275.5781,1146.6094 1276.6563,1145.6406 Q1277.7344,1144.6719 1279.6094,1144.6719 Q1280.4688,1144.6719 1281.3125,1144.875 Q1282.1719,1145.0625 1283.0156,1145.4531 L1283.0156,1147.8438 Q1282.2344,1147.2813 1281.4063,1147 Q1280.5938,1146.7031 1279.7969,1146.7031 Q1278.9219,1146.7031 1278.4375,1147.0625 Q1277.9688,1147.4219 1277.9688,1148.0781 Q1277.9688,1148.5938 1278.3125,1148.9375 Q1278.6563,1149.2656 1279.75,1149.6719 L1280.8125,1150.0781 Q1282.2969,1150.625 1283,1151.5313 Q1283.7188,1152.4375 1283.7188,1153.8125 Q1283.7188,1155.6875 1282.6094,1156.6094 Q1281.5,1157.5313 1279.25,1157.5313 Q1278.3281,1157.5313 1277.4063,1157.3125 Q1276.4844,1157.0938 1275.625,1156.6719 L1275.625,1154.1406 Q1276.5938,1154.8281 1277.5156,1155.1719 Q1278.4375,1155.5156 1279.3281,1155.5156 Q1280.2344,1155.5156 1280.7344,1155.1094 Q1281.2344,1154.6875 1281.2344,1153.9531 Q1281.2344,1153.3906 1280.8906,1152.9844 Q1280.5625,1152.5625 1279.9375,1152.3125 L1278.7344,1151.8594 Z " fill="#000000"/><text fill="#000000" font-family="sans-serif" font-size="14" lengthAdjust="spacing" textLength="57" x="1299.75" y="1156.1436">AuthInfo</text><line style="stroke:#181818;stroke-width:0.5;" x1="1159" x2="1465" y1="1167.2969" y2="1167.2969"/><text fill="#000000" font-family="sans-serif" font-size="14" lengthAdjust="spacing" textLength="296" x="1164" y="1184.292">[]SignerInfo SignerInfos; // struct SignerInfo</text><line style="stroke:#181818;stroke-width:1.0;stroke-dasharray:1.0,2.0;" x1="1159" x2="1465" y1="1191.5938" y2="1191.5938"/><text fill="#000000" font-family="sans-serif" font-size="14" lengthAdjust="spacing" textLength="149" x="1164" y="1208.5889">Fee Fee; // struct Fee</text><line style="stroke:#181818;stroke-width:1.0;stroke-dasharray:1.0,2.0;" x1="1159" x2="1465" y1="1215.8906" y2="1215.8906"/><text fill="#000000" font-family="sans-serif" font-size="14" lengthAdjust="spacing" textLength="134" x="1164" y="1232.8857">Tip Tip; // struct Tip</text></g><!--class Tx--><g id="elem_Tx"><rect codeLine="60" fill="#87CEEB" height="113.1563" id="Tx" rx="2.5" ry="2.5" style="stroke:#181818;stroke-width:0.5;" width="204" x="1051" y="942.2969"/><ellipse cx="1066" cy="962.4297" fill="#F1F1F1" rx="11" ry="11" style="stroke:#181818;stroke-width:1.0;"/><path d="M1065.4844,962.9922 Q1063.625,962.2891 1062.9688,961.5234 Q1062.3281,960.7422 1062.3281,959.4297 Q1062.3281,957.7422 1063.4063,956.7734 Q1064.4844,955.8047 1066.3594,955.8047 Q1067.2188,955.8047 1068.0625,956.0078 Q1068.9219,956.1953 1069.7656,956.5859 L1069.7656,958.9766 Q1068.9844,958.4141 1068.1563,958.1328 Q1067.3438,957.8359 1066.5469,957.8359 Q1065.6719,957.8359 1065.1875,958.1953 Q1064.7188,958.5547 1064.7188,959.2109 Q1064.7188,959.7266 1065.0625,960.0703 Q1065.4063,960.3984 1066.5,960.8047 L1067.5625,961.2109 Q1069.0469,961.7578 1069.75,962.6641 Q1070.4688,963.5703 1070.4688,964.9453 Q1070.4688,966.8203 1069.3594,967.7422 Q1068.25,968.6641 1066,968.6641 Q1065.0781,968.6641 1064.1563,968.4453 Q1063.2344,968.2266 1062.375,967.8047 L1062.375,965.2734 Q1063.3438,965.9609 1064.2656,966.3047 Q1065.1875,966.6484 1066.0781,966.6484 Q1066.9844,966.6484 1067.4844,966.2422 Q1067.9844,965.8203 1067.9844,965.0859 Q1067.9844,964.5234 1067.6406,964.1172 Q1067.3125,963.6953 1066.6875,963.4453 L1065.4844,962.9922 Z " fill="#000000"/><text fill="#000000" font-family="sans-serif" font-size="12" font-style="italic" lengthAdjust="spacing" textLength="176" x="1078" y="958.4355">&#171;&#23450;&#20041;&#22312; types/tx/tx.pb.go &#20013;&#187;</text><text fill="#000000" font-family="sans-serif" font-size="14" lengthAdjust="spacing" textLength="16" x="1158" y="974.2607">Tx</text><line style="stroke:#181818;stroke-width:0.5;" x1="1052" x2="1254" y1="982.5625" y2="982.5625"/><text fill="#000000" font-family="sans-serif" font-size="14" lengthAdjust="spacing" textLength="90" x="1057" y="999.5576">TxBody Body</text><line style="stroke:#181818;stroke-width:1.0;stroke-dasharray:1.0,2.0;" x1="1052" x2="1254" y1="1006.8594" y2="1006.8594"/><text fill="#000000" font-family="sans-serif" font-size="14" lengthAdjust="spacing" textLength="118" x="1057" y="1023.8545">AuthInfo AuthInfo</text><line style="stroke:#181818;stroke-width:1.0;stroke-dasharray:1.0,2.0;" x1="1052" x2="1254" y1="1031.1563" y2="1031.1563"/><text fill="#000000" font-family="sans-serif" font-size="14" lengthAdjust="spacing" textLength="128" x="1057" y="1048.1514">[][]byte Signatures</text></g><!--class TxBuilder--><g id="elem_TxBuilder"><rect codeLine="79" fill="#F1F1F1" height="48" id="TxBuilder" rx="2.5" ry="2.5" style="stroke:#181818;stroke-width:0.5;" width="97" x="922.5" y="454.2969"/><ellipse cx="937.5" cy="470.2969" fill="#B4A7E5" rx="11" ry="11" style="stroke:#181818;stroke-width:1.0;"/><path d="M933.4219,466.0625 L933.4219,463.9063 L940.8125,463.9063 L940.8125,466.0625 L938.3438,466.0625 L938.3438,474.1406 L940.8125,474.1406 L940.8125,476.2969 L933.4219,476.2969 L933.4219,474.1406 L935.8906,474.1406 L935.8906,466.0625 L933.4219,466.0625 Z " fill="#000000"/><text fill="#000000" font-family="sans-serif" font-size="14" font-style="italic" lengthAdjust="spacing" textLength="65" x="951.5" y="475.1436">TxBuilder</text><line style="stroke:#181818;stroke-width:0.5;" x1="923.5" x2="1018.5" y1="486.2969" y2="486.2969"/><line style="stroke:#181818;stroke-width:0.5;" x1="923.5" x2="1018.5" y1="494.2969" y2="494.2969"/></g><!--class ExtensionOptionsTxBuilder--><g id="elem_ExtensionOptionsTxBuilder"><rect codeLine="86" fill="#F1F1F1" height="48" id="ExtensionOptionsTxBuilder" rx="2.5" ry="2.5" style="stroke:#181818;stroke-width:0.5;" width="218" x="584" y="585.2969"/><ellipse cx="599" cy="601.2969" fill="#B4A7E5" rx="11" ry="11" style="stroke:#181818;stroke-width:1.0;"/><path d="M594.9219,597.0625 L594.9219,594.9063 L602.3125,594.9063 L602.3125,597.0625 L599.8438,597.0625 L599.8438,605.1406 L602.3125,605.1406 L602.3125,607.2969 L594.9219,607.2969 L594.9219,605.1406 L597.3906,605.1406 L597.3906,597.0625 L594.9219,597.0625 Z " fill="#000000"/><text fill="#000000" font-family="sans-serif" font-size="14" font-style="italic" lengthAdjust="spacing" textLength="186" x="613" y="606.1436">ExtensionOptionsTxBuilder</text><line style="stroke:#181818;stroke-width:0.5;" x1="585" x2="801" y1="617.2969" y2="617.2969"/><line style="stroke:#181818;stroke-width:0.5;" x1="585" x2="801" y1="625.2969" y2="625.2969"/></g><!--class wrapper--><g id="elem_wrapper"><rect codeLine="90" fill="#87CEEB" height="153.4844" id="wrapper" rx="2.5" ry="2.5" style="stroke:#181818;stroke-width:0.5;" width="265" x="544.5" y="705.2969"/><ellipse cx="644.75" cy="721.2969" fill="#F1F1F1" rx="11" ry="11" style="stroke:#181818;stroke-width:1.0;"/><path d="M644.2344,721.8594 Q642.375,721.1563 641.7188,720.3906 Q641.0781,719.6094 641.0781,718.2969 Q641.0781,716.6094 642.1563,715.6406 Q643.2344,714.6719 645.1094,714.6719 Q645.9688,714.6719 646.8125,714.875 Q647.6719,715.0625 648.5156,715.4531 L648.5156,717.8438 Q647.7344,717.2813 646.9063,717 Q646.0938,716.7031 645.2969,716.7031 Q644.4219,716.7031 643.9375,717.0625 Q643.4688,717.4219 643.4688,718.0781 Q643.4688,718.5938 643.8125,718.9375 Q644.1563,719.2656 645.25,719.6719 L646.3125,720.0781 Q647.7969,720.625 648.5,721.5313 Q649.2188,722.4375 649.2188,723.8125 Q649.2188,725.6875 648.1094,726.6094 Q647,727.5313 644.75,727.5313 Q643.8281,727.5313 642.9063,727.3125 Q641.9844,727.0938 641.125,726.6719 L641.125,724.1406 Q642.0938,724.8281 643.0156,725.1719 Q643.9375,725.5156 644.8281,725.5156 Q645.7344,725.5156 646.2344,725.1094 Q646.7344,724.6875 646.7344,723.9531 Q646.7344,723.3906 646.3906,722.9844 Q646.0625,722.5625 645.4375,722.3125 L644.2344,721.8594 Z " fill="#000000"/><text fill="#000000" font-family="sans-serif" font-size="14" lengthAdjust="spacing" textLength="56" x="665.25" y="726.1436">wrapper</text><line style="stroke:#181818;stroke-width:0.5;" x1="545.5" x2="808.5" y1="737.2969" y2="737.2969"/><text fill="#000000" font-family="sans-serif" font-size="14" lengthAdjust="spacing" textLength="121" x="550.5" y="754.292">codec.Codec cdc</text><line style="stroke:#181818;stroke-width:1.0;stroke-dasharray:1.0,2.0;" x1="545.5" x2="808.5" y1="761.5938" y2="761.5938"/><text fill="#000000" font-family="sans-serif" font-size="14" lengthAdjust="spacing" textLength="48" x="550.5" y="778.5889">tx.Tx tx</text><line style="stroke:#181818;stroke-width:1.0;stroke-dasharray:1.0,2.0;" x1="545.5" x2="808.5" y1="785.8906" y2="785.8906"/><text fill="#000000" font-family="sans-serif" font-size="14" lengthAdjust="spacing" textLength="96" x="550.5" y="802.8857">[]byte bodyBz</text><line style="stroke:#181818;stroke-width:1.0;stroke-dasharray:1.0,2.0;" x1="545.5" x2="808.5" y1="810.1875" y2="810.1875"/><text fill="#000000" font-family="sans-serif" font-size="14" lengthAdjust="spacing" textLength="118" x="550.5" y="827.1826">[]byte authInfoBz</text><line style="stroke:#181818;stroke-width:1.0;stroke-dasharray:1.0,2.0;" x1="545.5" x2="808.5" y1="834.4844" y2="834.4844"/><text fill="#000000" font-family="sans-serif" font-size="14" lengthAdjust="spacing" textLength="253" x="550.5" y="851.4795">bool txBodyHasUnknownNonCriticals</text></g><g id="elem_GMN34"><path d="M574.5,967.2969 L574.5,1030.6953 A0,0 0 0 0 574.5,1030.6953 L779.5,1030.6953 A0,0 0 0 0 779.5,1030.6953 L779.5,977.2969 L769.5,967.2969 L681,967.2969 L677,862.2469 L673,967.2969 L574.5,967.2969 A0,0 0 0 0 574.5,967.2969 " fill="#FEFFDD" style="stroke:#181818;stroke-width:0.5;"/><path d="M769.5,967.2969 L769.5,977.2969 L779.5,977.2969 L769.5,967.2969 " fill="#FEFFDD" style="stroke:#181818;stroke-width:0.5;"/><text fill="#000000" font-family="monospace" font-size="13" lengthAdjust="spacing" textLength="112" x="580.5" y="984.3638">GetMessage()&#160;{</text><text fill="#000000" font-family="monospace" font-size="13" lengthAdjust="spacing" textLength="152" x="612.5" y="999.4966">return&#160;tx.GetMsgs()</text><text fill="#000000" font-family="monospace" font-size="13" lengthAdjust="spacing" textLength="8" x="580.5" y="1014.6294">}</text><line style="stroke:#181818;stroke-width:1.0;" x1="575.5" x2="778.5" y1="1017.6953" y2="1017.6953"/></g><!--class SigVerifiableTx--><g id="elem_SigVerifiableTx"><rect codeLine="113" fill="#F1F1F1" height="48" id="SigVerifiableTx" rx="2.5" ry="2.5" style="stroke:#181818;stroke-width:0.5;" width="133" x="346.5" y="454.2969"/><ellipse cx="361.5" cy="470.2969" fill="#B4A7E5" rx="11" ry="11" style="stroke:#181818;stroke-width:1.0;"/><path d="M357.4219,466.0625 L357.4219,463.9063 L364.8125,463.9063 L364.8125,466.0625 L362.3438,466.0625 L362.3438,474.1406 L364.8125,474.1406 L364.8125,476.2969 L357.4219,476.2969 L357.4219,474.1406 L359.8906,474.1406 L359.8906,466.0625 L357.4219,466.0625 Z " fill="#000000"/><text fill="#000000" font-family="sans-serif" font-size="14" font-style="italic" lengthAdjust="spacing" textLength="101" x="375.5" y="475.1436">SigVerifiableTx</text><line style="stroke:#181818;stroke-width:0.5;" x1="347.5" x2="478.5" y1="486.2969" y2="486.2969"/><line style="stroke:#181818;stroke-width:0.5;" x1="347.5" x2="478.5" y1="494.2969" y2="494.2969"/></g><!--class Tx--><g id="elem_Tx"><rect codeLine="117" fill="#F1F1F1" height="48" id="Tx" rx="2.5" ry="2.5" style="stroke:#181818;stroke-width:0.5;" width="49" x="409.5" y="585.2969"/><ellipse cx="424.5" cy="601.2969" fill="#B4A7E5" rx="11" ry="11" style="stroke:#181818;stroke-width:1.0;"/><path d="M420.4219,597.0625 L420.4219,594.9063 L427.8125,594.9063 L427.8125,597.0625 L425.3438,597.0625 L425.3438,605.1406 L427.8125,605.1406 L427.8125,607.2969 L420.4219,607.2969 L420.4219,605.1406 L422.8906,605.1406 L422.8906,597.0625 L420.4219,597.0625 Z " fill="#000000"/><text fill="#000000" font-family="sans-serif" font-size="14" font-style="italic" lengthAdjust="spacing" textLength="17" x="438.5" y="606.1436">Tx</text><line style="stroke:#181818;stroke-width:0.5;" x1="410.5" x2="457.5" y1="617.2969" y2="617.2969"/><line style="stroke:#181818;stroke-width:0.5;" x1="410.5" x2="457.5" y1="625.2969" y2="625.2969"/></g><!--class HasExtensionOptionsTx--><g id="elem_HasExtensionOptionsTx"><rect codeLine="126" fill="#F1F1F1" height="48" id="HasExtensionOptionsTx" rx="2.5" ry="2.5" style="stroke:#181818;stroke-width:0.5;" width="196" x="94" y="585.2969"/><ellipse cx="109" cy="601.2969" fill="#B4A7E5" rx="11" ry="11" style="stroke:#181818;stroke-width:1.0;"/><path d="M104.9219,597.0625 L104.9219,594.9063 L112.3125,594.9063 L112.3125,597.0625 L109.8438,597.0625 L109.8438,605.1406 L112.3125,605.1406 L112.3125,607.2969 L104.9219,607.2969 L104.9219,605.1406 L107.3906,605.1406 L107.3906,597.0625 L104.9219,597.0625 Z " fill="#000000"/><text fill="#000000" font-family="sans-serif" font-size="14" font-style="italic" lengthAdjust="spacing" textLength="164" x="123" y="606.1436">HasExtensionOptionsTx</text><line style="stroke:#181818;stroke-width:0.5;" x1="95" x2="289" y1="617.2969" y2="617.2969"/><line style="stroke:#181818;stroke-width:0.5;" x1="95" x2="289" y1="625.2969" y2="625.2969"/></g><!--link UnpackInterfacesMessage to AnyUnpacker--><g id="link_UnpackInterfacesMessage_AnyUnpacker"><path codeLine="21" d="M1370,236.7969 C1383.48,240.2469 1391.5982,241.8629 1405.5282,242.5929 " fill="none" id="UnpackInterfacesMessage-to-AnyUnpacker" style="stroke:#181818;stroke-width:1.0;stroke-dasharray:7.0,7.0;"/><polygon fill="#181818" points="1411.52,242.9069,1402.7417,238.4414,1406.5269,242.6452,1402.323,246.4304,1411.52,242.9069" style="stroke:#181818;stroke-width:1.0;"/></g><!--link Tx to Msg--><g id="link_Tx_Msg"><path codeLine="31" d="M1143.92,609.2969 C1155.53,609.2969 1161.14,609.2969 1172.75,609.2969 " fill="none" id="Tx-to-Msg" style="stroke:#181818;stroke-width:1.0;"/><polygon fill="#181818" points="1178.75,609.2969,1169.75,605.2969,1173.75,609.2969,1169.75,613.2969,1178.75,609.2969" style="stroke:#181818;stroke-width:1.0;"/></g><!--reverse link Tx to FeeTx--><g id="link_Tx_FeeTx"><path codeLine="34" d="M1055.2028,658.4517 C1042.8428,691.9117 1029.76,727.3169 1018.65,757.3869 " fill="none" id="Tx-backto-FeeTx" style="stroke:#181818;stroke-width:1.0;"/><polygon fill="none" points="1061.44,641.5669,1049.5745,656.3726,1060.8311,660.5308,1061.44,641.5669" style="stroke:#181818;stroke-width:1.0;"/></g><!--reverse link Tx to TxBody--><g id="link_Tx_TxBody"><path codeLine="67" d="M1267.46,998.7969 C1279.06,998.7969 1278.67,998.7969 1290.27,998.7969 " fill="none" id="Tx-backto-TxBody" style="stroke:#181818;stroke-width:1.0;"/><polygon fill="none" points="1255.46,998.7969,1261.46,1002.7969,1267.46,998.7969,1261.46,994.7969,1255.46,998.7969" style="stroke:#181818;stroke-width:1.0;"/></g><!--reverse link Tx to AuthInfo--><g id="link_Tx_AuthInfo"><path codeLine="68" d="M1208.2615,1064.7904 C1229.6715,1089.9804 1247.03,1110.3869 1268.01,1135.0669 " fill="none" id="Tx-backto-AuthInfo" style="stroke:#181818;stroke-width:1.0;"/><polygon fill="none" points="1200.49,1055.6469,1201.3279,1062.8091,1208.2615,1064.7904,1207.4236,1057.6282,1200.49,1055.6469" style="stroke:#181818;stroke-width:1.0;"/></g><!--reverse link FeeTx to TipTx--><g id="link_FeeTx_TipTx"><path codeLine="70" d="M1004.4334,824.0553 C998.8534,865.4153 989.73,933.0669 984.15,974.4069 " fill="none" id="FeeTx-backto-TipTx" style="stroke:#181818;stroke-width:1.0;"/><polygon fill="none" points="1006.84,806.2169,998.4872,823.2531,1010.3795,824.8575,1006.84,806.2169" style="stroke:#181818;stroke-width:1.0;"/></g><!--reverse link Tx to Tx--><g id="link_Tx_Tx"><path codeLine="71" d="M1083.1187,659.3053 C1096.6387,724.8053 1124.38,859.1669 1141.45,941.8269 " fill="none" id="Tx-backto-Tx" style="stroke:#181818;stroke-width:1.0;"/><polygon fill="none" points="1079.48,641.6769,1077.2426,660.5182,1088.9948,658.0924,1079.48,641.6769" style="stroke:#181818;stroke-width:1.0;"/></g><!--link Any to TxBody--><g id="link_Any_TxBody"><path codeLine="74" d="M905.56,269.6969 C948.92,285.4969 995,304.3069 1036,325.2969 C1182.94,400.4969 1248.69,398.8269 1343,534.2969 C1425.42,652.6969 1448.1218,812.2941 1454.7218,910.0641 " fill="none" id="Any-to-TxBody" style="stroke:#181818;stroke-width:1.0;"/><polygon fill="none" points="1455.53,922.0369,1459.1168,915.7811,1454.7218,910.0641,1451.135,916.3199,1455.53,922.0369" style="stroke:#181818;stroke-width:1.0;"/></g><!--reverse link UnpackInterfacesMessage to TxBody--><g id="link_UnpackInterfacesMessage_TxBody"><path codeLine="75" d="M1297.6223,262.5781 C1324.9223,280.6381 1339.4,295.3069 1357,325.2969 C1469.58,517.0969 1471.17,790.7569 1464.15,921.9569 " fill="none" id="UnpackInterfacesMessage-backto-TxBody" style="stroke:#181818;stroke-width:1.0;"/><polygon fill="none" points="1282.61,252.6469,1294.3119,267.5822,1300.9328,257.574,1282.61,252.6469" style="stroke:#181818;stroke-width:1.0;"/></g><!--reverse link UnpackInterfacesMessage to AuthInfo--><g id="link_UnpackInterfacesMessage_AuthInfo"><path codeLine="76" d="M1305.6452,261.0045 C1341.6352,280.0745 1368.99,297.1169 1404,325.2969 C1536.58,432.0269 1662,438.0969 1662,608.2969 C1662,608.2969 1662,608.2969 1662,782.7969 C1662,925.0469 1733.56,992.5969 1643,1102.2969 C1619.54,1130.7069 1540.88,1151.4469 1466.13,1165.2669 " fill="none" id="UnpackInterfacesMessage-backto-AuthInfo" style="stroke:#181818;stroke-width:1.0;"/><polygon fill="none" points="1289.74,252.5769,1302.836,266.3063,1308.4544,255.7028,1289.74,252.5769" style="stroke:#181818;stroke-width:1.0;"/></g><!--reverse link ExtensionOptionsTxBuilder to wrapper--><g id="link_ExtensionOptionsTxBuilder_wrapper"><path codeLine="109" d="M689.1283,651.5681 C687.4683,669.2581 686.76,676.7469 684.44,701.4869 " fill="none" id="ExtensionOptionsTxBuilder-backto-wrapper" style="stroke:#181818;stroke-width:1.0;"/><polygon fill="none" points="690.81,633.6469,683.1545,651.0076,695.1021,652.1287,690.81,633.6469" style="stroke:#181818;stroke-width:1.0;"/></g><!--reverse link SigVerifiableTx to Tx--><g id="link_SigVerifiableTx_Tx"><path codeLine="121" d="M419.6951,520.4225 C423.5051,543.8025 426.43,561.7969 430.23,585.1069 " fill="none" id="SigVerifiableTx-backto-Tx" style="stroke:#181818;stroke-width:1.0;"/><polygon fill="none" points="416.8,502.6569,413.7732,521.3876,425.617,519.4575,416.8,502.6569" style="stroke:#181818;stroke-width:1.0;"/></g><!--reverse link Tx to wrapper--><g id="link_Tx_wrapper"><path codeLine="123" d="M473.3754,637.9246 C498.4054,655.4846 524.28,673.6469 563.73,701.3169 " fill="none" id="Tx-backto-wrapper" style="stroke:#181818;stroke-width:1.0;"/><polygon fill="none" points="458.64,627.5869,469.9295,642.8364,476.8213,633.0128,458.64,627.5869" style="stroke:#181818;stroke-width:1.0;"/></g><!--reverse link HasExtensionOptionsTx to wrapper--><g id="link_HasExtensionOptionsTx_wrapper"><path codeLine="130" d="M275.6515,639.7057 C347.0615,664.8057 445.46,699.3969 536.98,731.5769 " fill="none" id="HasExtensionOptionsTx-backto-wrapper" style="stroke:#181818;stroke-width:1.0;"/><polygon fill="none" points="258.67,633.7369,273.6619,645.3663,277.6412,634.0452,258.67,633.7369" style="stroke:#181818;stroke-width:1.0;"/></g><!--reverse link TxBuilder to ExtensionOptionsTxBuilder--><g id="link_TxBuilder_ExtensionOptionsTxBuilder"><path codeLine="132" d="M905.9327,509.4944 C855.7927,532.7644 794.37,561.2569 743.57,584.8369 " fill="none" id="TxBuilder-backto-ExtensionOptionsTxBuilder" style="stroke:#181818;stroke-width:1.0;"/><polygon fill="none" points="922.26,501.9169,903.4068,504.052,908.4585,514.9368,922.26,501.9169" style="stroke:#181818;stroke-width:1.0;"/></g><!--reverse link TipTx to wrapper--><g id="link_TipTx_wrapper"><path codeLine="133" d="M940.5074,962.7397 C911.6374,938.0197 877.65,910.1169 834,879.2969 C825.9,873.5769 817.46,867.8269 808.87,862.1369 " fill="none" id="TipTx-backto-wrapper" style="stroke:#181818;stroke-width:1.0;"/><polygon fill="none" points="954.18,974.4469,944.4098,958.1821,936.605,967.2972,954.18,974.4469" style="stroke:#181818;stroke-width:1.0;"/></g><!--link wrapper to Tx--><g id="link_wrapper_Tx"><path codeLine="135" d="M823,773.7969 C880.7,773.7969 853.83,837.6369 906,862.2969 C957.49,886.6369 981.87,854.2169 1033,879.2969 C1062.7,893.8669 1085.5664,914.198 1106.3064,937.348 " fill="none" id="wrapper-Tx" style="stroke:#0000FF;stroke-width:1.0;"/><polygon fill="none" points="811,773.7969,817,777.7969,823,773.7969,817,769.7969,811,773.7969" style="stroke:#0000FF;stroke-width:1.0;"/><polygon fill="#0000FF" points="1110.31,941.8169,1107.2838,932.4445,1106.9736,938.0928,1101.3253,937.7827,1110.31,941.8169" style="stroke:#0000FF;stroke-width:1.0;"/></g><!--SRC=[fLTFJnD15B_pAIRX0CHq6nBZ0PicW0f4qCHIBeJ3TZkK3UtCPdSgMv543HuCyK-Y42M6c9Ye5mZUK91FmxRuBNmpkssdkpEbAvjskxFllT_x_sQA44BCPbKyXAAB-QtzxTRf- -R1jdY7IJdY44jYrh3dc1P6qzIhKQzmvpxQx0XtgHOjOyjW3GTx4frV7dFh5aEJf8662uvhaygCYp69SKMSG4MB059qgxTHDeikZuw3Fxl1qS7VJozRFq-3WnsmjlXe_lR5-KxmxKNmTYzuTdPnyXkDP2rXdr4ooRhnUBo4cJbkB7YL0ZWqab1bm9LukRnIQZ2Cbing7NFjhREzrfVdmRiteBEvUznyVJGOZcLQQxWiO91D67PN8KARMnmoEFpO_71- -Vrh1rZshGTfQwXdsG52HG8HNvzhhxq5x7bc1Ii26kSShOiNsENPA4RFOp6jQgMIW5OHy8nA_euXxBhKxGElyMHY8av0HbwsO4WHesufgegmwmYKH8oc3VIYZuRdxHhMrUiDg1WEDuCP_7YZ_I89M9cyKAvHTWzZuDdi3v5xcic4dBqsIyxx2aCbbsndKSKHYu7Kjul-52qt529XnqXzR_0MZrBeATcLtI9r_WAkqNI2TN3jrarmguPfdSrYkxB6qY4aNRZhCqmycvA73eExTrsy1vHCkpQpBRDw9RG-3vDrjZP7Lgas4mMxGh0hMBgFdfYY4KJtTJgNeE3uLuQ2PJeCA3p-bJ5WcQeEKIuN7ErV_7eLVFuHDdcM-V0nd99HeUZYv32VXorclJ751wywJ54ryriw-plXRp-ahOfeS-4vC5dTnQhS9wr5D1FPh2PcbERq8eMJHOmE29QO0Cgvmec-QhJ62pe35mqpO0YX7ljaRjrMnVLbkChhOqWWYLYepYbL6nEctHt0ZhfTBOjDJXDIvPxZ6oOeZy4EF9NZOq5hHVyMsN1Dnm6XAteW3EuqloEhRAKhP94hkASjVr7y9SZnr9F_4ZMZtAOLBr5Q1NDvTSsQNf6i4xf1f8ayI1iIAcndZDOGNMs7MQaknuERLvBuAI4itT4nJMRuvMAO3eJ7MNsiq9ifz6Vr1l1cIH3uSP_xbo3eQr8C2rKGjdI74W-67j_V-_K03CObxDghjbcgXYUXGIg_vx0sc4XSaN0dDX9xWnkPRqY3iks-nc4JpEhhBTHYCi1g1_GhhiLG8yNjJ0A4Wz28fJMSOtoOQlFV_UVO6TxYK1cJJqGeGPgOO7mBMnxcise5JiVIRZ0K9UyV]--></g></svg>