<?xml version="1.0" encoding="us-ascii" standalone="no"?><svg xmlns="http://www.w3.org/2000/svg" xmlns:xlink="http://www.w3.org/1999/xlink" contentStyleType="text/css" height="523px" preserveAspectRatio="none" style="width:775px;height:523px;background:#FFFFFF;" version="1.1" viewBox="0 0 775 523" width="775px" zoomAndPan="magnify"><defs/><g><text fill="#000000" font-family="sans-serif" font-size="14" font-weight="bold" lengthAdjust="spacing" textLength="128" x="316.5" y="22.9951">Evm&#27169;&#22359;&#30340;TxData</text><!--cluster Ethermint--><g id="cluster_Ethermint"><path d="M8.5,43.2969 L85.5,43.2969 A3.75,3.75 0 0 1 88,45.7969 L95,65.5938 L765.5,65.5938 A2.5,2.5 0 0 1 768,68.0938 L768,513.7969 A2.5,2.5 0 0 1 765.5,516.2969 L8.5,516.2969 A2.5,2.5 0 0 1 6,513.7969 L6,45.7969 A2.5,2.5 0 0 1 8.5,43.2969 " fill="none" style="stroke:#000000;stroke-width:1.5;"/><line style="stroke:#000000;stroke-width:1.5;" x1="6" x2="95" y1="65.5938" y2="65.5938"/><text fill="#000000" font-family="sans-serif" font-size="14" font-weight="bold" lengthAdjust="spacing" textLength="76" x="10" y="58.292">Ethermint</text></g><!--cluster x--><g id="cluster_x"><path d="M32.5,86.2969 L42.5,86.2969 A3.75,3.75 0 0 1 45,88.7969 L52,108.5938 L741.5,108.5938 A2.5,2.5 0 0 1 744,111.0938 L744,489.7969 A2.5,2.5 0 0 1 741.5,492.2969 L32.5,492.2969 A2.5,2.5 0 0 1 30,489.7969 L30,88.7969 A2.5,2.5 0 0 1 32.5,86.2969 " fill="none" style="stroke:#000000;stroke-width:1.5;"/><line style="stroke:#000000;stroke-width:1.5;" x1="30" x2="52" y1="108.5938" y2="108.5938"/><text fill="#000000" font-family="sans-serif" font-size="14" font-weight="bold" lengthAdjust="spacing" textLength="9" x="34" y="101.292">x</text></g><!--cluster evm--><g id="cluster_evm"><path d="M56.5,129.2969 L90.5,129.2969 A3.75,3.75 0 0 1 93,131.7969 L100,151.5938 L717.5,151.5938 A2.5,2.5 0 0 1 720,154.0938 L720,465.7969 A2.5,2.5 0 0 1 717.5,468.2969 L56.5,468.2969 A2.5,2.5 0 0 1 54,465.7969 L54,131.7969 A2.5,2.5 0 0 1 56.5,129.2969 " fill="none" style="stroke:#000000;stroke-width:1.5;"/><line style="stroke:#000000;stroke-width:1.5;" x1="54" x2="100" y1="151.5938" y2="151.5938"/><text fill="#000000" font-family="sans-serif" font-size="14" font-weight="bold" lengthAdjust="spacing" textLength="33" x="58" y="144.292">evm</text></g><!--cluster types--><g id="cluster_types"><path d="M80.5,172.2969 L125.5,172.2969 A3.75,3.75 0 0 1 128,174.7969 L135,194.5938 L693.5,194.5938 A2.5,2.5 0 0 1 696,197.0938 L696,441.7969 A2.5,2.5 0 0 1 693.5,444.2969 L80.5,444.2969 A2.5,2.5 0 0 1 78,441.7969 L78,174.7969 A2.5,2.5 0 0 1 80.5,172.2969 " fill="none" style="stroke:#000000;stroke-width:1.5;"/><line style="stroke:#000000;stroke-width:1.5;" x1="78" x2="135" y1="194.5938" y2="194.5938"/><text fill="#000000" font-family="sans-serif" font-size="14" font-weight="bold" lengthAdjust="spacing" textLength="44" x="82" y="187.292">types</text></g><!--class TxData--><g id="elem_TxData"><rect codeLine="8" fill="#F1F1F1" height="48" id="TxData" rx="2.5" ry="2.5" style="stroke:#181818;stroke-width:0.5;" width="81" x="273.5" y="239.7969"/><ellipse cx="288.5" cy="255.7969" fill="#B4A7E5" rx="11" ry="11" style="stroke:#181818;stroke-width:1.0;"/><path d="M284.4219,251.5625 L284.4219,249.4063 L291.8125,249.4063 L291.8125,251.5625 L289.3438,251.5625 L289.3438,259.6406 L291.8125,259.6406 L291.8125,261.7969 L284.4219,261.7969 L284.4219,259.6406 L286.8906,259.6406 L286.8906,251.5625 L284.4219,251.5625 Z " fill="#000000"/><text fill="#000000" font-family="sans-serif" font-size="14" font-style="italic" lengthAdjust="spacing" textLength="49" x="302.5" y="260.6436">TxData</text><line style="stroke:#181818;stroke-width:0.5;" x1="274.5" x2="353.5" y1="271.7969" y2="271.7969"/><line style="stroke:#181818;stroke-width:0.5;" x1="274.5" x2="353.5" y1="279.7969" y2="279.7969"/></g><g id="elem_GMN7"><path d="M390,224.2969 L390,259.7969 L354.57,263.7969 L390,267.7969 L390,302.8281 A0,0 0 0 0 390,302.8281 L680,302.8281 A0,0 0 0 0 680,302.8281 L680,234.2969 L670,224.2969 L390,224.2969 A0,0 0 0 0 390,224.2969 " fill="#FEFFDD" style="stroke:#181818;stroke-width:0.5;"/><path d="M670,224.2969 L670,234.2969 L680,234.2969 L670,224.2969 " fill="#FEFFDD" style="stroke:#181818;stroke-width:0.5;"/><text fill="#000000" font-family="sans-serif" font-size="13" lengthAdjust="spacing" textLength="269" x="396" y="241.3638">TxData &#34429;&#28982;&#27809;&#26377;&#23454;&#29616; proto.Message &#25509;&#21475;&#65292;</text><text fill="#000000" font-family="sans-serif" font-size="13" lengthAdjust="spacing" textLength="265" x="396" y="256.4966">&#20294;&#26159;&#23427;&#30340;&#23454;&#29616;&#31867; AccessListTx&#65292; LegacyTx&#65292;</text><text fill="#000000" font-family="sans-serif" font-size="13" lengthAdjust="spacing" textLength="162" x="396" y="271.6294">DynamicFeeTx &#37117;&#23454;&#29616;&#20102;&#65307;</text><line style="stroke:#181818;stroke-width:1.0;" x1="391" x2="679" y1="274.6953" y2="274.6953"/><text fill="#000000" font-family="sans-serif" font-size="13" lengthAdjust="spacing" textLength="265" x="396" y="290.7622">&#22240;&#27492;&#65292;TxData &#20063;&#21487;&#20197;&#30475;&#20316;&#26159; proto.Message</text></g><!--class LegacyTx--><g id="elem_LegacyTx"><rect codeLine="19" fill="#F1F1F1" height="48" id="LegacyTx" rx="2.5" ry="2.5" style="stroke:#181818;stroke-width:0.5;" width="96" x="264" y="380.2969"/><ellipse cx="279" cy="396.2969" fill="#F1F1F1" rx="11" ry="11" style="stroke:#181818;stroke-width:1.0;"/><path d="M278.4844,396.8594 Q276.625,396.1563 275.9688,395.3906 Q275.3281,394.6094 275.3281,393.2969 Q275.3281,391.6094 276.4063,390.6406 Q277.4844,389.6719 279.3594,389.6719 Q280.2188,389.6719 281.0625,389.875 Q281.9219,390.0625 282.7656,390.4531 L282.7656,392.8438 Q281.9844,392.2813 281.1563,392 Q280.3438,391.7031 279.5469,391.7031 Q278.6719,391.7031 278.1875,392.0625 Q277.7188,392.4219 277.7188,393.0781 Q277.7188,393.5938 278.0625,393.9375 Q278.4063,394.2656 279.5,394.6719 L280.5625,395.0781 Q282.0469,395.625 282.75,396.5313 Q283.4688,397.4375 283.4688,398.8125 Q283.4688,400.6875 282.3594,401.6094 Q281.25,402.5313 279,402.5313 Q278.0781,402.5313 277.1563,402.3125 Q276.2344,402.0938 275.375,401.6719 L275.375,399.1406 Q276.3438,399.8281 277.2656,400.1719 Q278.1875,400.5156 279.0781,400.5156 Q279.9844,400.5156 280.4844,400.1094 Q280.9844,399.6875 280.9844,398.9531 Q280.9844,398.3906 280.6406,397.9844 Q280.3125,397.5625 279.6875,397.3125 L278.4844,396.8594 Z " fill="#000000"/><text fill="#000000" font-family="sans-serif" font-size="14" lengthAdjust="spacing" textLength="64" x="293" y="401.1436">LegacyTx</text><line style="stroke:#181818;stroke-width:0.5;" x1="265" x2="359" y1="412.2969" y2="412.2969"/><line style="stroke:#181818;stroke-width:0.5;" x1="265" x2="359" y1="420.2969" y2="420.2969"/></g><!--class AccessListTx--><g id="elem_AccessListTx"><rect codeLine="22" fill="#F1F1F1" height="48" id="AccessListTx" rx="2.5" ry="2.5" style="stroke:#181818;stroke-width:0.5;" width="121" x="395.5" y="380.2969"/><ellipse cx="410.5" cy="396.2969" fill="#F1F1F1" rx="11" ry="11" style="stroke:#181818;stroke-width:1.0;"/><path d="M409.9844,396.8594 Q408.125,396.1563 407.4688,395.3906 Q406.8281,394.6094 406.8281,393.2969 Q406.8281,391.6094 407.9063,390.6406 Q408.9844,389.6719 410.8594,389.6719 Q411.7188,389.6719 412.5625,389.875 Q413.4219,390.0625 414.2656,390.4531 L414.2656,392.8438 Q413.4844,392.2813 412.6563,392 Q411.8438,391.7031 411.0469,391.7031 Q410.1719,391.7031 409.6875,392.0625 Q409.2188,392.4219 409.2188,393.0781 Q409.2188,393.5938 409.5625,393.9375 Q409.9063,394.2656 411,394.6719 L412.0625,395.0781 Q413.5469,395.625 414.25,396.5313 Q414.9688,397.4375 414.9688,398.8125 Q414.9688,400.6875 413.8594,401.6094 Q412.75,402.5313 410.5,402.5313 Q409.5781,402.5313 408.6563,402.3125 Q407.7344,402.0938 406.875,401.6719 L406.875,399.1406 Q407.8438,399.8281 408.7656,400.1719 Q409.6875,400.5156 410.5781,400.5156 Q411.4844,400.5156 411.9844,400.1094 Q412.4844,399.6875 412.4844,398.9531 Q412.4844,398.3906 412.1406,397.9844 Q411.8125,397.5625 411.1875,397.3125 L409.9844,396.8594 Z " fill="#000000"/><text fill="#000000" font-family="sans-serif" font-size="14" lengthAdjust="spacing" textLength="89" x="424.5" y="401.1436">AccessListTx</text><line style="stroke:#181818;stroke-width:0.5;" x1="396.5" x2="515.5" y1="412.2969" y2="412.2969"/><line style="stroke:#181818;stroke-width:0.5;" x1="396.5" x2="515.5" y1="420.2969" y2="420.2969"/></g><!--class DynamicFeeTx--><g id="elem_DynamicFeeTx"><rect codeLine="25" fill="#F1F1F1" height="48" id="DynamicFeeTx" rx="2.5" ry="2.5" style="stroke:#181818;stroke-width:0.5;" width="133" x="95.5" y="380.2969"/><ellipse cx="110.5" cy="396.2969" fill="#F1F1F1" rx="11" ry="11" style="stroke:#181818;stroke-width:1.0;"/><path d="M109.9844,396.8594 Q108.125,396.1563 107.4688,395.3906 Q106.8281,394.6094 106.8281,393.2969 Q106.8281,391.6094 107.9063,390.6406 Q108.9844,389.6719 110.8594,389.6719 Q111.7188,389.6719 112.5625,389.875 Q113.4219,390.0625 114.2656,390.4531 L114.2656,392.8438 Q113.4844,392.2813 112.6563,392 Q111.8438,391.7031 111.0469,391.7031 Q110.1719,391.7031 109.6875,392.0625 Q109.2188,392.4219 109.2188,393.0781 Q109.2188,393.5938 109.5625,393.9375 Q109.9063,394.2656 111,394.6719 L112.0625,395.0781 Q113.5469,395.625 114.25,396.5313 Q114.9688,397.4375 114.9688,398.8125 Q114.9688,400.6875 113.8594,401.6094 Q112.75,402.5313 110.5,402.5313 Q109.5781,402.5313 108.6563,402.3125 Q107.7344,402.0938 106.875,401.6719 L106.875,399.1406 Q107.8438,399.8281 108.7656,400.1719 Q109.6875,400.5156 110.5781,400.5156 Q111.4844,400.5156 111.9844,400.1094 Q112.4844,399.6875 112.4844,398.9531 Q112.4844,398.3906 112.1406,397.9844 Q111.8125,397.5625 111.1875,397.3125 L109.9844,396.8594 Z " fill="#000000"/><text fill="#000000" font-family="sans-serif" font-size="14" lengthAdjust="spacing" textLength="101" x="124.5" y="401.1436">DynamicFeeTx</text><line style="stroke:#181818;stroke-width:0.5;" x1="96.5" x2="227.5" y1="412.2969" y2="412.2969"/><line style="stroke:#181818;stroke-width:0.5;" x1="96.5" x2="227.5" y1="420.2969" y2="420.2969"/></g><!--class Message--><g id="elem_Message"><rect codeLine="33" fill="#F1F1F1" height="113.1563" id="Message" rx="2.5" ry="2.5" style="stroke:#181818;stroke-width:0.5;" width="144" x="94" y="207.2969"/><ellipse cx="109" cy="227.4297" fill="#B4A7E5" rx="11" ry="11" style="stroke:#181818;stroke-width:1.0;"/><path d="M104.9219,223.1953 L104.9219,221.0391 L112.3125,221.0391 L112.3125,223.1953 L109.8438,223.1953 L109.8438,231.2734 L112.3125,231.2734 L112.3125,233.4297 L104.9219,233.4297 L104.9219,231.2734 L107.3906,231.2734 L107.3906,223.1953 L104.9219,223.1953 Z " fill="#000000"/><text fill="#000000" font-family="sans-serif" font-size="12" font-style="italic" lengthAdjust="spacing" textLength="116" x="121" y="223.4355">&#171;&#23450;&#20041;&#22312;protobuf&#20013;&#187;</text><text fill="#000000" font-family="sans-serif" font-size="14" font-style="italic" lengthAdjust="spacing" textLength="102" x="128" y="239.2607">proto.Message</text><line style="stroke:#181818;stroke-width:0.5;" x1="95" x2="237" y1="247.5625" y2="247.5625"/><text fill="#000000" font-family="sans-serif" font-size="14" lengthAdjust="spacing" textLength="51" x="100" y="264.5576">Reset()</text><line style="stroke:#181818;stroke-width:1.0;stroke-dasharray:1.0,2.0;" x1="95" x2="237" y1="271.8594" y2="271.8594"/><text fill="#000000" font-family="sans-serif" font-size="14" lengthAdjust="spacing" textLength="93" x="100" y="288.8545">String() string</text><line style="stroke:#181818;stroke-width:1.0;stroke-dasharray:1.0,2.0;" x1="95" x2="237" y1="296.1563" y2="296.1563"/><text fill="#000000" font-family="sans-serif" font-size="14" lengthAdjust="spacing" textLength="110" x="100" y="313.1514">ProtoMessage()</text></g><!--reverse link TxData to LegacyTx--><g id="link_TxData_LegacyTx"><path codeLine="29" d="M313.4002,306.285 C313.0302,331.915 312.7,354.6669 312.33,380.1469 " fill="none" id="TxData-backto-LegacyTx" style="stroke:#181818;stroke-width:1.0;"/><polygon fill="none" points="313.66,288.2869,307.4008,306.1984,319.3996,306.3716,313.66,288.2869" style="stroke:#181818;stroke-width:1.0;"/></g><!--reverse link TxData to AccessListTx--><g id="link_TxData_AccessListTx"><path codeLine="30" d="M350.9739,300.8569 C377.2439,326.4869 406.14,354.6669 432.27,380.1469 " fill="none" id="TxData-backto-AccessListTx" style="stroke:#181818;stroke-width:1.0;"/><polygon fill="none" points="338.09,288.2869,346.7839,305.1515,355.1639,296.5623,338.09,288.2869" style="stroke:#181818;stroke-width:1.0;"/></g><!--reverse link TxData to DynamicFeeTx--><g id="link_TxData_DynamicFeeTx"><path codeLine="31" d="M276.9766,300.7248 C266.6166,310.7048 267.29,309.9169 256,320.2969 C233.72,340.7769 207.92,363.4869 189,379.9669 " fill="none" id="TxData-backto-DynamicFeeTx" style="stroke:#181818;stroke-width:1.0;"/><polygon fill="none" points="289.94,288.2369,272.8139,296.4037,281.1392,305.046,289.94,288.2369" style="stroke:#181818;stroke-width:1.0;"/></g><!--reverse link Message to LegacyTx--><g id="link_Message_LegacyTx"><path codeLine="40" d="M238.0212,333.1126 C259.8712,353.8326 270.39,363.8269 287.49,380.0469 " fill="none" id="Message-backto-LegacyTx" style="stroke:#0000FF;stroke-width:1.0;"/><polygon fill="none" points="224.96,320.7269,233.8926,337.4663,242.1497,328.7589,224.96,320.7269" style="stroke:#0000FF;stroke-width:1.0;"/></g><!--reverse link Message to AccessListTx--><g id="link_Message_AccessListTx"><path codeLine="41" d="M253.8001,319.5039 C259.7801,322.8839 250.12,317.2869 256,320.2969 C301.51,343.5869 355.11,365.5569 395.36,381.0369 " fill="none" id="Message-backto-AccessListTx" style="stroke:#0000FF;stroke-width:1.0;"/><polygon fill="none" points="238.13,310.6469,250.8478,324.7273,256.7525,314.2805,238.13,310.6469" style="stroke:#0000FF;stroke-width:1.0;"/></g><!--reverse link Message to DynamicFeeTx--><g id="link_Message_DynamicFeeTx"><path codeLine="42" d="M163.8677,338.7196 C163.2777,359.4396 163.14,363.8269 162.67,380.0469 " fill="none" id="Message-backto-DynamicFeeTx" style="stroke:#0000FF;stroke-width:1.0;"/><polygon fill="none" points="164.38,320.7269,157.8701,338.5488,169.8652,338.8904,164.38,320.7269" style="stroke:#0000FF;stroke-width:1.0;"/></g><!--SRC=[bLFBJi9G4Dtp5HFTm0A-W91em1KcHjaP5xKEq4GAQIy48gmW94G3InNm5ILX0wWB8m9_quUk-0LlQSMMNXkPrMtFENFFd6a108X0Jj47LiKA6Qt_eDvSwkrQeXZb2BU0K3onY8j7aSkWdEDuX1X9evGHH09donw_Q364XOmDSQAab4Dv1JMATaCfQJ1C1vJYubHSRyGiGP24L9f0DWasxwjbDVsydkcrD-trGUisrE6jtdo6d9GbsT0koZANGj2QFRNrE9zUCBieixfsDLA7LHgKATTV9h35yrGT5sIIA58bn375yINpp6mJBT4y17u7CL64h-hCRALyrEVJ3bCGfCK4rCwzDdYY5rdpAUCxjJLI9ZszUwxCkjIiSpvN4sF7Yn3TQSj4olDaESt_5cA9x96i9NH4mnJw_bXjk1mCBirwakpcF8bsCpwFBtR3aV46S3ByV4_Xi3fiA-E6skqlICVvfF8-Y4GOVu1H-oWZyGUOM8WM4pWWaY2c_04ZGtfOJxndkBBSCYvsBsevMJbukBbzciSZZzXPPC_uMGB76jZcp5Fb6m00]--></g></svg>