<?xml version="1.0" encoding="us-ascii" standalone="no"?><svg xmlns="http://www.w3.org/2000/svg" xmlns:xlink="http://www.w3.org/1999/xlink" contentStyleType="text/css" height="689px" preserveAspectRatio="none" style="width:789px;height:689px;background:#FFFFFF;" version="1.1" viewBox="0 0 789 689" width="789px" zoomAndPan="magnify"><defs/><g><text fill="#000000" font-family="sans-serif" font-size="14" font-weight="bold" lengthAdjust="spacing" textLength="87" x="344" y="22.9951">tendermint</text><text fill="#000000" font-family="sans-serif" font-size="14" font-weight="bold" lengthAdjust="spacing" textLength="218" x="278.5" y="39.292">rpc.core.Environment &#32467;&#26500;&#20307;</text><text fill="#000000" font-family="sans-serif" font-size="14" font-weight="bold" lengthAdjust="spacing" textLength="160" x="307.5" y="55.5889">[&#20851;&#27880; CheckTx &#30340;&#27969;&#31243;]</text><!--cluster rpc--><g id="cluster_rpc"><path d="M8.5,75.8906 L35.5,75.8906 A3.75,3.75 0 0 1 38,78.3906 L45,98.1875 L467.5,98.1875 A2.5,2.5 0 0 1 470,100.6875 L470,263.3906 A2.5,2.5 0 0 1 467.5,265.8906 L8.5,265.8906 A2.5,2.5 0 0 1 6,263.3906 L6,78.3906 A2.5,2.5 0 0 1 8.5,75.8906 " fill="none" style="stroke:#000000;stroke-width:1.5;"/><line style="stroke:#000000;stroke-width:1.5;" x1="6" x2="45" y1="98.1875" y2="98.1875"/><text fill="#000000" font-family="sans-serif" font-size="14" font-weight="bold" lengthAdjust="spacing" textLength="26" x="10" y="90.8857">rpc</text></g><!--cluster core--><g id="cluster_core"><path d="M32.5,118.8906 L69.5,118.8906 A3.75,3.75 0 0 1 72,121.3906 L79,141.1875 L443.5,141.1875 A2.5,2.5 0 0 1 446,143.6875 L446,239.3906 A2.5,2.5 0 0 1 443.5,241.8906 L32.5,241.8906 A2.5,2.5 0 0 1 30,239.3906 L30,121.3906 A2.5,2.5 0 0 1 32.5,118.8906 " fill="none" style="stroke:#000000;stroke-width:1.5;"/><line style="stroke:#000000;stroke-width:1.5;" x1="30" x2="79" y1="141.1875" y2="141.1875"/><text fill="#000000" font-family="sans-serif" font-size="14" font-weight="bold" lengthAdjust="spacing" textLength="36" x="34" y="133.8857">core</text></g><!--cluster mempool--><g id="cluster_mempool"><path d="M76.5,311.8906 L149.5,311.8906 A3.75,3.75 0 0 1 152,314.3906 L159,334.1875 L779.5,334.1875 A2.5,2.5 0 0 1 782,336.6875 L782,680.3906 A2.5,2.5 0 0 1 779.5,682.8906 L76.5,682.8906 A2.5,2.5 0 0 1 74,680.3906 L74,314.3906 A2.5,2.5 0 0 1 76.5,311.8906 " fill="none" style="stroke:#000000;stroke-width:1.5;"/><line style="stroke:#000000;stroke-width:1.5;" x1="74" x2="159" y1="334.1875" y2="334.1875"/><text fill="#000000" font-family="sans-serif" font-size="14" font-weight="bold" lengthAdjust="spacing" textLength="72" x="78" y="326.8857">mempool</text></g><!--cluster v1--><g id="cluster_v1"><path d="M100.5,435.8906 L120.5,435.8906 A3.75,3.75 0 0 1 123,438.3906 L130,458.1875 L413.5,458.1875 A2.5,2.5 0 0 1 416,460.6875 L416,656.3906 A2.5,2.5 0 0 1 413.5,658.8906 L100.5,658.8906 A2.5,2.5 0 0 1 98,656.3906 L98,438.3906 A2.5,2.5 0 0 1 100.5,435.8906 " fill="none" style="stroke:#000000;stroke-width:1.5;"/><line style="stroke:#000000;stroke-width:1.5;" x1="98" x2="130" y1="458.1875" y2="458.1875"/><text fill="#000000" font-family="sans-serif" font-size="14" font-weight="bold" lengthAdjust="spacing" textLength="19" x="102" y="450.8857">v1</text></g><!--cluster v0--><g id="cluster_v0"><path d="M442.5,435.8906 L462.5,435.8906 A3.75,3.75 0 0 1 465,438.3906 L472,458.1875 L755.5,458.1875 A2.5,2.5 0 0 1 758,460.6875 L758,656.3906 A2.5,2.5 0 0 1 755.5,658.8906 L442.5,658.8906 A2.5,2.5 0 0 1 440,656.3906 L440,438.3906 A2.5,2.5 0 0 1 442.5,435.8906 " fill="none" style="stroke:#000000;stroke-width:1.5;"/><line style="stroke:#000000;stroke-width:1.5;" x1="440" x2="472" y1="458.1875" y2="458.1875"/><text fill="#000000" font-family="sans-serif" font-size="14" font-weight="bold" lengthAdjust="spacing" textLength="19" x="444" y="450.8857">v0</text></g><!--class Environment--><g id="elem_Environment"><rect codeLine="8" fill="#F1F1F1" height="64.2969" id="Environment" rx="2.5" ry="2.5" style="stroke:#181818;stroke-width:0.5;" width="195" x="226.5" y="157.8906"/><ellipse cx="276.25" cy="173.8906" fill="#F1F1F1" rx="11" ry="11" style="stroke:#181818;stroke-width:1.0;"/><path d="M275.7344,174.4531 Q273.875,173.75 273.2188,172.9844 Q272.5781,172.2031 272.5781,170.8906 Q272.5781,169.2031 273.6563,168.2344 Q274.7344,167.2656 276.6094,167.2656 Q277.4688,167.2656 278.3125,167.4688 Q279.1719,167.6563 280.0156,168.0469 L280.0156,170.4375 Q279.2344,169.875 278.4063,169.5938 Q277.5938,169.2969 276.7969,169.2969 Q275.9219,169.2969 275.4375,169.6563 Q274.9688,170.0156 274.9688,170.6719 Q274.9688,171.1875 275.3125,171.5313 Q275.6563,171.8594 276.75,172.2656 L277.8125,172.6719 Q279.2969,173.2188 280,174.125 Q280.7188,175.0313 280.7188,176.4063 Q280.7188,178.2813 279.6094,179.2031 Q278.5,180.125 276.25,180.125 Q275.3281,180.125 274.4063,179.9063 Q273.4844,179.6875 272.625,179.2656 L272.625,176.7344 Q273.5938,177.4219 274.5156,177.7656 Q275.4375,178.1094 276.3281,178.1094 Q277.2344,178.1094 277.7344,177.7031 Q278.2344,177.2813 278.2344,176.5469 Q278.2344,175.9844 277.8906,175.5781 Q277.5625,175.1563 276.9375,174.9063 L275.7344,174.4531 Z " fill="#000000"/><text fill="#000000" font-family="sans-serif" font-size="14" lengthAdjust="spacing" textLength="87" x="296.75" y="178.7373">Environment</text><line style="stroke:#181818;stroke-width:0.5;" x1="227.5" x2="420.5" y1="189.8906" y2="189.8906"/><text fill="#000000" font-family="sans-serif" font-size="14" lengthAdjust="spacing" textLength="183" x="232.5" y="206.8857">Mempool mempl.Mempool</text><line style="stroke:#181818;stroke-width:0.5;" x1="227.5" x2="420.5" y1="214.1875" y2="214.1875"/></g><g id="elem_GMN5"><path d="M46.5,177.3906 L46.5,202.5234 A0,0 0 0 0 46.5,202.5234 L183.5,202.5234 A0,0 0 0 0 183.5,202.5234 L183.5,195.3906 L218.72,189.8906 L183.5,187.3906 L183.5,187.3906 L173.5,177.3906 L46.5,177.3906 A0,0 0 0 0 46.5,177.3906 " fill="#FEFFDD" style="stroke:#181818;stroke-width:0.5;"/><path d="M173.5,177.3906 L173.5,187.3906 L183.5,187.3906 L173.5,177.3906 " fill="#FEFFDD" style="stroke:#181818;stroke-width:0.5;"/><text fill="#000000" font-family="sans-serif" font-size="13" lengthAdjust="spacing" textLength="116" x="52.5" y="194.4575">rpc/core/env.go &#20013;</text></g><!--class Mempool--><g id="elem_Mempool"><rect codeLine="17" fill="#F1F1F1" height="64.2969" id="Mempool" rx="2.5" ry="2.5" style="stroke:#181818;stroke-width:0.5;" width="96" x="277" y="346.8906"/><ellipse cx="292" cy="362.8906" fill="#B4A7E5" rx="11" ry="11" style="stroke:#181818;stroke-width:1.0;"/><path d="M287.9219,358.6563 L287.9219,356.5 L295.3125,356.5 L295.3125,358.6563 L292.8438,358.6563 L292.8438,366.7344 L295.3125,366.7344 L295.3125,368.8906 L287.9219,368.8906 L287.9219,366.7344 L290.3906,366.7344 L290.3906,358.6563 L287.9219,358.6563 Z " fill="#000000"/><text fill="#000000" font-family="sans-serif" font-size="14" font-style="italic" lengthAdjust="spacing" textLength="64" x="306" y="367.7373">Mempool</text><line style="stroke:#181818;stroke-width:0.5;" x1="278" x2="372" y1="378.8906" y2="378.8906"/><text fill="#000000" font-family="sans-serif" font-size="14" lengthAdjust="spacing" textLength="60" x="283" y="395.8857">CheckTx</text><line style="stroke:#181818;stroke-width:0.5;" x1="278" x2="372" y1="403.1875" y2="403.1875"/></g><!--class TxMempool--><g id="elem_TxMempool"><rect codeLine="22" fill="#F1F1F1" height="64.2969" id="TxMempool" rx="2.5" ry="2.5" style="stroke:#181818;stroke-width:0.5;" width="286" x="114" y="470.8906"/><ellipse cx="212.75" cy="486.8906" fill="#F1F1F1" rx="11" ry="11" style="stroke:#181818;stroke-width:1.0;"/><path d="M212.2344,487.4531 Q210.375,486.75 209.7188,485.9844 Q209.0781,485.2031 209.0781,483.8906 Q209.0781,482.2031 210.1563,481.2344 Q211.2344,480.2656 213.1094,480.2656 Q213.9688,480.2656 214.8125,480.4688 Q215.6719,480.6563 216.5156,481.0469 L216.5156,483.4375 Q215.7344,482.875 214.9063,482.5938 Q214.0938,482.2969 213.2969,482.2969 Q212.4219,482.2969 211.9375,482.6563 Q211.4688,483.0156 211.4688,483.6719 Q211.4688,484.1875 211.8125,484.5313 Q212.1563,484.8594 213.25,485.2656 L214.3125,485.6719 Q215.7969,486.2188 216.5,487.125 Q217.2188,488.0313 217.2188,489.4063 Q217.2188,491.2813 216.1094,492.2031 Q215,493.125 212.75,493.125 Q211.8281,493.125 210.9063,492.9063 Q209.9844,492.6875 209.125,492.2656 L209.125,489.7344 Q210.0938,490.4219 211.0156,490.7656 Q211.9375,491.1094 212.8281,491.1094 Q213.7344,491.1094 214.2344,490.7031 Q214.7344,490.2813 214.7344,489.5469 Q214.7344,488.9844 214.3906,488.5781 Q214.0625,488.1563 213.4375,487.9063 L212.2344,487.4531 Z " fill="#000000"/><text fill="#000000" font-family="sans-serif" font-size="14" lengthAdjust="spacing" textLength="80" x="233.25" y="491.7373">TxMempool</text><line style="stroke:#181818;stroke-width:0.5;" x1="115" x2="399" y1="502.8906" y2="502.8906"/><text fill="#000000" font-family="sans-serif" font-size="14" lengthAdjust="spacing" textLength="274" x="120" y="519.8857">proxyAppConn proxy.AppConnMempool</text><line style="stroke:#181818;stroke-width:0.5;" x1="115" x2="399" y1="527.1875" y2="527.1875"/></g><g id="elem_GMN12"><path d="M148.5,594.8906 L148.5,643.1563 A0,0 0 0 0 148.5,643.1563 L365.5,643.1563 A0,0 0 0 0 365.5,643.1563 L365.5,604.8906 L355.5,594.8906 L261,594.8906 L257,535.3406 L253,594.8906 L148.5,594.8906 A0,0 0 0 0 148.5,594.8906 " fill="#FEFFDD" style="stroke:#181818;stroke-width:0.5;"/><path d="M355.5,594.8906 L355.5,604.8906 L365.5,604.8906 L355.5,594.8906 " fill="#FEFFDD" style="stroke:#181818;stroke-width:0.5;"/><text fill="#000000" font-family="sans-serif" font-size="13" lengthAdjust="spacing" textLength="182" x="154.5" y="611.9575">mempool/v1/mempool.go &#20013;</text><line style="stroke:#181818;stroke-width:1.0;" x1="149.5" x2="364.5" y1="615.0234" y2="615.0234"/><text fill="#000000" font-family="sans-serif" font-size="13" lengthAdjust="spacing" textLength="196" x="154.5" y="631.0903">proxyAppConn &#29992;&#20110; abci &#30340;&#20132;&#20114;</text></g><!--class CListMempool--><g id="elem_CListMempool"><rect codeLine="33" fill="#F1F1F1" height="64.2969" id="CListMempool" rx="2.5" ry="2.5" style="stroke:#181818;stroke-width:0.5;" width="286" x="456" y="470.8906"/><ellipse cx="546.25" cy="486.8906" fill="#F1F1F1" rx="11" ry="11" style="stroke:#181818;stroke-width:1.0;"/><path d="M545.7344,487.4531 Q543.875,486.75 543.2188,485.9844 Q542.5781,485.2031 542.5781,483.8906 Q542.5781,482.2031 543.6563,481.2344 Q544.7344,480.2656 546.6094,480.2656 Q547.4688,480.2656 548.3125,480.4688 Q549.1719,480.6563 550.0156,481.0469 L550.0156,483.4375 Q549.2344,482.875 548.4063,482.5938 Q547.5938,482.2969 546.7969,482.2969 Q545.9219,482.2969 545.4375,482.6563 Q544.9688,483.0156 544.9688,483.6719 Q544.9688,484.1875 545.3125,484.5313 Q545.6563,484.8594 546.75,485.2656 L547.8125,485.6719 Q549.2969,486.2188 550,487.125 Q550.7188,488.0313 550.7188,489.4063 Q550.7188,491.2813 549.6094,492.2031 Q548.5,493.125 546.25,493.125 Q545.3281,493.125 544.4063,492.9063 Q543.4844,492.6875 542.625,492.2656 L542.625,489.7344 Q543.5938,490.4219 544.5156,490.7656 Q545.4375,491.1094 546.3281,491.1094 Q547.2344,491.1094 547.7344,490.7031 Q548.2344,490.2813 548.2344,489.5469 Q548.2344,488.9844 547.8906,488.5781 Q547.5625,488.1563 546.9375,487.9063 L545.7344,487.4531 Z " fill="#000000"/><text fill="#000000" font-family="sans-serif" font-size="14" lengthAdjust="spacing" textLength="97" x="566.75" y="491.7373">CListMempool</text><line style="stroke:#181818;stroke-width:0.5;" x1="457" x2="741" y1="502.8906" y2="502.8906"/><text fill="#000000" font-family="sans-serif" font-size="14" lengthAdjust="spacing" textLength="274" x="462" y="519.8857">proxyAppConn proxy.AppConnMempool</text><line style="stroke:#181818;stroke-width:0.5;" x1="457" x2="741" y1="527.1875" y2="527.1875"/></g><g id="elem_GMN17"><path d="M490,594.8906 L490,643.1563 A0,0 0 0 0 490,643.1563 L708,643.1563 A0,0 0 0 0 708,643.1563 L708,604.8906 L698,594.8906 L603,594.8906 L599,535.3406 L595,594.8906 L490,594.8906 A0,0 0 0 0 490,594.8906 " fill="#FEFFDD" style="stroke:#181818;stroke-width:0.5;"/><path d="M698,594.8906 L698,604.8906 L708,604.8906 L698,594.8906 " fill="#FEFFDD" style="stroke:#181818;stroke-width:0.5;"/><text fill="#000000" font-family="sans-serif" font-size="13" lengthAdjust="spacing" textLength="197" x="496" y="611.9575">mempool/v0/clist_mempool.go</text><line style="stroke:#181818;stroke-width:1.0;" x1="491" x2="707" y1="615.0234" y2="615.0234"/><text fill="#000000" font-family="sans-serif" font-size="13" lengthAdjust="spacing" textLength="196" x="496" y="631.0903">proxyAppConn &#29992;&#20110; abci &#30340;&#20132;&#20114;</text></g><!--reverse link Mempool to TxMempool--><g id="link_Mempool_TxMempool"><path codeLine="45" d="M297.11,429.9406 C289.44,443.6906 281.35,458.2106 274.45,470.5806 " fill="none" id="Mempool-backto-TxMempool" style="stroke:#181818;stroke-width:1.0;"/><polygon fill="none" points="290.9,426.6906,306.75,412.6306,303.13,433.5106,290.9,426.6906" style="stroke:#181818;stroke-width:1.0;"/></g><!--reverse link Mempool to CListMempool--><g id="link_Mempool_CListMempool"><path codeLine="46" d="M392.9,410.1206 C434.17,428.5006 486.76,451.9206 528.49,470.5006 " fill="none" id="Mempool-backto-CListMempool" style="stroke:#181818;stroke-width:1.0;"/><polygon fill="none" points="390.16,416.5706,374.74,402.0406,395.86,403.7806,390.16,416.5706" style="stroke:#181818;stroke-width:1.0;"/></g><!--reverse link Environment to Mempool--><g id="link_Environment_Mempool"><path codeLine="48" d="M437.18,204.0606 C473.86,218.4206 401.54,300.3506 356.77,346.4206 " fill="none" id="Environment-backto-Mempool" style="stroke:#181818;stroke-width:1.0;"/><polygon fill="none" points="424.5,202.1206,429.8244,206.9838,436.3614,203.9394,431.0369,199.0762,424.5,202.1206" style="stroke:#181818;stroke-width:1.0;"/></g><!--SRC=[nPI_JiCm4CRtFCMzG9nchLXGnGPRDuHGQgubQc97hecAW06fJ4WCb8c1YQ4BKuM4YdYRaBm6JkeuVrfLB8XRuhFllllyanK00EdB02tG8P6TeGXz9isMY2YXN20vOB4lE0kHISW-v-dBBFcQcxBZxxjbkbn0xnpfk3-5x7cMljzcY_kJeaJfwb556dbqx8tGYCEL4Pf8SK4brATLXtaSOHXn7a2elW7HcQcuCIl69KA0GzdeLXETVAA3B2OZ3id7cpdFJHPTLgNKi1lgqPKXHGh5qADeR3NDQXmrUsPPYiPkgqSJw4-tInQzWaylzwEennbR9qHdRHvD9eRBW4l9mmrTVK4dTXszR3CgmrQnsrRsj4XM3-0Dg9-_XcJrcgmU6oqbxvrqEjlfz0xzYVn7G1s71ih1QONfJn51OxVrsZMsqaf9PU_Qjircx1Bpe7vHtI5rm6lzRN-2RhVi1wwkko5hMJy0]--></g></svg>