<?xml version="1.0" encoding="us-ascii" standalone="no"?><svg xmlns="http://www.w3.org/2000/svg" xmlns:xlink="http://www.w3.org/1999/xlink" contentStyleType="text/css" height="1998px" preserveAspectRatio="none" style="width:2048px;height:1998px;background:#FFFFFF;" version="1.1" viewBox="0 0 2048 1998" width="2048px" zoomAndPan="magnify"><defs/><g><text fill="#000000" font-family="sans-serif" font-size="14" font-weight="bold" lengthAdjust="spacing" textLength="152" x="944" y="27.9951">txDecoder&#30340;&#35814;&#32454;&#27969;&#31243;</text><rect fill="#FFFFFF" height="29.1328" style="stroke:#181818;stroke-width:1.0;" width="10" x="333" y="222.4219"/><rect fill="#FFFFFF" height="29.1328" style="stroke:#181818;stroke-width:1.0;" width="10" x="589" y="315.8203"/><rect fill="#FFFFFF" height="29.1328" style="stroke:#181818;stroke-width:1.0;" width="10" x="589" y="769.0781"/><rect fill="#FFFFFF" height="29.1328" style="stroke:#181818;stroke-width:1.0;" width="10" x="589" y="1573.75"/><rect fill="#FFFFFF" height="330.7266" style="stroke:#181818;stroke-width:1.0;" width="10" x="755.5" y="374.0859"/><rect fill="#FFFFFF" height="682.1406" style="stroke:#181818;stroke-width:1.0;" width="10" x="755.5" y="827.3438"/><rect fill="#FFFFFF" height="261.3281" style="stroke:#181818;stroke-width:1.0;" width="10" x="755.5" y="1632.0156"/><rect fill="#FFFFFF" height="328.5469" style="stroke:#181818;stroke-width:1.0;" width="10" x="894" y="1093.5391"/><rect fill="#FFFFFF" height="29.1328" style="stroke:#181818;stroke-width:1.0;" width="10" x="899" y="1327.6875"/><rect fill="#FFFFFF" height="163.9297" style="stroke:#181818;stroke-width:1.0;" width="10" x="1019.5" y="403.2188"/><rect fill="#FFFFFF" height="64.2656" style="stroke:#181818;stroke-width:1.0;" width="10" x="1311" y="856.4766"/><rect fill="#FFFFFF" height="437.0781" style="stroke:#181818;stroke-width:1.0;" width="10" x="1311" y="1014.1406"/><rect fill="#FFFFFF" height="64.2656" style="stroke:#181818;stroke-width:1.0;" width="10" x="1451" y="1661.1484"/><rect fill="#FFFFFF" height="79.3984" style="stroke:#181818;stroke-width:1.0;" width="10" x="1582.5" y="596.2813"/><rect fill="#FFFFFF" height="530.4766" style="stroke:#181818;stroke-width:1.0;" width="10" x="1582.5" y="949.875"/><rect fill="#FFFFFF" height="109.6641" style="stroke:#181818;stroke-width:1.0;" width="10" x="1582.5" y="1754.5469"/><rect fill="#FFFFFF" height="204.0156" style="stroke:#181818;stroke-width:1.0;" width="10" x="1759" y="1181.9375"/><rect fill="none" height="285.4141" style="stroke:#000000;stroke-width:1.5;" width="1207" x="824" y="1108.5391"/><line style="stroke:#181818;stroke-width:0.5;stroke-dasharray:5.0,5.0;" x1="91" x2="91" y1="89.8906" y2="1946.4766"/><line style="stroke:#181818;stroke-width:0.5;stroke-dasharray:5.0,5.0;" x1="338" x2="338" y1="89.8906" y2="1946.4766"/><line style="stroke:#181818;stroke-width:0.5;stroke-dasharray:5.0,5.0;" x1="594" x2="594" y1="89.8906" y2="1946.4766"/><line style="stroke:#181818;stroke-width:0.5;stroke-dasharray:5.0,5.0;" x1="760" x2="760" y1="89.8906" y2="1946.4766"/><line style="stroke:#181818;stroke-width:0.5;stroke-dasharray:5.0,5.0;" x1="899" x2="899" y1="89.8906" y2="1946.4766"/><line style="stroke:#181818;stroke-width:0.5;stroke-dasharray:5.0,5.0;" x1="1024" x2="1024" y1="89.8906" y2="1946.4766"/><line style="stroke:#181818;stroke-width:0.5;stroke-dasharray:5.0,5.0;" x1="1315.5" x2="1315.5" y1="89.8906" y2="1946.4766"/><line style="stroke:#181818;stroke-width:0.5;stroke-dasharray:5.0,5.0;" x1="1455.5" x2="1455.5" y1="89.8906" y2="1946.4766"/><line style="stroke:#181818;stroke-width:0.5;stroke-dasharray:5.0,5.0;" x1="1587.5" x2="1587.5" y1="89.8906" y2="1946.4766"/><line style="stroke:#181818;stroke-width:0.5;stroke-dasharray:5.0,5.0;" x1="1763.5" x2="1763.5" y1="89.8906" y2="1946.4766"/><rect fill="#E2E2F0" height="46.5938" rx="2.5" ry="2.5" style="stroke:#181818;stroke-width:0.5;" width="90" x="46" y="42.2969"/><text fill="#000000" font-family="sans-serif" font-size="14" lengthAdjust="spacing" textLength="48" x="65" y="62.292">&#127744;&#171;func&#187;</text><text fill="#000000" font-family="sans-serif" font-size="14" lengthAdjust="spacing" textLength="72" x="57" y="78.5889">txDecoder</text><rect fill="#E2E2F0" height="46.5938" rx="2.5" ry="2.5" style="stroke:#181818;stroke-width:0.5;" width="90" x="46" y="1945.4766"/><text fill="#000000" font-family="sans-serif" font-size="14" lengthAdjust="spacing" textLength="48" x="65" y="1965.4717">&#127744;&#171;func&#187;</text><text fill="#000000" font-family="sans-serif" font-size="14" lengthAdjust="spacing" textLength="72" x="57" y="1981.7686">txDecoder</text><rect fill="#E2E2F0" height="46.5938" rx="2.5" ry="2.5" style="stroke:#181818;stroke-width:0.5;" width="110" x="283" y="42.2969"/><text fill="#000000" font-family="sans-serif" font-size="14" lengthAdjust="spacing" textLength="92" x="290" y="62.292">&#128230;&#65039;&#171;package&#187;</text><text fill="#000000" font-family="sans-serif" font-size="14" lengthAdjust="spacing" textLength="58" x="311" y="78.5889">x.auth.tx</text><rect fill="#E2E2F0" height="46.5938" rx="2.5" ry="2.5" style="stroke:#181818;stroke-width:0.5;" width="110" x="283" y="1945.4766"/><text fill="#000000" font-family="sans-serif" font-size="14" lengthAdjust="spacing" textLength="92" x="290" y="1965.4717">&#128230;&#65039;&#171;package&#187;</text><text fill="#000000" font-family="sans-serif" font-size="14" lengthAdjust="spacing" textLength="58" x="311" y="1981.7686">x.auth.tx</text><rect fill="#E2E2F0" height="46.5938" rx="2.5" ry="2.5" style="stroke:#181818;stroke-width:0.5;" width="166" x="511" y="42.2969"/><text fill="#000000" font-family="sans-serif" font-size="14" lengthAdjust="spacing" textLength="92" x="546" y="62.292">&#128230;&#65039;&#171;package&#187;</text><text fill="#000000" font-family="sans-serif" font-size="14" lengthAdjust="spacing" textLength="148" x="522" y="78.5889">codec.unknownproto</text><rect fill="#E2E2F0" height="46.5938" rx="2.5" ry="2.5" style="stroke:#181818;stroke-width:0.5;" width="166" x="511" y="1945.4766"/><text fill="#000000" font-family="sans-serif" font-size="14" lengthAdjust="spacing" textLength="92" x="546" y="1965.4717">&#128230;&#65039;&#171;package&#187;</text><text fill="#000000" font-family="sans-serif" font-size="14" lengthAdjust="spacing" textLength="148" x="522" y="1981.7686">codec.unknownproto</text><rect fill="#E2E2F0" height="46.5938" rx="2.5" ry="2.5" style="stroke:#181818;stroke-width:0.5;" width="147" x="687" y="42.2969"/><text fill="#000000" font-family="sans-serif" font-size="14" lengthAdjust="spacing" textLength="58" x="729.5" y="62.292">&#128679;&#171;struct&#187;</text><text fill="#000000" font-family="sans-serif" font-size="14" lengthAdjust="spacing" textLength="129" x="698" y="78.5889">codec.ProtoCodec</text><rect fill="#E2E2F0" height="46.5938" rx="2.5" ry="2.5" style="stroke:#181818;stroke-width:0.5;" width="147" x="687" y="1945.4766"/><text fill="#000000" font-family="sans-serif" font-size="14" lengthAdjust="spacing" textLength="58" x="729.5" y="1965.4717">&#128679;&#171;struct&#187;</text><text fill="#000000" font-family="sans-serif" font-size="14" lengthAdjust="spacing" textLength="129" x="698" y="1981.7686">codec.ProtoCodec</text><rect fill="#E2E2F0" height="46.5938" rx="2.5" ry="2.5" style="stroke:#181818;stroke-width:0.5;" width="110" x="844" y="42.2969"/><text fill="#000000" font-family="sans-serif" font-size="14" lengthAdjust="spacing" textLength="92" x="851" y="62.292">&#128230;&#65039;&#171;package&#187;</text><text fill="#000000" font-family="sans-serif" font-size="14" lengthAdjust="spacing" textLength="54" x="874" y="78.5889">types.tx</text><rect fill="#E2E2F0" height="46.5938" rx="2.5" ry="2.5" style="stroke:#181818;stroke-width:0.5;" width="110" x="844" y="1945.4766"/><text fill="#000000" font-family="sans-serif" font-size="14" lengthAdjust="spacing" textLength="92" x="851" y="1965.4717">&#128230;&#65039;&#171;package&#187;</text><text fill="#000000" font-family="sans-serif" font-size="14" lengthAdjust="spacing" textLength="54" x="874" y="1981.7686">types.tx</text><rect fill="#E2E2F0" height="46.5938" rx="2.5" ry="2.5" style="stroke:#181818;stroke-width:0.5;" width="121" x="964" y="42.2969"/><text fill="#000000" font-family="sans-serif" font-size="14" lengthAdjust="spacing" textLength="58" x="993.5" y="62.292">&#128679;&#171;struct&#187;</text><text fill="#000000" font-family="sans-serif" font-size="14" lengthAdjust="spacing" textLength="103" x="975" y="78.5889">types.tx.TxRaw</text><rect fill="#E2E2F0" height="46.5938" rx="2.5" ry="2.5" style="stroke:#181818;stroke-width:0.5;" width="121" x="964" y="1945.4766"/><text fill="#000000" font-family="sans-serif" font-size="14" lengthAdjust="spacing" textLength="58" x="993.5" y="1965.4717">&#128679;&#171;struct&#187;</text><text fill="#000000" font-family="sans-serif" font-size="14" lengthAdjust="spacing" textLength="103" x="975" y="1981.7686">types.tx.TxRaw</text><rect fill="#E2E2F0" height="46.5938" rx="2.5" ry="2.5" style="stroke:#181818;stroke-width:0.5;" width="127" x="1252.5" y="42.2969"/><text fill="#000000" font-family="sans-serif" font-size="14" lengthAdjust="spacing" textLength="58" x="1285" y="62.292">&#128679;&#171;struct&#187;</text><text fill="#000000" font-family="sans-serif" font-size="14" lengthAdjust="spacing" textLength="109" x="1263.5" y="78.5889">types.tx.TxBody</text><rect fill="#E2E2F0" height="46.5938" rx="2.5" ry="2.5" style="stroke:#181818;stroke-width:0.5;" width="127" x="1252.5" y="1945.4766"/><text fill="#000000" font-family="sans-serif" font-size="14" lengthAdjust="spacing" textLength="58" x="1285" y="1965.4717">&#128679;&#171;struct&#187;</text><text fill="#000000" font-family="sans-serif" font-size="14" lengthAdjust="spacing" textLength="109" x="1263.5" y="1981.7686">types.tx.TxBody</text><rect fill="#E2E2F0" height="46.5938" rx="2.5" ry="2.5" style="stroke:#181818;stroke-width:0.5;" width="133" x="1389.5" y="42.2969"/><text fill="#000000" font-family="sans-serif" font-size="14" lengthAdjust="spacing" textLength="58" x="1425" y="62.292">&#128679;&#171;struct&#187;</text><text fill="#000000" font-family="sans-serif" font-size="14" lengthAdjust="spacing" textLength="115" x="1400.5" y="78.5889">types.tx.AuthInfo</text><rect fill="#E2E2F0" height="46.5938" rx="2.5" ry="2.5" style="stroke:#181818;stroke-width:0.5;" width="133" x="1389.5" y="1945.4766"/><text fill="#000000" font-family="sans-serif" font-size="14" lengthAdjust="spacing" textLength="58" x="1425" y="1965.4717">&#128679;&#171;struct&#187;</text><text fill="#000000" font-family="sans-serif" font-size="14" lengthAdjust="spacing" textLength="115" x="1400.5" y="1981.7686">types.tx.AuthInfo</text><rect fill="#E2E2F0" height="46.5938" rx="2.5" ry="2.5" style="stroke:#181818;stroke-width:0.5;" width="110" x="1532.5" y="42.2969"/><text fill="#000000" font-family="sans-serif" font-size="14" lengthAdjust="spacing" textLength="92" x="1539.5" y="62.292">&#128230;&#65039;&#171;package&#187;</text><text fill="#000000" font-family="sans-serif" font-size="14" lengthAdjust="spacing" textLength="85" x="1547" y="78.5889">codec.types</text><rect fill="#E2E2F0" height="46.5938" rx="2.5" ry="2.5" style="stroke:#181818;stroke-width:0.5;" width="110" x="1532.5" y="1945.4766"/><text fill="#000000" font-family="sans-serif" font-size="14" lengthAdjust="spacing" textLength="92" x="1539.5" y="1965.4717">&#128230;&#65039;&#171;package&#187;</text><text fill="#000000" font-family="sans-serif" font-size="14" lengthAdjust="spacing" textLength="85" x="1547" y="1981.7686">codec.types</text><rect fill="#E2E2F0" height="46.5938" rx="2.5" ry="2.5" style="stroke:#181818;stroke-width:0.5;" width="223" x="1652.5" y="42.2969"/><text fill="#000000" font-family="sans-serif" font-size="14" lengthAdjust="spacing" textLength="58" x="1733" y="62.292">&#128679;&#171;struct&#187;</text><text fill="#000000" font-family="sans-serif" font-size="14" lengthAdjust="spacing" textLength="205" x="1663.5" y="78.5889">codec.types.interfaceRegistry</text><rect fill="#E2E2F0" height="46.5938" rx="2.5" ry="2.5" style="stroke:#181818;stroke-width:0.5;" width="223" x="1652.5" y="1945.4766"/><text fill="#000000" font-family="sans-serif" font-size="14" lengthAdjust="spacing" textLength="58" x="1733" y="1965.4717">&#128679;&#171;struct&#187;</text><text fill="#000000" font-family="sans-serif" font-size="14" lengthAdjust="spacing" textLength="205" x="1663.5" y="1981.7686">codec.types.interfaceRegistry</text><rect fill="#FFFFFF" height="29.1328" style="stroke:#181818;stroke-width:1.0;" width="10" x="333" y="222.4219"/><rect fill="#FFFFFF" height="29.1328" style="stroke:#181818;stroke-width:1.0;" width="10" x="589" y="315.8203"/><rect fill="#FFFFFF" height="29.1328" style="stroke:#181818;stroke-width:1.0;" width="10" x="589" y="769.0781"/><rect fill="#FFFFFF" height="29.1328" style="stroke:#181818;stroke-width:1.0;" width="10" x="589" y="1573.75"/><rect fill="#FFFFFF" height="330.7266" style="stroke:#181818;stroke-width:1.0;" width="10" x="755.5" y="374.0859"/><rect fill="#FFFFFF" height="682.1406" style="stroke:#181818;stroke-width:1.0;" width="10" x="755.5" y="827.3438"/><rect fill="#FFFFFF" height="261.3281" style="stroke:#181818;stroke-width:1.0;" width="10" x="755.5" y="1632.0156"/><rect fill="#FFFFFF" height="328.5469" style="stroke:#181818;stroke-width:1.0;" width="10" x="894" y="1093.5391"/><rect fill="#FFFFFF" height="29.1328" style="stroke:#181818;stroke-width:1.0;" width="10" x="899" y="1327.6875"/><rect fill="#FFFFFF" height="163.9297" style="stroke:#181818;stroke-width:1.0;" width="10" x="1019.5" y="403.2188"/><rect fill="#FFFFFF" height="64.2656" style="stroke:#181818;stroke-width:1.0;" width="10" x="1311" y="856.4766"/><rect fill="#FFFFFF" height="437.0781" style="stroke:#181818;stroke-width:1.0;" width="10" x="1311" y="1014.1406"/><rect fill="#FFFFFF" height="64.2656" style="stroke:#181818;stroke-width:1.0;" width="10" x="1451" y="1661.1484"/><rect fill="#FFFFFF" height="79.3984" style="stroke:#181818;stroke-width:1.0;" width="10" x="1582.5" y="596.2813"/><rect fill="#FFFFFF" height="530.4766" style="stroke:#181818;stroke-width:1.0;" width="10" x="1582.5" y="949.875"/><rect fill="#FFFFFF" height="109.6641" style="stroke:#181818;stroke-width:1.0;" width="10" x="1582.5" y="1754.5469"/><rect fill="#FFFFFF" height="204.0156" style="stroke:#181818;stroke-width:1.0;" width="10" x="1759" y="1181.9375"/><path d="M5,104.8906 L5,167.8906 L424,167.8906 L424,114.8906 L414,104.8906 L5,104.8906 " fill="#FEFFDD" style="stroke:#181818;stroke-width:0.5;"/><path d="M414,104.8906 L414,114.8906 L424,114.8906 L414,104.8906 " fill="#FEFFDD" style="stroke:#181818;stroke-width:0.5;"/><text fill="#000000" font-family="sans-serif" font-size="13" lengthAdjust="spacing" textLength="392" x="11" y="121.9575">txDecoder &#26159; x.auth.tx.DefaultTxDecoder() &#36820;&#22238;&#30340;&#19968;&#20010;&#38381;&#21253;&#20989;&#25968;</text><text fill="#000000" font-family="sans-serif" font-size="13" lengthAdjust="spacing" textLength="398" x="11" y="137.0903">txDecoder &#30340;&#20989;&#25968;&#21442;&#25968;&#26159; txBytes []byte&#65292;&#34920;&#31034;&#32534;&#30721;&#20026;&#23383;&#33410;&#30721;&#30340;&#20132;&#26131;</text><line style="stroke:#181818;stroke-width:1.0;" x1="6" x2="423" y1="140.1563" y2="140.1563"/><text fill="#000000" font-family="sans-serif" font-size="13" lengthAdjust="spacing" textLength="295" x="11" y="156.2231">&#38381;&#21253;&#20256;&#36882;&#30340;&#21442;&#25968; cdc &#26159; struct codec.ProtoCodec</text><rect fill="#EEEEEE" height="3" style="stroke:#EEEEEE;stroke-width:1.0;" width="2041" x="0" y="186.2891"/><line style="stroke:#000000;stroke-width:1.0;" x1="0" x2="2041" y1="186.2891" y2="186.2891"/><line style="stroke:#000000;stroke-width:1.0;" x1="0" x2="2041" y1="189.2891" y2="189.2891"/><polygon fill="#181818" points="321,218.4219,331,222.4219,321,226.4219,325,222.4219" style="stroke:#181818;stroke-width:1.0;"/><line style="stroke:#181818;stroke-width:1.0;" x1="91" x2="327" y1="222.4219" y2="222.4219"/><text fill="#000000" font-family="sans-serif" font-size="13" font-weight="bold" lengthAdjust="spacing" textLength="9" x="98" y="217.356">1</text><text fill="#000000" font-family="sans-serif" font-size="13" lengthAdjust="spacing" textLength="210" x="111" y="217.356">rejectNonADR027TxRaw(txBytes)</text><polygon fill="#181818" points="102,247.5547,92,251.5547,102,255.5547,98,251.5547" style="stroke:#181818;stroke-width:1.0;"/><line style="stroke:#181818;stroke-width:1.0;stroke-dasharray:2.0,2.0;" x1="96" x2="337" y1="251.5547" y2="251.5547"/><text fill="#000000" font-family="sans-serif" font-size="13" font-weight="bold" lengthAdjust="spacing" textLength="9" x="108" y="246.4888">2</text><text fill="#000000" font-family="sans-serif" font-size="13" lengthAdjust="spacing" textLength="4" x="121" y="246.4888">&#160;</text><path d="M28,264.5547 L28,289.5547 L154,289.5547 L154,274.5547 L144,264.5547 L28,264.5547 " fill="#FEFFDD" style="stroke:#181818;stroke-width:0.5;"/><path d="M144,264.5547 L144,274.5547 L154,274.5547 L144,264.5547 " fill="#FEFFDD" style="stroke:#181818;stroke-width:0.5;"/><text fill="#000000" font-family="sans-serif" font-size="13" lengthAdjust="spacing" textLength="105" x="34" y="281.6216">var raw tx.TxRaw</text><polygon fill="#181818" points="577,311.8203,587,315.8203,577,319.8203,581,315.8203" style="stroke:#181818;stroke-width:1.0;"/><line style="stroke:#181818;stroke-width:1.0;" x1="91" x2="583" y1="315.8203" y2="315.8203"/><text fill="#000000" font-family="sans-serif" font-size="13" font-weight="bold" lengthAdjust="spacing" textLength="9" x="98" y="310.7544">3</text><text fill="#000000" font-family="sans-serif" font-size="13" lengthAdjust="spacing" textLength="261" x="111" y="310.7544">unknownproto.RejectUnknownFieldsStrict</text><polygon fill="#181818" points="102,340.9531,92,344.9531,102,348.9531,98,344.9531" style="stroke:#181818;stroke-width:1.0;"/><line style="stroke:#181818;stroke-width:1.0;stroke-dasharray:2.0,2.0;" x1="96" x2="593" y1="344.9531" y2="344.9531"/><text fill="#000000" font-family="sans-serif" font-size="13" font-weight="bold" lengthAdjust="spacing" textLength="9" x="108" y="339.8872">4</text><text fill="#000000" font-family="sans-serif" font-size="13" lengthAdjust="spacing" textLength="4" x="121" y="339.8872">&#160;</text><polygon fill="#181818" points="743.5,370.0859,753.5,374.0859,743.5,378.0859,747.5,374.0859" style="stroke:#181818;stroke-width:1.0;"/><line style="stroke:#181818;stroke-width:1.0;" x1="91" x2="749.5" y1="374.0859" y2="374.0859"/><text fill="#000000" font-family="sans-serif" font-size="13" font-weight="bold" lengthAdjust="spacing" textLength="9" x="98" y="369.02">5</text><text fill="#000000" font-family="sans-serif" font-size="13" lengthAdjust="spacing" textLength="195" x="111" y="369.02">cdc.Unmarshal(txBytes, &amp;raw)</text><polygon fill="#181818" points="1007.5,399.2188,1017.5,403.2188,1007.5,407.2188,1011.5,403.2188" style="stroke:#181818;stroke-width:1.0;"/><line style="stroke:#181818;stroke-width:1.0;" x1="765.5" x2="1013.5" y1="403.2188" y2="403.2188"/><text fill="#000000" font-family="sans-serif" font-size="13" font-weight="bold" lengthAdjust="spacing" textLength="9" x="772.5" y="398.1528">6</text><text fill="#000000" font-family="sans-serif" font-size="13" lengthAdjust="spacing" textLength="171" x="785.5" y="398.1528">TxRaw.Unmarshal(txBytes)</text><path d="M900,416.2188 L900,540.2188 L1149,540.2188 L1149,426.2188 L1139,416.2188 L900,416.2188 " fill="#FEFFDD" style="stroke:#181818;stroke-width:0.5;"/><path d="M1139,416.2188 L1139,426.2188 L1149,426.2188 L1139,416.2188 " fill="#FEFFDD" style="stroke:#181818;stroke-width:0.5;"/><text fill="#000000" font-family="sans-serif" font-size="13" lengthAdjust="spacing" textLength="199" x="906" y="433.2856">&#35299;&#30721;&#21518;&#65292;TxRaw &#30340;&#21508;&#23383;&#27573;&#34987;&#22635;&#20805;&#65292;</text><text fill="#000000" font-family="sans-serif" font-size="13" lengthAdjust="spacing" textLength="228" x="906" y="448.4185">&#20294;&#26159;TxRaw&#30340;&#21508;&#23383;&#27573;&#20173;&#26087;&#26159; []byte &#31867;&#22411;</text><line style="stroke:#181818;stroke-width:1.0;" x1="901" x2="1148" y1="451.4844" y2="451.4844"/><line style="stroke:#181818;stroke-width:1.0;" x1="901" x2="1148" y1="453.4844" y2="453.4844"/><text fill="#000000" font-family="sans-serif" font-size="13" lengthAdjust="spacing" textLength="112" x="906" y="467.5513">TxRaw&#30340;3&#20010;&#23383;&#27573;&#65306;</text><text fill="#000000" font-family="sans-serif" font-size="13" lengthAdjust="spacing" textLength="110" x="906" y="482.6841">BodyBytes []byte</text><line style="stroke:#181818;stroke-width:1.0;stroke-dasharray:1.0,2.0;" x1="901" x2="1148" y1="489.75" y2="489.75"/><text fill="#000000" font-family="sans-serif" font-size="13" lengthAdjust="spacing" textLength="131" x="906" y="505.8169">AuthInfoBytes []byte</text><line style="stroke:#181818;stroke-width:1.0;stroke-dasharray:1.0,2.0;" x1="901" x2="1148" y1="512.8828" y2="512.8828"/><text fill="#000000" font-family="sans-serif" font-size="13" lengthAdjust="spacing" textLength="121" x="906" y="528.9497">Signatures [][]byte</text><polygon fill="#181818" points="776.5,563.1484,766.5,567.1484,776.5,571.1484,772.5,567.1484" style="stroke:#181818;stroke-width:1.0;"/><line style="stroke:#181818;stroke-width:1.0;stroke-dasharray:2.0,2.0;" x1="770.5" x2="1023.5" y1="567.1484" y2="567.1484"/><text fill="#000000" font-family="sans-serif" font-size="13" font-weight="bold" lengthAdjust="spacing" textLength="9" x="782.5" y="562.0825">7</text><text fill="#000000" font-family="sans-serif" font-size="13" lengthAdjust="spacing" textLength="4" x="795.5" y="562.0825">&#160;</text><polygon fill="#181818" points="1570.5,592.2813,1580.5,596.2813,1570.5,600.2813,1574.5,596.2813" style="stroke:#181818;stroke-width:1.0;"/><line style="stroke:#181818;stroke-width:1.0;" x1="765.5" x2="1576.5" y1="596.2813" y2="596.2813"/><text fill="#000000" font-family="sans-serif" font-size="13" font-weight="bold" lengthAdjust="spacing" textLength="9" x="772.5" y="591.2153">8</text><text fill="#000000" font-family="sans-serif" font-size="13" lengthAdjust="spacing" textLength="312" x="785.5" y="591.2153">types.UnpackInterfaces(ptr, pc.interfaceRegistry)</text><path d="M1462,609.2813 L1462,649.2813 L1712,649.2813 L1712,619.2813 L1702,609.2813 L1462,609.2813 " fill="#FEFFDD" style="stroke:#181818;stroke-width:0.5;"/><path d="M1702,609.2813 L1702,619.2813 L1712,619.2813 L1702,609.2813 " fill="#FEFFDD" style="stroke:#181818;stroke-width:0.5;"/><text fill="#000000" font-family="sans-serif" font-size="13" lengthAdjust="spacing" textLength="229" x="1468" y="626.3481">&#22240;&#20026;&#27809;&#26377; TxRaw &#30456;&#20851;&#30340;&#27880;&#20876;&#25968;&#25454;&#32467;&#26500;&#65292;</text><text fill="#000000" font-family="sans-serif" font-size="13" lengthAdjust="spacing" textLength="130" x="1468" y="641.481">&#25152;&#20197;&#36825;&#37324;&#20160;&#20040;&#37117;&#27809;&#26377;&#20570;</text><polygon fill="#181818" points="776.5,671.6797,766.5,675.6797,776.5,679.6797,772.5,675.6797" style="stroke:#181818;stroke-width:1.0;"/><line style="stroke:#181818;stroke-width:1.0;stroke-dasharray:2.0,2.0;" x1="770.5" x2="1586.5" y1="675.6797" y2="675.6797"/><text fill="#000000" font-family="sans-serif" font-size="13" font-weight="bold" lengthAdjust="spacing" textLength="9" x="782.5" y="670.6138">9</text><text fill="#000000" font-family="sans-serif" font-size="13" lengthAdjust="spacing" textLength="4" x="795.5" y="670.6138">&#160;</text><polygon fill="#181818" points="102,700.8125,92,704.8125,102,708.8125,98,704.8125" style="stroke:#181818;stroke-width:1.0;"/><line style="stroke:#181818;stroke-width:1.0;stroke-dasharray:2.0,2.0;" x1="96" x2="759.5" y1="704.8125" y2="704.8125"/><text fill="#000000" font-family="sans-serif" font-size="13" font-weight="bold" lengthAdjust="spacing" textLength="18" x="108" y="699.7466">10</text><text fill="#000000" font-family="sans-serif" font-size="13" lengthAdjust="spacing" textLength="4" x="130" y="699.7466">&#160;</text><path d="M20,717.8125 L20,742.8125 L162,742.8125 L162,727.8125 L152,717.8125 L20,717.8125 " fill="#FEFFDD" style="stroke:#181818;stroke-width:0.5;"/><path d="M152,717.8125 L152,727.8125 L162,727.8125 L152,717.8125 " fill="#FEFFDD" style="stroke:#181818;stroke-width:0.5;"/><text fill="#000000" font-family="sans-serif" font-size="13" lengthAdjust="spacing" textLength="121" x="26" y="734.8794">var body tx.TxBody</text><polygon fill="#181818" points="577,765.0781,587,769.0781,577,773.0781,581,769.0781" style="stroke:#181818;stroke-width:1.0;"/><line style="stroke:#181818;stroke-width:1.0;" x1="91" x2="583" y1="769.0781" y2="769.0781"/><text fill="#000000" font-family="sans-serif" font-size="13" font-weight="bold" lengthAdjust="spacing" textLength="18" x="98" y="764.0122">11</text><text fill="#000000" font-family="sans-serif" font-size="13" lengthAdjust="spacing" textLength="381" x="120" y="764.0122">unknownproto.RejectUnknownFields(raw.BodyBytes, &amp;body)</text><polygon fill="#181818" points="102,794.2109,92,798.2109,102,802.2109,98,798.2109" style="stroke:#181818;stroke-width:1.0;"/><line style="stroke:#181818;stroke-width:1.0;stroke-dasharray:2.0,2.0;" x1="96" x2="593" y1="798.2109" y2="798.2109"/><text fill="#000000" font-family="sans-serif" font-size="13" font-weight="bold" lengthAdjust="spacing" textLength="18" x="108" y="793.145">12</text><text fill="#000000" font-family="sans-serif" font-size="13" lengthAdjust="spacing" textLength="4" x="130" y="793.145">&#160;</text><polygon fill="#181818" points="743.5,823.3438,753.5,827.3438,743.5,831.3438,747.5,827.3438" style="stroke:#181818;stroke-width:1.0;"/><line style="stroke:#181818;stroke-width:1.0;" x1="91" x2="749.5" y1="827.3438" y2="827.3438"/><text fill="#000000" font-family="sans-serif" font-size="13" font-weight="bold" lengthAdjust="spacing" textLength="18" x="98" y="822.2778">13</text><text fill="#000000" font-family="sans-serif" font-size="13" lengthAdjust="spacing" textLength="250" x="120" y="822.2778">cdc.Unmarshal(raw.BodyBytes, &amp;body)</text><polygon fill="#181818" points="1299,852.4766,1309,856.4766,1299,860.4766,1303,856.4766" style="stroke:#181818;stroke-width:1.0;"/><line style="stroke:#181818;stroke-width:1.0;" x1="765.5" x2="1305" y1="856.4766" y2="856.4766"/><text fill="#000000" font-family="sans-serif" font-size="13" font-weight="bold" lengthAdjust="spacing" textLength="18" x="772.5" y="851.4106">14</text><text fill="#000000" font-family="sans-serif" font-size="13" lengthAdjust="spacing" textLength="224" x="794.5" y="851.4106">TxBody.Unmarshal(raw.BodyBytes)</text><path d="M1202,869.4766 L1202,894.4766 L1429,894.4766 L1429,879.4766 L1419,869.4766 L1202,869.4766 " fill="#FEFFDD" style="stroke:#181818;stroke-width:0.5;"/><path d="M1419,869.4766 L1419,879.4766 L1429,879.4766 L1419,869.4766 " fill="#FEFFDD" style="stroke:#181818;stroke-width:0.5;"/><text fill="#000000" font-family="sans-serif" font-size="13" lengthAdjust="spacing" textLength="206" x="1208" y="886.5435">&#35299;&#30721;&#21518;&#65292;TxBody &#30340;&#21508;&#23383;&#27573;&#34987;&#22635;&#20805;&#65292;</text><polygon fill="#181818" points="776.5,916.7422,766.5,920.7422,776.5,924.7422,772.5,920.7422" style="stroke:#181818;stroke-width:1.0;"/><line style="stroke:#181818;stroke-width:1.0;stroke-dasharray:2.0,2.0;" x1="770.5" x2="1315" y1="920.7422" y2="920.7422"/><text fill="#000000" font-family="sans-serif" font-size="13" font-weight="bold" lengthAdjust="spacing" textLength="18" x="782.5" y="915.6763">15</text><text fill="#000000" font-family="sans-serif" font-size="13" lengthAdjust="spacing" textLength="4" x="804.5" y="915.6763">&#160;</text><polygon fill="#181818" points="1570.5,945.875,1580.5,949.875,1570.5,953.875,1574.5,949.875" style="stroke:#181818;stroke-width:1.0;"/><line style="stroke:#181818;stroke-width:1.0;" x1="765.5" x2="1576.5" y1="949.875" y2="949.875"/><text fill="#000000" font-family="sans-serif" font-size="13" font-weight="bold" lengthAdjust="spacing" textLength="18" x="772.5" y="944.8091">16</text><text fill="#000000" font-family="sans-serif" font-size="13" lengthAdjust="spacing" textLength="384" x="794.5" y="944.8091">types.UnpackInterfaces(body, ProtoCodec.interfaceRegistry)</text><path d="M1430,962.875 L1430,987.875 L1744,987.875 L1744,972.875 L1734,962.875 L1430,962.875 " fill="#FEFFDD" style="stroke:#181818;stroke-width:0.5;"/><path d="M1734,962.875 L1734,972.875 L1744,972.875 L1734,962.875 " fill="#FEFFDD" style="stroke:#181818;stroke-width:0.5;"/><text fill="#000000" font-family="sans-serif" font-size="13" lengthAdjust="spacing" textLength="293" x="1436" y="979.9419">&#23558; body &#24378;&#36716;&#20026; UnpackInterfacesMessage &#25509;&#21475;</text><polygon fill="#181818" points="1332,1010.1406,1322,1014.1406,1332,1018.1406,1328,1014.1406" style="stroke:#181818;stroke-width:1.0;"/><line style="stroke:#181818;stroke-width:1.0;" x1="1326" x2="1581.5" y1="1014.1406" y2="1014.1406"/><text fill="#000000" font-family="sans-serif" font-size="13" font-weight="bold" lengthAdjust="spacing" textLength="18" x="1338" y="1009.0747">17</text><text fill="#000000" font-family="sans-serif" font-size="13" lengthAdjust="spacing" textLength="212" x="1360" y="1009.0747">msg.UnpackInterfaces(unpacker)</text><path d="M1152,1027.1406 L1152,1067.1406 L1480,1067.1406 L1480,1037.1406 L1470,1027.1406 L1152,1027.1406 " fill="#FEFFDD" style="stroke:#181818;stroke-width:0.5;"/><path d="M1470,1027.1406 L1470,1037.1406 L1480,1037.1406 L1470,1027.1406 " fill="#FEFFDD" style="stroke:#181818;stroke-width:0.5;"/><text fill="#000000" font-family="sans-serif" font-size="13" lengthAdjust="spacing" textLength="175" x="1158" y="1044.2075">msg &#26159;&#24378;&#36716;&#31867;&#22411;&#21518;&#30340;&#21464;&#37327;&#21517;&#65307;</text><text fill="#000000" font-family="sans-serif" font-size="13" lengthAdjust="spacing" textLength="307" x="1158" y="1059.3403">unpacker &#26159; codec.ProtoCodec.interfaceRegistry</text><polygon fill="#181818" points="915,1089.5391,905,1093.5391,915,1097.5391,911,1093.5391" style="stroke:#181818;stroke-width:1.0;"/><line style="stroke:#181818;stroke-width:1.0;" x1="909" x2="1310" y1="1093.5391" y2="1093.5391"/><text fill="#000000" font-family="sans-serif" font-size="13" font-weight="bold" lengthAdjust="spacing" textLength="18" x="921" y="1088.4731">18</text><text fill="#000000" font-family="sans-serif" font-size="13" lengthAdjust="spacing" textLength="366" x="943" y="1088.4731">UnpackInterfaces(unpacker, m.Messages) //m&#23601;&#26159;TxBody</text><path d="M824,1108.5391 L901,1108.5391 L901,1115.6719 L891,1125.6719 L824,1125.6719 L824,1108.5391 " fill="#EEEEEE" style="stroke:#000000;stroke-width:1.5;"/><rect fill="none" height="285.4141" style="stroke:#000000;stroke-width:1.5;" width="1207" x="824" y="1108.5391"/><text fill="#000000" font-family="sans-serif" font-size="13" font-weight="bold" lengthAdjust="spacing" textLength="32" x="839" y="1121.606">loop</text><text fill="#000000" font-family="sans-serif" font-size="11" font-weight="bold" lengthAdjust="spacing" textLength="222" x="916" y="1120.7495">["m.Messages&#26159;&#20010;&#25968;&#32452;&#65292;&#36941;&#21382;&#27599;&#20010;&#20803;&#32032;"]</text><path d="M834,1130.6719 L834,1155.6719 L963,1155.6719 L963,1140.6719 L953,1130.6719 L834,1130.6719 " fill="#FEFFDD" style="stroke:#181818;stroke-width:0.5;"/><path d="M953,1130.6719 L953,1140.6719 L963,1140.6719 L953,1130.6719 " fill="#FEFFDD" style="stroke:#181818;stroke-width:0.5;"/><text fill="#000000" font-family="sans-serif" font-size="13" lengthAdjust="spacing" textLength="108" x="840" y="1147.7388">var msg sdk.Msg</text><polygon fill="#181818" points="1747,1177.9375,1757,1181.9375,1747,1185.9375,1751,1181.9375" style="stroke:#181818;stroke-width:1.0;"/><line style="stroke:#181818;stroke-width:1.0;" x1="904" x2="1753" y1="1181.9375" y2="1181.9375"/><text fill="#000000" font-family="sans-serif" font-size="13" font-weight="bold" lengthAdjust="spacing" textLength="18" x="911" y="1176.8716">19</text><text fill="#000000" font-family="sans-serif" font-size="13" lengthAdjust="spacing" textLength="215" x="933" y="1176.8716">unpacker.UnpackAny(any, &amp;msg)</text><path d="M1507,1194.9375 L1507,1294.9375 L2021,1294.9375 L2021,1204.9375 L2011,1194.9375 L1507,1194.9375 " fill="#FEFFDD" style="stroke:#181818;stroke-width:0.5;"/><path d="M2011,1194.9375 L2011,1204.9375 L2021,1204.9375 L2011,1194.9375 " fill="#FEFFDD" style="stroke:#181818;stroke-width:0.5;"/><text fill="#000000" font-family="sans-serif" font-size="13" lengthAdjust="spacing" textLength="115" x="1513" y="1212.0044">rt &#20195;&#34920; msg &#30340;&#31867;&#22411;</text><text fill="#000000" font-family="sans-serif" font-size="13" lengthAdjust="spacing" textLength="376" x="1513" y="1227.1372">imap := registry.interfaceImpls[rt] // &#25214;&#21040;&#25509;&#21475;&#31867;&#22411;&#30340;&#23454;&#29616;&#26144;&#23556;</text><text fill="#000000" font-family="sans-serif" font-size="13" lengthAdjust="spacing" textLength="344" x="1513" y="1242.27">typ := imap[any.TypeUrl] //&#26681;&#25454;TypeURL&#26597;&#25214;&#23454;&#29616;&#31867;&#22411;&#65307;</text><text fill="#000000" font-family="sans-serif" font-size="13" lengthAdjust="spacing" textLength="380" x="1513" y="1257.4028">// TypeUrl &#20316;&#20026;&#23383;&#31526;&#20018;&#32534;&#30721;&#22312;&#20102; &#28040;&#24687;&#20013;&#65292;&#36827;&#34892;&#21021;&#27493;&#30028;&#38754;&#26102;&#21363;&#21487;&#33719;&#24471;</text><text fill="#000000" font-family="sans-serif" font-size="13" lengthAdjust="spacing" textLength="493" x="1513" y="1272.5356">msg = reflect.New(typ.Elem()).Interface().(proto.Message) // &#20351;&#29992;&#21453;&#23556;&#26500;&#36896;&#28040;&#24687;</text><text fill="#000000" font-family="sans-serif" font-size="13" lengthAdjust="spacing" textLength="353" x="1513" y="1287.6685">proto.Unmarshal(any.Value, msg) // &#20351;&#29992; proto &#35299;&#30721;&#28040;&#24687;</text><polygon fill="#181818" points="920,1323.6875,910,1327.6875,920,1331.6875,916,1327.6875" style="stroke:#181818;stroke-width:1.0;"/><line style="stroke:#181818;stroke-width:1.0;" x1="914" x2="1758" y1="1327.6875" y2="1327.6875"/><text fill="#000000" font-family="sans-serif" font-size="13" font-weight="bold" lengthAdjust="spacing" textLength="18" x="926" y="1319.7114">20</text><text fill="#FF0000" font-family="sans-serif" font-size="18" lengthAdjust="spacing" textLength="361" x="948" y="1321.4424">&#36882;&#24402;&#35843;&#29992; UnpackInterfaces(msg, registry)</text><polygon fill="#181818" points="1747,1352.8203,1757,1356.8203,1747,1360.8203,1751,1356.8203" style="stroke:#181818;stroke-width:1.0;"/><line style="stroke:#181818;stroke-width:1.0;stroke-dasharray:2.0,2.0;" x1="904" x2="1753" y1="1356.8203" y2="1356.8203"/><text fill="#000000" font-family="sans-serif" font-size="13" font-weight="bold" lengthAdjust="spacing" textLength="18" x="911" y="1351.7544">21</text><text fill="#000000" font-family="sans-serif" font-size="13" lengthAdjust="spacing" textLength="4" x="933" y="1351.7544">&#160;</text><polygon fill="#181818" points="915,1381.9531,905,1385.9531,915,1389.9531,911,1385.9531" style="stroke:#181818;stroke-width:1.0;"/><line style="stroke:#181818;stroke-width:1.0;stroke-dasharray:2.0,2.0;" x1="909" x2="1763" y1="1385.9531" y2="1385.9531"/><text fill="#000000" font-family="sans-serif" font-size="13" font-weight="bold" lengthAdjust="spacing" textLength="18" x="921" y="1380.8872">22</text><text fill="#000000" font-family="sans-serif" font-size="13" lengthAdjust="spacing" textLength="4" x="943" y="1380.8872">&#160;</text><polygon fill="#181818" points="1299,1418.0859,1309,1422.0859,1299,1426.0859,1303,1422.0859" style="stroke:#181818;stroke-width:1.0;"/><line style="stroke:#181818;stroke-width:1.0;stroke-dasharray:2.0,2.0;" x1="899" x2="1305" y1="1422.0859" y2="1422.0859"/><text fill="#000000" font-family="sans-serif" font-size="13" font-weight="bold" lengthAdjust="spacing" textLength="18" x="906" y="1417.02">23</text><text fill="#000000" font-family="sans-serif" font-size="13" lengthAdjust="spacing" textLength="4" x="928" y="1417.02">&#160;</text><polygon fill="#181818" points="1570.5,1447.2188,1580.5,1451.2188,1570.5,1455.2188,1574.5,1451.2188" style="stroke:#181818;stroke-width:1.0;"/><line style="stroke:#181818;stroke-width:1.0;stroke-dasharray:2.0,2.0;" x1="1316" x2="1576.5" y1="1451.2188" y2="1451.2188"/><text fill="#000000" font-family="sans-serif" font-size="13" font-weight="bold" lengthAdjust="spacing" textLength="18" x="1323" y="1446.1528">24</text><text fill="#000000" font-family="sans-serif" font-size="13" lengthAdjust="spacing" textLength="4" x="1345" y="1446.1528">&#160;</text><polygon fill="#181818" points="776.5,1476.3516,766.5,1480.3516,776.5,1484.3516,772.5,1480.3516" style="stroke:#181818;stroke-width:1.0;"/><line style="stroke:#181818;stroke-width:1.0;stroke-dasharray:2.0,2.0;" x1="770.5" x2="1586.5" y1="1480.3516" y2="1480.3516"/><text fill="#000000" font-family="sans-serif" font-size="13" font-weight="bold" lengthAdjust="spacing" textLength="18" x="782.5" y="1475.2856">25</text><text fill="#000000" font-family="sans-serif" font-size="13" lengthAdjust="spacing" textLength="4" x="804.5" y="1475.2856">&#160;</text><polygon fill="#181818" points="102,1505.4844,92,1509.4844,102,1513.4844,98,1509.4844" style="stroke:#181818;stroke-width:1.0;"/><line style="stroke:#181818;stroke-width:1.0;stroke-dasharray:2.0,2.0;" x1="96" x2="759.5" y1="1509.4844" y2="1509.4844"/><text fill="#000000" font-family="sans-serif" font-size="13" font-weight="bold" lengthAdjust="spacing" textLength="18" x="108" y="1504.4185">26</text><text fill="#000000" font-family="sans-serif" font-size="13" lengthAdjust="spacing" textLength="4" x="130" y="1504.4185">&#160;</text><path d="M6,1522.4844 L6,1547.4844 L176,1547.4844 L176,1532.4844 L166,1522.4844 L6,1522.4844 " fill="#FEFFDD" style="stroke:#181818;stroke-width:0.5;"/><path d="M166,1522.4844 L166,1532.4844 L176,1532.4844 L166,1522.4844 " fill="#FEFFDD" style="stroke:#181818;stroke-width:0.5;"/><text fill="#000000" font-family="sans-serif" font-size="13" lengthAdjust="spacing" textLength="149" x="12" y="1539.5513">var authInfo tx.AuthInfo</text><polygon fill="#181818" points="577,1569.75,587,1573.75,577,1577.75,581,1573.75" style="stroke:#181818;stroke-width:1.0;"/><line style="stroke:#181818;stroke-width:1.0;" x1="91" x2="583" y1="1573.75" y2="1573.75"/><text fill="#000000" font-family="sans-serif" font-size="13" font-weight="bold" lengthAdjust="spacing" textLength="18" x="98" y="1568.6841">27</text><text fill="#000000" font-family="sans-serif" font-size="13" lengthAdjust="spacing" textLength="457" x="120" y="1568.6841">unknownproto.RejectUnknownFieldsStrict(raw.AuthInfoBytes, &amp;authInfo)</text><polygon fill="#181818" points="102,1598.8828,92,1602.8828,102,1606.8828,98,1602.8828" style="stroke:#181818;stroke-width:1.0;"/><line style="stroke:#181818;stroke-width:1.0;stroke-dasharray:2.0,2.0;" x1="96" x2="593" y1="1602.8828" y2="1602.8828"/><text fill="#000000" font-family="sans-serif" font-size="13" font-weight="bold" lengthAdjust="spacing" textLength="18" x="108" y="1597.8169">28</text><text fill="#000000" font-family="sans-serif" font-size="13" lengthAdjust="spacing" textLength="4" x="130" y="1597.8169">&#160;</text><polygon fill="#181818" points="743.5,1628.0156,753.5,1632.0156,743.5,1636.0156,747.5,1632.0156" style="stroke:#181818;stroke-width:1.0;"/><line style="stroke:#181818;stroke-width:1.0;" x1="91" x2="749.5" y1="1632.0156" y2="1632.0156"/><text fill="#000000" font-family="sans-serif" font-size="13" font-weight="bold" lengthAdjust="spacing" textLength="18" x="98" y="1626.9497">29</text><text fill="#000000" font-family="sans-serif" font-size="13" lengthAdjust="spacing" textLength="292" x="120" y="1626.9497">cdc.Unmarshal(raw.AuthInfoBytes, &amp;authInfo)</text><polygon fill="#181818" points="1439,1657.1484,1449,1661.1484,1439,1665.1484,1443,1661.1484" style="stroke:#181818;stroke-width:1.0;"/><line style="stroke:#181818;stroke-width:1.0;" x1="765.5" x2="1445" y1="1661.1484" y2="1661.1484"/><text fill="#000000" font-family="sans-serif" font-size="13" font-weight="bold" lengthAdjust="spacing" textLength="18" x="772.5" y="1656.0825">30</text><text fill="#000000" font-family="sans-serif" font-size="13" lengthAdjust="spacing" textLength="252" x="794.5" y="1656.0825">AuthInfo.Unmarshal(raw.AuthInfoBytes)</text><path d="M1339,1674.1484 L1339,1699.1484 L1573,1699.1484 L1573,1684.1484 L1563,1674.1484 L1339,1674.1484 " fill="#FEFFDD" style="stroke:#181818;stroke-width:0.5;"/><path d="M1563,1674.1484 L1563,1684.1484 L1573,1684.1484 L1563,1674.1484 " fill="#FEFFDD" style="stroke:#181818;stroke-width:0.5;"/><text fill="#000000" font-family="sans-serif" font-size="13" lengthAdjust="spacing" textLength="213" x="1345" y="1691.2153">&#35299;&#30721;&#21518;&#65292;AuthInfo &#30340;&#21508;&#23383;&#27573;&#34987;&#22635;&#20805;&#65292;</text><polygon fill="#181818" points="776.5,1721.4141,766.5,1725.4141,776.5,1729.4141,772.5,1725.4141" style="stroke:#181818;stroke-width:1.0;"/><line style="stroke:#181818;stroke-width:1.0;stroke-dasharray:2.0,2.0;" x1="770.5" x2="1455" y1="1725.4141" y2="1725.4141"/><text fill="#000000" font-family="sans-serif" font-size="13" font-weight="bold" lengthAdjust="spacing" textLength="18" x="782.5" y="1720.3481">31</text><text fill="#000000" font-family="sans-serif" font-size="13" lengthAdjust="spacing" textLength="4" x="804.5" y="1720.3481">&#160;</text><polygon fill="#181818" points="1570.5,1750.5469,1580.5,1754.5469,1570.5,1758.5469,1574.5,1754.5469" style="stroke:#181818;stroke-width:1.0;"/><line style="stroke:#181818;stroke-width:1.0;" x1="765.5" x2="1576.5" y1="1754.5469" y2="1754.5469"/><text fill="#000000" font-family="sans-serif" font-size="13" font-weight="bold" lengthAdjust="spacing" textLength="18" x="772.5" y="1749.481">32</text><text fill="#000000" font-family="sans-serif" font-size="13" lengthAdjust="spacing" textLength="405" x="794.5" y="1749.481">types.UnpackInterfaces(authInfo, ProtoCodec.interfaceRegistry)</text><path d="M1368,1767.5469 L1368,1837.5469 L1807,1837.5469 L1807,1777.5469 L1797,1767.5469 L1368,1767.5469 " fill="#FEFFDD" style="stroke:#181818;stroke-width:0.5;"/><path d="M1797,1767.5469 L1797,1777.5469 L1807,1777.5469 L1797,1767.5469 " fill="#FEFFDD" style="stroke:#181818;stroke-width:0.5;"/><text fill="#000000" font-family="sans-serif" font-size="13" lengthAdjust="spacing" textLength="189" x="1374" y="1784.6138">&#22914;&#26524;&#26377;&#29420;&#31435;&#30340; SignerInfo &#25968;&#25454;&#65292;</text><text fill="#000000" font-family="sans-serif" font-size="13" lengthAdjust="spacing" textLength="340" x="1374" y="1799.7466">types.UnpackInterfaces() &#20250;&#36882;&#24402;&#35299;&#30721; SignerInfo &#23383;&#27573;&#65292;</text><text fill="#000000" font-family="sans-serif" font-size="13" lengthAdjust="spacing" textLength="286" x="1374" y="1814.8794">&#35299;&#30721;&#36807;&#31243;&#20013;&#65292;&#20250;&#35843;&#29992;&#21040;&#21508;&#20010;&#19994;&#21153;&#27169;&#22359;&#30340;&#35299;&#30721;&#36923;&#36753;&#12290;</text><text fill="#FF0000" font-family="sans-serif" font-size="13" lengthAdjust="spacing" textLength="418" x="1374" y="1830.0122">&#20294;&#26159;&#65292;evm&#27169;&#22359;&#20013;&#65292;&#25968;&#25454;&#26159;&#21644;&#31614;&#21517;&#28151;&#21512;&#22312;&#19968;&#36215;&#30340;&#65292;&#25152;&#20197;&#19981;&#20250;&#29992;&#21040;&#36825;&#20010;&#36923;&#36753;</text><polygon fill="#181818" points="776.5,1860.2109,766.5,1864.2109,776.5,1868.2109,772.5,1864.2109" style="stroke:#181818;stroke-width:1.0;"/><line style="stroke:#181818;stroke-width:1.0;stroke-dasharray:2.0,2.0;" x1="770.5" x2="1586.5" y1="1864.2109" y2="1864.2109"/><text fill="#000000" font-family="sans-serif" font-size="13" font-weight="bold" lengthAdjust="spacing" textLength="18" x="782.5" y="1859.145">33</text><text fill="#000000" font-family="sans-serif" font-size="13" lengthAdjust="spacing" textLength="4" x="804.5" y="1859.145">&#160;</text><polygon fill="#181818" points="102,1889.3438,92,1893.3438,102,1897.3438,98,1893.3438" style="stroke:#181818;stroke-width:1.0;"/><line style="stroke:#181818;stroke-width:1.0;stroke-dasharray:2.0,2.0;" x1="96" x2="759.5" y1="1893.3438" y2="1893.3438"/><text fill="#000000" font-family="sans-serif" font-size="13" font-weight="bold" lengthAdjust="spacing" textLength="18" x="108" y="1888.2778">34</text><text fill="#000000" font-family="sans-serif" font-size="13" lengthAdjust="spacing" textLength="4" x="130" y="1888.2778">&#160;</text><path d="M35,1906.3438 L35,1931.3438 L147,1931.3438 L147,1916.3438 L137,1906.3438 L35,1906.3438 " fill="#FEFFDD" style="stroke:#181818;stroke-width:0.5;"/><path d="M137,1906.3438 L137,1916.3438 L147,1916.3438 L137,1906.3438 " fill="#FEFFDD" style="stroke:#181818;stroke-width:0.5;"/><text fill="#000000" font-family="sans-serif" font-size="13" lengthAdjust="spacing" textLength="91" x="41" y="1923.4106">&#32452;&#35013;&#25968;&#25454;&#65292;&#36820;&#22238;</text><!--SRC=[jLZRKnDN67_dhpZ3WvFCuDBBGpkPc1cjxOmpjTD1w8lrOKqMJ4qscTqDGfy2SbCIGhqK2uX113DL1BLA907-cExPtJpHFw7VEMTtiydPJQJIym1x-RxVTxzi4498IsefgGVPHnkxACKp2KanbwUidIspDcEycp0hyvH0aXCsERtDYegMZ2Upegmr-P2eejv_dXJoqUXmJex7OkXdkVcsruVHvhY_TLmjHQDPCNvJ794OtvWWvhGRWZR6y-NactBcbfnLCbgc0mAH6XUyn3pKZ-JnDuJG1bf-7esgcfABQrwG9fcF5UDPIHtiP0gbyBLaS6n0l1KWsU4IA94VxuLCOhmxCw7YkS-3So_9mvbk_0uTZq0zG-cwne1IyGX9MPEKOJ4k3KWZIP0-tZ46J2MEfxU7PIHaIqREfQzBYdihnhNagAX9A2Cp6Zb3RaOXKzsix8DBlWAGyMYdcO72HMbOpAMqGUTrA8oiemTuPGqgHQ_czUgVZQLjN9Z6imV6mrqVEA1Zxt1f4luIT6timhW6lhjwxJhyFwuNhFMA-MpVhFzkbYVqwZxUNhBkJi8raR7_p7XqtyKz2yUzOPBrUhcHlqV4K04edeXJ6vWRkInsIvfwXDwTWzFJglNP62dH25AaNo3IFsJaynS7FllYAvgF8Ll_CELH92sd13lPLNPKL9026UzaTOiUFRpubagFjDmA0rIh8VRekwIKIgXND2KPrpYDMY0z5HyXRXA6vBIeg3V4b6DI7pe3EePTfJqSmCzADiB-yynDjbPVDCtr7klv1aGOBov0_1am2U7Y50JVUFNEUle2hx_0qzFmbcFL3sOWm9J9owFNYiRISn9wbbZ8V5t3Q_CSknjkxt7GleICPd37zMMEYZGKR-vo108Sxg7JI4xEUIKv8eiGJShcm-ZcZ_F0Zhr__3njAsAtkI6PzAnBJcTHGraD-a8spZUReEWsGJdjyKePgjbuiswith6Jnrofukctu6VZRGNF54X3ABuoQ_UDjIc_I1jtydfjqphwep5Rq6jv_SDSu_O10yGJoxwkG6s-G2UkqkjajhZpuvJhD0Jr9RXf1FL6f8N_Szq6e_cLBvsQ4ViY22MuZ5rt1DSnbV1HXNpwgKjix_FmdKuExywmXC3rVUlW9UGpQXTyML9LcFh8MDZ4fOtEHfBZiSKRbRGwmjkKemya9SmfrZKmv00ccOLCTzOE8L9qLZvgp9RmOl6ulkBBwGYcexHzXlAUvJ3uScnsMcemcR3s-XW9DBiFfGNRlMeOzVUdyUvhsle3BKvbCbdKs-G2QkZeq6VC6kamZOaYNfWnTagapK_VDlygz_h2jFK9fcWWfTCvYBlLn4tXiZeIIEkR4jxZU0KSn6-94JSmTgwSbyT3eWnvVmQ4XpjgsBIdU_ZQZw8XlRO1Ungr4H8eOBQsdsHQpAB8EIXk9gYPEPVIsPHwLT6kGLYXpn_YkLrMG0oPvEYhDNC15iOotftgAWYyHkGGULV17y8WU758IH5qe_m1XWnzCF2zyMIJ2AFGJ59G1NWFg6W3mlAnobPKy-MMNdt3bbQyMj7tPv3nViwOW7pR9ZljqOgrNi1pZutjJVDXeV7ugR7q7XVVujAEjR273vUw2YMU9fuRJa6x47wGOF4SpmhVfgHqA1mMt6e9XOKG6pTspfD20JMFp0SLN2g2ys2uDl9bfbnNgGogEHk8CtyIKpcfZoZamMQKTl__2F2kYK_pXSjuRvz0qNWcbL4YYfI8HTNahrBaywzZiFpZWtlMxcsY4zT9GES-D_l2qNx25OlsKvnOHrNQvj49NXDBQH_g-GYcjaUUsvFiBABpJUlvRlrVlZ3ehj2oq4BhSQH_sXxJ6PNV2Tpl-8XxsGanQFYtk2jeit5bVT9kymdBZUECqrzmjYQDjLLOgCtvb-OBqdVfLuUaK7FPWkwtcWVe6KPwVTakIUe_BvhpOLK8yBLrD6jMvbd_11XMqp0OmECmh_NgChwxRbJMyUCbyZiTPMdaQzRXRt_d9pb8JwzW7um0Aesc6J-JmQmZ2zAzWhbz2EkGiRU75-T8Ew_chNTx88QGqQyGlLe4dPX2y4L2VlcWidsRIK06s3SdAczONAoDQJSGxDUNbjh-5m00]--></g></svg>