<?xml version="1.0" encoding="us-ascii" standalone="no"?><svg xmlns="http://www.w3.org/2000/svg" xmlns:xlink="http://www.w3.org/1999/xlink" contentStyleType="text/css" height="1574px" preserveAspectRatio="none" style="width:1555px;height:1574px;background:#FFFFFF;" version="1.1" viewBox="0 0 1555 1574" width="1555px" zoomAndPan="magnify"><defs/><g><text fill="#000000" font-family="sans-serif" font-size="14" font-weight="bold" lengthAdjust="spacing" textLength="133" x="709.5" y="32.9951">tx&#30340;&#22788;&#29702;&#27969;&#31243;-&#27891;&#36947;&#22270;</text><rect fill="none" height="20.9531" style="stroke:none;stroke-width:1.0;" width="1522" x="15" y="50.042"/><rect fill="#AE71F5" height="1512.5469" style="stroke:#AE71F5;stroke-width:1.0;" width="226" x="15" y="50.042"/><ellipse cx="129" cy="85.9951" fill="#222222" rx="10" ry="10" style="stroke:#222222;stroke-width:1.0;"/><rect fill="#F1F1F1" height="33.9688" rx="12.5" ry="12.5" style="stroke:#181818;stroke-width:0.5;" width="212" x="23" y="115.9951"/><text fill="#000000" font-family="sans-serif" font-size="12" lengthAdjust="spacing" textLength="192" x="33" y="137.1338">&#25509;&#25910;&#28385;&#36275;&#20197;&#22826;&#22346;RPC&#25509;&#21475;&#26631;&#20934;&#30340;&#35831;&#27714;</text><rect fill="#F1F1F1" height="47.9375" rx="12.5" ry="12.5" style="stroke:#181818;stroke-width:0.5;" width="184" x="37" y="169.9639"/><text fill="#000000" font-family="sans-serif" font-size="12" lengthAdjust="spacing" textLength="131" x="47" y="191.1025">&#23553;&#35013;&#25104;cosmos&#26684;&#24335;&#30340;tx</text><text fill="#000000" font-family="sans-serif" font-size="12" lengthAdjust="spacing" textLength="164" x="47" y="205.0713">&#65288;&#20316;&#20026;tx&#20013;&#30340;&#19968;&#20010;message&#65289;</text><line style="stroke:#000000;stroke-width:1.5;" x1="15" x2="15" y1="50.042" y2="1562.5889"/><rect fill="#9BE3E4" height="1512.5469" style="stroke:#9BE3E4;stroke-width:1.0;" width="489.5" x="241" y="50.042"/><polygon fill="none" points="274,349.8076,571,349.8076,578,372.1045,715.5,372.1045,715.5,509.042,274,509.042,274,349.8076" style="stroke:#000000;stroke-width:1.5;"/><line style="stroke:#000000;stroke-width:1.5;" x1="274" x2="578" y1="372.1045" y2="372.1045"/><text fill="#000000" font-family="sans-serif" font-size="14" lengthAdjust="spacing" textLength="291" x="278" y="364.8027">&#20197; mode=runTxModeCheck &#35843;&#29992;runTx&#20989;&#25968;</text><path d="M506.5,390.5225 L506.5,399.0889 L486.5,403.0889 L506.5,407.0889 L506.5,415.6553 A0,0 0 0 0 506.5,415.6553 L705.5,415.6553 A0,0 0 0 0 705.5,415.6553 L705.5,400.5225 L695.5,390.5225 L506.5,390.5225 A0,0 0 0 0 506.5,390.5225 " fill="#FEFFDD" style="stroke:#181818;stroke-width:0.5;"/><path d="M695.5,390.5225 L695.5,400.5225 L705.5,400.5225 L695.5,390.5225 " fill="#FEFFDD" style="stroke:#181818;stroke-width:0.5;"/><text fill="#000000" font-family="sans-serif" font-size="13" lengthAdjust="spacing" textLength="178" x="512.5" y="407.5894">&#37319;&#29992; TypeURL+&#21453;&#23556; &#30340;&#26041;&#24335;&#65292;</text><rect fill="#F1F1F1" height="33.9688" rx="12.5" ry="12.5" style="stroke:#181818;stroke-width:0.5;" width="91" x="395.5" y="386.1045"/><text fill="#000000" font-family="sans-serif" font-size="12" lengthAdjust="spacing" textLength="71" x="405.5" y="407.2432">&#23545;tx&#36827;&#34892;&#35299;&#30721;</text><rect fill="#F1F1F1" height="33.9688" rx="12.5" ry="12.5" style="stroke:#181818;stroke-width:0.5;" width="314" x="284" y="455.0732"/><text fill="#000000" font-family="sans-serif" font-size="12" lengthAdjust="spacing" textLength="294" x="294" y="476.2119">&#35843;&#29992;EthermintApp&#27880;&#20876;&#30340;anteHandler&#23545;tx&#36827;&#34892;&#26657;&#39564;</text><rect fill="#F1F1F1" height="47.9375" rx="12.5" ry="12.5" style="stroke:#181818;stroke-width:0.5;" width="284" x="299" y="840.792"/><text fill="#000000" font-family="sans-serif" font-size="12" lengthAdjust="spacing" textLength="264" x="309" y="861.9307">&#26681;&#25454; ModuleManager &#20013;&#35774;&#23450;&#30340;&#27169;&#22359;&#35843;&#29992;&#39034;&#24207;&#65292;</text><text fill="#000000" font-family="sans-serif" font-size="12" lengthAdjust="spacing" textLength="208" x="309" y="875.8994">&#20381;&#27425;&#35843;&#29992;&#27599;&#20010;&#27169;&#22359;&#30340; BeginBlock &#20989;&#25968;</text><polygon fill="none" points="256,966.667,556,966.667,563,988.9639,626,988.9639,626,1194.8701,256,1194.8701,256,966.667" style="stroke:#000000;stroke-width:1.5;"/><line style="stroke:#000000;stroke-width:1.5;" x1="256" x2="563" y1="988.9639" y2="988.9639"/><text fill="#000000" font-family="sans-serif" font-size="14" lengthAdjust="spacing" textLength="294" x="260" y="981.6621">&#20197; mode=runTxModeDeliver &#35843;&#29992;runTx&#20989;&#25968;</text><rect fill="#F1F1F1" height="33.9688" rx="12.5" ry="12.5" style="stroke:#181818;stroke-width:0.5;" width="91" x="395.5" y="1002.9639"/><text fill="#000000" font-family="sans-serif" font-size="12" lengthAdjust="spacing" textLength="71" x="405.5" y="1024.1025">&#23545;tx&#36827;&#34892;&#35299;&#30721;</text><rect fill="#F1F1F1" height="33.9688" rx="12.5" ry="12.5" style="stroke:#181818;stroke-width:0.5;" width="314" x="284" y="1071.9326"/><text fill="#000000" font-family="sans-serif" font-size="12" lengthAdjust="spacing" textLength="294" x="294" y="1093.0713">&#35843;&#29992;EthermintApp&#27880;&#20876;&#30340;anteHandler&#23545;tx&#36827;&#34892;&#26657;&#39564;</text><rect fill="#F1F1F1" height="33.9688" rx="12.5" ry="12.5" style="stroke:#181818;stroke-width:0.5;" width="350" x="266" y="1140.9014"/><text fill="#000000" font-family="sans-serif" font-size="12" lengthAdjust="spacing" textLength="330" x="276" y="1162.04">&#20174;Tx&#20013;&#36880;&#20010;&#21462;&#20986;message, &#35843;&#29992;&#27169;&#22359;&#27880;&#20876;&#30340;&#22788;&#29702;&#20989;&#25968;&#36827;&#34892;&#22788;&#29702;</text><rect fill="#F1F1F1" height="47.9375" rx="12.5" ry="12.5" style="stroke:#181818;stroke-width:0.5;" width="284" x="299" y="1282.8076"/><text fill="#000000" font-family="sans-serif" font-size="12" lengthAdjust="spacing" textLength="264" x="309" y="1303.9463">&#26681;&#25454; ModuleManager &#20013;&#35774;&#23450;&#30340;&#27169;&#22359;&#35843;&#29992;&#39034;&#24207;&#65292;</text><text fill="#000000" font-family="sans-serif" font-size="12" lengthAdjust="spacing" textLength="197" x="309" y="1317.915">&#20381;&#27425;&#35843;&#29992;&#27599;&#20010;&#27169;&#22359;&#30340; EndBlock &#20989;&#25968;</text><rect fill="#F1F1F1" height="33.9688" rx="12.5" ry="12.5" style="stroke:#181818;stroke-width:0.5;" width="188" x="347" y="1486.6201"/><text fill="#000000" font-family="sans-serif" font-size="12" lengthAdjust="spacing" textLength="168" x="357" y="1507.7588">&#23558;&#26412;&#21306;&#22359;&#30340;&#29366;&#24577;&#23384;&#20648;&#21040;&#25968;&#25454;&#24211;&#20013;</text><ellipse cx="441" cy="1551.5889" fill="none" rx="11" ry="11" style="stroke:#222222;stroke-width:1.0;"/><ellipse cx="441" cy="1551.5889" fill="#222222" rx="6" ry="6" style="stroke:#222222;stroke-width:1.0;"/><line style="stroke:#000000;stroke-width:1.5;" x1="241" x2="241" y1="50.042" y2="1562.5889"/><rect fill="#748AF9" height="1512.5469" style="stroke:#748AF9;stroke-width:1.0;" width="254.5" x="730.5" y="50.042"/><rect fill="#F1F1F1" height="33.9688" rx="12.5" ry="12.5" style="stroke:#181818;stroke-width:0.5;" width="237" x="736.5" y="237.9014"/><text fill="#000000" font-family="sans-serif" font-size="12" lengthAdjust="spacing" textLength="217" x="746.5" y="259.04">tx-hash&#34987;&#21152;&#20837;&#26412;&#22320;mempool-cache&#20013;</text><polygon fill="#32CD32" points="750,291.8701,970,291.8701,960,315.8389,970,339.8076,750,339.8076" style="stroke:#181818;stroke-width:0.5;"/><text fill="#000000" font-family="sans-serif" font-size="12" lengthAdjust="spacing" textLength="190" x="760" y="313.0088">&#36890;&#36807; ABCI &#25509;&#21475;&#30340; CheckTx &#20989;&#25968;&#65292;</text><text fill="#000000" font-family="sans-serif" font-size="12" lengthAdjust="spacing" textLength="164" x="760" y="326.9775">&#23558;tx&#20256;&#36882;&#32473; CosmosSDK &#22788;&#29702;</text><rect fill="#F1F1F1" height="47.9375" rx="12.5" ry="12.5" style="stroke:#181818;stroke-width:0.5;" width="160" x="775" y="529.042"/><text fill="#000000" font-family="sans-serif" font-size="12" lengthAdjust="spacing" textLength="139" x="785" y="550.1807">CheckTx &#26816;&#26597;&#28040;&#24687;&#36890;&#36807;&#65292;</text><text fill="#000000" font-family="sans-serif" font-size="12" lengthAdjust="spacing" textLength="140" x="785" y="564.1494">&#23558;tx&#21152;&#20837;&#26412;&#22320;mempool&#20013;</text><rect fill="#F1F1F1" height="33.9688" style="stroke:#181818;stroke-width:0.5;" width="151" x="779.5" y="596.9795"/><line style="stroke:#181818;stroke-width:0.5;" x1="784.5" x2="784.5" y1="596.9795" y2="630.9482"/><line style="stroke:#181818;stroke-width:0.5;" x1="925.5" x2="925.5" y1="596.9795" y2="630.9482"/><text fill="#000000" font-family="sans-serif" font-size="12" lengthAdjust="spacing" textLength="131" x="789.5" y="618.1182">&#36827;&#20837;tx&#30340;&#24191;&#25773;&#21644;&#20849;&#35782;&#27969;&#31243;</text><line style="stroke:#000000;stroke-width:1.5;" x1="730.5" x2="730.5" y1="50.042" y2="1562.5889"/><rect fill="#3450DE" height="1512.5469" style="stroke:#3450DE;stroke-width:1.0;" width="285" x="985" y="50.042"/><polygon fill="#F1F1F1" points="1027.5,650.9482,1227.5,650.9482,1217.5,698.8857,1017.5,698.8857" style="stroke:#181818;stroke-width:0.5;"/><text fill="#000000" font-family="sans-serif" font-size="12" lengthAdjust="spacing" textLength="132" x="1027.5" y="672.0869">&#20849;&#35782;&#27969;&#31243;&#30340;&#28040;&#24687;&#36890;&#20449;&#23436;&#25104;</text><text fill="#000000" font-family="sans-serif" font-size="12" lengthAdjust="spacing" textLength="190" x="1027.5" y="686.0557">(&#25910;&#21040;2/3+&#33410;&#28857;&#30340;Precommit&#28040;&#24687;)</text><polygon fill="#32CD32" points="1009,772.8545,1246,772.8545,1236,796.8232,1246,820.792,1009,820.792" style="stroke:#181818;stroke-width:0.5;"/><text fill="#000000" font-family="sans-serif" font-size="12" lengthAdjust="spacing" textLength="207" x="1019" y="793.9932">&#36890;&#36807; ABCI &#25509;&#21475;&#30340; BeginBlock &#20989;&#25968;&#65292;</text><text fill="#000000" font-family="sans-serif" font-size="12" lengthAdjust="spacing" textLength="201" x="1019" y="807.9619">&#36890;&#30693; CosmosSDK &#26032;&#30340;&#21306;&#22359;&#24050;&#32463;&#29983;&#25104;</text><polygon fill="#32CD32" points="1015.5,908.7295,1239.5,908.7295,1229.5,932.6982,1239.5,956.667,1015.5,956.667" style="stroke:#181818;stroke-width:0.5;"/><text fill="#000000" font-family="sans-serif" font-size="12" lengthAdjust="spacing" textLength="194" x="1025.5" y="929.8682">&#36890;&#36807; ABCI &#25509;&#21475;&#30340; DeliverTx &#20989;&#25968;&#65292;</text><text fill="#000000" font-family="sans-serif" font-size="12" lengthAdjust="spacing" textLength="172" x="1025.5" y="943.8369">&#23558; tx &#20256;&#36882;&#32473; CosmosSDK &#22788;&#29702;</text><polygon fill="#32CD32" points="1000,1214.8701,1255,1214.8701,1245,1238.8389,1255,1262.8076,1000,1262.8076" style="stroke:#181818;stroke-width:0.5;"/><text fill="#000000" font-family="sans-serif" font-size="12" lengthAdjust="spacing" textLength="196" x="1010" y="1236.0088">&#36890;&#36807; ABCI &#25509;&#21475;&#30340; EndBlock &#20989;&#25968;&#65292;</text><text fill="#000000" font-family="sans-serif" font-size="12" lengthAdjust="spacing" textLength="225" x="1010" y="1249.9775">&#36890;&#30693; CosmosSDK &#26412;&#21306;&#22359;&#30340;&#22788;&#29702;&#24050;&#32463;&#23436;&#25104;</text><rect fill="#F1F1F1" height="47.9375" rx="12.5" ry="12.5" style="stroke:#181818;stroke-width:0.5;" width="251" x="997" y="1350.7451"/><text fill="#000000" font-family="sans-serif" font-size="12" lengthAdjust="spacing" textLength="119" x="1007" y="1371.8838">&#23384;&#20648; ABCI &#25191;&#34892;&#32467;&#26524;&#65292;</text><text fill="#000000" font-family="sans-serif" font-size="12" lengthAdjust="spacing" textLength="231" x="1007" y="1385.8525">&#26681;&#25454;EndBlock&#30340;&#36820;&#22238;&#20540;&#26356;&#26032;validator&#20449;&#24687;</text><polygon fill="#32CD32" points="1000,1418.6826,1255,1418.6826,1245,1442.6514,1255,1466.6201,1000,1466.6201" style="stroke:#181818;stroke-width:0.5;"/><text fill="#000000" font-family="sans-serif" font-size="12" lengthAdjust="spacing" textLength="185" x="1010" y="1439.8213">&#36890;&#36807; ABCI &#25509;&#21475;&#30340; Commit &#20989;&#25968;&#65292;</text><text fill="#000000" font-family="sans-serif" font-size="12" lengthAdjust="spacing" textLength="225" x="1010" y="1453.79">&#36890;&#30693; CosmosSDK &#26412;&#21306;&#22359;&#30340;&#22788;&#29702;&#24050;&#32463;&#23436;&#25104;</text><line style="stroke:#000000;stroke-width:1.5;" x1="985" x2="985" y1="50.042" y2="1562.5889"/><rect fill="#0C2FE5" height="1512.5469" style="stroke:#0C2FE5;stroke-width:1.0;" width="265" x="1270" y="50.042"/><rect fill="#F1F1F1" height="33.9688" rx="12.5" ry="12.5" style="stroke:#181818;stroke-width:0.5;" width="68" x="1369.5" y="718.8857"/><text fill="#000000" font-family="sans-serif" font-size="12" lengthAdjust="spacing" textLength="48" x="1379.5" y="740.0244">&#23384;&#20648;&#21306;&#22359;</text><line style="stroke:#000000;stroke-width:1.5;" x1="1270" x2="1270" y1="50.042" y2="1562.5889"/><line style="stroke:#000000;stroke-width:1.5;" x1="1535" x2="1535" y1="50.042" y2="1562.5889"/><line style="stroke:#181818;stroke-width:1.0;" x1="129" x2="129" y1="95.9951" y2="115.9951"/><polygon fill="#181818" points="125,105.9951,129,115.9951,133,105.9951,129,109.9951" style="stroke:#181818;stroke-width:1.0;"/><line style="stroke:#181818;stroke-width:1.0;" x1="129" x2="129" y1="149.9639" y2="169.9639"/><polygon fill="#181818" points="125,159.9639,129,169.9639,133,159.9639,129,163.9639" style="stroke:#181818;stroke-width:1.0;"/><line style="stroke:#181818;stroke-width:1.0;" x1="441" x2="441" y1="420.0732" y2="455.0732"/><polygon fill="#181818" points="437,445.0732,441,455.0732,445,445.0732,441,449.0732" style="stroke:#181818;stroke-width:1.0;"/><line style="stroke:#181818;stroke-width:1.0;" x1="441" x2="441" y1="1036.9326" y2="1071.9326"/><polygon fill="#181818" points="437,1061.9326,441,1071.9326,445,1061.9326,441,1065.9326" style="stroke:#181818;stroke-width:1.0;"/><line style="stroke:#181818;stroke-width:1.0;" x1="441" x2="441" y1="1105.9014" y2="1140.9014"/><polygon fill="#181818" points="437,1130.9014,441,1140.9014,445,1130.9014,441,1134.9014" style="stroke:#181818;stroke-width:1.0;"/><line style="stroke:#181818;stroke-width:1.0;" x1="441" x2="441" y1="1520.5889" y2="1540.5889"/><polygon fill="#181818" points="437,1530.5889,441,1540.5889,445,1530.5889,441,1534.5889" style="stroke:#181818;stroke-width:1.0;"/><line style="stroke:#181818;stroke-width:1.0;" x1="855" x2="855" y1="271.8701" y2="291.8701"/><polygon fill="#181818" points="851,281.8701,855,291.8701,859,281.8701,855,285.8701" style="stroke:#181818;stroke-width:1.0;"/><line style="stroke:#181818;stroke-width:1.0;" x1="855" x2="855" y1="576.9795" y2="596.9795"/><polygon fill="#181818" points="851,586.9795,855,596.9795,859,586.9795,855,590.9795" style="stroke:#181818;stroke-width:1.0;"/><line style="stroke:#181818;stroke-width:1.0;" x1="1122.5" x2="1122.5" y1="1398.6826" y2="1418.6826"/><polygon fill="#181818" points="1118.5,1408.6826,1122.5,1418.6826,1126.5,1408.6826,1122.5,1412.6826" style="stroke:#181818;stroke-width:1.0;"/><line style="stroke:#181818;stroke-width:1.0;" x1="129" x2="129" y1="217.9014" y2="222.9014"/><line style="stroke:#181818;stroke-width:1.0;" x1="129" x2="855" y1="222.9014" y2="222.9014"/><line style="stroke:#181818;stroke-width:1.0;" x1="855" x2="855" y1="222.9014" y2="237.9014"/><polygon fill="#181818" points="851,227.9014,855,237.9014,859,227.9014,855,231.9014" style="stroke:#181818;stroke-width:1.0;"/><line style="stroke:#181818;stroke-width:1.0;" x1="855" x2="855" y1="339.8076" y2="350.4561"/><line style="stroke:#181818;stroke-width:1.0;" x1="855" x2="441" y1="350.4561" y2="350.4561"/><line style="stroke:#181818;stroke-width:1.0;" x1="441" x2="441" y1="350.4561" y2="386.1045"/><polygon fill="#181818" points="437,376.1045,441,386.1045,445,376.1045,441,380.1045" style="stroke:#181818;stroke-width:1.0;"/><line style="stroke:#181818;stroke-width:1.0;" x1="441" x2="441" y1="489.042" y2="514.042"/><line style="stroke:#181818;stroke-width:1.0;" x1="441" x2="855" y1="514.042" y2="514.042"/><line style="stroke:#181818;stroke-width:1.0;" x1="855" x2="855" y1="514.042" y2="529.042"/><polygon fill="#181818" points="851,519.042,855,529.042,859,519.042,855,523.042" style="stroke:#181818;stroke-width:1.0;"/><line style="stroke:#181818;stroke-width:1.0;" x1="855" x2="855" y1="630.9482" y2="635.9482"/><line style="stroke:#181818;stroke-width:1.0;" x1="855" x2="1122.5" y1="635.9482" y2="635.9482"/><line style="stroke:#181818;stroke-width:1.0;" x1="1122.5" x2="1122.5" y1="635.9482" y2="650.9482"/><polygon fill="#181818" points="1118.5,640.9482,1122.5,650.9482,1126.5,640.9482,1122.5,644.9482" style="stroke:#181818;stroke-width:1.0;"/><line style="stroke:#181818;stroke-width:1.0;" x1="1122.5" x2="1122.5" y1="698.8857" y2="703.8857"/><line style="stroke:#181818;stroke-width:1.0;" x1="1122.5" x2="1403.5" y1="703.8857" y2="703.8857"/><line style="stroke:#181818;stroke-width:1.0;" x1="1403.5" x2="1403.5" y1="703.8857" y2="718.8857"/><polygon fill="#181818" points="1399.5,708.8857,1403.5,718.8857,1407.5,708.8857,1403.5,712.8857" style="stroke:#181818;stroke-width:1.0;"/><line style="stroke:#181818;stroke-width:1.0;" x1="1403.5" x2="1403.5" y1="752.8545" y2="757.8545"/><line style="stroke:#181818;stroke-width:1.0;" x1="1403.5" x2="1122.5" y1="757.8545" y2="757.8545"/><line style="stroke:#181818;stroke-width:1.0;" x1="1122.5" x2="1122.5" y1="757.8545" y2="772.8545"/><polygon fill="#181818" points="1118.5,762.8545,1122.5,772.8545,1126.5,762.8545,1122.5,766.8545" style="stroke:#181818;stroke-width:1.0;"/><line style="stroke:#181818;stroke-width:1.0;" x1="1122.5" x2="1122.5" y1="820.792" y2="825.792"/><line style="stroke:#181818;stroke-width:1.0;" x1="1122.5" x2="441" y1="825.792" y2="825.792"/><line style="stroke:#181818;stroke-width:1.0;" x1="441" x2="441" y1="825.792" y2="840.792"/><polygon fill="#181818" points="437,830.792,441,840.792,445,830.792,441,834.792" style="stroke:#181818;stroke-width:1.0;"/><line style="stroke:#181818;stroke-width:1.0;" x1="441" x2="441" y1="888.7295" y2="893.7295"/><line style="stroke:#181818;stroke-width:1.0;" x1="441" x2="1122.5" y1="893.7295" y2="893.7295"/><line style="stroke:#181818;stroke-width:1.0;" x1="1122.5" x2="1122.5" y1="893.7295" y2="908.7295"/><polygon fill="#181818" points="1118.5,898.7295,1122.5,908.7295,1126.5,898.7295,1122.5,902.7295" style="stroke:#181818;stroke-width:1.0;"/><line style="stroke:#181818;stroke-width:1.0;" x1="1122.5" x2="1122.5" y1="956.667" y2="967.3154"/><line style="stroke:#181818;stroke-width:1.0;" x1="1122.5" x2="441" y1="967.3154" y2="967.3154"/><line style="stroke:#181818;stroke-width:1.0;" x1="441" x2="441" y1="967.3154" y2="1002.9639"/><polygon fill="#181818" points="437,992.9639,441,1002.9639,445,992.9639,441,996.9639" style="stroke:#181818;stroke-width:1.0;"/><line style="stroke:#181818;stroke-width:1.0;" x1="441" x2="441" y1="1174.8701" y2="1199.8701"/><line style="stroke:#181818;stroke-width:1.0;" x1="441" x2="1122.5" y1="1199.8701" y2="1199.8701"/><line style="stroke:#181818;stroke-width:1.0;" x1="1122.5" x2="1122.5" y1="1199.8701" y2="1214.8701"/><polygon fill="#181818" points="1118.5,1204.8701,1122.5,1214.8701,1126.5,1204.8701,1122.5,1208.8701" style="stroke:#181818;stroke-width:1.0;"/><line style="stroke:#181818;stroke-width:1.0;" x1="1122.5" x2="1122.5" y1="1262.8076" y2="1267.8076"/><line style="stroke:#181818;stroke-width:1.0;" x1="1122.5" x2="441" y1="1267.8076" y2="1267.8076"/><line style="stroke:#181818;stroke-width:1.0;" x1="441" x2="441" y1="1267.8076" y2="1282.8076"/><polygon fill="#181818" points="437,1272.8076,441,1282.8076,445,1272.8076,441,1276.8076" style="stroke:#181818;stroke-width:1.0;"/><line style="stroke:#181818;stroke-width:1.0;" x1="441" x2="441" y1="1330.7451" y2="1335.7451"/><line style="stroke:#181818;stroke-width:1.0;" x1="441" x2="1122.5" y1="1335.7451" y2="1335.7451"/><line style="stroke:#181818;stroke-width:1.0;" x1="1122.5" x2="1122.5" y1="1335.7451" y2="1350.7451"/><polygon fill="#181818" points="1118.5,1340.7451,1122.5,1350.7451,1126.5,1340.7451,1122.5,1344.7451" style="stroke:#181818;stroke-width:1.0;"/><line style="stroke:#181818;stroke-width:1.0;" x1="1122.5" x2="1122.5" y1="1466.6201" y2="1471.6201"/><line style="stroke:#181818;stroke-width:1.0;" x1="1122.5" x2="441" y1="1471.6201" y2="1471.6201"/><line style="stroke:#181818;stroke-width:1.0;" x1="441" x2="441" y1="1471.6201" y2="1486.6201"/><polygon fill="#181818" points="437,1476.6201,441,1486.6201,445,1476.6201,441,1480.6201" style="stroke:#181818;stroke-width:1.0;"/><text fill="#000000" font-family="sans-serif" font-size="18" lengthAdjust="spacing" textLength="216" x="20" y="66.75">Ethermint.EthRpcServer</text><text fill="#000000" font-family="sans-serif" font-size="18" lengthAdjust="spacing" textLength="186" x="392.75" y="66.75">CosmosSDK.BaseApp</text><text fill="#000000" font-family="sans-serif" font-size="18" lengthAdjust="spacing" textLength="192" x="761.75" y="66.75">Tendermint.Mempool</text><text fill="#FFFFFF" font-family="sans-serif" font-size="18" lengthAdjust="spacing" textLength="202" x="1026.5" y="66.75">Tendermint.Consensus</text><text fill="#FFFFFF" font-family="sans-serif" font-size="18" lengthAdjust="spacing" textLength="255" x="1275" y="66.75">Tendermint.BlockChainStore</text><!--SRC=[nLLTJzjM6BxFhpXgRpPrj5q1TGtT91B2Egr85MJQjUiS4Ol4jcnJfPeh9Gn8IjC60MCR7oKPZHgnGjAnKV9HycTyZfqh_iBU-DZ6MSa-KAVwAZv-FvxtES_p1Y64D45BO1H0pgEbp8rvycBUN5waVsJCofC1UdZOoQoIpHCx1einbX88sE_wvT78pK_7XtKyUI-iHxGuLfA2g5s5NvCoFuML1rXn8s-58eEH8Vq-fs9EblMmf2ObTMhiwwiXE1cLPJVkvj1de-Etz2HEofAKqAFGqwawmOwSkC6XuUjZ4PsNH1MBwgogt-QbXAG4luqB6lx2bnPs8vp4w-4Ruv5X_Ju_fKaAxfiMIaZyJ3ZE2Q8TvqviJ-eHfcgSeWMyro1zLgPhHxHPieuEZMQPlDWZsqkG0UUai4kBMP9T18gjwXlwUcx4bqXg6MjtWUQMUPiNMcoHLW4YjPGNSzhA6M-tZEE6bZAEz-6RSPmsZlUIM5MvQNpQUkpKywWxgwwb1kAS6hT- -PKi5Sb2cMwz8bir9sw0v_WuXf8-F9Vl2adyfOAn6EoaDwns5es6mbyXDWQqHk4uvcUYAKIoR-aFjTDMtaibjKK0s2fsqYjcysVatJDYkhhjW7HruEN973y3Sw1Bm1jAIZ7ykJ8hHbCJyCjkXgpQz-PQnJvaNI-XxxniHcArhgMizgPLobilTyrYPgJdkoXf62d2T5phEUu-dMmMQgFeGnb_Ctdt2Yay9RLv18FIzJfSX7y-rmTsjK0l00RHym6ecXvMo68U2d6YXkzmOYo15HzCMYnrzl9dC1_rlKANSBgRfZjbUfIZcIgxcdV8F-UEUsyt2CqXWhcztgOh-sGbJnPUMrN7zhe3uynSFgNwuhe4kKYCTeaSv471NkX7O0MIgzsuDdZ5Mfepv-eGVa_1l9HC2XhB-_YQAmV7ZRu- -p-HkGh9DyZsZoFzyVoZKaDuMX1jCvyZLaWnTye-aTBrMfSKkojvyvlPB9XhEp1KNza6QR5EdnuWqEbi0azm8cXOGS2tTN123ZQw35LAK8n9erDga4QFd8oJRVggnBxIQW4CpUBFXSw4Sd4knd12W9NSpxUm_z7xTQxJy6BUVK_UwYrZD9z5k_kparu6habXdMGRpWhzn879Bi2hpgPdi5bbTlAkQozo9H4nzk_52PQsbNc6ofOeyzq7aUXVu8_ytUAm3UtC__Wby6WsL-dpBNyhXjGjslsdRA-HpUSatQARluCt7t098SR1fe1j0-lZF_rZsMld_wGP7EHFDPUEQ3hZhB5S3Rh2QAInshkBLKsIKU1F]--></g></svg>