<?xml version="1.0" encoding="us-ascii" standalone="no"?><svg xmlns="http://www.w3.org/2000/svg" xmlns:xlink="http://www.w3.org/1999/xlink" contentStyleType="text/css" height="545px" preserveAspectRatio="none" style="width:1016px;height:545px;background:#FFFFFF;" version="1.1" viewBox="0 0 1016 545" width="1016px" zoomAndPan="magnify"><defs/><g><text fill="#000000" font-family="sans-serif" font-size="14" font-weight="bold" lengthAdjust="spacing" textLength="104" x="454.5" y="32.9951">&#26597;&#35810;&#27969;&#31243;-&#27891;&#36947;&#22270;</text><text fill="#000000" font-family="sans-serif" font-size="14" font-weight="bold" lengthAdjust="spacing" textLength="111" x="451" y="49.292">&#20197; eth_call &#20026;&#20363;</text><rect fill="none" height="20.9531" style="stroke:none;stroke-width:1.0;" width="983" x="15" y="66.3389"/><rect fill="#AE71F5" height="466.8203" style="stroke:#AE71F5;stroke-width:1.0;" width="226" x="15" y="66.3389"/><ellipse cx="129" cy="102.292" fill="#222222" rx="10" ry="10" style="stroke:#222222;stroke-width:1.0;"/><rect fill="#F1F1F1" height="33.9688" rx="12.5" ry="12.5" style="stroke:#181818;stroke-width:0.5;" width="212" x="23" y="132.292"/><text fill="#000000" font-family="sans-serif" font-size="12" lengthAdjust="spacing" textLength="192" x="33" y="153.4307">&#25509;&#25910;&#28385;&#36275;&#20197;&#22826;&#22346;RPC&#25509;&#21475;&#26631;&#20934;&#30340;&#35831;&#27714;</text><rect fill="#F1F1F1" height="33.9688" rx="12.5" ry="12.5" style="stroke:#181818;stroke-width:0.5;" width="200" x="29" y="186.2607"/><text fill="#000000" font-family="sans-serif" font-size="12" lengthAdjust="spacing" textLength="180" x="39" y="207.3994">&#22914;&#26524;&#27809;&#26377;&#25351;&#23450;&#39640;&#24230;&#65292;&#20351;&#29992;&#26368;&#26032;&#39640;&#24230;</text><rect fill="#F1F1F1" height="33.9688" rx="12.5" ry="12.5" style="stroke:#181818;stroke-width:0.5;" width="128" x="65" y="297.3467"/><text fill="#000000" font-family="sans-serif" font-size="12" lengthAdjust="spacing" textLength="108" x="75" y="318.4854">&#23545;&#35831;&#27714;&#20449;&#24687;&#36827;&#34892;&#32534;&#30721;</text><line style="stroke:#000000;stroke-width:1.5;" x1="15" x2="15" y1="66.3389" y2="533.1592"/><rect fill="#9BE3E4" height="466.8203" style="stroke:#9BE3E4;stroke-width:1.0;" width="199" x="241" y="66.3389"/><rect fill="#F1F1F1" height="71.9063" rx="12.5" ry="12.5" style="stroke:#181818;stroke-width:0.5;" width="188" x="247" y="419.2529"/><text fill="#000000" font-family="sans-serif" font-size="12" lengthAdjust="spacing" textLength="156" x="257" y="440.3916">&#26681;&#25454;&#21551;&#21160;&#26102;&#27880;&#20876;&#30340;&#36335;&#30001;&#20449;&#24687;&#65292;</text><text fill="#000000" font-family="sans-serif" font-size="12" lengthAdjust="spacing" textLength="156" x="257" y="454.3604">&#35843;&#29992;&#23545;&#24212;&#30340;&#27880;&#20876;&#20989;&#25968;&#36827;&#34892;&#22788;&#29702;</text><line style="stroke:#181818;stroke-width:1.0;" x1="247" x2="435" y1="462.1904" y2="462.1904"/><text fill="#000000" font-family="sans-serif" font-size="12" lengthAdjust="spacing" textLength="168" x="257" y="478.3291">&#21508;&#20010;&#27169;&#22359;&#23545;&#24212;&#30340;&#22788;&#29702;&#20989;&#25968;&#34987;&#35843;&#29992;</text><ellipse cx="341" cy="522.1592" fill="none" rx="11" ry="11" style="stroke:#222222;stroke-width:1.0;"/><ellipse cx="341" cy="522.1592" fill="#222222" rx="6" ry="6" style="stroke:#222222;stroke-width:1.0;"/><line style="stroke:#000000;stroke-width:1.5;" x1="241" x2="241" y1="66.3389" y2="533.1592"/><rect fill="#748AF9" height="466.8203" style="stroke:#748AF9;stroke-width:1.0;" width="237" x="440" y="66.3389"/><polygon fill="#32CD32" points="455,351.3154,662,351.3154,652,375.2842,662,399.2529,455,399.2529" style="stroke:#181818;stroke-width:0.5;"/><text fill="#000000" font-family="sans-serif" font-size="12" lengthAdjust="spacing" textLength="175" x="465" y="372.4541">&#36890;&#36807; ABCI &#25509;&#21475;&#30340; Query &#20989;&#25968;&#65292;</text><text fill="#000000" font-family="sans-serif" font-size="12" lengthAdjust="spacing" textLength="177" x="465" y="386.4229">&#23558;&#35831;&#27714;&#20256;&#36882;&#32473; CosmosSDK &#22788;&#29702;</text><line style="stroke:#000000;stroke-width:1.5;" x1="440" x2="440" y1="66.3389" y2="533.1592"/><rect fill="#0C2FE5" height="466.8203" style="stroke:#0C2FE5;stroke-width:1.0;" width="319" x="677" y="66.3389"/><path d="M831,237.0811 L831,253.2139 L811,257.2139 L831,261.2139 L831,277.3467 A0,0 0 0 0 831,277.3467 L991,277.3467 A0,0 0 0 0 991,277.3467 L991,247.0811 L981,237.0811 L831,237.0811 A0,0 0 0 0 831,237.0811 " fill="#FEFFDD" style="stroke:#181818;stroke-width:0.5;"/><path d="M981,237.0811 L981,247.0811 L991,247.0811 L981,237.0811 " fill="#FEFFDD" style="stroke:#181818;stroke-width:0.5;"/><text fill="#000000" font-family="sans-serif" font-size="13" lengthAdjust="spacing" textLength="117" x="837" y="254.1479">&#23454;&#38469;&#21482;&#20351;&#29992;&#21306;&#22359;&#20013;&#30340;</text><text fill="#000000" font-family="sans-serif" font-size="13" lengthAdjust="spacing" textLength="139" x="837" y="269.2808">ProposerAddress &#20449;&#24687;</text><rect fill="#F1F1F1" height="33.9688" rx="12.5" ry="12.5" style="stroke:#181818;stroke-width:0.5;" width="128" x="683" y="240.2295"/><text fill="#000000" font-family="sans-serif" font-size="12" lengthAdjust="spacing" textLength="108" x="693" y="261.3682">&#21462;&#20986;&#25351;&#23450;&#39640;&#24230;&#30340;&#21306;&#22359;</text><line style="stroke:#000000;stroke-width:1.5;" x1="677" x2="677" y1="66.3389" y2="533.1592"/><line style="stroke:#000000;stroke-width:1.5;" x1="996" x2="996" y1="66.3389" y2="533.1592"/><line style="stroke:#181818;stroke-width:1.0;" x1="129" x2="129" y1="112.292" y2="132.292"/><polygon fill="#181818" points="125,122.292,129,132.292,133,122.292,129,126.292" style="stroke:#181818;stroke-width:1.0;"/><line style="stroke:#181818;stroke-width:1.0;" x1="129" x2="129" y1="166.2607" y2="186.2607"/><polygon fill="#181818" points="125,176.2607,129,186.2607,133,176.2607,129,180.2607" style="stroke:#181818;stroke-width:1.0;"/><line style="stroke:#181818;stroke-width:1.0;" x1="341" x2="341" y1="491.1592" y2="511.1592"/><polygon fill="#181818" points="337,501.1592,341,511.1592,345,501.1592,341,505.1592" style="stroke:#181818;stroke-width:1.0;"/><line style="stroke:#181818;stroke-width:1.0;" x1="129" x2="129" y1="220.2295" y2="225.2295"/><line style="stroke:#181818;stroke-width:1.0;" x1="129" x2="747" y1="225.2295" y2="225.2295"/><line style="stroke:#181818;stroke-width:1.0;" x1="747" x2="747" y1="225.2295" y2="240.2295"/><polygon fill="#181818" points="743,230.2295,747,240.2295,751,230.2295,747,234.2295" style="stroke:#181818;stroke-width:1.0;"/><line style="stroke:#181818;stroke-width:1.0;" x1="747" x2="747" y1="274.1982" y2="282.3467"/><line style="stroke:#181818;stroke-width:1.0;" x1="747" x2="129" y1="282.3467" y2="282.3467"/><line style="stroke:#181818;stroke-width:1.0;" x1="129" x2="129" y1="282.3467" y2="297.3467"/><polygon fill="#181818" points="125,287.3467,129,297.3467,133,287.3467,129,291.3467" style="stroke:#181818;stroke-width:1.0;"/><line style="stroke:#181818;stroke-width:1.0;" x1="129" x2="129" y1="331.3154" y2="336.3154"/><line style="stroke:#181818;stroke-width:1.0;" x1="129" x2="553.5" y1="336.3154" y2="336.3154"/><line style="stroke:#181818;stroke-width:1.0;" x1="553.5" x2="553.5" y1="336.3154" y2="351.3154"/><polygon fill="#181818" points="549.5,341.3154,553.5,351.3154,557.5,341.3154,553.5,345.3154" style="stroke:#181818;stroke-width:1.0;"/><line style="stroke:#181818;stroke-width:1.0;" x1="553.5" x2="553.5" y1="399.2529" y2="404.2529"/><line style="stroke:#181818;stroke-width:1.0;" x1="553.5" x2="341" y1="404.2529" y2="404.2529"/><line style="stroke:#181818;stroke-width:1.0;" x1="341" x2="341" y1="404.2529" y2="419.2529"/><polygon fill="#181818" points="337,409.2529,341,419.2529,345,409.2529,341,413.2529" style="stroke:#181818;stroke-width:1.0;"/><text fill="#000000" font-family="sans-serif" font-size="18" lengthAdjust="spacing" textLength="216" x="20" y="83.0469">Ethermint.EthRpcServer</text><text fill="#000000" font-family="sans-serif" font-size="18" lengthAdjust="spacing" textLength="186" x="247.5" y="83.0469">CosmosSDK.BaseApp</text><text fill="#000000" font-family="sans-serif" font-size="18" lengthAdjust="spacing" textLength="165" x="476" y="83.0469">Tendermint.Query</text><text fill="#FFFFFF" font-family="sans-serif" font-size="18" lengthAdjust="spacing" textLength="255" x="709" y="83.0469">Tendermint.BlockChainStore</text><!--SRC=[RL9DRn916BxpAoRfkOqVRMgXCG44O_HGYub7Gs4YH63NsT74P0zGAnjR5A98BQKLQca8ZIoLIFbg-JCxiyl9l-3iphAkYNEQUUVvUETv1m00S1Ad8F00Uz5lJKCzeRzoUcjlaVPwizndSdZjN6lZ9e0uyImMJQM0DXXfrtlM7Sp4kPB7EieB_j3gpV2A33StWd889o1A9pDuYUqsnLW4ejSGpP5hWT3jqBAy5PLWL1Jbe22b1Ibox-5IW5NyeZZ7hIxVyOVNv9Ul87eZFs66jkPZis1ZRWHlXKChybOiWWK4vVMOa1AGzsaYYU5T5oMG4c8lWebeCcFXR0UhL-Ub4euYx76ENlgnISjzEcuO_HvBWPosoT4kOx0wANwdTOKeURswOwYNz6BRvoAIisrwNAC_6xJsdXOKqgdEph-IqTdlIK6xckhb5grbQQNBYpwBn_kPly8bLQmGPUGMOOwaC297-pu7bH4m12ZvF86Tahb8vtXsy8uKszoKixJ13wRm3su32Q8WGUIFnn6K9A1D6pIdEX1pqAR3VpFp4dN80-0iOtfeD0hwfABNStOazlmSoiAZP1hUHn1clBDirPWgm1y8FW0yLTORiCOBY795ltHPP0wHTFEsrQG-otxInmV0-Jg0dExefVowRJd_MgvXreVqGuUKLBBReljzsckHVC6StgMgbozuysupe_lMp4mTab6PmJYUzyJVo0qT_29RVpijxMY3DcqrME2E12VO4YVdtC0rVGaBekSF]--></g></svg>