<?xml version="1.0" encoding="us-ascii" standalone="no"?><svg xmlns="http://www.w3.org/2000/svg" xmlns:xlink="http://www.w3.org/1999/xlink" contentStyleType="text/css" height="1843px" preserveAspectRatio="none" style="width:2372px;height:1843px;background:#FFFFFF;" version="1.1" viewBox="0 0 2372 1843" width="2372px" zoomAndPan="magnify"><defs/><g><text fill="#000000" font-family="sans-serif" font-size="14" font-weight="bold" lengthAdjust="spacing" textLength="213" x="1072.5" y="22.9951">CosmosSDK&#20013;-&#23384;&#20648;&#30456;&#20851;&#30340;&#31867;&#22270;</text><!--cluster CosmosSDK--><g id="cluster_CosmosSDK"><path d="M8.5,43.2969 L104.5,43.2969 A3.75,3.75 0 0 1 107,45.7969 L114,65.5938 L2362.5,65.5938 A2.5,2.5 0 0 1 2365,68.0938 L2365,1834.2969 A2.5,2.5 0 0 1 2362.5,1836.7969 L8.5,1836.7969 A2.5,2.5 0 0 1 6,1834.2969 L6,45.7969 A2.5,2.5 0 0 1 8.5,43.2969 " fill="none" style="stroke:#000000;stroke-width:1.5;"/><line style="stroke:#000000;stroke-width:1.5;" x1="6" x2="114" y1="65.5938" y2="65.5938"/><text fill="#000000" font-family="sans-serif" font-size="14" font-weight="bold" lengthAdjust="spacing" textLength="95" x="10" y="58.292">CosmosSDK</text></g><!--cluster baseapp--><g id="cluster_baseapp"><path d="M1792.5,86.2969 L1860.5,86.2969 A3.75,3.75 0 0 1 1863,88.7969 L1870,108.5938 L2338.5,108.5938 A2.5,2.5 0 0 1 2341,111.0938 L2341,603.7969 A2.5,2.5 0 0 1 2338.5,606.2969 L1792.5,606.2969 A2.5,2.5 0 0 1 1790,603.7969 L1790,88.7969 A2.5,2.5 0 0 1 1792.5,86.2969 " fill="none" style="stroke:#000000;stroke-width:1.5;"/><line style="stroke:#000000;stroke-width:1.5;" x1="1790" x2="1870" y1="108.5938" y2="108.5938"/><text fill="#000000" font-family="sans-serif" font-size="14" font-weight="bold" lengthAdjust="spacing" textLength="67" x="1794" y="101.292">baseapp</text></g><!--cluster types--><g id="cluster_types"><path d="M1792.5,721.7969 L1837.5,721.7969 A3.75,3.75 0 0 1 1840,724.2969 L1847,744.0938 L2045.5,744.0938 A2.5,2.5 0 0 1 2048,746.5938 L2048,1053.7969 A2.5,2.5 0 0 1 2045.5,1056.2969 L1792.5,1056.2969 A2.5,2.5 0 0 1 1790,1053.7969 L1790,724.2969 A2.5,2.5 0 0 1 1792.5,721.7969 " fill="none" style="stroke:#000000;stroke-width:1.5;"/><line style="stroke:#000000;stroke-width:1.5;" x1="1790" x2="1847" y1="744.0938" y2="744.0938"/><text fill="#000000" font-family="sans-serif" font-size="14" font-weight="bold" lengthAdjust="spacing" textLength="44" x="1794" y="736.792">types</text></g><!--cluster snapshots--><g id="cluster_snapshots"><path d="M32.5,695.2969 L115.5,695.2969 A3.75,3.75 0 0 1 118,697.7969 L125,717.5938 L223.5,717.5938 A2.5,2.5 0 0 1 226,720.0938 L226,858.7969 A2.5,2.5 0 0 1 223.5,861.2969 L32.5,861.2969 A2.5,2.5 0 0 1 30,858.7969 L30,697.7969 A2.5,2.5 0 0 1 32.5,695.2969 " fill="none" style="stroke:#000000;stroke-width:1.5;"/><line style="stroke:#000000;stroke-width:1.5;" x1="30" x2="125" y1="717.5938" y2="717.5938"/><text fill="#000000" font-family="sans-serif" font-size="14" font-weight="bold" lengthAdjust="spacing" textLength="82" x="34" y="710.292">snapshots</text></g><!--cluster types--><g id="cluster_types"><path d="M56.5,738.2969 L101.5,738.2969 A3.75,3.75 0 0 1 104,740.7969 L111,760.5938 L199.5,760.5938 A2.5,2.5 0 0 1 202,763.0938 L202,834.7969 A2.5,2.5 0 0 1 199.5,837.2969 L56.5,837.2969 A2.5,2.5 0 0 1 54,834.7969 L54,740.7969 A2.5,2.5 0 0 1 56.5,738.2969 " fill="none" style="stroke:#000000;stroke-width:1.5;"/><line style="stroke:#000000;stroke-width:1.5;" x1="54" x2="111" y1="760.5938" y2="760.5938"/><text fill="#000000" font-family="sans-serif" font-size="14" font-weight="bold" lengthAdjust="spacing" textLength="44" x="58" y="753.292">types</text></g><!--cluster store--><g id="cluster_store"><path d="M252.5,419.2969 L295.5,419.2969 A3.75,3.75 0 0 1 298,421.7969 L305,441.5938 L1763.5,441.5938 A2.5,2.5 0 0 1 1766,444.0938 L1766,1810.2969 A2.5,2.5 0 0 1 1763.5,1812.7969 L252.5,1812.7969 A2.5,2.5 0 0 1 250,1810.2969 L250,421.7969 A2.5,2.5 0 0 1 252.5,419.2969 " fill="none" style="stroke:#000000;stroke-width:1.5;"/><line style="stroke:#000000;stroke-width:1.5;" x1="250" x2="305" y1="441.5938" y2="441.5938"/><text fill="#000000" font-family="sans-serif" font-size="14" font-weight="bold" lengthAdjust="spacing" textLength="42" x="254" y="434.292">store</text></g><!--cluster types--><g id="cluster_types"><path d="M784.5,462.2969 L829.5,462.2969 A3.75,3.75 0 0 1 832,464.7969 L839,484.5938 L1478.5,484.5938 A2.5,2.5 0 0 1 1481,487.0938 L1481,1493.2969 A2.5,2.5 0 0 1 1478.5,1495.7969 L784.5,1495.7969 A2.5,2.5 0 0 1 782,1493.2969 L782,464.7969 A2.5,2.5 0 0 1 784.5,462.2969 " fill="none" style="stroke:#000000;stroke-width:1.5;"/><line style="stroke:#000000;stroke-width:1.5;" x1="782" x2="839" y1="484.5938" y2="484.5938"/><text fill="#000000" font-family="sans-serif" font-size="14" font-weight="bold" lengthAdjust="spacing" textLength="44" x="786" y="477.292">types</text></g><!--cluster cachekv--><g id="cluster_cachekv"><path d="M1452.5,1559.7969 L1518.5,1559.7969 A3.75,3.75 0 0 1 1521,1562.2969 L1528,1582.0938 L1739.5,1582.0938 A2.5,2.5 0 0 1 1742,1584.5938 L1742,1786.2969 A2.5,2.5 0 0 1 1739.5,1788.7969 L1452.5,1788.7969 A2.5,2.5 0 0 1 1450,1786.2969 L1450,1562.2969 A2.5,2.5 0 0 1 1452.5,1559.7969 " fill="none" style="stroke:#000000;stroke-width:1.5;"/><line style="stroke:#000000;stroke-width:1.5;" x1="1450" x2="1528" y1="1582.0938" y2="1582.0938"/><text fill="#000000" font-family="sans-serif" font-size="14" font-weight="bold" lengthAdjust="spacing" textLength="65" x="1454" y="1574.792">cachekv</text></g><!--cluster cachemulti--><g id="cluster_cachemulti"><path d="M276.5,1596.2969 L362.5,1596.2969 A3.75,3.75 0 0 1 365,1598.7969 L372,1618.5938 L633.5,1618.5938 A2.5,2.5 0 0 1 636,1621.0938 L636,1749.7969 A2.5,2.5 0 0 1 633.5,1752.2969 L276.5,1752.2969 A2.5,2.5 0 0 1 274,1749.7969 L274,1598.7969 A2.5,2.5 0 0 1 276.5,1596.2969 " fill="none" style="stroke:#000000;stroke-width:1.5;"/><line style="stroke:#000000;stroke-width:1.5;" x1="274" x2="372" y1="1618.5938" y2="1618.5938"/><text fill="#000000" font-family="sans-serif" font-size="14" font-weight="bold" lengthAdjust="spacing" textLength="85" x="278" y="1611.292">cachemulti</text></g><!--cluster rootmulti--><g id="cluster_rootmulti"><path d="M662.5,1608.2969 L734.5,1608.2969 A3.75,3.75 0 0 1 737,1610.7969 L744,1630.5938 L1043.5,1630.5938 A2.5,2.5 0 0 1 1046,1633.0938 L1046,1737.7969 A2.5,2.5 0 0 1 1043.5,1740.2969 L662.5,1740.2969 A2.5,2.5 0 0 1 660,1737.7969 L660,1610.7969 A2.5,2.5 0 0 1 662.5,1608.2969 " fill="none" style="stroke:#000000;stroke-width:1.5;"/><line style="stroke:#000000;stroke-width:1.5;" x1="660" x2="744" y1="1630.5938" y2="1630.5938"/><text fill="#000000" font-family="sans-serif" font-size="14" font-weight="bold" lengthAdjust="spacing" textLength="71" x="664" y="1623.292">rootmulti</text></g><!--cluster cache--><g id="cluster_cache"><path d="M1072.5,1616.7969 L1120.5,1616.7969 A3.75,3.75 0 0 1 1123,1619.2969 L1130,1639.0938 L1283.5,1639.0938 A2.5,2.5 0 0 1 1286,1641.5938 L1286,1729.2969 A2.5,2.5 0 0 1 1283.5,1731.7969 L1072.5,1731.7969 A2.5,2.5 0 0 1 1070,1729.2969 L1070,1619.2969 A2.5,2.5 0 0 1 1072.5,1616.7969 " fill="none" style="stroke:#000000;stroke-width:1.5;"/><line style="stroke:#000000;stroke-width:1.5;" x1="1070" x2="1130" y1="1639.0938" y2="1639.0938"/><text fill="#000000" font-family="sans-serif" font-size="14" font-weight="bold" lengthAdjust="spacing" textLength="47" x="1074" y="1631.792">cache</text></g><!--cluster iavl--><g id="cluster_iavl"><path d="M1312.5,1616.7969 L1339.5,1616.7969 A3.75,3.75 0 0 1 1342,1619.2969 L1349,1639.0938 L1423.5,1639.0938 A2.5,2.5 0 0 1 1426,1641.5938 L1426,1729.2969 A2.5,2.5 0 0 1 1423.5,1731.7969 L1312.5,1731.7969 A2.5,2.5 0 0 1 1310,1729.2969 L1310,1619.2969 A2.5,2.5 0 0 1 1312.5,1616.7969 " fill="none" style="stroke:#000000;stroke-width:1.5;"/><line style="stroke:#000000;stroke-width:1.5;" x1="1310" x2="1349" y1="1639.0938" y2="1639.0938"/><text fill="#000000" font-family="sans-serif" font-size="14" font-weight="bold" lengthAdjust="spacing" textLength="26" x="1314" y="1631.792">iavl</text></g><!--class appStore--><g id="elem_appStore"><rect codeLine="7" fill="#FF6347" height="80.5938" id="appStore" rx="2.5" ry="2.5" style="stroke:#181818;stroke-width:0.5;" width="286" x="2039" y="291.2969"/><ellipse cx="2146.25" cy="307.2969" fill="#F1F1F1" rx="11" ry="11" style="stroke:#181818;stroke-width:1.0;"/><path d="M2145.7344,307.8594 Q2143.875,307.1563 2143.2188,306.3906 Q2142.5781,305.6094 2142.5781,304.2969 Q2142.5781,302.6094 2143.6563,301.6406 Q2144.7344,300.6719 2146.6094,300.6719 Q2147.4688,300.6719 2148.3125,300.875 Q2149.1719,301.0625 2150.0156,301.4531 L2150.0156,303.8438 Q2149.2344,303.2813 2148.4063,303 Q2147.5938,302.7031 2146.7969,302.7031 Q2145.9219,302.7031 2145.4375,303.0625 Q2144.9688,303.4219 2144.9688,304.0781 Q2144.9688,304.5938 2145.3125,304.9375 Q2145.6563,305.2656 2146.75,305.6719 L2147.8125,306.0781 Q2149.2969,306.625 2150,307.5313 Q2150.7188,308.4375 2150.7188,309.8125 Q2150.7188,311.6875 2149.6094,312.6094 Q2148.5,313.5313 2146.25,313.5313 Q2145.3281,313.5313 2144.4063,313.3125 Q2143.4844,313.0938 2142.625,312.6719 L2142.625,310.1406 Q2143.5938,310.8281 2144.5156,311.1719 Q2145.4375,311.5156 2146.3281,311.5156 Q2147.2344,311.5156 2147.7344,311.1094 Q2148.2344,310.6875 2148.2344,309.9531 Q2148.2344,309.3906 2147.8906,308.9844 Q2147.5625,308.5625 2146.9375,308.3125 L2145.7344,307.8594 Z " fill="#000000"/><text fill="#000000" font-family="sans-serif" font-size="14" lengthAdjust="spacing" textLength="63" x="2166.75" y="312.1436">appStore</text><line style="stroke:#181818;stroke-width:0.5;" x1="2040" x2="2324" y1="323.2969" y2="323.2969"/><text fill="#000000" font-family="sans-serif" font-size="14" lengthAdjust="spacing" textLength="194" x="2045" y="340.292">db dbm.DB // &#21518;&#21488;&#25968;&#25454;&#24211;&#25509;&#21475;</text><line style="stroke:#181818;stroke-width:1.0;stroke-dasharray:1.0,2.0;" x1="2040" x2="2324" y1="347.5938" y2="347.5938"/><text fill="#000000" font-family="sans-serif" font-size="14" lengthAdjust="spacing" textLength="274" x="2045" y="364.5889">cms sdk.CommitMultiStore // main state</text></g><!--class BaseApp--><g id="elem_BaseApp"><rect codeLine="12" fill="#FF6347" height="80.5938" id="BaseApp" rx="2.5" ry="2.5" style="stroke:#181818;stroke-width:0.5;" width="144" x="1806" y="291.2969"/><ellipse cx="1843.5" cy="307.2969" fill="#F1F1F1" rx="11" ry="11" style="stroke:#181818;stroke-width:1.0;"/><path d="M1842.9844,307.8594 Q1841.125,307.1563 1840.4688,306.3906 Q1839.8281,305.6094 1839.8281,304.2969 Q1839.8281,302.6094 1840.9063,301.6406 Q1841.9844,300.6719 1843.8594,300.6719 Q1844.7188,300.6719 1845.5625,300.875 Q1846.4219,301.0625 1847.2656,301.4531 L1847.2656,303.8438 Q1846.4844,303.2813 1845.6563,303 Q1844.8438,302.7031 1844.0469,302.7031 Q1843.1719,302.7031 1842.6875,303.0625 Q1842.2188,303.4219 1842.2188,304.0781 Q1842.2188,304.5938 1842.5625,304.9375 Q1842.9063,305.2656 1844,305.6719 L1845.0625,306.0781 Q1846.5469,306.625 1847.25,307.5313 Q1847.9688,308.4375 1847.9688,309.8125 Q1847.9688,311.6875 1846.8594,312.6094 Q1845.75,313.5313 1843.5,313.5313 Q1842.5781,313.5313 1841.6563,313.3125 Q1840.7344,313.0938 1839.875,312.6719 L1839.875,310.1406 Q1840.8438,310.8281 1841.7656,311.1719 Q1842.6875,311.5156 1843.5781,311.5156 Q1844.4844,311.5156 1844.9844,311.1094 Q1845.4844,310.6875 1845.4844,309.9531 Q1845.4844,309.3906 1845.1406,308.9844 Q1844.8125,308.5625 1844.1875,308.3125 L1842.9844,307.8594 Z " fill="#000000"/><text fill="#000000" font-family="sans-serif" font-size="14" lengthAdjust="spacing" textLength="62" x="1862.5" y="312.1436">BaseApp</text><line style="stroke:#181818;stroke-width:0.5;" x1="1807" x2="1949" y1="323.2969" y2="323.2969"/><text fill="#000000" font-family="sans-serif" font-size="14" lengthAdjust="spacing" textLength="129" x="1812" y="340.292">state* checkState;</text><line style="stroke:#181818;stroke-width:1.0;stroke-dasharray:1.0,2.0;" x1="1807" x2="1949" y1="347.5938" y2="347.5938"/><text fill="#000000" font-family="sans-serif" font-size="14" lengthAdjust="spacing" textLength="132" x="1812" y="364.5889">state* deliverState;</text></g><g id="elem_GMN6"><path d="M1806.5,121.2969 L1806.5,230.0938 A0,0 0 0 0 1806.5,230.0938 L1910.41,230.0938 L1892.54,290.7969 L1918.41,230.0938 L2061.5,230.0938 A0,0 0 0 0 2061.5,230.0938 L2061.5,131.2969 L2051.5,121.2969 L1806.5,121.2969 A0,0 0 0 0 1806.5,121.2969 " fill="#FEFFDD" style="stroke:#181818;stroke-width:0.5;"/><path d="M2051.5,121.2969 L2051.5,131.2969 L2061.5,131.2969 L2051.5,121.2969 " fill="#FEFFDD" style="stroke:#181818;stroke-width:0.5;"/><text fill="#000000" font-family="sans-serif" font-size="13" lengthAdjust="spacing" textLength="229" x="1812.5" y="138.3638">checkState &#22312; mode &#21462;&#20197;&#19979;&#20540;&#26102;&#20351;&#29992;:</text><ellipse cx="1818" cy="149.0625" fill="#000000" rx="2.5" ry="2.5" style="stroke:#000000;stroke-width:0.0;"/><text fill="#000000" font-family="sans-serif" font-size="13" lengthAdjust="spacing" textLength="109" x="1824.5" y="153.4966">runTxModeCheck</text><ellipse cx="1818" cy="164.1953" fill="#000000" rx="2.5" ry="2.5" style="stroke:#000000;stroke-width:0.0;"/><text fill="#000000" font-family="sans-serif" font-size="13" lengthAdjust="spacing" textLength="125" x="1824.5" y="168.6294">runTxModeReCheck</text><ellipse cx="1818" cy="179.3281" fill="#000000" rx="2.5" ry="2.5" style="stroke:#000000;stroke-width:0.0;"/><text fill="#000000" font-family="sans-serif" font-size="13" lengthAdjust="spacing" textLength="127" x="1824.5" y="183.7622">runTxModeSimulate</text><line style="stroke:#181818;stroke-width:1.0;" x1="1807.5" x2="2060.5" y1="186.8281" y2="186.8281"/><line style="stroke:#181818;stroke-width:1.0;" x1="1807.5" x2="2060.5" y1="188.8281" y2="188.8281"/><text fill="#000000" font-family="sans-serif" font-size="13" lengthAdjust="spacing" textLength="234" x="1812.5" y="202.895">deliverState &#22312; mode &#21462;&#20197;&#19979;&#20540;&#26102;&#20351;&#29992;:</text><ellipse cx="1818" cy="213.5938" fill="#000000" rx="2.5" ry="2.5" style="stroke:#000000;stroke-width:0.0;"/><text fill="#000000" font-family="sans-serif" font-size="13" lengthAdjust="spacing" textLength="114" x="1824.5" y="218.0278">runTxModeDeliver</text></g><!--class state--><g id="elem_state"><rect codeLine="28" fill="#F1F1F1" height="80.5938" id="state" rx="2.5" ry="2.5" style="stroke:#181818;stroke-width:0.5;" width="197" x="1810.5" y="509.2969"/><ellipse cx="1887.25" cy="525.2969" fill="#F1F1F1" rx="11" ry="11" style="stroke:#181818;stroke-width:1.0;"/><path d="M1886.7344,525.8594 Q1884.875,525.1563 1884.2188,524.3906 Q1883.5781,523.6094 1883.5781,522.2969 Q1883.5781,520.6094 1884.6563,519.6406 Q1885.7344,518.6719 1887.6094,518.6719 Q1888.4688,518.6719 1889.3125,518.875 Q1890.1719,519.0625 1891.0156,519.4531 L1891.0156,521.8438 Q1890.2344,521.2813 1889.4063,521 Q1888.5938,520.7031 1887.7969,520.7031 Q1886.9219,520.7031 1886.4375,521.0625 Q1885.9688,521.4219 1885.9688,522.0781 Q1885.9688,522.5938 1886.3125,522.9375 Q1886.6563,523.2656 1887.75,523.6719 L1888.8125,524.0781 Q1890.2969,524.625 1891,525.5313 Q1891.7188,526.4375 1891.7188,527.8125 Q1891.7188,529.6875 1890.6094,530.6094 Q1889.5,531.5313 1887.25,531.5313 Q1886.3281,531.5313 1885.4063,531.3125 Q1884.4844,531.0938 1883.625,530.6719 L1883.625,528.1406 Q1884.5938,528.8281 1885.5156,529.1719 Q1886.4375,529.5156 1887.3281,529.5156 Q1888.2344,529.5156 1888.7344,529.1094 Q1889.2344,528.6875 1889.2344,527.9531 Q1889.2344,527.3906 1888.8906,526.9844 Q1888.5625,526.5625 1887.9375,526.3125 L1886.7344,525.8594 Z " fill="#000000"/><text fill="#000000" font-family="sans-serif" font-size="14" lengthAdjust="spacing" textLength="35" x="1907.75" y="530.1436">state</text><line style="stroke:#181818;stroke-width:0.5;" x1="1811.5" x2="2006.5" y1="541.2969" y2="541.2969"/><text fill="#000000" font-family="sans-serif" font-size="14" lengthAdjust="spacing" textLength="185" x="1816.5" y="558.292">types.CacheMultiStore ms;</text><line style="stroke:#181818;stroke-width:1.0;stroke-dasharray:1.0,2.0;" x1="1811.5" x2="2006.5" y1="565.5938" y2="565.5938"/><text fill="#000000" font-family="sans-serif" font-size="14" lengthAdjust="spacing" textLength="125" x="1816.5" y="582.5889">types.Context ctx;</text></g><!--class Context--><g id="elem_Context"><rect codeLine="40" fill="#F1F1F1" height="80.5938" id="Context" rx="2.5" ry="2.5" style="stroke:#181818;stroke-width:0.5;" width="226" x="1806" y="756.7969"/><ellipse cx="1887.75" cy="772.7969" fill="#F1F1F1" rx="11" ry="11" style="stroke:#181818;stroke-width:1.0;"/><path d="M1887.2344,773.3594 Q1885.375,772.6563 1884.7188,771.8906 Q1884.0781,771.1094 1884.0781,769.7969 Q1884.0781,768.1094 1885.1563,767.1406 Q1886.2344,766.1719 1888.1094,766.1719 Q1888.9688,766.1719 1889.8125,766.375 Q1890.6719,766.5625 1891.5156,766.9531 L1891.5156,769.3438 Q1890.7344,768.7813 1889.9063,768.5 Q1889.0938,768.2031 1888.2969,768.2031 Q1887.4219,768.2031 1886.9375,768.5625 Q1886.4688,768.9219 1886.4688,769.5781 Q1886.4688,770.0938 1886.8125,770.4375 Q1887.1563,770.7656 1888.25,771.1719 L1889.3125,771.5781 Q1890.7969,772.125 1891.5,773.0313 Q1892.2188,773.9375 1892.2188,775.3125 Q1892.2188,777.1875 1891.1094,778.1094 Q1890,779.0313 1887.75,779.0313 Q1886.8281,779.0313 1885.9063,778.8125 Q1884.9844,778.5938 1884.125,778.1719 L1884.125,775.6406 Q1885.0938,776.3281 1886.0156,776.6719 Q1886.9375,777.0156 1887.8281,777.0156 Q1888.7344,777.0156 1889.2344,776.6094 Q1889.7344,776.1875 1889.7344,775.4531 Q1889.7344,774.8906 1889.3906,774.4844 Q1889.0625,774.0625 1888.4375,773.8125 L1887.2344,773.3594 Z " fill="#000000"/><text fill="#000000" font-family="sans-serif" font-size="14" lengthAdjust="spacing" textLength="54" x="1908.25" y="777.6436">Context</text><line style="stroke:#181818;stroke-width:0.5;" x1="1807" x2="2031" y1="788.7969" y2="788.7969"/><text fill="#000000" font-family="sans-serif" font-size="14" lengthAdjust="spacing" textLength="99" x="1812" y="805.792">MultiStore ms;</text><line style="stroke:#181818;stroke-width:1.0;stroke-dasharray:1.0,2.0;" x1="1807" x2="2031" y1="813.0938" y2="813.0938"/><text fill="#000000" font-family="sans-serif" font-size="14" lengthAdjust="spacing" textLength="214" x="1812" y="830.0889">EventManager* eventManager;</text></g><!--class EventManager--><g id="elem_EventManager"><rect codeLine="46" fill="#F1F1F1" height="64.2969" id="EventManager" rx="2.5" ry="2.5" style="stroke:#181818;stroke-width:0.5;" width="131" x="1842.5" y="976.2969"/><ellipse cx="1857.5" cy="992.2969" fill="#F1F1F1" rx="11" ry="11" style="stroke:#181818;stroke-width:1.0;"/><path d="M1856.9844,992.8594 Q1855.125,992.1563 1854.4688,991.3906 Q1853.8281,990.6094 1853.8281,989.2969 Q1853.8281,987.6094 1854.9063,986.6406 Q1855.9844,985.6719 1857.8594,985.6719 Q1858.7188,985.6719 1859.5625,985.875 Q1860.4219,986.0625 1861.2656,986.4531 L1861.2656,988.8438 Q1860.4844,988.2813 1859.6563,988 Q1858.8438,987.7031 1858.0469,987.7031 Q1857.1719,987.7031 1856.6875,988.0625 Q1856.2188,988.4219 1856.2188,989.0781 Q1856.2188,989.5938 1856.5625,989.9375 Q1856.9063,990.2656 1858,990.6719 L1859.0625,991.0781 Q1860.5469,991.625 1861.25,992.5313 Q1861.9688,993.4375 1861.9688,994.8125 Q1861.9688,996.6875 1860.8594,997.6094 Q1859.75,998.5313 1857.5,998.5313 Q1856.5781,998.5313 1855.6563,998.3125 Q1854.7344,998.0938 1853.875,997.6719 L1853.875,995.1406 Q1854.8438,995.8281 1855.7656,996.1719 Q1856.6875,996.5156 1857.5781,996.5156 Q1858.4844,996.5156 1858.9844,996.1094 Q1859.4844,995.6875 1859.4844,994.9531 Q1859.4844,994.3906 1859.1406,993.9844 Q1858.8125,993.5625 1858.1875,993.3125 L1856.9844,992.8594 Z " fill="#000000"/><text fill="#000000" font-family="sans-serif" font-size="14" lengthAdjust="spacing" textLength="99" x="1871.5" y="997.1436">EventManager</text><line style="stroke:#181818;stroke-width:0.5;" x1="1843.5" x2="1972.5" y1="1008.2969" y2="1008.2969"/><text fill="#000000" font-family="sans-serif" font-size="14" lengthAdjust="spacing" textLength="100" x="1848.5" y="1025.292">[]Event events</text><line style="stroke:#181818;stroke-width:0.5;" x1="1843.5" x2="1972.5" y1="1032.5938" y2="1032.5938"/></g><!--class Snapshotter--><g id="elem_Snapshotter"><rect codeLine="54" fill="#F1F1F1" height="48" id="Snapshotter" rx="2.5" ry="2.5" style="stroke:#181818;stroke-width:0.5;" width="116" x="70" y="773.2969"/><ellipse cx="85" cy="789.2969" fill="#B4A7E5" rx="11" ry="11" style="stroke:#181818;stroke-width:1.0;"/><path d="M80.9219,785.0625 L80.9219,782.9063 L88.3125,782.9063 L88.3125,785.0625 L85.8438,785.0625 L85.8438,793.1406 L88.3125,793.1406 L88.3125,795.2969 L80.9219,795.2969 L80.9219,793.1406 L83.3906,793.1406 L83.3906,785.0625 L80.9219,785.0625 Z " fill="#000000"/><text fill="#000000" font-family="sans-serif" font-size="14" font-style="italic" lengthAdjust="spacing" textLength="84" x="99" y="794.1436">Snapshotter</text><line style="stroke:#181818;stroke-width:0.5;" x1="71" x2="185" y1="805.2969" y2="805.2969"/><line style="stroke:#181818;stroke-width:0.5;" x1="71" x2="185" y1="813.2969" y2="813.2969"/></g><!--class CacheWrap--><g id="elem_CacheWrap"><rect codeLine="61" fill="#F1F1F1" height="104.8906" id="CacheWrap" rx="2.5" ry="2.5" style="stroke:#181818;stroke-width:0.5;" width="442" x="1023" y="497.2969"/><ellipse cx="1199.75" cy="513.2969" fill="#B4A7E5" rx="11" ry="11" style="stroke:#181818;stroke-width:1.0;"/><path d="M1195.6719,509.0625 L1195.6719,506.9063 L1203.0625,506.9063 L1203.0625,509.0625 L1200.5938,509.0625 L1200.5938,517.1406 L1203.0625,517.1406 L1203.0625,519.2969 L1195.6719,519.2969 L1195.6719,517.1406 L1198.1406,517.1406 L1198.1406,509.0625 L1195.6719,509.0625 Z " fill="#000000"/><text fill="#000000" font-family="sans-serif" font-size="14" font-style="italic" lengthAdjust="spacing" textLength="80" x="1220.25" y="518.1436">CacheWrap</text><line style="stroke:#181818;stroke-width:0.5;" x1="1024" x2="1464" y1="529.2969" y2="529.2969"/><text fill="#000000" font-family="sans-serif" font-size="14" lengthAdjust="spacing" textLength="45" x="1029" y="546.292">Write()</text><line style="stroke:#181818;stroke-width:1.0;stroke-dasharray:1.0,2.0;" x1="1024" x2="1464" y1="553.5938" y2="553.5938"/><text fill="#000000" font-family="sans-serif" font-size="14" lengthAdjust="spacing" textLength="252" x="1029" y="570.5889">CacheWrap CacheWrap(); //&#36882;&#24402;wrap</text><line style="stroke:#181818;stroke-width:1.0;stroke-dasharray:1.0,2.0;" x1="1024" x2="1464" y1="577.8906" y2="577.8906"/><text fill="#000000" font-family="sans-serif" font-size="14" lengthAdjust="spacing" textLength="430" x="1029" y="594.8857">CacheWrap CacheWrapWithTrace(w io.Writer, tc TraceContext)</text></g><!--class CacheWrapper--><g id="elem_CacheWrapper"><rect codeLine="69" fill="#F1F1F1" height="80.5938" id="CacheWrapper" rx="2.5" ry="2.5" style="stroke:#181818;stroke-width:0.5;" width="442" x="1023" y="756.7969"/><ellipse cx="1188.25" cy="772.7969" fill="#B4A7E5" rx="11" ry="11" style="stroke:#181818;stroke-width:1.0;"/><path d="M1184.1719,768.5625 L1184.1719,766.4063 L1191.5625,766.4063 L1191.5625,768.5625 L1189.0938,768.5625 L1189.0938,776.6406 L1191.5625,776.6406 L1191.5625,778.7969 L1184.1719,778.7969 L1184.1719,776.6406 L1186.6406,776.6406 L1186.6406,768.5625 L1184.1719,768.5625 Z " fill="#000000"/><text fill="#000000" font-family="sans-serif" font-size="14" font-style="italic" lengthAdjust="spacing" textLength="103" x="1208.75" y="777.6436">CacheWrapper</text><line style="stroke:#181818;stroke-width:0.5;" x1="1024" x2="1464" y1="788.7969" y2="788.7969"/><text fill="#000000" font-family="sans-serif" font-size="14" lengthAdjust="spacing" textLength="172" x="1029" y="805.792">CacheWrap CacheWrap()</text><line style="stroke:#181818;stroke-width:1.0;stroke-dasharray:1.0,2.0;" x1="1024" x2="1464" y1="813.0938" y2="813.0938"/><text fill="#000000" font-family="sans-serif" font-size="14" lengthAdjust="spacing" textLength="430" x="1029" y="830.0889">CacheWrap CacheWrapWithTrace(w io.Writer, tc TraceContext)</text></g><g id="elem_StoreType"><path d="M798.5,727.7969 L798.5,866.8594 A0,0 0 0 0 798.5,866.8594 L987.5,866.8594 A0,0 0 0 0 987.5,866.8594 L987.5,866.8594 L1136.98,975.9669 L987.5,858.8594 L987.5,737.7969 L977.5,727.7969 L798.5,727.7969 A0,0 0 0 0 798.5,727.7969 " fill="#FEFFDD" style="stroke:#181818;stroke-width:0.5;"/><path d="M977.5,727.7969 L977.5,737.7969 L987.5,737.7969 L977.5,727.7969 " fill="#FEFFDD" style="stroke:#181818;stroke-width:0.5;"/><text fill="#000000" font-family="sans-serif" font-size="13" lengthAdjust="spacing" textLength="121" x="804.5" y="744.8638">StoreType &#30340;&#21462;&#20540;&#65306;</text><line style="stroke:#181818;stroke-width:1.0;" x1="799.5" x2="986.5" y1="747.9297" y2="747.9297"/><ellipse cx="810" cy="759.5625" fill="#000000" rx="2.5" ry="2.5" style="stroke:#000000;stroke-width:0.0;"/><text fill="#000000" font-family="sans-serif" font-size="13" lengthAdjust="spacing" textLength="122" x="816.5" y="763.9966">StoreTypeMulti = 0</text><ellipse cx="810" cy="774.6953" fill="#000000" rx="2.5" ry="2.5" style="stroke:#000000;stroke-width:0.0;"/><text fill="#000000" font-family="sans-serif" font-size="13" lengthAdjust="spacing" textLength="111" x="816.5" y="779.1294">StoreTypeDB = 1</text><ellipse cx="810" cy="789.8281" fill="#000000" rx="2.5" ry="2.5" style="stroke:#000000;stroke-width:0.0;"/><text fill="#000000" font-family="sans-serif" font-size="13" lengthAdjust="spacing" textLength="120" x="816.5" y="794.2622">StoreTypeIAVL = 2</text><ellipse cx="810" cy="804.9609" fill="#000000" rx="2.5" ry="2.5" style="stroke:#000000;stroke-width:0.0;"/><text fill="#000000" font-family="sans-serif" font-size="13" lengthAdjust="spacing" textLength="151" x="816.5" y="809.395">StoreTypeTransient = 3</text><ellipse cx="810" cy="820.0938" fill="#000000" rx="2.5" ry="2.5" style="stroke:#000000;stroke-width:0.0;"/><text fill="#000000" font-family="sans-serif" font-size="13" lengthAdjust="spacing" textLength="144" x="816.5" y="824.5278">StoreTypeMemory = 4</text><ellipse cx="810" cy="835.2266" fill="#000000" rx="2.5" ry="2.5" style="stroke:#000000;stroke-width:0.0;"/><text fill="#000000" font-family="sans-serif" font-size="13" lengthAdjust="spacing" textLength="119" x="816.5" y="839.6606">StoreTypeSMT = 5</text><ellipse cx="810" cy="850.3594" fill="#000000" rx="2.5" ry="2.5" style="stroke:#000000;stroke-width:0.0;"/><text fill="#000000" font-family="sans-serif" font-size="13" lengthAdjust="spacing" textLength="156" x="816.5" y="854.7935">StoreTypePersistent = 6</text></g><!--class Store--><g id="elem_Store"><rect codeLine="89" fill="#F1F1F1" height="64.2969" id="Store" rx="2.5" ry="2.5" style="stroke:#181818;stroke-width:0.5;" width="118" x="1121" y="976.2969"/><ellipse cx="1158.05" cy="992.2969" fill="#B4A7E5" rx="11" ry="11" style="stroke:#181818;stroke-width:1.0;"/><path d="M1153.9719,988.0625 L1153.9719,985.9063 L1161.3625,985.9063 L1161.3625,988.0625 L1158.8938,988.0625 L1158.8938,996.1406 L1161.3625,996.1406 L1161.3625,998.2969 L1153.9719,998.2969 L1153.9719,996.1406 L1156.4406,996.1406 L1156.4406,988.0625 L1153.9719,988.0625 Z " fill="#000000"/><text fill="#000000" font-family="sans-serif" font-size="14" font-style="italic" lengthAdjust="spacing" textLength="37" x="1176.95" y="997.1436">Store</text><line style="stroke:#181818;stroke-width:0.5;" x1="1122" x2="1238" y1="1008.2969" y2="1008.2969"/><line style="stroke:#181818;stroke-width:0.5;" x1="1122" x2="1238" y1="1016.2969" y2="1016.2969"/><text fill="#000000" font-family="sans-serif" font-size="14" lengthAdjust="spacing" textLength="106" x="1127" y="1033.292">GetStoreType()</text></g><!--class BasicKVStore--><g id="elem_BasicKVStore"><rect codeLine="95" fill="#F1F1F1" height="129.1875" id="BasicKVStore" rx="2.5" ry="2.5" style="stroke:#181818;stroke-width:0.5;" width="124" x="1341" y="943.7969"/><ellipse cx="1356" cy="959.7969" fill="#B4A7E5" rx="11" ry="11" style="stroke:#181818;stroke-width:1.0;"/><path d="M1351.9219,955.5625 L1351.9219,953.4063 L1359.3125,953.4063 L1359.3125,955.5625 L1356.8438,955.5625 L1356.8438,963.6406 L1359.3125,963.6406 L1359.3125,965.7969 L1351.9219,965.7969 L1351.9219,963.6406 L1354.3906,963.6406 L1354.3906,955.5625 L1351.9219,955.5625 Z " fill="#000000"/><text fill="#000000" font-family="sans-serif" font-size="14" font-style="italic" lengthAdjust="spacing" textLength="92" x="1370" y="964.6436">BasicKVStore</text><line style="stroke:#181818;stroke-width:0.5;" x1="1342" x2="1464" y1="975.7969" y2="975.7969"/><text fill="#000000" font-family="sans-serif" font-size="14" lengthAdjust="spacing" textLength="35" x="1347" y="992.792">Get()</text><line style="stroke:#181818;stroke-width:1.0;stroke-dasharray:1.0,2.0;" x1="1342" x2="1464" y1="1000.0938" y2="1000.0938"/><text fill="#000000" font-family="sans-serif" font-size="14" lengthAdjust="spacing" textLength="36" x="1347" y="1017.0889">Has()</text><line style="stroke:#181818;stroke-width:1.0;stroke-dasharray:1.0,2.0;" x1="1342" x2="1464" y1="1024.3906" y2="1024.3906"/><text fill="#000000" font-family="sans-serif" font-size="14" lengthAdjust="spacing" textLength="33" x="1347" y="1041.3857">Set()</text><line style="stroke:#181818;stroke-width:1.0;stroke-dasharray:1.0,2.0;" x1="1342" x2="1464" y1="1048.6875" y2="1048.6875"/><text fill="#000000" font-family="sans-serif" font-size="14" lengthAdjust="spacing" textLength="56" x="1347" y="1065.6826">Delete()</text></g><!--class Committer--><g id="elem_Committer"><rect codeLine="104" fill="#F1F1F1" height="80.5938" id="Committer" rx="2.5" ry="2.5" style="stroke:#181818;stroke-width:0.5;" width="188" x="798" y="967.7969"/><ellipse cx="851.75" cy="983.7969" fill="#B4A7E5" rx="11" ry="11" style="stroke:#181818;stroke-width:1.0;"/><path d="M847.6719,979.5625 L847.6719,977.4063 L855.0625,977.4063 L855.0625,979.5625 L852.5938,979.5625 L852.5938,987.6406 L855.0625,987.6406 L855.0625,989.7969 L847.6719,989.7969 L847.6719,987.6406 L850.1406,987.6406 L850.1406,979.5625 L847.6719,979.5625 Z " fill="#000000"/><text fill="#000000" font-family="sans-serif" font-size="14" font-style="italic" lengthAdjust="spacing" textLength="72" x="872.25" y="988.6436">Committer</text><line style="stroke:#181818;stroke-width:0.5;" x1="799" x2="985" y1="999.7969" y2="999.7969"/><text fill="#000000" font-family="sans-serif" font-size="14" lengthAdjust="spacing" textLength="134" x="804" y="1016.792">CommitID Commit()</text><line style="stroke:#181818;stroke-width:1.0;stroke-dasharray:1.0,2.0;" x1="799" x2="985" y1="1024.0938" y2="1024.0938"/><text fill="#000000" font-family="sans-serif" font-size="14" lengthAdjust="spacing" textLength="176" x="804" y="1041.0889">CommitID LastCommitID()</text></g><!--class MultiStore--><g id="elem_MultiStore"><rect codeLine="112" fill="#87CEEB" height="64.2969" id="MultiStore" rx="2.5" ry="2.5" style="stroke:#181818;stroke-width:0.5;" width="252" x="1054" y="1133.7969"/><ellipse cx="1141.25" cy="1149.7969" fill="#B4A7E5" rx="11" ry="11" style="stroke:#181818;stroke-width:1.0;"/><path d="M1137.1719,1145.5625 L1137.1719,1143.4063 L1144.5625,1143.4063 L1144.5625,1145.5625 L1142.0938,1145.5625 L1142.0938,1153.6406 L1144.5625,1153.6406 L1144.5625,1155.7969 L1137.1719,1155.7969 L1137.1719,1153.6406 L1139.6406,1153.6406 L1139.6406,1145.5625 L1137.1719,1145.5625 Z " fill="#000000"/><text fill="#000000" font-family="sans-serif" font-size="14" font-style="italic" lengthAdjust="spacing" textLength="69" x="1161.75" y="1154.6436">MultiStore</text><line style="stroke:#181818;stroke-width:0.5;" x1="1055" x2="1305" y1="1165.7969" y2="1165.7969"/><line style="stroke:#181818;stroke-width:0.5;" x1="1055" x2="1305" y1="1173.7969" y2="1173.7969"/><text fill="#000000" font-family="sans-serif" font-size="14" lengthAdjust="spacing" textLength="240" x="1060" y="1190.792">CacheMultiStore CacheMultiStore()</text></g><!--class KVStore--><g id="elem_KVStore"><rect codeLine="117" fill="#F1F1F1" height="64.2969" id="KVStore" rx="2.5" ry="2.5" style="stroke:#181818;stroke-width:0.5;" width="124" x="1341" y="1133.7969"/><ellipse cx="1372.2" cy="1149.7969" fill="#B4A7E5" rx="11" ry="11" style="stroke:#181818;stroke-width:1.0;"/><path d="M1368.1219,1145.5625 L1368.1219,1143.4063 L1375.5125,1143.4063 L1375.5125,1145.5625 L1373.0438,1145.5625 L1373.0438,1153.6406 L1375.5125,1153.6406 L1375.5125,1155.7969 L1368.1219,1155.7969 L1368.1219,1153.6406 L1370.5906,1153.6406 L1370.5906,1145.5625 L1368.1219,1145.5625 Z " fill="#000000"/><text fill="#000000" font-family="sans-serif" font-size="14" font-style="italic" lengthAdjust="spacing" textLength="56" x="1389.8" y="1154.6436">KVStore</text><line style="stroke:#181818;stroke-width:0.5;" x1="1342" x2="1464" y1="1165.7969" y2="1165.7969"/><line style="stroke:#181818;stroke-width:0.5;" x1="1342" x2="1464" y1="1173.7969" y2="1173.7969"/><text fill="#000000" font-family="sans-serif" font-size="14" lengthAdjust="spacing" textLength="112" x="1347" y="1190.792">Iterator Iterator()</text></g><!--class CommitStore--><g id="elem_CommitStore"><rect codeLine="123" fill="#F1F1F1" height="48" id="CommitStore" rx="2.5" ry="2.5" style="stroke:#181818;stroke-width:0.5;" width="122" x="897" y="1141.7969"/><ellipse cx="912" cy="1157.7969" fill="#B4A7E5" rx="11" ry="11" style="stroke:#181818;stroke-width:1.0;"/><path d="M907.9219,1153.5625 L907.9219,1151.4063 L915.3125,1151.4063 L915.3125,1153.5625 L912.8438,1153.5625 L912.8438,1161.6406 L915.3125,1161.6406 L915.3125,1163.7969 L907.9219,1163.7969 L907.9219,1161.6406 L910.3906,1161.6406 L910.3906,1153.5625 L907.9219,1153.5625 Z " fill="#000000"/><text fill="#000000" font-family="sans-serif" font-size="14" font-style="italic" lengthAdjust="spacing" textLength="90" x="926" y="1162.6436">CommitStore</text><line style="stroke:#181818;stroke-width:0.5;" x1="898" x2="1018" y1="1173.7969" y2="1173.7969"/><line style="stroke:#181818;stroke-width:0.5;" x1="898" x2="1018" y1="1181.7969" y2="1181.7969"/></g><!--class CacheMultiStore--><g id="elem_CacheMultiStore"><rect codeLine="129" fill="#F1F1F1" height="64.2969" id="CacheMultiStore" rx="2.5" ry="2.5" style="stroke:#181818;stroke-width:0.5;" width="145" x="988.5" y="1267.2969"/><ellipse cx="1003.5" cy="1283.2969" fill="#B4A7E5" rx="11" ry="11" style="stroke:#181818;stroke-width:1.0;"/><path d="M999.4219,1279.0625 L999.4219,1276.9063 L1006.8125,1276.9063 L1006.8125,1279.0625 L1004.3438,1279.0625 L1004.3438,1287.1406 L1006.8125,1287.1406 L1006.8125,1289.2969 L999.4219,1289.2969 L999.4219,1287.1406 L1001.8906,1287.1406 L1001.8906,1279.0625 L999.4219,1279.0625 Z " fill="#000000"/><text fill="#000000" font-family="sans-serif" font-size="14" font-style="italic" lengthAdjust="spacing" textLength="113" x="1017.5" y="1288.1436">CacheMultiStore</text><line style="stroke:#181818;stroke-width:0.5;" x1="989.5" x2="1132.5" y1="1299.2969" y2="1299.2969"/><line style="stroke:#181818;stroke-width:0.5;" x1="989.5" x2="1132.5" y1="1307.2969" y2="1307.2969"/><text fill="#000000" font-family="sans-serif" font-size="14" lengthAdjust="spacing" textLength="45" x="994.5" y="1324.292">Write()</text></g><!--class CommitMultiStore--><g id="elem_CommitMultiStore"><rect codeLine="136" fill="#32CD32" height="80.5938" id="CommitMultiStore" rx="2.5" ry="2.5" style="stroke:#181818;stroke-width:0.5;" width="155" x="798.5" y="1258.7969"/><ellipse cx="813.95" cy="1274.7969" fill="#B4A7E5" rx="11" ry="11" style="stroke:#181818;stroke-width:1.0;"/><path d="M809.8719,1270.5625 L809.8719,1268.4063 L817.2625,1268.4063 L817.2625,1270.5625 L814.7938,1270.5625 L814.7938,1278.6406 L817.2625,1278.6406 L817.2625,1280.7969 L809.8719,1280.7969 L809.8719,1278.6406 L812.3406,1278.6406 L812.3406,1270.5625 L809.8719,1270.5625 Z " fill="#000000"/><text fill="#000000" font-family="sans-serif" font-size="14" font-style="italic" lengthAdjust="spacing" textLength="122" x="828.05" y="1279.6436">CommitMultiStore</text><line style="stroke:#181818;stroke-width:0.5;" x1="799.5" x2="952.5" y1="1290.7969" y2="1290.7969"/><text fill="#000000" font-family="sans-serif" font-size="14" lengthAdjust="spacing" textLength="125" x="804.5" y="1307.792">GetCommitStore()</text><line style="stroke:#181818;stroke-width:1.0;stroke-dasharray:1.0,2.0;" x1="799.5" x2="952.5" y1="1315.0938" y2="1315.0938"/><text fill="#000000" font-family="sans-serif" font-size="14" lengthAdjust="spacing" textLength="143" x="804.5" y="1332.0889">GetCommitKVStore()</text></g><!--class CacheKVStore--><g id="elem_CacheKVStore"><rect codeLine="146" fill="#F1F1F1" height="64.2969" id="CacheKVStore" rx="2.5" ry="2.5" style="stroke:#181818;stroke-width:0.5;" width="132" x="1235" y="1267.2969"/><ellipse cx="1250" cy="1283.2969" fill="#B4A7E5" rx="11" ry="11" style="stroke:#181818;stroke-width:1.0;"/><path d="M1245.9219,1279.0625 L1245.9219,1276.9063 L1253.3125,1276.9063 L1253.3125,1279.0625 L1250.8438,1279.0625 L1250.8438,1287.1406 L1253.3125,1287.1406 L1253.3125,1289.2969 L1245.9219,1289.2969 L1245.9219,1287.1406 L1248.3906,1287.1406 L1248.3906,1279.0625 L1245.9219,1279.0625 Z " fill="#000000"/><text fill="#000000" font-family="sans-serif" font-size="14" font-style="italic" lengthAdjust="spacing" textLength="100" x="1264" y="1288.1436">CacheKVStore</text><line style="stroke:#181818;stroke-width:0.5;" x1="1236" x2="1366" y1="1299.2969" y2="1299.2969"/><line style="stroke:#181818;stroke-width:0.5;" x1="1236" x2="1366" y1="1307.2969" y2="1307.2969"/><text fill="#000000" font-family="sans-serif" font-size="14" lengthAdjust="spacing" textLength="45" x="1241" y="1324.292">Write()</text></g><!--class CommitKVStore--><g id="elem_CommitKVStore"><rect codeLine="151" fill="#F1F1F1" height="48" id="CommitKVStore" rx="2.5" ry="2.5" style="stroke:#181818;stroke-width:0.5;" width="141" x="1107.5" y="1431.7969"/><ellipse cx="1122.5" cy="1447.7969" fill="#B4A7E5" rx="11" ry="11" style="stroke:#181818;stroke-width:1.0;"/><path d="M1118.4219,1443.5625 L1118.4219,1441.4063 L1125.8125,1441.4063 L1125.8125,1443.5625 L1123.3438,1443.5625 L1123.3438,1451.6406 L1125.8125,1451.6406 L1125.8125,1453.7969 L1118.4219,1453.7969 L1118.4219,1451.6406 L1120.8906,1451.6406 L1120.8906,1443.5625 L1118.4219,1443.5625 Z " fill="#000000"/><text fill="#000000" font-family="sans-serif" font-size="14" font-style="italic" lengthAdjust="spacing" textLength="109" x="1136.5" y="1452.6436">CommitKVStore</text><line style="stroke:#181818;stroke-width:0.5;" x1="1108.5" x2="1247.5" y1="1463.7969" y2="1463.7969"/><line style="stroke:#181818;stroke-width:0.5;" x1="1108.5" x2="1247.5" y1="1471.7969" y2="1471.7969"/></g><!--class Store--><g id="elem_Store"><rect codeLine="158" fill="#F1F1F1" height="177.7813" id="Store" rx="2.5" ry="2.5" style="stroke:#181818;stroke-width:0.5;" width="260" x="1466" y="1594.7969"/><ellipse cx="1573.25" cy="1610.7969" fill="#F1F1F1" rx="11" ry="11" style="stroke:#181818;stroke-width:1.0;"/><path d="M1572.7344,1611.3594 Q1570.875,1610.6563 1570.2188,1609.8906 Q1569.5781,1609.1094 1569.5781,1607.7969 Q1569.5781,1606.1094 1570.6563,1605.1406 Q1571.7344,1604.1719 1573.6094,1604.1719 Q1574.4688,1604.1719 1575.3125,1604.375 Q1576.1719,1604.5625 1577.0156,1604.9531 L1577.0156,1607.3438 Q1576.2344,1606.7813 1575.4063,1606.5 Q1574.5938,1606.2031 1573.7969,1606.2031 Q1572.9219,1606.2031 1572.4375,1606.5625 Q1571.9688,1606.9219 1571.9688,1607.5781 Q1571.9688,1608.0938 1572.3125,1608.4375 Q1572.6563,1608.7656 1573.75,1609.1719 L1574.8125,1609.5781 Q1576.2969,1610.125 1577,1611.0313 Q1577.7188,1611.9375 1577.7188,1613.3125 Q1577.7188,1615.1875 1576.6094,1616.1094 Q1575.5,1617.0313 1573.25,1617.0313 Q1572.3281,1617.0313 1571.4063,1616.8125 Q1570.4844,1616.5938 1569.625,1616.1719 L1569.625,1613.6406 Q1570.5938,1614.3281 1571.5156,1614.6719 Q1572.4375,1615.0156 1573.3281,1615.0156 Q1574.2344,1615.0156 1574.7344,1614.6094 Q1575.2344,1614.1875 1575.2344,1613.4531 Q1575.2344,1612.8906 1574.8906,1612.4844 Q1574.5625,1612.0625 1573.9375,1611.8125 L1572.7344,1611.3594 Z " fill="#000000"/><text fill="#000000" font-family="sans-serif" font-size="14" lengthAdjust="spacing" textLength="37" x="1593.75" y="1615.6436">Store</text><line style="stroke:#181818;stroke-width:0.5;" x1="1467" x2="1725" y1="1626.7969" y2="1626.7969"/><text fill="#000000" font-family="sans-serif" font-size="14" lengthAdjust="spacing" textLength="78" x="1472" y="1643.792">sync.Mutex</text><line style="stroke:#181818;stroke-width:1.0;stroke-dasharray:1.0,2.0;" x1="1467" x2="1725" y1="1651.0938" y2="1651.0938"/><text fill="#000000" font-family="sans-serif" font-size="14" lengthAdjust="spacing" textLength="178" x="1472" y="1668.0889">map[string]*cValue cache</text><line style="stroke:#181818;stroke-width:1.0;stroke-dasharray:1.0,2.0;" x1="1467" x2="1725" y1="1675.3906" y2="1675.3906"/><text fill="#000000" font-family="sans-serif" font-size="14" lengthAdjust="spacing" textLength="194" x="1472" y="1692.3857">map[string]struct{} deleted</text><line style="stroke:#181818;stroke-width:1.0;stroke-dasharray:1.0,2.0;" x1="1467" x2="1725" y1="1699.6875" y2="1699.6875"/><text fill="#000000" font-family="sans-serif" font-size="14" lengthAdjust="spacing" textLength="248" x="1472" y="1716.6826">map[string]struct{} unsortedCache</text><line style="stroke:#181818;stroke-width:1.0;stroke-dasharray:1.0,2.0;" x1="1467" x2="1725" y1="1723.9844" y2="1723.9844"/><text fill="#000000" font-family="sans-serif" font-size="14" lengthAdjust="spacing" textLength="190" x="1472" y="1740.9795">internal.BTree sortedCache</text><line style="stroke:#181818;stroke-width:1.0;" x1="1467" x2="1725" y1="1748.2813" y2="1748.2813"/><text fill="#000000" font-family="sans-serif" font-size="14" lengthAdjust="spacing" textLength="151" x="1472" y="1765.2764">types.KVStore parent;</text></g><!--class Store--><g id="elem_Store"><rect codeLine="177" fill="#F1F1F1" height="104.8906" id="Store" rx="2.5" ry="2.5" style="stroke:#181818;stroke-width:0.5;" width="330" x="290" y="1631.2969"/><ellipse cx="432.25" cy="1647.2969" fill="#F1F1F1" rx="11" ry="11" style="stroke:#181818;stroke-width:1.0;"/><path d="M431.7344,1647.8594 Q429.875,1647.1563 429.2188,1646.3906 Q428.5781,1645.6094 428.5781,1644.2969 Q428.5781,1642.6094 429.6563,1641.6406 Q430.7344,1640.6719 432.6094,1640.6719 Q433.4688,1640.6719 434.3125,1640.875 Q435.1719,1641.0625 436.0156,1641.4531 L436.0156,1643.8438 Q435.2344,1643.2813 434.4063,1643 Q433.5938,1642.7031 432.7969,1642.7031 Q431.9219,1642.7031 431.4375,1643.0625 Q430.9688,1643.4219 430.9688,1644.0781 Q430.9688,1644.5938 431.3125,1644.9375 Q431.6563,1645.2656 432.75,1645.6719 L433.8125,1646.0781 Q435.2969,1646.625 436,1647.5313 Q436.7188,1648.4375 436.7188,1649.8125 Q436.7188,1651.6875 435.6094,1652.6094 Q434.5,1653.5313 432.25,1653.5313 Q431.3281,1653.5313 430.4063,1653.3125 Q429.4844,1653.0938 428.625,1652.6719 L428.625,1650.1406 Q429.5938,1650.8281 430.5156,1651.1719 Q431.4375,1651.5156 432.3281,1651.5156 Q433.2344,1651.5156 433.7344,1651.1094 Q434.2344,1650.6875 434.2344,1649.9531 Q434.2344,1649.3906 433.8906,1648.9844 Q433.5625,1648.5625 432.9375,1648.3125 L431.7344,1647.8594 Z " fill="#000000"/><text fill="#000000" font-family="sans-serif" font-size="14" lengthAdjust="spacing" textLength="37" x="452.75" y="1652.1436">Store</text><line style="stroke:#181818;stroke-width:0.5;" x1="291" x2="619" y1="1663.2969" y2="1663.2969"/><text fill="#000000" font-family="sans-serif" font-size="14" lengthAdjust="spacing" textLength="208" x="296" y="1680.292">store.types.CacheKVStore db;</text><line style="stroke:#181818;stroke-width:1.0;stroke-dasharray:1.0,2.0;" x1="291" x2="619" y1="1687.5938" y2="1687.5938"/><text fill="#000000" font-family="sans-serif" font-size="14" lengthAdjust="spacing" textLength="318" x="296" y="1704.5889">map[types.StoreKey]types.CacheWrap stores;</text><line style="stroke:#181818;stroke-width:1.0;stroke-dasharray:1.0,2.0;" x1="291" x2="619" y1="1711.8906" y2="1711.8906"/><text fill="#000000" font-family="sans-serif" font-size="14" lengthAdjust="spacing" textLength="224" x="296" y="1728.8857">map[string]types.StoreKey keys;</text></g><!--class Store--><g id="elem_Store"><rect codeLine="190" fill="#F1F1F1" height="80.5938" id="Store" rx="2.5" ry="2.5" style="stroke:#181818;stroke-width:0.5;" width="354" x="676" y="1643.2969"/><ellipse cx="830.25" cy="1659.2969" fill="#F1F1F1" rx="11" ry="11" style="stroke:#181818;stroke-width:1.0;"/><path d="M829.7344,1659.8594 Q827.875,1659.1563 827.2188,1658.3906 Q826.5781,1657.6094 826.5781,1656.2969 Q826.5781,1654.6094 827.6563,1653.6406 Q828.7344,1652.6719 830.6094,1652.6719 Q831.4688,1652.6719 832.3125,1652.875 Q833.1719,1653.0625 834.0156,1653.4531 L834.0156,1655.8438 Q833.2344,1655.2813 832.4063,1655 Q831.5938,1654.7031 830.7969,1654.7031 Q829.9219,1654.7031 829.4375,1655.0625 Q828.9688,1655.4219 828.9688,1656.0781 Q828.9688,1656.5938 829.3125,1656.9375 Q829.6563,1657.2656 830.75,1657.6719 L831.8125,1658.0781 Q833.2969,1658.625 834,1659.5313 Q834.7188,1660.4375 834.7188,1661.8125 Q834.7188,1663.6875 833.6094,1664.6094 Q832.5,1665.5313 830.25,1665.5313 Q829.3281,1665.5313 828.4063,1665.3125 Q827.4844,1665.0938 826.625,1664.6719 L826.625,1662.1406 Q827.5938,1662.8281 828.5156,1663.1719 Q829.4375,1663.5156 830.3281,1663.5156 Q831.2344,1663.5156 831.7344,1663.1094 Q832.2344,1662.6875 832.2344,1661.9531 Q832.2344,1661.3906 831.8906,1660.9844 Q831.5625,1660.5625 830.9375,1660.3125 L829.7344,1659.8594 Z " fill="#000000"/><text fill="#000000" font-family="sans-serif" font-size="14" lengthAdjust="spacing" textLength="37" x="850.75" y="1664.1436">Store</text><line style="stroke:#181818;stroke-width:0.5;" x1="677" x2="1029" y1="1675.2969" y2="1675.2969"/><text fill="#000000" font-family="sans-serif" font-size="14" lengthAdjust="spacing" textLength="78" x="682" y="1692.292">db dbm.DB</text><line style="stroke:#181818;stroke-width:1.0;stroke-dasharray:1.0,2.0;" x1="677" x2="1029" y1="1699.5938" y2="1699.5938"/><text fill="#000000" font-family="sans-serif" font-size="14" lengthAdjust="spacing" textLength="342" x="682" y="1716.5889">stores map[types.StoreKey]types.CommitKVStore</text></g><!--class CommitKVStoreCache--><g id="elem_CommitKVStoreCache"><rect codeLine="200" fill="#F1F1F1" height="64.2969" id="CommitKVStoreCache" rx="2.5" ry="2.5" style="stroke:#181818;stroke-width:0.5;" width="184" x="1086" y="1651.7969"/><ellipse cx="1101" cy="1667.7969" fill="#F1F1F1" rx="11" ry="11" style="stroke:#181818;stroke-width:1.0;"/><path d="M1100.4844,1668.3594 Q1098.625,1667.6563 1097.9688,1666.8906 Q1097.3281,1666.1094 1097.3281,1664.7969 Q1097.3281,1663.1094 1098.4063,1662.1406 Q1099.4844,1661.1719 1101.3594,1661.1719 Q1102.2188,1661.1719 1103.0625,1661.375 Q1103.9219,1661.5625 1104.7656,1661.9531 L1104.7656,1664.3438 Q1103.9844,1663.7813 1103.1563,1663.5 Q1102.3438,1663.2031 1101.5469,1663.2031 Q1100.6719,1663.2031 1100.1875,1663.5625 Q1099.7188,1663.9219 1099.7188,1664.5781 Q1099.7188,1665.0938 1100.0625,1665.4375 Q1100.4063,1665.7656 1101.5,1666.1719 L1102.5625,1666.5781 Q1104.0469,1667.125 1104.75,1668.0313 Q1105.4688,1668.9375 1105.4688,1670.3125 Q1105.4688,1672.1875 1104.3594,1673.1094 Q1103.25,1674.0313 1101,1674.0313 Q1100.0781,1674.0313 1099.1563,1673.8125 Q1098.2344,1673.5938 1097.375,1673.1719 L1097.375,1670.6406 Q1098.3438,1671.3281 1099.2656,1671.6719 Q1100.1875,1672.0156 1101.0781,1672.0156 Q1101.9844,1672.0156 1102.4844,1671.6094 Q1102.9844,1671.1875 1102.9844,1670.4531 Q1102.9844,1669.8906 1102.6406,1669.4844 Q1102.3125,1669.0625 1101.6875,1668.8125 L1100.4844,1668.3594 Z " fill="#000000"/><text fill="#000000" font-family="sans-serif" font-size="14" lengthAdjust="spacing" textLength="152" x="1115" y="1672.6436">CommitKVStoreCache</text><line style="stroke:#181818;stroke-width:0.5;" x1="1087" x2="1269" y1="1683.7969" y2="1683.7969"/><text fill="#000000" font-family="sans-serif" font-size="14" lengthAdjust="spacing" textLength="147" x="1092" y="1700.792">cache *lru.ARCCache</text><line style="stroke:#181818;stroke-width:0.5;" x1="1087" x2="1269" y1="1708.0938" y2="1708.0938"/></g><!--class Store--><g id="elem_Store"><rect codeLine="207" fill="#1E90FF" height="64.2969" id="Store" rx="2.5" ry="2.5" style="stroke:#181818;stroke-width:0.5;" width="84" x="1326" y="1651.7969"/><ellipse cx="1347.75" cy="1667.7969" fill="#F1F1F1" rx="11" ry="11" style="stroke:#181818;stroke-width:1.0;"/><path d="M1347.2344,1668.3594 Q1345.375,1667.6563 1344.7188,1666.8906 Q1344.0781,1666.1094 1344.0781,1664.7969 Q1344.0781,1663.1094 1345.1563,1662.1406 Q1346.2344,1661.1719 1348.1094,1661.1719 Q1348.9688,1661.1719 1349.8125,1661.375 Q1350.6719,1661.5625 1351.5156,1661.9531 L1351.5156,1664.3438 Q1350.7344,1663.7813 1349.9063,1663.5 Q1349.0938,1663.2031 1348.2969,1663.2031 Q1347.4219,1663.2031 1346.9375,1663.5625 Q1346.4688,1663.9219 1346.4688,1664.5781 Q1346.4688,1665.0938 1346.8125,1665.4375 Q1347.1563,1665.7656 1348.25,1666.1719 L1349.3125,1666.5781 Q1350.7969,1667.125 1351.5,1668.0313 Q1352.2188,1668.9375 1352.2188,1670.3125 Q1352.2188,1672.1875 1351.1094,1673.1094 Q1350,1674.0313 1347.75,1674.0313 Q1346.8281,1674.0313 1345.9063,1673.8125 Q1344.9844,1673.5938 1344.125,1673.1719 L1344.125,1670.6406 Q1345.0938,1671.3281 1346.0156,1671.6719 Q1346.9375,1672.0156 1347.8281,1672.0156 Q1348.7344,1672.0156 1349.2344,1671.6094 Q1349.7344,1671.1875 1349.7344,1670.4531 Q1349.7344,1669.8906 1349.3906,1669.4844 Q1349.0625,1669.0625 1348.4375,1668.8125 L1347.2344,1668.3594 Z " fill="#000000"/><text fill="#000000" font-family="sans-serif" font-size="14" lengthAdjust="spacing" textLength="37" x="1363.25" y="1672.6436">Store</text><line style="stroke:#181818;stroke-width:0.5;" x1="1327" x2="1409" y1="1683.7969" y2="1683.7969"/><text fill="#000000" font-family="sans-serif" font-size="14" lengthAdjust="spacing" textLength="72" x="1332" y="1700.792">tree   Tree</text><line style="stroke:#181818;stroke-width:0.5;" x1="1327" x2="1409" y1="1708.0938" y2="1708.0938"/></g><!--reverse link appStore to BaseApp--><g id="link_appStore_BaseApp"><path codeLine="26" d="M2020.52,331.7969 C1989.97,331.7969 1976.95,331.7969 1950.43,331.7969 " fill="none" id="appStore-backto-BaseApp" style="stroke:#181818;stroke-width:1.0;"/><polygon fill="none" points="2038.52,331.7969,2020.52,325.7969,2020.52,337.7969,2038.52,331.7969" style="stroke:#181818;stroke-width:1.0;"/><text fill="#000000" font-family="sans-serif" font-size="13" lengthAdjust="spacing" textLength="52" x="1968.5" y="324.8638">&#23884;&#20837;&#32487;&#25215;</text></g><!--link BaseApp to state--><g id="link_BaseApp_state"><path codeLine="34" d="M1885.4243,384.5452 C1891.0043,423.4352 1896.8874,464.4178 1902.4574,503.2178 " fill="none" id="BaseApp-state" style="stroke:#FF6347;stroke-width:1.0;"/><polygon fill="none" points="1883.72,372.6669,1880.6127,379.1742,1885.4243,384.5452,1888.5316,378.0379,1883.72,372.6669" style="stroke:#FF6347;stroke-width:1.0;"/><polygon fill="#FF6347" points="1903.31,509.1569,1905.9905,499.6798,1902.5995,504.2076,1898.0717,500.8166,1903.31,509.1569" style="stroke:#FF6347;stroke-width:1.0;"/></g><!--link Context to EventManager--><g id="link_Context_EventManager"><path codeLine="49" d="M1916.2784,850.0802 C1914.1684,890.1102 1911.9044,933.0551 1909.9744,969.8351 " fill="none" id="Context-EventManager" style="stroke:#181818;stroke-width:1.0;"/><polygon fill="none" points="1916.91,838.0969,1912.5997,843.878,1916.2784,850.0802,1920.5886,844.2991,1916.91,838.0969" style="stroke:#181818;stroke-width:1.0;"/><polygon fill="#181818" points="1909.66,975.8269,1914.1261,967.0488,1909.922,970.8337,1906.1371,966.6296,1909.66,975.8269" style="stroke:#181818;stroke-width:1.0;"/><text fill="#000000" font-family="sans-serif" font-size="13" lengthAdjust="spacing" textLength="122" x="1914" y="909.8638">eventManager &#23383;&#27573;</text></g><!--reverse link CacheWrap to CacheWrapper--><g id="link_CacheWrap_CacheWrapper"><path codeLine="74" d="M1244,608.5569 C1244,654.4269 1244,714.4269 1244,756.3269 " fill="none" id="CacheWrap-backto-CacheWrapper" style="stroke:#181818;stroke-width:1.0;stroke-dasharray:7.0,7.0;"/><polygon fill="#181818" points="1244,602.5569,1240,611.5569,1244,607.5569,1248,611.5569,1244,602.5569" style="stroke:#181818;stroke-width:1.0;"/><text fill="#000000" font-family="sans-serif" font-size="13" lengthAdjust="spacing" textLength="91" x="1267.5" y="645.3638">&#26681;&#25454;&#25509;&#21475;&#23450;&#20041;&#65292;</text><text fill="#000000" font-family="sans-serif" font-size="13" lengthAdjust="spacing" textLength="111" x="1257.5" y="660.4966">CacheWrap&#23454;&#38469;&#19978;</text><text fill="#000000" font-family="sans-serif" font-size="13" lengthAdjust="spacing" textLength="132" x="1249" y="675.6294">&#32487;&#25215;&#20102;CacheWrapper</text></g><!--reverse link CacheWrapper to Store--><g id="link_CacheWrapper_Store"><path codeLine="92" d="M1226.5388,855.3078 C1214.2788,895.3378 1200.9,939.0469 1189.64,975.8269 " fill="none" id="CacheWrapper-backto-Store" style="stroke:#181818;stroke-width:1.0;"/><polygon fill="none" points="1231.81,838.0969,1220.8019,853.5507,1232.2758,857.0648,1231.81,838.0969" style="stroke:#181818;stroke-width:1.0;"/></g><!--reverse link Store to MultiStore--><g id="link_Store_MultiStore"><path codeLine="115" d="M1180,1058.7669 C1180,1085.7469 1180,1106.4069 1180,1133.3769 " fill="none" id="Store-backto-MultiStore" style="stroke:#181818;stroke-width:1.0;"/><polygon fill="none" points="1180,1040.7669,1174,1058.7669,1186,1058.7669,1180,1040.7669" style="stroke:#181818;stroke-width:1.0;"/></g><!--reverse link Store to KVStore--><g id="link_Store_KVStore"><path codeLine="120" d="M1239.8946,1051.0628 C1278.5846,1078.0428 1319.27,1106.4069 1357.94,1133.3769 " fill="none" id="Store-backto-KVStore" style="stroke:#181818;stroke-width:1.0;"/><polygon fill="none" points="1225.13,1040.7669,1236.4626,1055.9843,1243.3266,1046.1413,1225.13,1040.7669" style="stroke:#181818;stroke-width:1.0;"/></g><!--reverse link BasicKVStore to KVStore--><g id="link_BasicKVStore_KVStore"><path codeLine="121" d="M1403,1090.9969 C1403,1111.7969 1403,1115.9869 1403,1133.3369 " fill="none" id="BasicKVStore-backto-KVStore" style="stroke:#181818;stroke-width:1.0;"/><polygon fill="none" points="1403,1072.9969,1397,1090.9969,1409,1090.9969,1403,1072.9969" style="stroke:#181818;stroke-width:1.0;"/></g><!--reverse link Committer to CommitStore--><g id="link_Committer_CommitStore"><path codeLine="124" d="M915.8612,1065.5068 C928.3112,1094.8468 937.81,1117.2169 948.18,1141.6469 " fill="none" id="Committer-backto-CommitStore" style="stroke:#181818;stroke-width:1.0;"/><polygon fill="none" points="908.83,1048.9369,910.3379,1067.8505,921.3845,1063.1631,908.83,1048.9369" style="stroke:#181818;stroke-width:1.0;"/></g><!--reverse link Store to CommitStore--><g id="link_Store_CommitStore"><path codeLine="125" d="M1120.3272,1051.0941 C1077.7572,1080.9141 1029.55,1114.6769 991.3,1141.4769 " fill="none" id="Store-backto-CommitStore" style="stroke:#181818;stroke-width:1.0;"/><polygon fill="none" points="1135.07,1040.7669,1116.8848,1046.1798,1123.7696,1056.0083,1135.07,1040.7669" style="stroke:#181818;stroke-width:1.0;"/></g><!--reverse link MultiStore to CacheMultiStore--><g id="link_MultiStore_CacheMultiStore"><path codeLine="132" d="M1139.4226,1211.6436 C1120.5826,1232.4636 1108.06,1246.2869 1089.27,1267.0569 " fill="none" id="MultiStore-backto-CacheMultiStore" style="stroke:#181818;stroke-width:1.0;"/><polygon fill="none" points="1151.5,1198.2969,1134.9736,1207.6178,1143.8715,1215.6694,1151.5,1198.2969" style="stroke:#181818;stroke-width:1.0;"/></g><!--reverse link MultiStore to CommitMultiStore--><g id="link_MultiStore_CommitMultiStore"><path codeLine="141" d="M1090.6595,1205.4434 C1044.3795,1225.4634 1001.02,1244.2169 953.8,1264.6369 " fill="none" id="MultiStore-backto-CommitMultiStore" style="stroke:#181818;stroke-width:1.0;"/><polygon fill="none" points="1107.18,1198.2969,1088.2773,1199.9366,1093.0417,1210.9502,1107.18,1198.2969" style="stroke:#181818;stroke-width:1.0;"/></g><!--reverse link Committer to CommitMultiStore--><g id="link_Committer_CommitMultiStore"><path codeLine="142" d="M863.1901,1065.4277 C855.6901,1081.6077 855.76,1084.4669 852,1102.7969 C841.08,1156.0569 852.99,1218.5769 863.57,1258.3069 " fill="none" id="Committer-backto-CommitMultiStore" style="stroke:#181818;stroke-width:1.0;"/><polygon fill="none" points="870.76,1049.0969,857.7465,1062.9044,868.6337,1067.951,870.76,1049.0969" style="stroke:#181818;stroke-width:1.0;"/></g><!--reverse link KVStore to CacheKVStore--><g id="link_KVStore_CacheKVStore"><path codeLine="149" d="M1367.5375,1212.5195 C1351.3875,1233.3395 1341.34,1246.2869 1325.23,1267.0569 " fill="none" id="KVStore-backto-CacheKVStore" style="stroke:#181818;stroke-width:1.0;"/><polygon fill="none" points="1378.57,1198.2969,1362.7966,1208.8421,1372.2784,1216.197,1378.57,1198.2969" style="stroke:#181818;stroke-width:1.0;"/></g><!--reverse link KVStore to CommitKVStore--><g id="link_KVStore_CommitKVStore"><path codeLine="153" d="M1409.4928,1215.9923 C1413.3028,1253.0123 1412.3,1297.1169 1384,1339.7969 C1352.71,1386.9869 1295.13,1416.7469 1248.79,1434.1469 " fill="none" id="KVStore-backto-CommitKVStore" style="stroke:#181818;stroke-width:1.0;"/><polygon fill="none" points="1407.65,1198.0869,1403.5243,1216.6066,1415.4613,1215.378,1407.65,1198.0869" style="stroke:#181818;stroke-width:1.0;"/></g><!--reverse link Committer to CommitKVStore--><g id="link_Committer_CommitKVStore"><path codeLine="154" d="M868.9426,1065.8934 C854.0126,1107.5934 845.48,1155.9269 879,1197.7969 C956.43,1294.5169 1067.14,1167.6069 1151,1258.7969 C1194.94,1306.5869 1188.72,1390.6369 1182.45,1431.3669 " fill="none" id="Committer-backto-CommitKVStore" style="stroke:#181818;stroke-width:2.0;"/><polygon fill="none" points="875.01,1048.9469,863.2937,1063.871,874.5914,1067.9159,875.01,1048.9469" style="stroke:#181818;stroke-width:2.0;"/></g><!--reverse link CacheKVStore to Store--><g id="link_CacheKVStore_Store"><path codeLine="173" d="M1336.1328,1345.8502 C1379.9628,1402.6802 1463.08,1510.4569 1527.96,1594.5769 " fill="none" id="CacheKVStore-backto-Store" style="stroke:#181818;stroke-width:1.0;"/><polygon fill="none" points="1325.14,1331.5969,1331.3817,1349.5145,1340.884,1342.1859,1325.14,1331.5969" style="stroke:#181818;stroke-width:1.0;"/><text fill="#000000" font-family="sans-serif" font-size="13" lengthAdjust="spacing" textLength="52" x="1455" y="1460.3638">&#23454;&#29616;&#25509;&#21475;</text></g><!--link Store to KVStore--><g id="link_Store_KVStore"><path codeLine="174" d="M1566.5596,1582.9187 C1551.7996,1534.5187 1535.84,1485.1769 1516,1431.7969 C1484.12,1346.0069 1442.5663,1252.9029 1420.0463,1203.6829 " fill="none" id="Store-KVStore" style="stroke:#000080;stroke-width:1.0;"/><polygon fill="none" points="1570.06,1594.3969,1572.1359,1587.491,1566.5596,1582.9187,1564.4838,1589.8246,1570.06,1594.3969" style="stroke:#000080;stroke-width:1.0;"/><polygon fill="#000080" points="1417.55,1198.2269,1417.6572,1208.0751,1419.6303,1202.7736,1424.9319,1204.7467,1417.55,1198.2269" style="stroke:#000080;stroke-width:1.0;"/><text fill="#000000" font-family="sans-serif" font-size="13" lengthAdjust="spacing" textLength="56" x="1512" y="1382.8638">&#32452;&#21512;&#27169;&#24335;;</text><text fill="#000000" font-family="sans-serif" font-size="13" lengthAdjust="spacing" textLength="68" x="1510" y="1397.9966">parent&#23383;&#27573;</text></g><!--reverse link CacheMultiStore to Store--><g id="link_CacheMultiStore_Store"><path codeLine="185" d="M979.1696,1338.0794 C970.8896,1341.2194 979.26,1337.6469 971,1339.7969 C834.89,1375.1669 787.9,1320.9969 656,1369.7969 C611.13,1386.3969 598.45,1394.8969 568,1431.7969 C518.42,1491.8769 486.16,1577.2069 469.27,1631.2769 " fill="none" id="CacheMultiStore-backto-Store" style="stroke:#181818;stroke-width:1.0;"/><polygon fill="none" points="996,1331.6969,977.0421,1332.4693,981.2971,1343.6896,996,1331.6969" style="stroke:#181818;stroke-width:1.0;"/><text fill="#000000" font-family="sans-serif" font-size="13" lengthAdjust="spacing" textLength="52" x="569" y="1460.3638">&#23454;&#29616;&#25509;&#21475;</text></g><!--link Store to CacheKVStore--><g id="link_Store_CacheKVStore"><path codeLine="186" d="M522.9941,1623.2615 C590.0741,1566.7015 695.96,1484.8669 809,1431.7969 C813.92,1429.4869 1095.7201,1354.6836 1228.8701,1319.4036 " fill="none" id="Store-CacheKVStore" style="stroke:#181818;stroke-width:1.0;"/><polygon fill="none" points="513.82,1630.9969,520.9855,1630.1872,522.9941,1623.2615,515.8286,1624.0712,513.82,1630.9969" style="stroke:#181818;stroke-width:1.0;"/><polygon fill="#181818" points="1234.67,1317.8669,1224.9457,1316.3054,1229.8368,1319.1475,1226.9947,1324.0386,1234.67,1317.8669" style="stroke:#181818;stroke-width:1.0;"/><text fill="#000000" font-family="sans-serif" font-size="13" lengthAdjust="spacing" textLength="46" x="810" y="1460.3638">db &#23383;&#27573;</text></g><!--reverse link CommitMultiStore to Store--><g id="link_CommitMultiStore_Store"><path codeLine="196" d="M872.5216,1358.1145 C868.1116,1431.5945 859.81,1569.6269 855.39,1643.0369 " fill="none" id="CommitMultiStore-backto-Store" style="stroke:#006400;stroke-width:2.0;"/><polygon fill="none" points="873.6,1340.1469,866.5324,1357.7551,878.5109,1358.474,873.6,1340.1469" style="stroke:#006400;stroke-width:2.0;"/><text fill="#000000" font-family="sans-serif" font-size="13" lengthAdjust="spacing" textLength="52" x="869" y="1460.3638">&#23454;&#29616;&#25509;&#21475;</text></g><!--link Store to CommitKVStore--><g id="link_Store_CommitKVStore"><path codeLine="197" d="M919.6805,1636.0649 C969.2905,1601.3349 1033.4,1556.5469 1098,1511.7969 C1112.96,1501.4269 1124.5949,1493.4249 1138.7549,1483.6949 " fill="none" id="Store-CommitKVStore" style="stroke:#181818;stroke-width:1.0;"/><polygon fill="none" points="909.85,1642.9469,917.0592,1642.7827,919.6805,1636.0649,912.4713,1636.2291,909.85,1642.9469" style="stroke:#181818;stroke-width:1.0;"/><polygon fill="#181818" points="1143.7,1480.2969,1134.0171,1482.0971,1139.5791,1483.1285,1138.5477,1488.6906,1143.7,1480.2969" style="stroke:#181818;stroke-width:1.0;"/><text fill="#000000" font-family="sans-serif" font-size="13" lengthAdjust="spacing" textLength="70" x="1099" y="1532.3638">stores &#23383;&#27573;</text></g><!--reverse link CommitKVStore to CommitKVStoreCache--><g id="link_CommitKVStore_CommitKVStoreCache"><path codeLine="204" d="M1178,1498.1269 C1178,1538.9569 1178,1605.3669 1178,1651.3169 " fill="none" id="CommitKVStore-backto-CommitKVStoreCache" style="stroke:#181818;stroke-width:2.0;"/><polygon fill="none" points="1178,1480.1269,1172,1498.1269,1184,1498.1269,1178,1480.1269" style="stroke:#181818;stroke-width:2.0;"/><text fill="#000000" font-family="sans-serif" font-size="13" lengthAdjust="spacing" textLength="52" x="1192" y="1524.8638">&#23884;&#20837;&#25509;&#21475;</text><text fill="#000000" font-family="sans-serif" font-size="13" lengthAdjust="spacing" textLength="78" x="1183" y="1539.9966">&#21363;&#32487;&#25215;&#20063;&#32452;&#21512;</text></g><!--reverse link CommitKVStore to Store--><g id="link_CommitKVStore_Store"><path codeLine="211" d="M1243.2327,1489.2868 C1258.0027,1497.8268 1257.88,1499.4469 1270,1511.7969 C1310.63,1553.1869 1340.42,1614.7269 1355.91,1651.5969 " fill="none" id="CommitKVStore-backto-Store" style="stroke:#4169E1;stroke-width:1.0;"/><polygon fill="none" points="1227.65,1480.2769,1240.2294,1494.481,1246.236,1484.0926,1227.65,1480.2769" style="stroke:#4169E1;stroke-width:1.0;"/><text fill="#000000" font-family="sans-serif" font-size="13" lengthAdjust="spacing" textLength="52" x="1296" y="1532.3638">&#23454;&#29616;&#25509;&#21475;</text></g><!--reverse link Snapshotter to CommitMultiStore--><g id="link_Snapshotter_CommitMultiStore"><path codeLine="215" d="M178.0346,831.7499 C296.3846,910.8599 666.95,1158.5569 816.22,1258.3369 " fill="none" id="Snapshotter-backto-CommitMultiStore" style="stroke:#181818;stroke-width:1.0;"/><polygon fill="none" points="163.07,821.7469,174.7003,836.7381,181.369,826.7616,163.07,821.7469" style="stroke:#181818;stroke-width:1.0;"/></g><!--link state to Context--><g id="link_state_Context"><path codeLine="216" d="M1911.1185,602.7769 C1912.9785,648.4269 1915.2657,704.6818 1917.1257,750.3318 " fill="none" id="state-Context" style="stroke:#FF6347;stroke-width:1.0;"/><polygon fill="none" points="1910.63,590.7869,1906.8776,596.9447,1911.1185,602.7769,1914.8709,596.6191,1910.63,590.7869" style="stroke:#FF6347;stroke-width:1.0;"/><polygon fill="#FF6347" points="1917.37,756.3269,1921.0003,747.1715,1917.1664,751.331,1913.0069,747.4972,1917.37,756.3269" style="stroke:#FF6347;stroke-width:1.0;"/><text fill="#000000" font-family="sans-serif" font-size="13" lengthAdjust="spacing" textLength="19" x="1915" y="660.3638">ctx</text></g><!--link appStore to CommitMultiStore--><g id="link_appStore_CommitMultiStore"><path codeLine="217" d="M2166.19,384.0885 C2153.81,427.0885 2140,486.3369 2140,548.7969 C2140,548.7969 2140,548.7969 2140,1166.7969 C2140,1297.0869 1097.67,1228.2969 971,1258.7969 C965.36,1260.1569 965.3188,1259.9605 959.5988,1261.8105 " fill="none" id="appStore-CommitMultiStore" style="stroke:#FF6347;stroke-width:2.0;"/><polygon fill="none" points="2169.51,372.5569,2164.0061,377.216,2166.19,384.0885,2171.6938,379.4293,2169.51,372.5569" style="stroke:#FF6347;stroke-width:2.0;"/><polygon fill="#FF6347" points="953.89,1263.6569,963.6842,1264.6932,958.6474,1262.1182,961.2223,1257.0814,953.89,1263.6569" style="stroke:#FF6347;stroke-width:2.0;"/><text fill="#000000" font-family="sans-serif" font-size="13" lengthAdjust="spacing" textLength="27" x="2141" y="909.8638">cms</text></g><!--link Context to MultiStore--><g id="link_Context_MultiStore"><path codeLine="218" d="M1856.4291,845.1677 C1776.7791,903.5077 1629.31,1005.5369 1482,1072.7969 C1426.16,1098.2869 1367.1513,1117.4816 1311.9413,1132.8116 " fill="none" id="Context-MultiStore" style="stroke:#FF6347;stroke-width:2.0;"/><polygon fill="none" points="1866.11,838.0769,1858.9059,838.3953,1856.4291,845.1677,1863.6332,844.8493,1866.11,838.0769" style="stroke:#FF6347;stroke-width:2.0;"/><polygon fill="#FF6347" points="1306.16,1134.4169,1315.9021,1135.8632,1310.9777,1133.0792,1313.7617,1128.1548,1306.16,1134.4169" style="stroke:#FF6347;stroke-width:2.0;"/><text fill="#000000" font-family="sans-serif" font-size="13" lengthAdjust="spacing" textLength="20" x="1709" y="1012.8638">ms</text></g><!--SRC=[nLXBRzj64BxhLooYWnt1OfhqSP1Y0xPSf8Rjeh04-w3gG5CRcv182joLOy4LO1HnqRIE7QIFj4xHD2YC-10RBe8KVgNvCwA4dF8NkhkaA2wv94MxG1SwYEJCxCmttyxEBW00O1NNOGeues0WpK35wTdEoM7MElp5-lgWz_J4sdhLsxlV- -lSUleF4uLwrL5aZxgiGTIG5JZG1nkkpS7NPHb1kT7mVAC3OREfO40-5B5XGf0k6PgC3PyK7TLbyjEawIbmumQm7krOkyVTduwx3u-iin-wE_lMxfy15OcCm4j5Gm1LQrB1q3GLppVhMBMd9cOrMTM9IpA6d5fRvF8KYMUIn1FkCJEK0SegL6f5-Zy_d8UENXNMrJLe2ZHvVtG3Gu2D1Z3kkau5etQT0DPl1q0pgkJFxi-Ty_tEoVVMvaNtoT-TDszxFnxa0gePO3RrqleyKIbGAr422_4YHLLhrlq8qp5EHZ3h7X2kulcqROSJeKHcu75lNIhU_Yhhufa3rkjjQsk_T_wY- -1jIiG7bZK12t2h0P5Ka4a6F6JJq91aSDGD7SDr31IyxgS2zzZtryYM7LvMiXC-HhS7yOvG29o5cKe95YsRNRna-ou58xvCc9-kGHtFoxgy0iqCW9wdo7WTNxpQ0eVA5IPWcqKHIwaVav4bg756SvnFm3fyqZrwdGfQOOWor4Hm8brke5K38qa4h4ecD-zIkQ8ZXpsCRGiDCfGtU522wGiWCfYA4NF9b1i2tEXOCbKCHwyBlmapoN1qZRh_Hg_dIOLzj_dOUlFu7dc-ii4b5Q-MJ1B2w3sW6XBpqnm3M07ihPFAeEFjeT1e28aK6jl_64seSHg2r6n84vxvSg3xnodPC-qDqphQwvm-U7-n_QK-aB6EVd_twrRdv3j0tjhrhdFsZTTgAeZW2BZMU_coSxBPEtjXFJlhFT-qPxWMa6G5LqQ0rOSIuISGGZJuJ9eFKkv9eNz_iISKpP8X_90PM64b2Oo33-84INin3cx6ISrCBiuHkLjnSYHtEb9fwHa77yRw23N3R179Z-8aY_Cb8lPndDWNq4GgmlRqdmIanTkVhn0vzKKqqns8tQb64pEJxAvPstmgFFUtNPa87ycUfogpYp6k9bsZdyaegKen-IoaBO5uEFGyHOfrhZYyGh7lCzFEdyJLgQy-9oFSVnZAnH76AM4X49KCAdYsxHSCZzlJLwIBjTPKlGcZQhH7tFSyL31k4vZrJ1p5msWApX0nqewPxf-aJZZc0o8S_Jd9M0g93GxenQn5YNecZH8Ry2AOxjZTs9F6P1rAEwenjNtcxQTIyP1vEJYdQl2E2Q4UNdKyg2HTXgwsayxBHUXpEYRP0eNu14NpVlZiS1psMexFIhWBqTDaUVquTCfuLLLgEaHe_5ObIhSTrf0hDApQcl2oW9raeg14BLsHvfka4Kp694rkb8bvLL-fP9H5cPPDviUbhTY-RhJfwPniNzMh6shgo329fK9olnWNTBakJPN8MWHnTaAxHVkWtMT7GpP9tvIFEptmzF8SzNcMEMcNx7SvG7hitiwnOCFZ1Sanj9p-N5vhZGs8TxD2pwQyipdIfz-t7dtRFNXkNUpcQUDk- -ySKwF8gB7E-79yfDyaGT3LvNnoIjXsc85PsAfupBAJ2viCvIzDDTuygC4MoiTKYz3a-gfireFaa2dsof8ikndbOCpHEyz-2aDoQ1e6la8AtKlLPBZQoOX8MsHL7G9b_rvBO2wdfsMpnlRRCQuEPmSWnAFl5-N0v_QIN3_A8HPHEFYSpKA8h4iBaAcRJMboeI2kNyC2n-sapB0ay2DTLtKeBHlrgdkzQGD6wuVry9LpzZzzPXUNC01KUQqUHxxqj55TWMP4nuvfxGQ0bl3_9cpgbfDZ5cXkmMZ9TUP123rybtY8RpryLtUIvuhEBW9PlXw6DLxERQjaNnVpzxJyNM-EtlO6zDphQROvsBhyUfY8T8IQrGPteFoKGzhah6dEJIVP6Vy5]--></g></svg>