<?xml version="1.0" encoding="us-ascii" standalone="no"?><svg xmlns="http://www.w3.org/2000/svg" xmlns:xlink="http://www.w3.org/1999/xlink" contentStyleType="text/css" height="1979px" preserveAspectRatio="none" style="width:1821px;height:1979px;background:#FFFFFF;" version="1.1" viewBox="0 0 1821 1979" width="1821px" zoomAndPan="magnify"><defs/><g><text fill="#000000" font-family="sans-serif" font-size="14" font-weight="bold" lengthAdjust="spacing" textLength="154" x="826.75" y="22.9951">&#35814;&#32454;&#30340;&#20849;&#35782;&#29366;&#24577;&#26426;&#36801;&#31227;&#22270;</text><text fill="#000000" font-family="sans-serif" font-size="14" font-weight="bold" lengthAdjust="spacing" textLength="305" x="751.25" y="39.292">RoundState  &#21363;&#27599;&#20010; Round &#37117;&#26377;&#19968;&#20010; State</text><g id="elem_readme"><path d="M1385.5,71.0938 L1385.5,119.3594 L1814.5,119.3594 L1814.5,81.0938 L1804.5,71.0938 L1385.5,71.0938 " fill="#FEFFDD" style="stroke:#181818;stroke-width:0.5;"/><path d="M1804.5,71.0938 L1804.5,81.0938 L1814.5,81.0938 L1804.5,71.0938 " fill="#FEFFDD" style="stroke:#181818;stroke-width:1.0;"/><text fill="#000000" font-family="sans-serif" font-size="13" lengthAdjust="spacing" textLength="289" x="1391.5" y="88.1606">&#32463;&#36807; 2/3+ Prevote &#25237;&#31080;&#30340; Block, &#26159; ValidBlock;</text><line style="stroke:#181818;stroke-width:1.0;stroke-dasharray:1.0,2.0;" x1="1386.5" x2="1813.5" y1="91.2266" y2="91.2266"/><text fill="#000000" font-family="sans-serif" font-size="13" lengthAdjust="spacing" textLength="408" x="1391.5" y="107.2935">&#32463;&#36807; 2/3+ Prevote &#25237;&#31080; &#24182;&#19988; &#25237;&#20102; Precommit &#21518;&#65292;&#26159; LockedBlock;</text></g><g id="RoundStepNewHeight"><rect fill="#F1F1F1" height="68.8906" rx="12.5" ry="12.5" style="stroke:#181818;stroke-width:0.5;" width="253" x="1498.5" y="1868.0938"/><line style="stroke:#181818;stroke-width:0.5;" x1="1498.5" x2="1751.5" y1="1894.3906" y2="1894.3906"/><text fill="#000000" font-family="sans-serif" font-size="14" lengthAdjust="spacing" textLength="153" x="1548.5" y="1886.0889">RoundStepNewHeight</text><text fill="#000000" font-family="sans-serif" font-size="16" font-weight="bold" lengthAdjust="spacing" textLength="11" x="1503.5" y="1914.2422">1</text><text fill="#000000" font-family="sans-serif" font-size="12" lengthAdjust="spacing" textLength="233" x="1503.5" y="1929.1543">Wait til CommitTime + timeoutCommit</text></g><g id="RoundStepNewRound"><rect fill="#F1F1F1" height="68.8906" rx="12.5" ry="12.5" style="stroke:#181818;stroke-width:0.5;" width="317" x="1181.5" y="222.5938"/><line style="stroke:#181818;stroke-width:0.5;" x1="1181.5" x2="1498.5" y1="248.8906" y2="248.8906"/><text fill="#000000" font-family="sans-serif" font-size="14" lengthAdjust="spacing" textLength="154" x="1263" y="240.5889">RoundStepNewRound</text><text fill="#000000" font-family="sans-serif" font-size="16" font-weight="bold" lengthAdjust="spacing" textLength="11" x="1186.5" y="268.7422">2</text><text fill="#000000" font-family="sans-serif" font-size="12" lengthAdjust="spacing" textLength="297" x="1186.5" y="283.6543">Setup new round and go to RoundStepPropose</text></g><g id="RoundStepPropose"><rect fill="#F1F1F1" height="68.8906" rx="12.5" ry="12.5" style="stroke:#181818;stroke-width:0.5;" width="204" x="913" y="515.5938"/><line style="stroke:#181818;stroke-width:0.5;" x1="913" x2="1117" y1="541.8906" y2="541.8906"/><text fill="#000000" font-family="sans-serif" font-size="14" lengthAdjust="spacing" textLength="136" x="947" y="533.5889">RoundStepPropose</text><text fill="#000000" font-family="sans-serif" font-size="16" font-weight="bold" lengthAdjust="spacing" textLength="11" x="918" y="561.7422">3</text><text fill="#000000" font-family="sans-serif" font-size="12" lengthAdjust="spacing" textLength="184" x="918" y="576.6543">Did propose, gossip proposal</text></g><g id="RoundStepPrevote"><rect fill="#F1F1F1" height="68.8906" rx="12.5" ry="12.5" style="stroke:#181818;stroke-width:0.5;" width="200" x="846" y="915.5938"/><line style="stroke:#181818;stroke-width:0.5;" x1="846" x2="1046" y1="941.8906" y2="941.8906"/><text fill="#000000" font-family="sans-serif" font-size="14" lengthAdjust="spacing" textLength="131" x="880.5" y="933.5889">RoundStepPrevote</text><text fill="#000000" font-family="sans-serif" font-size="16" font-weight="bold" lengthAdjust="spacing" textLength="11" x="851" y="961.7422">4</text><text fill="#000000" font-family="sans-serif" font-size="12" lengthAdjust="spacing" textLength="180" x="851" y="976.6543">Did prevote, gossip prevotes</text></g><g id="RoundStepPrevoteWait"><rect fill="#F1F1F1" height="68.8906" rx="12.5" ry="12.5" style="stroke:#181818;stroke-width:0.5;" width="298" x="59" y="1488.5938"/><line style="stroke:#181818;stroke-width:0.5;" x1="59" x2="357" y1="1514.8906" y2="1514.8906"/><text fill="#000000" font-family="sans-serif" font-size="14" lengthAdjust="spacing" textLength="160" x="128" y="1506.5889">RoundStepPrevoteWait</text><text fill="#000000" font-family="sans-serif" font-size="16" font-weight="bold" lengthAdjust="spacing" textLength="11" x="64" y="1534.7422">5</text><text fill="#000000" font-family="sans-serif" font-size="12" lengthAdjust="spacing" textLength="278" x="64" y="1549.6543">Did receive any +2/3 prevotes, start timeout</text></g><g id="RoundStepPrecommit"><rect fill="#F1F1F1" height="68.8906" rx="12.5" ry="12.5" style="stroke:#181818;stroke-width:0.5;" width="236" x="721" y="1488.5938"/><line style="stroke:#181818;stroke-width:0.5;" x1="721" x2="957" y1="1514.8906" y2="1514.8906"/><text fill="#000000" font-family="sans-serif" font-size="14" lengthAdjust="spacing" textLength="152" x="763" y="1506.5889">RoundStepPrecommit</text><text fill="#000000" font-family="sans-serif" font-size="16" font-weight="bold" lengthAdjust="spacing" textLength="11" x="726" y="1534.7422">6</text><text fill="#000000" font-family="sans-serif" font-size="12" lengthAdjust="spacing" textLength="216" x="726" y="1549.6543">Did precommit, gossip precommits</text></g><g id="RoundStepPrecommitWait"><rect fill="#B0C4DE" height="68.8906" rx="12.5" ry="12.5" style="stroke:#181818;stroke-width:0.5;" width="316" x="547" y="60.5938"/><line style="stroke:#181818;stroke-width:0.5;" x1="547" x2="863" y1="86.8906" y2="86.8906"/><text fill="#000000" font-family="sans-serif" font-size="14" lengthAdjust="spacing" textLength="181" x="614.5" y="78.5889">RoundStepPrecommitWait</text><text fill="#000000" font-family="sans-serif" font-size="16" font-weight="bold" lengthAdjust="spacing" textLength="11" x="552" y="106.7422">7</text><text fill="#000000" font-family="sans-serif" font-size="12" lengthAdjust="spacing" textLength="296" x="552" y="121.6543">Did receive any +2/3 precommits, start timeout</text></g><g id="elem_GMN10"><path d="M278,59.5938 L278,130.125 A0,0 0 0 0 278,130.125 L512,130.125 A0,0 0 0 0 512,130.125 L512,99.0938 L546.68,95.0938 L512,91.0938 L512,69.5938 L502,59.5938 L278,59.5938 A0,0 0 0 0 278,59.5938 " fill="#FEFFDD" style="stroke:#181818;stroke-width:0.5;"/><path d="M502,59.5938 L502,69.5938 L512,69.5938 L502,59.5938 " fill="#FEFFDD" style="stroke:#181818;stroke-width:0.5;"/><text fill="#000000" font-family="sans-serif" font-size="13" lengthAdjust="spacing" textLength="182" x="284" y="76.6606">&#23454;&#38469;&#20195;&#30721;&#20013;&#26410;&#20351;&#29992;&#36825;&#20010;&#29366;&#24577;&#20540;&#65292;</text><text fill="#000000" font-family="sans-serif" font-size="13" lengthAdjust="spacing" textLength="156" x="284" y="91.7935">&#32780;&#26159;&#20351;&#29992;&#20102;&#19968;&#20010;&#29420;&#31435;&#30340;&#21464;&#37327;</text><text fill="#000000" font-family="sans-serif" font-size="13" lengthAdjust="spacing" textLength="213" x="284" y="106.9263">bool TriggeredTimeoutPrecommit</text><text fill="#000000" font-family="sans-serif" font-size="13" lengthAdjust="spacing" textLength="65" x="284" y="122.0591">&#20195;&#26367;&#20102;&#23427;&#12290;</text></g><g id="RoundStepCommit"><rect fill="#F1F1F1" height="68.8906" rx="12.5" ry="12.5" style="stroke:#181818;stroke-width:0.5;" width="213" x="789.5" y="1868.0938"/><line style="stroke:#181818;stroke-width:0.5;" x1="789.5" x2="1002.5" y1="1894.3906" y2="1894.3906"/><text fill="#000000" font-family="sans-serif" font-size="14" lengthAdjust="spacing" textLength="131" x="830.5" y="1886.0889">RoundStepCommit</text><text fill="#000000" font-family="sans-serif" font-size="16" font-weight="bold" lengthAdjust="spacing" textLength="11" x="794.5" y="1914.2422">8</text><text fill="#000000" font-family="sans-serif" font-size="12" lengthAdjust="spacing" textLength="193" x="794.5" y="1929.1543">Entered commit state machine</text></g><ellipse cx="1340" cy="95.0938" fill="#222222" rx="10" ry="10" style="stroke:#222222;stroke-width:1.0;"/><g id="elem_RoundStepNewRound_2_RoundStepPropose"><path d="M940.5,352.5938 L940.5,454.2578 L1293.5,454.2578 L1293.5,362.5938 L1283.5,352.5938 L940.5,352.5938 " fill="#FEFFDD" style="stroke:#181818;stroke-width:0.5;"/><path d="M1283.5,352.5938 L1283.5,362.5938 L1293.5,362.5938 L1283.5,352.5938 " fill="#FEFFDD" style="stroke:#181818;stroke-width:1.0;"/><text fill="#000000" font-family="sans-serif" font-size="13" lengthAdjust="spacing" textLength="65" x="946.5" y="369.6606">&#36801;&#31227;&#26465;&#20214;&#65306;</text><text fill="#000000" font-family="sans-serif" font-size="13" lengthAdjust="spacing" textLength="65" x="946.5" y="384.7935">&#26080;&#26465;&#20214;&#36801;&#31227;</text><line style="stroke:#181818;stroke-width:1.0;" x1="941.5" x2="1292.5" y1="387.8594" y2="387.8594"/><line style="stroke:#181818;stroke-width:1.0;" x1="941.5" x2="1292.5" y1="389.8594" y2="389.8594"/><text fill="#000000" font-family="sans-serif" font-size="13" lengthAdjust="spacing" textLength="223" x="946.5" y="403.9263">&#36801;&#31227;&#26102;&#30340;Actions: enterPropose &#20989;&#25968;</text><text fill="#000000" font-family="sans-serif" font-size="13" lengthAdjust="spacing" textLength="12" x="946.5" y="419.0591">1.</text><text fill="#FF0000" font-family="sans-serif" font-size="13" lengthAdjust="spacing" textLength="312" x="962.5" y="419.0591">&#35774;&#32622;&#19968;&#20010;&#23450;&#26102;&#22120;&#65292; &#20294;&#36229;&#26102;&#30340;&#20986;&#21457;&#29366;&#24577;&#20026; enterPrevote</text><line style="stroke:#181818;stroke-width:1.0;stroke-dasharray:1.0,2.0;" x1="941.5" x2="1292.5" y1="426.125" y2="426.125"/><text fill="#000000" font-family="sans-serif" font-size="13" lengthAdjust="spacing" textLength="257" x="946.5" y="442.1919">2. &#22914;&#26524;&#26159; Proposer&#65292;&#29983;&#25104; Proposal &#24182;&#24191;&#25773;</text></g><g id="elem_RoundStepPropose_2_RoundStepPrevote"><path d="M804,645.5938 L804,854.9219 L1198,854.9219 L1198,655.5938 L1188,645.5938 L804,645.5938 " fill="#FEFFDD" style="stroke:#181818;stroke-width:0.5;"/><path d="M1188,645.5938 L1188,655.5938 L1198,655.5938 L1188,645.5938 " fill="#FEFFDD" style="stroke:#181818;stroke-width:1.0;"/><text fill="#000000" font-family="sans-serif" font-size="13" lengthAdjust="spacing" textLength="65" x="810" y="662.6606">&#36801;&#31227;&#26465;&#20214;&#65306;</text><line style="stroke:#181818;stroke-width:1.0;stroke-dasharray:1.0,2.0;" x1="805" x2="1197" y1="665.7266" y2="665.7266"/><text fill="#000000" font-family="sans-serif" font-size="13" lengthAdjust="spacing" textLength="251" x="810" y="681.7935">1. &#25910;&#20840;&#20102; BlockPart&#65292; &#24182;&#19988; &#25910;&#21040; Proposal</text><line style="stroke:#181818;stroke-width:1.0;stroke-dasharray:1.0,2.0;" x1="805" x2="1197" y1="688.8594" y2="688.8594"/><text fill="#000000" font-family="sans-serif" font-size="13" lengthAdjust="spacing" textLength="12" x="810" y="704.9263">2.</text><text fill="#FF0000" font-family="sans-serif" font-size="13" lengthAdjust="spacing" textLength="288" x="826" y="704.9263">&#36229;&#26102;&#65292; &#36229;&#26102;&#26465;&#20214;&#22312; RoundStepNewRound&#26102;&#35774;&#32622;</text><line style="stroke:#181818;stroke-width:1.0;" x1="805" x2="1197" y1="711.9922" y2="711.9922"/><line style="stroke:#181818;stroke-width:1.0;" x1="805" x2="1197" y1="713.9922" y2="713.9922"/><text fill="#000000" font-family="sans-serif" font-size="13" lengthAdjust="spacing" textLength="219" x="810" y="728.0591">&#36801;&#31227;&#26102;&#30340;Action:(enterPrevote &#20989;&#25968;)</text><text fill="#0000FF" font-family="sans-serif" font-size="13" lengthAdjust="spacing" textLength="133" x="810" y="743.1919">&#20197;&#19979;3&#20010;&#21482;&#26377;1&#20010;&#20250;&#25191;&#34892;</text><line style="stroke:#181818;stroke-width:1.0;stroke-dasharray:1.0,2.0;" x1="805" x2="1197" y1="750.2578" y2="750.2578"/><text fill="#000000" font-family="sans-serif" font-size="13" lengthAdjust="spacing" textLength="360" x="810" y="766.3247">1. cs.LockedBlock != nil, &#23545; LockedBlock &#36827;&#34892;Prevote&#25237;&#31080;</text><line style="stroke:#181818;stroke-width:1.0;stroke-dasharray:1.0,2.0;" x1="805" x2="1197" y1="773.3906" y2="773.3906"/><text fill="#000000" font-family="sans-serif" font-size="13" lengthAdjust="spacing" textLength="373" x="810" y="789.4575">2. &#22914;&#26524; ProposalBlock == nil &#25110;&#32773; ProposalBlock is invalid&#65292;</text><text fill="#000000" font-family="sans-serif" font-size="13" lengthAdjust="spacing" textLength="86" x="826" y="804.5903">&#21017; Prevote Nil</text><text fill="#000000" font-family="sans-serif" font-size="13" lengthAdjust="spacing" textLength="16" x="810" y="819.7231">&#160;&#160;&#160;&#160;</text><text fill="#FF0000" font-family="sans-serif" font-size="13" lengthAdjust="spacing" textLength="284" x="826" y="819.7231">&#36229;&#26102;&#65292;&#19988;&#26410;&#25910;&#21040; Proposal &#26102;&#65292;&#21017;&#20250;&#36208;&#21040;&#36825;&#20010;&#20998;&#25903;</text><line style="stroke:#181818;stroke-width:1.0;stroke-dasharray:1.0,2.0;" x1="805" x2="1197" y1="826.7891" y2="826.7891"/><text fill="#000000" font-family="sans-serif" font-size="13" lengthAdjust="spacing" textLength="158" x="810" y="842.856">3. Prevote ProposalBlock</text></g><g id="elem_RoundStepPrevote_2_RoundStepPrevoteWait"><path d="M268.5,1167.5938 L268.5,1277.2578 L535.5,1277.2578 L535.5,1177.5938 L525.5,1167.5938 L268.5,1167.5938 " fill="#FEFFDD" style="stroke:#181818;stroke-width:0.5;"/><path d="M525.5,1167.5938 L525.5,1177.5938 L535.5,1177.5938 L525.5,1167.5938 " fill="#FEFFDD" style="stroke:#181818;stroke-width:1.0;"/><text fill="#000000" font-family="sans-serif" font-size="13" lengthAdjust="spacing" textLength="65" x="274.5" y="1184.6606">&#36801;&#31227;&#26465;&#20214;&#65306;</text><line style="stroke:#181818;stroke-width:1.0;stroke-dasharray:1.0,2.0;" x1="269.5" x2="534.5" y1="1187.7266" y2="1187.7266"/><text fill="#000000" font-family="sans-serif" font-size="13" lengthAdjust="spacing" textLength="246" x="274.5" y="1203.7935">1. &#25910;&#21040;&#20102; +2/3 &#30340; Prevote, &#20294;&#26159;&#27809;&#26377;&#38024;&#23545;</text><text fill="#000000" font-family="sans-serif" font-size="13" lengthAdjust="spacing" textLength="133" x="290.5" y="1218.9263">&#21516;&#19968;&#20010; Block &#36798;&#25104;&#20849;&#35782;</text><line style="stroke:#181818;stroke-width:1.0;" x1="269.5" x2="534.5" y1="1225.9922" y2="1225.9922"/><line style="stroke:#181818;stroke-width:1.0;" x1="269.5" x2="534.5" y1="1227.9922" y2="1227.9922"/><text fill="#000000" font-family="sans-serif" font-size="13" lengthAdjust="spacing" textLength="246" x="274.5" y="1242.0591">&#36801;&#31227;&#26102;&#30340;Action:(enterPrevoteWait &#20989;&#25968;)</text><line style="stroke:#181818;stroke-width:1.0;stroke-dasharray:1.0,2.0;" x1="269.5" x2="534.5" y1="1249.125" y2="1249.125"/><text fill="#000000" font-family="sans-serif" font-size="13" lengthAdjust="spacing" textLength="120" x="274.5" y="1265.1919">1. &#35774;&#32622;&#20102;&#19968;&#20010;&#23450;&#26102;&#22120;</text></g><g id="elem_RoundStepPrevote_2_RoundStepPrecommit"><path d="M760.5,1045.5938 L760.5,1399.1172 L1113.5,1399.1172 L1113.5,1055.5938 L1103.5,1045.5938 L760.5,1045.5938 " fill="#FEFFDD" style="stroke:#181818;stroke-width:0.5;"/><path d="M1103.5,1045.5938 L1103.5,1055.5938 L1113.5,1055.5938 L1103.5,1045.5938 " fill="#FEFFDD" style="stroke:#181818;stroke-width:1.0;"/><text fill="#000000" font-family="sans-serif" font-size="13" lengthAdjust="spacing" textLength="65" x="766.5" y="1062.6606">&#36801;&#31227;&#26465;&#20214;&#65306;</text><line style="stroke:#181818;stroke-width:1.0;stroke-dasharray:1.0,2.0;" x1="761.5" x2="1112.5" y1="1065.7266" y2="1065.7266"/><text fill="#000000" font-family="sans-serif" font-size="13" lengthAdjust="spacing" textLength="251" x="766.5" y="1081.7935">1. &#25910;&#21040;&#20102; +2/3 &#30340; Prevote&#65292;&#19988;&#36798;&#25104;&#20102;&#20849;&#35782;</text><line style="stroke:#181818;stroke-width:1.0;" x1="761.5" x2="1112.5" y1="1088.8594" y2="1088.8594"/><line style="stroke:#181818;stroke-width:1.0;" x1="761.5" x2="1112.5" y1="1090.8594" y2="1090.8594"/><text fill="#000000" font-family="sans-serif" font-size="13" lengthAdjust="spacing" textLength="240" x="766.5" y="1104.9263">&#36801;&#31227;&#26102;&#30340;Action:(enterPrecommit &#20989;&#25968;)</text><text fill="#FF0000" font-family="sans-serif" font-size="13" lengthAdjust="spacing" textLength="133" x="766.5" y="1120.0591">&#20197;&#19979;5&#20010;&#21482;&#26377;1&#20010;&#20250;&#25191;&#34892;</text><line style="stroke:#181818;stroke-width:1.0;stroke-dasharray:1.0,2.0;" x1="761.5" x2="1112.5" y1="1127.125" y2="1127.125"/><text fill="#000000" font-family="sans-serif" font-size="13" lengthAdjust="spacing" textLength="332" x="766.5" y="1143.1919">1. &#22914;&#26524;&#24182;&#27809;&#26377;&#25910;&#21040;+2/3 &#30340; Prevote&#65292; &#21017; Precommit Nil</text><text fill="#000000" font-family="sans-serif" font-size="13" lengthAdjust="spacing" textLength="16" x="766.5" y="1158.3247">&#160;&#160;&#160;&#160;</text><text fill="#0000FF" font-family="sans-serif" font-size="13" lengthAdjust="spacing" textLength="247" x="782.5" y="1158.3247">&#22312;&#36825;&#20010;&#36801;&#31227;&#26465;&#20214;&#37324;&#65292;&#36825;&#20010;&#20107;&#20214;&#32943;&#23450;&#19981;&#20250;&#21457;&#29983;</text><line style="stroke:#181818;stroke-width:1.0;stroke-dasharray:1.0,2.0;" x1="761.5" x2="1112.5" y1="1165.3906" y2="1165.3906"/><text fill="#000000" font-family="sans-serif" font-size="13" lengthAdjust="spacing" textLength="177" x="766.5" y="1181.4575">2. if len(blockID.Hash) == 0</text><text fill="#000000" font-family="sans-serif" font-size="13" lengthAdjust="spacing" textLength="270" x="782.5" y="1196.5903">&#21017; Precommit Nil, &#21516;&#26102;&#20196; LockedBlock = nil</text><text fill="#000000" font-family="sans-serif" font-size="13" lengthAdjust="spacing" textLength="16" x="766.5" y="1211.7231">&#160;&#160;&#160;&#160;</text><text fill="#0000FF" font-family="sans-serif" font-size="13" lengthAdjust="spacing" textLength="272" x="782.5" y="1211.7231">&#36825;&#20010;&#26159;&#21487;&#33021;&#21457;&#29983;&#30340;&#65292;&#22823;&#23478;&#37117; Prevote Nil &#30340;&#24773;&#20917;</text><line style="stroke:#181818;stroke-width:1.0;stroke-dasharray:1.0,2.0;" x1="761.5" x2="1112.5" y1="1218.7891" y2="1218.7891"/><text fill="#000000" font-family="sans-serif" font-size="13" lengthAdjust="spacing" textLength="276" x="766.5" y="1234.856">3. &#26377; LockedBlock, &#19988;&#21644; Prevote &#30340;Block&#19968;&#33268;</text><text fill="#000000" font-family="sans-serif" font-size="13" lengthAdjust="spacing" textLength="170" x="782.5" y="1249.9888">&#21017; Precommit LockedBlock</text><line style="stroke:#181818;stroke-width:1.0;stroke-dasharray:1.0,2.0;" x1="761.5" x2="1112.5" y1="1257.0547" y2="1257.0547"/><text fill="#000000" font-family="sans-serif" font-size="13" lengthAdjust="spacing" textLength="252" x="766.5" y="1273.1216">4. ProposalBlock &#21644; Prevote &#30340;Block&#19968;&#33268;</text><text fill="#000000" font-family="sans-serif" font-size="13" lengthAdjust="spacing" textLength="193" x="782.5" y="1288.2544">&#21017; Precommit ProposalBlock&#65292;</text><text fill="#000000" font-family="sans-serif" font-size="13" lengthAdjust="spacing" textLength="230" x="782.5" y="1303.3872">&#21516;&#26102;&#20196; LockedBlock = ProposalBlock</text><line style="stroke:#181818;stroke-width:1.0;stroke-dasharray:1.0,2.0;" x1="761.5" x2="1112.5" y1="1310.4531" y2="1310.4531"/><text fill="#000000" font-family="sans-serif" font-size="13" lengthAdjust="spacing" textLength="265" x="766.5" y="1326.52">5. ProposalBlock &#21644; Prevote &#30340;Block&#19981;&#19968;&#33268;</text><text fill="#000000" font-family="sans-serif" font-size="13" lengthAdjust="spacing" textLength="107" x="782.5" y="1341.6528">&#21017; Precommit Nil</text><text fill="#000000" font-family="sans-serif" font-size="13" lengthAdjust="spacing" textLength="39" x="782.5" y="1356.7856">&#21516;&#26102;&#20196;</text><text fill="#000000" font-family="sans-serif" font-size="13" lengthAdjust="spacing" textLength="125" x="782.5" y="1371.9185">LockedBlock = nil&#65292;</text><text fill="#000000" font-family="sans-serif" font-size="13" lengthAdjust="spacing" textLength="122" x="782.5" y="1387.0513">ProposalBlock = nil</text></g><g id="elem_RoundStepPrevote_2_RoundStepNewRound"><path d="M1235,1464.5938 L1235,1581.3906 L1573,1581.3906 L1573,1474.5938 L1563,1464.5938 L1235,1464.5938 " fill="#FEFFDD" style="stroke:#181818;stroke-width:0.5;"/><path d="M1563,1464.5938 L1563,1474.5938 L1573,1474.5938 L1563,1464.5938 " fill="#FEFFDD" style="stroke:#181818;stroke-width:1.0;"/><text fill="#000000" font-family="sans-serif" font-size="13" lengthAdjust="spacing" textLength="65" x="1241" y="1481.6606">&#36801;&#31227;&#26465;&#20214;&#65306;</text><line style="stroke:#181818;stroke-width:1.0;stroke-dasharray:1.0,2.0;" x1="1236" x2="1572" y1="1484.7266" y2="1484.7266"/><text fill="#000000" font-family="sans-serif" font-size="13" lengthAdjust="spacing" textLength="287" x="1241" y="1500.7935">&#25237;&#31080;&#38024;&#23545;&#30340; Round &#20540;&#22823;&#20110;&#24403;&#21069;&#33410;&#28857;&#30340; Round&#20540;&#65292;</text><text fill="#000000" font-family="sans-serif" font-size="13" lengthAdjust="spacing" textLength="240" x="1241" y="1515.9263">&#19988; vote &#20195;&#34920;&#30340;&#25237;&#31080;&#37327;&#24050;&#32463;&#36798;&#21040;&#20102;&#160;2/3+&#65292;</text><text fill="#000000" font-family="sans-serif" font-size="13" lengthAdjust="spacing" textLength="317" x="1241" y="1531.0591">&#21017;&#35828;&#26126;&#25972;&#20010;&#21306;&#22359;&#38142;&#31995;&#32479;&#30340;&#20849;&#35782;&#24050;&#36827;&#20837;&#21040;&#20102;&#26032;&#30340; Round&#65292;</text><text fill="#000000" font-family="sans-serif" font-size="13" lengthAdjust="spacing" textLength="104" x="1241" y="1546.1919">&#26412;&#33410;&#28857;&#36824;&#27809;&#26377;&#36319;&#19978;</text><line style="stroke:#181818;stroke-width:1.0;" x1="1236" x2="1572" y1="1553.2578" y2="1553.2578"/><line style="stroke:#181818;stroke-width:1.0;" x1="1236" x2="1572" y1="1555.2578" y2="1555.2578"/><text fill="#000000" font-family="sans-serif" font-size="13" lengthAdjust="spacing" textLength="222" x="1241" y="1569.3247">&#36801;&#31227;&#21160;&#20316;&#65306;&#65288;enterNewRound &#20989;&#25968;&#65289;</text></g><g id="elem_RoundStepPrevoteWait_2_RoundStepPrecommit"><path d="M392,1460.5938 L392,1585.3906 L686,1585.3906 L686,1470.5938 L676,1460.5938 L392,1460.5938 " fill="#FEFFDD" style="stroke:#181818;stroke-width:0.5;"/><path d="M676,1460.5938 L676,1470.5938 L686,1470.5938 L676,1460.5938 " fill="#FEFFDD" style="stroke:#181818;stroke-width:1.0;"/><text fill="#000000" font-family="sans-serif" font-size="13" lengthAdjust="spacing" textLength="65" x="398" y="1477.6606">&#36801;&#31227;&#26465;&#20214;&#65306;</text><line style="stroke:#181818;stroke-width:1.0;stroke-dasharray:1.0,2.0;" x1="393" x2="685" y1="1480.7266" y2="1480.7266"/><text fill="#000000" font-family="sans-serif" font-size="13" lengthAdjust="spacing" textLength="12" x="398" y="1496.7935">1.</text><text fill="#FF0000" font-family="sans-serif" font-size="13" lengthAdjust="spacing" textLength="91" x="414" y="1496.7935">&#23450;&#26102;&#22120;&#36229;&#26102;&#36229;&#26102;</text><line style="stroke:#181818;stroke-width:1.0;" x1="393" x2="685" y1="1503.8594" y2="1503.8594"/><line style="stroke:#181818;stroke-width:1.0;" x1="393" x2="685" y1="1505.8594" y2="1505.8594"/><text fill="#000000" font-family="sans-serif" font-size="13" lengthAdjust="spacing" textLength="240" x="398" y="1519.9263">&#36801;&#31227;&#26102;&#30340;Action:(enterPrecommit &#20989;&#25968;)</text><text fill="#000000" font-family="sans-serif" font-size="13" lengthAdjust="spacing" textLength="229" x="398" y="1535.0591">&#21442;&#30475;&#21478;&#22806;&#30340; enterPrecommit &#20989;&#25968;&#32454;&#33410;</text><line style="stroke:#181818;stroke-width:1.0;stroke-dasharray:1.0,2.0;" x1="393" x2="685" y1="1542.125" y2="1542.125"/><text fill="#000000" font-family="sans-serif" font-size="13" lengthAdjust="spacing" textLength="273" x="398" y="1558.1919">1. &#22914;&#26524;&#20877;&#25509;&#25910;&#19968;&#20123;Prevote&#20173;&#26087;&#26080;&#27861;&#36798;&#25104;&#20849;&#35782;&#65292;</text><text fill="#000000" font-family="sans-serif" font-size="13" lengthAdjust="spacing" textLength="16" x="398" y="1573.3247">&#160;&#160;&#160;&#160;</text><text fill="#FF0000" font-family="sans-serif" font-size="13" lengthAdjust="spacing" textLength="120" x="414" y="1573.3247">&#21017;&#20250; Precommit Nil</text></g><g id="elem_RoundStepPrecommit_2_RoundStepPrecommitWait"><path d="M63,1650.0938 L63,1767.7578 L421,1767.7578 L421,1660.0938 L411,1650.0938 L63,1650.0938 " fill="#FEFFDD" style="stroke:#181818;stroke-width:0.5;"/><path d="M411,1650.0938 L411,1660.0938 L421,1660.0938 L411,1650.0938 " fill="#FEFFDD" style="stroke:#181818;stroke-width:1.0;"/><text fill="#000000" font-family="sans-serif" font-size="13" lengthAdjust="spacing" textLength="65" x="69" y="1667.1606">&#36801;&#31227;&#26465;&#20214;&#65306;</text><line style="stroke:#181818;stroke-width:1.0;stroke-dasharray:1.0,2.0;" x1="64" x2="420" y1="1670.2266" y2="1670.2266"/><text fill="#000000" font-family="sans-serif" font-size="13" lengthAdjust="spacing" textLength="214" x="69" y="1686.2935">1. Precommit &#36798;&#25104;&#30340;&#20849;&#35782;&#32467;&#26524;&#26159; Nil</text><line style="stroke:#181818;stroke-width:1.0;stroke-dasharray:1.0,2.0;" x1="64" x2="420" y1="1693.3594" y2="1693.3594"/><text fill="#000000" font-family="sans-serif" font-size="13" lengthAdjust="spacing" textLength="337" x="69" y="1709.4263">2. &#25910;&#21040;&#30340; Precommit &#24050;&#32463;&#36798;&#21040; 2/3+&#65292;&#20294;&#26159;&#27809;&#26377;&#36798;&#25104;&#20849;&#35782;</text><line style="stroke:#181818;stroke-width:1.0;" x1="64" x2="420" y1="1716.4922" y2="1716.4922"/><line style="stroke:#181818;stroke-width:1.0;" x1="64" x2="420" y1="1718.4922" y2="1718.4922"/><text fill="#000000" font-family="sans-serif" font-size="13" lengthAdjust="spacing" textLength="267" x="69" y="1732.5591">&#36801;&#31227;&#26102;&#30340;Action:(enterPrecommitWait &#20989;&#25968;)</text><line style="stroke:#181818;stroke-width:1.0;stroke-dasharray:1.0,2.0;" x1="64" x2="420" y1="1739.625" y2="1739.625"/><text fill="#000000" font-family="sans-serif" font-size="13" lengthAdjust="spacing" textLength="120" x="69" y="1755.6919">1. &#35774;&#32622;&#20102;&#19968;&#20010;&#23450;&#26102;&#22120;</text></g><g id="elem_RoundStepPrecommit_2_RoundStepCommit"><path d="M682.5,1646.5938 L682.5,1771.3906 L1013.5,1771.3906 L1013.5,1656.5938 L1003.5,1646.5938 L682.5,1646.5938 " fill="#FEFFDD" style="stroke:#181818;stroke-width:0.5;"/><path d="M1003.5,1646.5938 L1003.5,1656.5938 L1013.5,1656.5938 L1003.5,1646.5938 " fill="#FEFFDD" style="stroke:#181818;stroke-width:1.0;"/><text fill="#000000" font-family="sans-serif" font-size="13" lengthAdjust="spacing" textLength="65" x="688.5" y="1663.6606">&#36801;&#31227;&#26465;&#20214;&#65306;</text><line style="stroke:#181818;stroke-width:1.0;stroke-dasharray:1.0,2.0;" x1="683.5" x2="1012.5" y1="1666.7266" y2="1666.7266"/><text fill="#000000" font-family="sans-serif" font-size="13" lengthAdjust="spacing" textLength="310" x="688.5" y="1682.7935">1. Precommit &#36798;&#25104;&#20102;&#20849;&#35782;&#65292;&#19988;&#20849;&#35782;&#32467;&#26524;&#26159;&#19968;&#20010; Block</text><line style="stroke:#181818;stroke-width:1.0;" x1="683.5" x2="1012.5" y1="1689.8594" y2="1689.8594"/><line style="stroke:#181818;stroke-width:1.0;" x1="683.5" x2="1012.5" y1="1691.8594" y2="1691.8594"/><text fill="#000000" font-family="sans-serif" font-size="13" lengthAdjust="spacing" textLength="221" x="688.5" y="1705.9263">&#36801;&#31227;&#26102;&#30340;Action:(enterCommit &#20989;&#25968;)</text><line style="stroke:#181818;stroke-width:1.0;stroke-dasharray:1.0,2.0;" x1="683.5" x2="1012.5" y1="1712.9922" y2="1712.9922"/><text fill="#000000" font-family="sans-serif" font-size="13" lengthAdjust="spacing" textLength="68" x="688.5" y="1729.0591">1. &#23384;&#20648;&#21306;&#22359;</text><text fill="#000000" font-family="sans-serif" font-size="13" lengthAdjust="spacing" textLength="210" x="688.5" y="1744.1919">2. &#35843;&#29992; ABCI &#25509;&#21475;&#22788;&#29702;&#21306;&#22359;&#20013;&#30340;&#20107;&#21153;</text><text fill="#000000" font-family="sans-serif" font-size="13" lengthAdjust="spacing" textLength="4" x="688.5" y="1759.3247">&#160;</text></g><g id="elem_RoundStepCommit_2_RoundStepNewHeight"><path d="M1061,1832.5938 L1061,1972.5234 L1451,1972.5234 L1451,1842.5938 L1441,1832.5938 L1061,1832.5938 " fill="#FEFFDD" style="stroke:#181818;stroke-width:0.5;"/><path d="M1441,1832.5938 L1441,1842.5938 L1451,1842.5938 L1441,1832.5938 " fill="#FEFFDD" style="stroke:#181818;stroke-width:1.0;"/><text fill="#000000" font-family="sans-serif" font-size="13" lengthAdjust="spacing" textLength="65" x="1067" y="1849.6606">&#36801;&#31227;&#26465;&#20214;&#65306;</text><line style="stroke:#181818;stroke-width:1.0;stroke-dasharray:1.0,2.0;" x1="1062" x2="1450" y1="1852.7266" y2="1852.7266"/><text fill="#000000" font-family="sans-serif" font-size="13" lengthAdjust="spacing" textLength="65" x="1067" y="1868.7935">&#26080;&#26465;&#20214;&#36801;&#31227;</text><line style="stroke:#181818;stroke-width:1.0;" x1="1062" x2="1450" y1="1875.8594" y2="1875.8594"/><line style="stroke:#181818;stroke-width:1.0;" x1="1062" x2="1450" y1="1877.8594" y2="1877.8594"/><text fill="#000000" font-family="sans-serif" font-size="13" lengthAdjust="spacing" textLength="225" x="1067" y="1891.9263">&#36801;&#31227;&#26102;&#30340;Action: updateToState &#20989;&#25968;</text><text fill="#000000" font-family="sans-serif" font-size="13" lengthAdjust="spacing" textLength="152" x="1067" y="1907.0591">&#21644; scheduleRound0 &#20989;&#25968;</text><line style="stroke:#181818;stroke-width:1.0;stroke-dasharray:1.0,2.0;" x1="1062" x2="1450" y1="1914.125" y2="1914.125"/><text fill="#000000" font-family="sans-serif" font-size="13" lengthAdjust="spacing" textLength="210" x="1067" y="1930.1919">1. &#35774;&#32622;&#20102; StartTime&#65307; &#21306;&#22359;&#39640;&#24230;+1</text><text fill="#000000" font-family="sans-serif" font-size="13" lengthAdjust="spacing" textLength="242" x="1067" y="1945.3247">2. &#35774;&#32622;&#20102; validators, &#21253;&#21547;&#26032;&#30340; proposer</text><text fill="#000000" font-family="sans-serif" font-size="13" lengthAdjust="spacing" textLength="12" x="1067" y="1960.4575">3.</text><text fill="#FF0000" font-family="sans-serif" font-size="13" lengthAdjust="spacing" textLength="353" x="1083" y="1960.4575">&#35774;&#32622;&#20102;&#19968;&#20010;&#23450;&#26102;&#22120;&#65292; &#36229;&#26102;&#20986;&#21457;&#29366;&#24577;&#20026; RoundStepNewRound</text></g><!--link *start* to RoundStepNewRound--><g id="link_*start*_RoundStepNewRound"><path d="M1340,105.1537 C1340,127.3038 1340,179.0838 1340,216.3937 " fill="none" id="*start*-to-RoundStepNewRound" style="stroke:#181818;stroke-width:1.0;"/><polygon fill="#181818" points="1340,222.3937,1344,213.3937,1340,217.3937,1336,213.3937,1340,222.3937" style="stroke:#181818;stroke-width:1.0;"/><text fill="#000000" font-family="sans-serif" font-size="13" lengthAdjust="spacing" textLength="156" x="1341" y="181.1606">&#31995;&#32479;&#21551;&#21160;&#26102;&#65292;&#36827;&#20837;&#26032;&#30340;&#36718;&#27425;</text></g><!--link RoundStepNewRound to RoundStepNewRound_2_RoundStepPropose--><g id="link_RoundStepNewRound_RoundStepNewRound_2_RoundStepPropose"><path d="M1287.72,291.9738 C1260.04,309.9037 1230.535,329.0204 1199.785,348.9504 " fill="none" id="RoundStepNewRound-to-RoundStepNewRound_2_RoundStepPropose" style="stroke:#181818;stroke-width:1.0;"/><polygon fill="#181818" points="1194.75,352.2137,1204.478,350.6754,1198.9458,349.4943,1200.1269,343.9621,1194.75,352.2137" style="stroke:#181818;stroke-width:1.0;"/></g><!--link RoundStepNewRound_2_RoundStepPropose to RoundStepPropose--><g id="link_RoundStepNewRound_2_RoundStepPropose_RoundStepPropose"><path d="M1081.61,454.7238 C1067.46,474.7838 1054.9912,492.4427 1042.2512,510.4827 " fill="none" id="RoundStepNewRound_2_RoundStepPropose-to-RoundStepPropose" style="stroke:#181818;stroke-width:1.0;"/><polygon fill="#181818" points="1038.79,515.3838,1047.2491,510.3396,1041.6743,511.2995,1040.7144,505.7247,1038.79,515.3838" style="stroke:#181818;stroke-width:1.0;"/></g><!--link RoundStepPropose to RoundStepPropose_2_RoundStepPrevote--><g id="link_RoundStepPropose_RoundStepPropose_2_RoundStepPrevote"><path d="M1012.63,584.6837 C1011.42,601.6737 1010.3124,617.3286 1008.7624,639.2886 " fill="none" id="RoundStepPropose-to-RoundStepPropose_2_RoundStepPrevote" style="stroke:#181818;stroke-width:1.0;"/><polygon fill="#181818" points="1008.34,645.2738,1012.9637,636.5777,1008.692,640.2862,1004.9836,636.0145,1008.34,645.2738" style="stroke:#181818;stroke-width:1.0;"/></g><!--link RoundStepPropose_2_RoundStepPrevote to RoundStepPrevote--><g id="link_RoundStepPropose_2_RoundStepPrevote_RoundStepPrevote"><path d="M972.13,855.0238 C966.06,876.8738 961.6841,892.6122 956.9841,909.5522 " fill="none" id="RoundStepPropose_2_RoundStepPrevote-to-RoundStepPrevote" style="stroke:#181818;stroke-width:1.0;"/><polygon fill="#181818" points="955.38,915.3338,961.6406,907.7308,956.7168,910.5158,953.9318,905.592,955.38,915.3338" style="stroke:#181818;stroke-width:1.0;"/></g><!--link RoundStepPropose to RoundStepPropose--><g id="link_RoundStepPropose_RoundStepPropose"><path d="M1117.47,538.4237 C1137.64,539.7638 1152,543.6538 1152,550.0938 C1152,556.5338 1143.6268,560.026 1123.4568,561.366 " fill="none" id="RoundStepPropose-to-RoundStepPropose" style="stroke:#181818;stroke-width:1.0;"/><polygon fill="#181818" points="1117.47,561.7638,1126.7154,565.1583,1122.459,561.4323,1126.185,557.1759,1117.47,561.7638" style="stroke:#181818;stroke-width:1.0;"/><text fill="#000000" font-family="sans-serif" font-size="13" lengthAdjust="spacing" textLength="98" x="1195" y="539.6606">&#26410;&#25910;&#21040; Proposal</text><text fill="#000000" font-family="sans-serif" font-size="13" lengthAdjust="spacing" textLength="168" x="1162" y="554.7935">&#25110;&#32773;&#26410;&#25910;&#20840;&#25152;&#26377;&#30340; BlockPart</text><text fill="#000000" font-family="sans-serif" font-size="13" lengthAdjust="spacing" textLength="39" x="1228.5" y="569.9263">&#33258;&#24490;&#29615;</text></g><!--link RoundStepPrevote to RoundStepPrevote_2_RoundStepPrevoteWait--><g id="link_RoundStepPrevote_RoundStepPrevote_2_RoundStepPrevoteWait"><path d="M871.41,984.9338 C832.89,1002.6338 785.23,1024.8738 743,1045.5938 C662.4,1085.1338 577.4937,1129.0272 510.1037,1164.3672 " fill="none" id="RoundStepPrevote-to-RoundStepPrevote_2_RoundStepPrevoteWait" style="stroke:#181818;stroke-width:1.0;"/><polygon fill="#181818" points="504.79,1167.1538,514.6182,1166.5164,509.2181,1164.8316,510.9028,1159.4315,504.79,1167.1538" style="stroke:#181818;stroke-width:1.0;"/></g><!--link RoundStepPrevote_2_RoundStepPrevoteWait to RoundStepPrevoteWait--><g id="link_RoundStepPrevote_2_RoundStepPrevoteWait_RoundStepPrevoteWait"><path d="M366.64,1277.9938 C326.75,1339.3738 266.3792,1432.2626 233.1292,1483.4326 " fill="none" id="RoundStepPrevote_2_RoundStepPrevoteWait-to-RoundStepPrevoteWait" style="stroke:#181818;stroke-width:1.0;"/><polygon fill="#181818" points="229.86,1488.4638,238.1179,1483.0965,232.5843,1484.2711,231.4097,1478.7376,229.86,1488.4638" style="stroke:#181818;stroke-width:1.0;"/></g><!--link RoundStepPrevote to RoundStepPrevote_2_RoundStepPrecommit--><g id="link_RoundStepPrevote_RoundStepPrevote_2_RoundStepPrecommit"><path d="M944.87,985.0838 C944.32,1001.4638 943.8177,1016.497 943.0677,1039.247 " fill="none" id="RoundStepPrevote-to-RoundStepPrevote_2_RoundStepPrecommit" style="stroke:#181818;stroke-width:1.0;"/><polygon fill="#181818" points="942.87,1045.2438,947.1644,1036.3804,943.0347,1040.2465,939.1687,1036.1168,942.87,1045.2438" style="stroke:#181818;stroke-width:1.0;"/></g><!--link RoundStepPrevote_2_RoundStepPrecommit to RoundStepPrecommit--><g id="link_RoundStepPrevote_2_RoundStepPrecommit_RoundStepPrecommit"><path d="M879.14,1399.8238 C868.04,1433.6538 859.4325,1459.8634 851.9625,1482.6034 " fill="none" id="RoundStepPrevote_2_RoundStepPrecommit-to-RoundStepPrecommit" style="stroke:#181818;stroke-width:1.0;"/><polygon fill="#181818" points="850.09,1488.3038,856.699,1481.0016,851.6504,1483.5535,849.0986,1478.5049,850.09,1488.3038" style="stroke:#181818;stroke-width:1.0;"/></g><!--link RoundStepPrevote to RoundStepPrevote--><g id="link_RoundStepPrevote_RoundStepPrevote"><path d="M1046.38,938.3938 C1066.57,939.6837 1081,943.5838 1081,950.0938 C1081,956.6038 1072.5578,960.1212 1052.3678,961.4112 " fill="none" id="RoundStepPrevote-to-RoundStepPrevote" style="stroke:#181818;stroke-width:1.0;"/><polygon fill="#181818" points="1046.38,961.7938,1055.6167,965.2117,1051.3698,961.4749,1055.1066,957.228,1046.38,961.7938" style="stroke:#181818;stroke-width:1.0;"/><text fill="#000000" font-family="sans-serif" font-size="13" lengthAdjust="spacing" textLength="192" x="1087" y="947.1606">&#25910;&#21040;&#30340;Prevote&#19981;&#36275;&#20197;&#25913;&#21464;&#29366;&#24577;&#65307;</text><text fill="#000000" font-family="sans-serif" font-size="13" lengthAdjust="spacing" textLength="39" x="1163.5" y="962.2935">&#33258;&#24490;&#29615;</text></g><!--link RoundStepPrevote to RoundStepPrevote_2_RoundStepNewRound--><g id="link_RoundStepPrevote_RoundStepPrevote_2_RoundStepNewRound"><path d="M1037.4,984.9738 C1069.61,1000.0338 1104.39,1020.1938 1131,1045.5938 C1273.58,1181.6438 1252.72,1259.7737 1351,1430.5938 C1357.32,1441.5738 1361.0729,1448.0917 1367.5829,1459.3317 " fill="none" id="RoundStepPrevote-to-RoundStepPrevote_2_RoundStepNewRound" style="stroke:#FF0000;stroke-width:1.0;"/><polygon fill="#FF0000" points="1370.59,1464.5238,1369.5407,1454.731,1368.0841,1460.1971,1362.618,1458.7405,1370.59,1464.5238" style="stroke:#FF0000;stroke-width:1.0;"/></g><!--link RoundStepPrevote_2_RoundStepNewRound to RoundStepNewRound--><g id="link_RoundStepPrevote_2_RoundStepNewRound_RoundStepNewRound"><path d="M1395.64,1464.1738 C1387.71,1404.1338 1377,1307.5037 1377,1223.5938 C1377,402.5938 1377,402.5938 1377,402.5938 C1377,363.7538 1366.353,326.4516 1355.833,297.5616 " fill="none" id="RoundStepPrevote_2_RoundStepNewRound-to-RoundStepNewRound" style="stroke:#FF0000;stroke-width:1.0;"/><polygon fill="#FF0000" points="1353.78,291.9237,1353.1009,301.7492,1355.4908,296.622,1360.618,299.0119,1353.78,291.9237" style="stroke:#FF0000;stroke-width:1.0;"/></g><!--link RoundStepPrevoteWait to RoundStepPrevoteWait_2_RoundStepPrecommit--><g id="link_RoundStepPrevoteWait_RoundStepPrevoteWait_2_RoundStepPrecommit"><path d="M357.34,1523.0938 C368.81,1523.0938 374.28,1523.0938 385.75,1523.0938 " fill="none" id="RoundStepPrevoteWait-to-RoundStepPrevoteWait_2_RoundStepPrecommit" style="stroke:#181818;stroke-width:1.0;"/><polygon fill="#181818" points="391.75,1523.0938,382.75,1519.0938,386.75,1523.0938,382.75,1527.0938,391.75,1523.0938" style="stroke:#181818;stroke-width:1.0;"/></g><!--link RoundStepPrevoteWait_2_RoundStepPrecommit to RoundStepPrecommit--><g id="link_RoundStepPrevoteWait_2_RoundStepPrecommit_RoundStepPrecommit"><path d="M686.36,1523.0938 C697.79,1523.0938 703.22,1523.0938 714.65,1523.0938 " fill="none" id="RoundStepPrevoteWait_2_RoundStepPrecommit-to-RoundStepPrecommit" style="stroke:#181818;stroke-width:1.0;"/><polygon fill="#181818" points="720.65,1523.0938,711.65,1519.0938,715.65,1523.0938,711.65,1527.0938,720.65,1523.0938" style="stroke:#181818;stroke-width:1.0;"/></g><!--link RoundStepPrecommit to RoundStepPrecommit_2_RoundStepPrecommitWait--><g id="link_RoundStepPrecommit_RoundStepPrecommit_2_RoundStepPrecommitWait"><path d="M770.02,1557.9438 C748.82,1567.6238 725.21,1577.6838 703,1585.5938 C611.73,1618.1038 513.4157,1645.0479 427.2357,1666.2879 " fill="none" id="RoundStepPrecommit-to-RoundStepPrecommit_2_RoundStepPrecommitWait" style="stroke:#FF0000;stroke-width:1.0;"/><polygon fill="#FF0000" points="421.41,1667.7238,431.1057,1669.4538,426.2647,1666.5272,429.1913,1661.6863,421.41,1667.7238" style="stroke:#FF0000;stroke-width:1.0;"/></g><!--link RoundStepPrecommit_2_RoundStepPrecommitWait to RoundStepPrecommitWait--><g id="link_RoundStepPrecommit_2_RoundStepPrecommitWait_RoundStepPrecommitWait"><path d="M94.55,1649.7438 C46.84,1620.5638 6,1579.4238 6,1524.0938 C6,256.0938 6,256.0938 6,256.0938 C6,242.3138 334.7443,172.2185 540.9443,129.5885 " fill="none" id="RoundStepPrecommit_2_RoundStepPrecommitWait-to-RoundStepPrecommitWait" style="stroke:#FF0000;stroke-width:1.0;"/><polygon fill="#FF0000" points="546.82,128.3737,537.1965,126.2787,541.9235,129.386,538.8162,134.113,546.82,128.3737" style="stroke:#FF0000;stroke-width:1.0;"/></g><!--link RoundStepPrecommit to RoundStepPrecommit--><g id="link_RoundStepPrecommit_RoundStepPrecommit"><path d="M957.36,1506.7838 C977.81,1508.9837 992,1514.4238 992,1523.0938 C992,1531.7638 983.7756,1536.562 963.3256,1538.762 " fill="none" id="RoundStepPrecommit-to-RoundStepPrecommit" style="stroke:#181818;stroke-width:1.0;"/><polygon fill="#181818" points="957.36,1539.4038,966.7362,1542.4181,962.3313,1538.8689,965.8805,1534.464,957.36,1539.4038" style="stroke:#181818;stroke-width:1.0;"/><text fill="#000000" font-family="sans-serif" font-size="13" lengthAdjust="spacing" textLength="213" x="998" y="1520.1606">&#25910;&#21040;&#30340;Precommit&#19981;&#36275;&#20197;&#25913;&#21464;&#29366;&#24577;&#65307;</text><text fill="#000000" font-family="sans-serif" font-size="13" lengthAdjust="spacing" textLength="39" x="1085" y="1535.2935">&#33258;&#24490;&#29615;</text></g><!--link RoundStepPrecommitWait to RoundStepNewRound--><g id="link_RoundStepPrecommitWait_RoundStepNewRound"><path d="M839.67,130.0238 C947.34,157.1537 1091.7419,193.5375 1199.4319,220.6775 " fill="none" id="RoundStepPrecommitWait-to-RoundStepNewRound" style="stroke:#FF0000;stroke-width:1.0;"/><polygon fill="#FF0000" points="1205.25,222.1437,1197.5004,216.0656,1200.4016,220.9219,1195.5454,223.8231,1205.25,222.1437" style="stroke:#FF0000;stroke-width:1.0;"/><text fill="#000000" font-family="sans-serif" font-size="13" lengthAdjust="spacing" textLength="59" x="1103.5" y="173.6606">round++</text><text fill="#000000" font-family="sans-serif" font-size="13" lengthAdjust="spacing" textLength="104" x="1085" y="188.7935">&#37325;&#26032;&#24320;&#22987;&#26032;&#30340;&#36718;&#27425;</text></g><!--link RoundStepPrecommit to RoundStepPrecommit_2_RoundStepCommit--><g id="link_RoundStepPrecommit_RoundStepPrecommit_2_RoundStepCommit"><path d="M840.65,1557.8438 C841.86,1582.5338 843.2358,1610.741 844.6858,1640.281 " fill="none" id="RoundStepPrecommit-to-RoundStepPrecommit_2_RoundStepCommit" style="stroke:#181818;stroke-width:1.0;"/><polygon fill="#181818" points="844.98,1646.2738,848.5339,1637.0885,844.7349,1641.2798,840.5436,1637.4807,844.98,1646.2738" style="stroke:#181818;stroke-width:1.0;"/></g><!--link RoundStepPrecommit_2_RoundStepCommit to RoundStepCommit--><g id="link_RoundStepPrecommit_2_RoundStepCommit_RoundStepCommit"><path d="M863.52,1772.0038 C871.49,1803.8038 879.4317,1835.4937 886.0617,1861.9537 " fill="none" id="RoundStepPrecommit_2_RoundStepCommit-to-RoundStepCommit" style="stroke:#181818;stroke-width:1.0;"/><polygon fill="#181818" points="887.52,1867.7738,889.2126,1858.0714,886.3047,1862.9237,881.4525,1860.0158,887.52,1867.7738" style="stroke:#181818;stroke-width:1.0;"/></g><!--link RoundStepCommit to RoundStepCommit_2_RoundStepNewHeight--><g id="link_RoundStepCommit_RoundStepCommit_2_RoundStepNewHeight"><path d="M1002.88,1902.5938 C1022.16,1902.5938 1035.44,1902.5938 1054.72,1902.5938 " fill="none" id="RoundStepCommit-to-RoundStepCommit_2_RoundStepNewHeight" style="stroke:#181818;stroke-width:1.0;"/><polygon fill="#181818" points="1060.72,1902.5938,1051.72,1898.5938,1055.72,1902.5938,1051.72,1906.5938,1060.72,1902.5938" style="stroke:#181818;stroke-width:1.0;"/></g><!--link RoundStepCommit_2_RoundStepNewHeight to RoundStepNewHeight--><g id="link_RoundStepCommit_2_RoundStepNewHeight_RoundStepNewHeight"><path d="M1451.31,1902.5938 C1466.92,1902.5938 1476.52,1902.5938 1492.13,1902.5938 " fill="none" id="RoundStepCommit_2_RoundStepNewHeight-to-RoundStepNewHeight" style="stroke:#181818;stroke-width:1.0;"/><polygon fill="#181818" points="1498.13,1902.5938,1489.13,1898.5938,1493.13,1902.5938,1489.13,1906.5938,1498.13,1902.5938" style="stroke:#181818;stroke-width:1.0;"/></g><!--link RoundStepNewHeight to RoundStepNewRound--><g id="link_RoundStepNewHeight_RoundStepNewRound"><path d="M1625.28,1867.6938 C1625.58,1829.4238 1626,1765.2838 1626,1710.0938 C1626,402.5938 1626,402.5938 1626,402.5938 C1626,336.6737 1570.4732,302.5171 1504.6432,283.0271 " fill="none" id="RoundStepNewHeight-to-RoundStepNewRound" style="stroke:#0000FF;stroke-width:1.0;"/><polygon fill="#0000FF" points="1498.89,281.3238,1506.3842,287.7141,1503.6843,282.7432,1508.6553,280.0433,1498.89,281.3238" style="stroke:#0000FF;stroke-width:1.0;"/><text fill="#000000" font-family="sans-serif" font-size="13" lengthAdjust="spacing" textLength="65" x="1633.5" y="947.1606">&#23450;&#26102;&#22120;&#36229;&#26102;</text><text fill="#000000" font-family="sans-serif" font-size="13" lengthAdjust="spacing" textLength="78" x="1631" y="962.2935">&#36827;&#20837;&#26032;&#30340;&#36718;&#27425;</text></g><!--SRC=[jLbVRnD747_FfzYA5sX2IWYqLTeWGQW44aAeeFO143BE0QSwliXsG7qB2RRptoaO4X93Y0Wa2X2d18onuqJgL-djtUKfNw6pE-lptNdlx1WQ2UJRdPtvtSpiRsRt224aeIOY2caZui_AlpRBANFX0Kt-RULJvaJ16Bvlv4hMxdrpjKmNTsp9NxMXQF_bH2YX44AdjunyHY-kuoZP6wqOkN6zECo6k0nVfi0KjzV67wCQh0t5IKm9zGyuC9ZbZBMR9iU_wsudbsBANIPcJ3msNwq1Bd8ceeN_w236V9xy5ege_Vpv9tjn9_mreOdGpmMzc6LFUYd59iFQm82Q87HsPdzxYcc_07eLfte6dsD6-77-xi8Dok15vTuvHRrz9q6yBdBEzP1UqXKiy7i8O2JK2EdZYAweu9js61XGjA44Zla1uB-bsZ4kpFhnmFdBIc9ea4ILUoJ6HqBmxxP64bfD-b9C6zJYYXH3TQxEX9ZW2Bg3fi-g_MGGdph0SZok3ehdKCJ798-hJ2S6d9ay4JID9lcJmoH_ZhS5sMIHybNCmyXidsmamkn3_YdgNTWEqJz9E-Ih3Q23sOubgl7tWoEoLsfAp34itmSB24_WizCNE18FjivVvz05biOmhaJEH8QK07ksWtveBEJd8e5BwYI-LIFAhGJHRlbejWtJZUTxJvDw-QNvuhvUV6VarlNAhfbTitQV0eKX2zBXRM266bCECvP0CQ0G93jpygtvPfBHPsP-BvsfnUEcfaN8bPXw-xOIK_gl84uRYoq628p5NL17DqR_7HxnqexC_Nrk3Pvnxk0V0sP_YIOO8Y9o09KFXC9tr2W6JrYz-krrSlJeAIbfc5jbixn4P_DqOisOAu2NhDr5cdnbFDa4LrYL3UFjij3bvFqwLJUEt_1b4Yn0nhDblGm65knnO-u53gA0FTuBVzx5SmM0SpgSKBLel0Vy2czU9HwQhXYFD-q5NPtavx0MqM8zu9jJriQEMTd02DED1T13dwx1MnAzah8AITHBqoMQ-GjJHI-MgkgHPEJbwNWdeQz7ZESvLcu4aXZeDRDBnjYi60b5MAsYdtUDX-yy-I0dSMcK_5pRZA1Reqt_ybYAQRSQDqFxXTBb6uY0aItG9DjRMFClmGvdJgzMRfWTsxITvEjXPnnvh9WE_8KGQ6wjtWqmYr5lDg5w3hi2Zlbqn5uWKDm4IZobbr_fnSbkbaoPTUYJkk2NlhrWZAzQorE-tWZ7EnqT2VccbqJLI0UX-S_EJWMGBO8M0GDxdGR9PxiG5VHonSGOUs8D9prpQfoeqRkiwt8o8IVGiQTsXtLHZRZcP16020B9Uc98S0vqWJkiZvimXmHCnr96DYz_Z-vEsx0BRD1U2KfiIURALyi4FGh5QZ_Z4kl0fXA_N8kAU8Yvv9enFWoPO_V3R6ymAIkzJdVMpPcyx-xaa2JGNUNm83jqR9FjK5wG6PnBrKOAk15epNY_33Zt7ev1dheJPdPAd0z4tkxi0EVXgQErFSTR1U- -yo8ML5wjrpQR1sUBVt23FDcah5GlLz9se2XwMealZo5kKmmCQqbQZ4trO2LdHCOAI8Wd3qY8o5vG3J37y3qaxr3b9e73XvquCqCfGC9nEcylFSKx6ZQkboPPgp6IXyJHYzC0ajNyx98lnQgte0MD7hx9SlpysSvpeVYT8unYZydOiuQmW-qFSATUNd6nE-TcN_Y84NOTpUIjqGf20sSmJbrPfHi5E9SxMPevoXXDqjH7Nse5npe1mBOkPkd3ALiBQE0Ji9siz8U0bt8eaHixqUafDYsPSQceAr8-Fgsl6tNeJZQ7RheXG6_wrJ2vXkk2pXBP9U6fsdPYL4ciPGvpy4XJadKwmuux2Wa0MOdi4JG4dXH3u4khi0NCO6G_ms4A- -hzxSLhqHPgNDtLI5FaYDqJrYv6ATXUmp4GDfDUcg6LHtHysfeOCKTgqvv38cjK-Gl2mSvQPlTNGcawGp-zPzTJEpl8ll-yOBTKphMGDrR-Wp4_Opp-mAXngaIVpUqzsi7Jbdr51thmj8LwyCo5O9pQZDnRX6hjpYDXMf-MzE9449_3SKwlvC0_-zjZdCtjCmQI-VxskEnYJ1BpguU0vwyto3rNb9eH94AlvBmJd1kikdwTwkceOdOlWKqk_l_LoYNDZ9YvIPfvJLUUi01BnSro2eBSg6AcfeqPs5O5rWAL5glxhJnjpAsoq_JMOsSlvkLGvmlpFbt2RUu-gittwikdxscUZtobIG0boP82vwMgMcgCQq3GbxKBzV8ZSTvt5W9lrs2JeVDYsi4NH725iyV-iWRQSTlsFxNGrS18gQ0P_nz0Fj0AjjP-yEJ5p5EWSB3f4jKyICUb6hz_Rszdfxgzz3JGEjqUfgkJhZkrWoHqNsi4vyra-o20fmDFLZkFT0TCmZuvxzLnsBjvEhA6nT2vPQpDKJExHawVwJjFWDvevYLTUM3Efb1IBxu3Uz2zqudbjYOJjM6Azic9oK_GhR7w8KSUmRuw7VONeWFsCArTZ_QGeS7-K4Avek4NFenAhG5btMyyV4Vf7uee7E8nxmsgBskmxu4n_bKBjWeHNSsRULfwtTxb2gYzW5yuXH9QB0x7egaadNqZcXpndIZcFB3KNzlM4LNj0j1xPojlHNnIfQ- -qZGAMpE2nCC7OdcRp_T2817sdUMwtzsyfolXbqJrb_F_0G00]--></g></svg>